<svg xmlns="http://www.w3.org/2000/svg" xmlns:xlink="http://www.w3.org/1999/xlink" width="200" height="200" viewBox="0 0 200 200">
  <defs>
    <filter id="Rectángulo_33231" x="0" y="0" width="200" height="200" filterUnits="userSpaceOnUse">
      <feOffset dy="3" input="SourceAlpha"/>
      <feGaussianBlur stdDeviation="3" result="blur"/>
      <feFlood flood-opacity="0.161"/>
      <feComposite operator="in" in2="blur"/>
      <feComposite in="SourceGraphic"/>
    </filter>
  </defs>
  <g id="Grupo_79069" data-name="Grupo 79069" transform="translate(-279 -1494.719)">
    <g id="Grupo_78977" data-name="Grupo 78977" transform="translate(-82 572.855)">
      <g transform="matrix(1, 0, 0, 1, 361, 921.86)" filter="url(#Rectángulo_33231)">
        <path id="Rectángulo_33231-2" data-name="Rectángulo 33231" d="M0,0H91a91,91,0,0,1,91,91v0a91,91,0,0,1-91,91h0A91,91,0,0,1,0,91V0A0,0,0,0,1,0,0Z" transform="translate(9 6)" fill="#77cfd9"/>
      </g>
      <path id="Rectángulo_33228" data-name="Rectángulo 33228" d="M0,0H22.976a16,16,0,0,1,16,16v6.976a16,16,0,0,1-16,16H16a16,16,0,0,1-16-16V0A0,0,0,0,1,0,0Z" transform="translate(380 936.863)" fill="#419ca6"/>
    </g>
    <g id="information" transform="translate(332.39 1554.989)">
      <g id="Grupo_79008" data-name="Grupo 79008" transform="translate(0)">
        <g id="Grupo_79007" data-name="Grupo 79007">
          <path id="Trazado_140880" data-name="Trazado 140880" d="M230.671,85.993a7.145,7.145,0,1,0-7.145-7.145A7.153,7.153,0,0,0,230.671,85.993Zm0-11.453a4.309,4.309,0,1,1-4.309,4.309A4.313,4.313,0,0,1,230.671,74.539Z" transform="translate(-182.951 -58.145)" fill="#fff"/>
          <path id="Trazado_140881" data-name="Trazado 140881" d="M29.731,82.068A44.536,44.536,0,0,1,16.6,66.668,43.856,43.856,0,0,1,55.655,2.836,43.01,43.01,0,0,1,75.3,7.543a1.418,1.418,0,1,0,1.284-2.529A45.817,45.817,0,0,0,55.655,0,46.671,46.671,0,0,0,14.083,67.965,47.391,47.391,0,0,0,28.049,84.352a1.418,1.418,0,0,0,1.682-2.284Z" transform="translate(-8.941 0)" fill="#fff"/>
          <path id="Trazado_140882" data-name="Trazado 140882" d="M196.014,112.831a46.595,46.595,0,0,0-8.928-67.784,1.418,1.418,0,1,0-1.653,2.3,43.758,43.758,0,0,1,8.4,63.668,15.92,15.92,0,0,0-3.42,7.192,16.963,16.963,0,0,0,.228,8.313,2.853,2.853,0,0,1-.683,2.9,2.772,2.772,0,0,1-2.8.747,39.064,39.064,0,0,1-8.6-3.693,9.769,9.769,0,0,0-7.416-.99,44.061,44.061,0,0,1-11.564,1.417,43.186,43.186,0,0,1-19.838-5,1.418,1.418,0,1,0-1.32,2.511,46,46,0,0,0,21.129,5.325,46.908,46.908,0,0,0,12.309-1.509,6.951,6.951,0,0,1,5.277.7,41.938,41.938,0,0,0,9.234,3.963,5.758,5.758,0,0,0,1.6.23,5.572,5.572,0,0,0,4.018-1.724,5.72,5.72,0,0,0,1.351-5.742,13.708,13.708,0,0,1-.142-6.925A13.082,13.082,0,0,1,196.014,112.831Z" transform="translate(-113.323 -36.314)" fill="#fff"/>
          <path id="Trazado_140883" data-name="Trazado 140883" d="M183.8,203.092v1.423a4.92,4.92,0,0,0,4.914,4.914H208.2a4.92,4.92,0,0,0,4.914-4.914v-1.423a4.92,4.92,0,0,0-4.914-4.914h-2.6V170.939a4.833,4.833,0,0,0-6.733-4.445,21.435,21.435,0,0,1-7.385,1.7l-4.47.222A3.378,3.378,0,0,0,183.8,171.8v2.8a3.385,3.385,0,0,0,3.381,3.381H191.1a.209.209,0,0,1,.209.209v19.995h-2.6A4.92,4.92,0,0,0,183.8,203.092Zm8.93-2.078a1.418,1.418,0,0,0,1.418-1.418V178.183a3.048,3.048,0,0,0-3.045-3.045H187.18a.545.545,0,0,1-.545-.545v-2.8a.544.544,0,0,1,.518-.544l4.47-.222a24.262,24.262,0,0,0,8.359-1.929,2,2,0,0,1,2.782,1.837V199.6a1.418,1.418,0,0,0,1.418,1.418H208.2a2.081,2.081,0,0,1,2.078,2.078v1.423a2.081,2.081,0,0,1-2.078,2.078H188.713a2.081,2.081,0,0,1-2.078-2.078v-1.423a2.081,2.081,0,0,1,2.078-2.078Z" transform="translate(-150.735 -134.696)" fill="#fff"/>
        </g>
      </g>
    </g>
  </g>
</svg>
