<svg xmlns="http://www.w3.org/2000/svg" xmlns:xlink="http://www.w3.org/1999/xlink" width="200" height="200" viewBox="0 0 200 200">
  <defs>
    <filter id="Rectángulo_33231" x="0" y="0" width="200" height="200" filterUnits="userSpaceOnUse">
      <feOffset dy="3" input="SourceAlpha"/>
      <feGaussianBlur stdDeviation="3" result="blur"/>
      <feFlood flood-opacity="0.161"/>
      <feComposite operator="in" in2="blur"/>
      <feComposite in="SourceGraphic"/>
    </filter>
  </defs>
  <g id="Grupo_79071" data-name="Grupo 79071" transform="translate(-1131 -1494.719)">
    <g id="Grupo_78980" data-name="Grupo 78980" transform="translate(770 572.855)">
      <g transform="matrix(1, 0, 0, 1, 361, 921.86)" filter="url(#Rectángulo_33231)">
        <path id="Rectángulo_33231-2" data-name="Rectángulo 33231" d="M0,0H91a91,91,0,0,1,91,91v0a91,91,0,0,1-91,91h0A91,91,0,0,1,0,91V0A0,0,0,0,1,0,0Z" transform="translate(9 6)" fill="#77cfd9"/>
      </g>
      <path id="Rectángulo_33228" data-name="Rectángulo 33228" d="M0,0H22.976a16,16,0,0,1,16,16v6.976a16,16,0,0,1-16,16H16a16,16,0,0,1-16-16V0A0,0,0,0,1,0,0Z" transform="translate(380 936.863)" fill="#419ca6"/>
    </g>
    <g id="memoria" transform="translate(1184.69 1554.989)">
      <path id="Trazado_140884" data-name="Trazado 140884" d="M96.173,32.949a3.287,3.287,0,0,0-2.164-1.315L65.884,27.291V3.318A3.313,3.313,0,0,0,62.575.009H3.309A3.313,3.313,0,0,0,0,3.318v59.3A3.313,3.313,0,0,0,3.309,65.93H25.4L22.611,83.962a3.338,3.338,0,0,0,2.765,3.776l58.571,9.045a3.384,3.384,0,0,0,3.775-2.765l1.515-9.807a1.419,1.419,0,0,0-2.8-.433c-.191,1.235-1.072,10.35-2.054,10.2L25.809,84.935a.473.473,0,0,1-.4-.539l2.851-18.465h3.173L29.132,80.867a1.418,1.418,0,0,0,1.185,1.618l50.5,7.8A1.5,1.5,0,0,0,82.439,89.1l7.813-50.594a1.418,1.418,0,0,0-1.185-1.618l-23.184-3.58V30.161l27.692,4.277a.473.473,0,0,1,.4.539l-6.432,41.65a1.419,1.419,0,0,0,2.8.433l6.432-41.65a3.288,3.288,0,0,0-.6-2.461ZM2.836,62.621V3.318a.473.473,0,0,1,.473-.473H62.575a.473.473,0,0,1,.473.473v59.3a.473.473,0,0,1-.473.473H3.309A.473.473,0,0,1,2.836,62.621Zm84.4-23.147-7.38,47.791L32.152,79.9,34.309,65.93H62.575a3.313,3.313,0,0,0,3.309-3.309V36.177Z" transform="translate(0 -0.009)" fill="#fff"/>
      <path id="Trazado_140885" data-name="Trazado 140885" d="M84.107,31.455H33a1.418,1.418,0,0,0-1.418,1.418v7.089a1.419,1.419,0,0,0,2.836,0V34.291H82.688V82.648H34.422V47.5a1.419,1.419,0,0,0-2.836,0V84.067A1.418,1.418,0,0,0,33,85.485h51.1a1.418,1.418,0,0,0,1.418-1.418V32.873a1.418,1.418,0,0,0-1.418-1.418Z" transform="translate(-25.613 -25.509)" fill="#fff"/>
      <path id="Trazado_140886" data-name="Trazado 140886" d="M103.677,125.679a1.414,1.414,0,0,0,.544-.109,37.373,37.373,0,0,0,7.787-4.657c5.243-4.092,8.049-8.862,8.115-13.793.07-5.158-3.86-10.182-9.266-10.182a8.977,8.977,0,0,0-7.181,3.736A8.976,8.976,0,0,0,96.5,96.939c-5.109,0-9.266,4.559-9.266,10.163,0,11.873,15.264,18.209,15.913,18.473a1.414,1.414,0,0,0,.534.1ZM90.067,107.1c0-4.04,2.884-7.327,6.429-7.327a6.464,6.464,0,0,1,5.863,4.319,1.429,1.429,0,0,0,2.637,0,6.464,6.464,0,0,1,5.863-4.319c3.837,0,6.478,3.7,6.43,7.307-.118,8.778-11.044,14.419-13.618,15.626C101.078,121.522,90.067,115.956,90.067,107.1Z" transform="translate(-70.736 -78.611)" fill="#fff"/>
    </g>
  </g>
</svg>
