<?xml version="1.0" encoding="utf-8"?>
<!-- Generator: Adobe Illustrator 25.2.3, SVG Export Plug-In . SVG Version: 6.00 Build 0)  -->
<!DOCTYPE svg PUBLIC "-//W3C//DTD SVG 1.1//EN" "http://www.w3.org/Graphics/SVG/1.1/DTD/svg11.dtd" [
	<!ENTITY ns_extend "http://ns.adobe.com/Extensibility/1.0/">
	<!ENTITY ns_ai "http://ns.adobe.com/AdobeIllustrator/10.0/">
	<!ENTITY ns_graphs "http://ns.adobe.com/Graphs/1.0/">
	<!ENTITY ns_vars "http://ns.adobe.com/Variables/1.0/">
	<!ENTITY ns_imrep "http://ns.adobe.com/ImageReplacement/1.0/">
	<!ENTITY ns_sfw "http://ns.adobe.com/SaveForWeb/1.0/">
	<!ENTITY ns_custom "http://ns.adobe.com/GenericCustomNamespace/1.0/">
	<!ENTITY ns_adobe_xpath "http://ns.adobe.com/XPath/1.0/">
]>
<svg version="1.1" id="Capa_1" xmlns:x="&ns_extend;" xmlns:i="&ns_ai;" xmlns:graph="&ns_graphs;"
	 xmlns="http://www.w3.org/2000/svg" xmlns:xlink="http://www.w3.org/1999/xlink" x="0px" y="0px" viewBox="0 0 903 423"
	 style="enable-background:new 0 0 903 423;" xml:space="preserve">
<style type="text/css">
	.st0{fill:#FAD9C5;}
	.st1{fill:#77CFD9;}
	.st2{enable-background:new    ;}
	.st3{fill:#12263F;}
	.st4{fill:#F2884B;stroke:#FFFFFF;stroke-width:24;}
	.st5{fill:#043F45;}
	.st6{fill:none;stroke:#77CFD9;stroke-width:3;}
</style>
<metadata>
	<sfw  xmlns="&ns_sfw;">
		<slices></slices>
		<sliceSourceBounds  bottomLeftOrigin="true" height="421.6" width="897.5" x="5.5" y="1.3"></sliceSourceBounds>
	</sfw>
</metadata>
<g id="Grupo_79076" transform="translate(-307 -5486)">
	<g id="cf1_foda" transform="translate(223.41 5081.723)">
		<g id="Capa_2_1_">
			<g id="Rectángulo_5282" transform="translate(0 238.687)">
				<rect id="Rectángulo_5282-2" x="166.6" y="165.6" class="st0" width="400" height="161.3"/>
				<rect id="Rectángulo_5283" x="167.1" y="166.1" class="st0" width="399" height="160.3"/>
			</g>
			<g id="Rectángulo_5285">
				<rect id="Rectángulo_5284" x="166.6" y="587.6" class="st1" width="400" height="166.2"/>
				<rect id="Rectángulo_5285-2" x="167.1" y="588.1" class="st1" width="399" height="165.2"/>
			</g>
			<g id="Rectángulo_5283-2" transform="translate(0 238.687)">
				<rect id="Rectángulo_5286" x="586.6" y="165.6" class="st1" width="400" height="161.3"/>
				<rect id="Rectángulo_5287" x="587.1" y="166.1" class="st1" width="399" height="160.3"/>
			</g>
			<g id="Rectángulo_5284-2">
				<rect id="Rectángulo_5288" x="586.6" y="587.6" class="st0" width="400" height="166.2"/>
				<rect id="Rectángulo_5289" x="587.1" y="588.1" class="st0" width="399" height="165.2"/>
			</g>
			<g class="st2">
				<path class="st3" d="M239,475.2c-0.1,1.5-0.7,2.7-1.7,3.6s-2.4,1.3-4,1.3c-1.8,0-3.3-0.6-4.3-1.8s-1.6-2.9-1.6-5.1v-0.9
					c0-1.4,0.2-2.6,0.7-3.6s1.2-1.8,2.1-2.4s1.9-0.8,3.1-0.8c1.6,0,3,0.4,4,1.3s1.6,2.1,1.7,3.7h-2.9c-0.1-0.9-0.3-1.6-0.8-2
					s-1.1-0.6-2-0.6c-1,0-1.7,0.3-2.2,1s-0.7,1.8-0.7,3.3v1.1c0,1.5,0.2,2.7,0.7,3.4s1.2,1.1,2.2,1.1c0.9,0,1.6-0.2,2-0.6
					s0.7-1.1,0.8-1.9H239z"/>
				<path class="st3" d="M240.3,474.6c0-1,0.2-2,0.6-2.8s1-1.5,1.7-1.9s1.6-0.7,2.6-0.7c1.4,0,2.6,0.4,3.5,1.3s1.4,2.1,1.5,3.6
					l0,0.7c0,1.6-0.5,2.9-1.4,3.9s-2.1,1.5-3.6,1.5s-2.7-0.5-3.6-1.5s-1.4-2.3-1.4-4V474.6z M243.1,474.8c0,1,0.2,1.8,0.6,2.3
					s0.9,0.8,1.6,0.8c0.7,0,1.2-0.3,1.6-0.8c0.4-0.5,0.6-1.4,0.6-2.5c0-1-0.2-1.7-0.6-2.3s-0.9-0.8-1.6-0.8c-0.7,0-1.2,0.3-1.6,0.8
					S243.1,473.6,243.1,474.8z"/>
				<path class="st3" d="M254.7,469.4l0.1,1.2c0.7-0.9,1.8-1.4,3-1.4c1.4,0,2.3,0.5,2.8,1.6c0.7-1.1,1.8-1.6,3.2-1.6
					c1.1,0,2,0.3,2.6,1s0.8,1.7,0.8,3v6.7h-2.8v-6.7c0-0.6-0.1-1-0.4-1.3s-0.6-0.4-1.2-0.4c-0.8,0-1.4,0.4-1.8,1.2l0,7.3h-2.8v-6.7
					c0-0.6-0.1-1.1-0.4-1.3s-0.7-0.4-1.2-0.4c-0.8,0-1.4,0.3-1.7,1v7.5h-2.8v-10.6H254.7z"/>
				<path class="st3" d="M278.9,474.7c0,1.6-0.4,2.9-1.1,3.9s-1.7,1.5-3,1.5c-1.1,0-1.9-0.4-2.6-1.1v5h-2.8v-14.6h2.6l0.1,1
					c0.7-0.8,1.6-1.2,2.7-1.2c1.3,0,2.3,0.5,3,1.4s1.1,2.3,1.1,4V474.7z M276.1,474.5c0-1-0.2-1.7-0.5-2.3s-0.9-0.8-1.5-0.8
					c-0.9,0-1.5,0.3-1.8,1v4.3c0.3,0.7,1,1,1.8,1C275.4,477.9,276.1,476.7,276.1,474.5z"/>
				<path class="st3" d="M285.5,480.1c-1.5,0-2.8-0.5-3.8-1.4s-1.5-2.2-1.5-3.8v-0.3c0-1.1,0.2-2,0.6-2.8s1-1.5,1.7-1.9
					s1.6-0.7,2.6-0.7c1.4,0,2.6,0.5,3.4,1.4s1.2,2.2,1.2,3.9v1.2h-6.7c0.1,0.7,0.4,1.2,0.8,1.7s1,0.6,1.7,0.6c1.1,0,1.9-0.4,2.5-1.2
					l1.4,1.6c-0.4,0.6-1,1.1-1.7,1.4S286.4,480.1,285.5,480.1z M285.2,471.4c-0.6,0-1,0.2-1.4,0.6c-0.3,0.4-0.6,0.9-0.7,1.6h3.9
					v-0.2c0-0.6-0.2-1.1-0.5-1.5C286.2,471.6,285.8,471.4,285.2,471.4z"/>
				<path class="st3" d="M294.8,466.8v2.6h1.8v2.1h-1.8v5.3c0,0.4,0.1,0.7,0.2,0.8s0.4,0.3,0.9,0.3c0.3,0,0.6,0,0.8-0.1v2.1
					c-0.6,0.2-1.1,0.3-1.7,0.3c-2,0-3-1-3-3v-5.7h-1.5v-2.1h1.5v-2.6H294.8z"/>
				<path class="st3" d="M298.2,466.6c0-0.4,0.1-0.8,0.4-1s0.7-0.4,1.2-0.4c0.5,0,0.9,0.1,1.2,0.4s0.4,0.6,0.4,1
					c0,0.4-0.1,0.8-0.4,1.1s-0.7,0.4-1.1,0.4s-0.9-0.1-1.1-0.4S298.2,467.1,298.2,466.6z M301.2,479.9h-2.8v-10.6h2.8V479.9z"/>
				<path class="st3" d="M306.9,466.8v2.6h1.8v2.1h-1.8v5.3c0,0.4,0.1,0.7,0.2,0.8s0.4,0.3,0.9,0.3c0.3,0,0.6,0,0.8-0.1v2.1
					c-0.6,0.2-1.1,0.3-1.7,0.3c-2,0-3-1-3-3v-5.7h-1.5v-2.1h1.5v-2.6H306.9z"/>
				<path class="st3" d="M310.3,466.6c0-0.4,0.1-0.8,0.4-1s0.7-0.4,1.2-0.4c0.5,0,0.9,0.1,1.2,0.4s0.4,0.6,0.4,1
					c0,0.4-0.1,0.8-0.4,1.1s-0.7,0.4-1.1,0.4s-0.9-0.1-1.1-0.4S310.3,467.1,310.3,466.6z M313.3,479.9h-2.8v-10.6h2.8V479.9z"/>
				<path class="st3" d="M319.5,476.5l2-7.1h2.9l-3.6,10.6h-2.7l-3.6-10.6h2.9L319.5,476.5z"/>
				<path class="st3" d="M325.1,474.6c0-1,0.2-2,0.6-2.8s1-1.5,1.7-1.9s1.6-0.7,2.6-0.7c1.4,0,2.6,0.4,3.5,1.3s1.4,2.1,1.5,3.6
					l0,0.7c0,1.6-0.5,2.9-1.4,3.9s-2.1,1.5-3.6,1.5s-2.7-0.5-3.6-1.5s-1.4-2.3-1.4-4V474.6z M327.9,474.8c0,1,0.2,1.8,0.6,2.3
					s0.9,0.8,1.6,0.8c0.7,0,1.2-0.3,1.6-0.8c0.4-0.5,0.6-1.4,0.6-2.5c0-1-0.2-1.7-0.6-2.3s-0.9-0.8-1.6-0.8c-0.7,0-1.2,0.3-1.6,0.8
					S327.9,473.6,327.9,474.8z"/>
				<path class="st3" d="M342,474.2c0-1.5,0.2-2.9,0.6-4.3s1-2.5,1.8-3.6s1.6-1.8,2.5-2.2l0.5,1.5c-1,0.7-1.7,1.8-2.2,3.3
					s-0.8,3.2-0.8,5.2v0.3c0,2,0.3,3.7,0.8,5.2s1.3,2.6,2.2,3.3l-0.5,1.5c-0.9-0.4-1.7-1.1-2.5-2.1s-1.3-2.2-1.8-3.5
					s-0.6-2.7-0.6-4.1V474.2z"/>
				<path class="st3" d="M352,477.6h6.2v2.4H349v-14.2h2.9V477.6z"/>
				<path class="st3" d="M359.2,474.6c0-1,0.2-2,0.6-2.8s1-1.5,1.7-1.9s1.6-0.7,2.6-0.7c1.4,0,2.6,0.4,3.5,1.3s1.4,2.1,1.5,3.6
					l0,0.7c0,1.6-0.5,2.9-1.4,3.9s-2.1,1.5-3.6,1.5s-2.7-0.5-3.6-1.5s-1.4-2.3-1.4-4V474.6z M362.1,474.8c0,1,0.2,1.8,0.6,2.3
					s0.9,0.8,1.6,0.8c0.7,0,1.2-0.3,1.6-0.8c0.4-0.5,0.6-1.4,0.6-2.5c0-1-0.2-1.7-0.6-2.3s-0.9-0.8-1.6-0.8c-0.7,0-1.2,0.3-1.6,0.8
					S362.1,473.6,362.1,474.8z"/>
				<path class="st3" d="M380.5,474.7c0,1.7-0.4,3-1.1,4s-1.7,1.4-3,1.4c-1.1,0-2.1-0.4-2.7-1.3l-0.1,1.1H371v-15h2.8v5.4
					c0.7-0.8,1.5-1.1,2.6-1.1c1.3,0,2.3,0.5,3,1.4s1.1,2.3,1.1,4V474.7z M377.7,474.5c0-1.1-0.2-1.8-0.5-2.3s-0.8-0.7-1.5-0.7
					c-0.9,0-1.5,0.4-1.9,1.1v4.2c0.3,0.7,1,1.1,1.9,1.1c0.9,0,1.5-0.4,1.8-1.3C377.6,476.1,377.7,475.4,377.7,474.5z"/>
				<path class="st3" d="M381.8,474.6c0-1,0.2-2,0.6-2.8s1-1.5,1.7-1.9s1.6-0.7,2.6-0.7c1.4,0,2.6,0.4,3.5,1.3s1.4,2.1,1.5,3.6
					l0,0.7c0,1.6-0.5,2.9-1.4,3.9s-2.1,1.5-3.6,1.5s-2.7-0.5-3.6-1.5s-1.4-2.3-1.4-4V474.6z M384.6,474.8c0,1,0.2,1.8,0.6,2.3
					s0.9,0.8,1.6,0.8c0.7,0,1.2-0.3,1.6-0.8c0.4-0.5,0.6-1.4,0.6-2.5c0-1-0.2-1.7-0.6-2.3s-0.9-0.8-1.6-0.8c-0.7,0-1.2,0.3-1.6,0.8
					S384.6,473.6,384.6,474.8z"/>
				<path class="st3" d="M398.4,474.4c0,1.5-0.2,2.9-0.6,4.2s-1,2.6-1.8,3.6s-1.6,1.8-2.5,2.1l-0.5-1.5c0.9-0.7,1.7-1.8,2.2-3.2
					s0.8-3.1,0.8-5v-0.5c0-1.9-0.3-3.7-0.8-5.1s-1.3-2.6-2.2-3.3l0.5-1.5c0.9,0.4,1.7,1.1,2.5,2.1s1.4,2.2,1.8,3.5s0.7,2.7,0.7,4.2
					V474.4z"/>
			</g>
			<g class="st2">
				<path class="st3" d="M236.4,676h-5.6v3.8h6.6v2.4h-9.5V668h9.5v2.4h-6.6v3.4h5.6V676z"/>
				<path class="st3" d="M242.6,678.8l2-7.1h2.9l-3.6,10.6h-2.7l-3.6-10.6h2.9L242.6,678.8z"/>
				<path class="st3" d="M254.8,682.2c-0.1-0.3-0.2-0.6-0.3-0.9c-0.7,0.8-1.6,1.1-2.7,1.1c-1,0-1.9-0.3-2.6-0.9s-1-1.4-1-2.3
					c0-1.1,0.4-2,1.2-2.6s2-0.9,3.6-0.9h1.3v-0.6c0-0.5-0.1-0.9-0.4-1.2s-0.6-0.4-1.2-0.4c-0.5,0-0.8,0.1-1.1,0.3s-0.4,0.5-0.4,0.9
					h-2.8c0-0.6,0.2-1.2,0.6-1.7s0.9-0.9,1.6-1.2s1.5-0.4,2.3-0.4c1.3,0,2.3,0.3,3.1,1s1.1,1.6,1.1,2.8v4.6c0,1,0.1,1.8,0.4,2.3v0.2
					H254.8z M252.4,680.2c0.4,0,0.8-0.1,1.2-0.3s0.6-0.4,0.8-0.7v-1.8h-1.1c-1.4,0-2.2,0.5-2.3,1.5l0,0.2c0,0.4,0.1,0.6,0.4,0.9
					S252,680.2,252.4,680.2z"/>
				<path class="st3" d="M265.1,679.3c0-0.3-0.2-0.6-0.5-0.8s-0.9-0.4-1.6-0.5c-2.5-0.5-3.8-1.6-3.8-3.2c0-0.9,0.4-1.7,1.2-2.3
					s1.8-0.9,3.1-0.9c1.3,0,2.4,0.3,3.2,0.9s1.2,1.5,1.2,2.5H265c0-0.4-0.1-0.7-0.4-1s-0.7-0.4-1.2-0.4c-0.5,0-0.8,0.1-1.1,0.3
					s-0.4,0.5-0.4,0.8c0,0.3,0.1,0.6,0.4,0.8s0.8,0.4,1.5,0.5s1.3,0.3,1.8,0.5c1.5,0.5,2.2,1.5,2.2,2.8c0,1-0.4,1.7-1.2,2.3
					s-1.9,0.9-3.2,0.9c-0.9,0-1.7-0.2-2.4-0.5s-1.2-0.7-1.6-1.3s-0.6-1.1-0.6-1.8h2.7c0,0.5,0.2,0.9,0.6,1.2s0.8,0.4,1.4,0.4
					c0.5,0,0.9-0.1,1.2-0.3S265.1,679.6,265.1,679.3z"/>
				<path class="st3" d="M269.6,668.9c0-0.4,0.1-0.8,0.4-1s0.7-0.4,1.2-0.4c0.5,0,0.9,0.1,1.2,0.4s0.4,0.6,0.4,1
					c0,0.4-0.1,0.8-0.4,1.1s-0.7,0.4-1.1,0.4s-0.9-0.1-1.1-0.4S269.6,669.3,269.6,668.9z M272.6,682.2h-2.8v-10.6h2.8V682.2z"/>
				<path class="st3" d="M278.9,678.8l2-7.1h2.9l-3.6,10.6h-2.7l-3.6-10.6h2.9L278.9,678.8z"/>
				<path class="st3" d="M284.5,676.8c0-1,0.2-2,0.6-2.8s1-1.5,1.7-1.9s1.6-0.7,2.6-0.7c1.4,0,2.6,0.4,3.5,1.3s1.4,2.1,1.5,3.6
					l0,0.7c0,1.6-0.5,2.9-1.4,3.9s-2.1,1.5-3.6,1.5s-2.7-0.5-3.6-1.5s-1.4-2.3-1.4-4V676.8z M287.3,677c0,1,0.2,1.8,0.6,2.3
					s0.9,0.8,1.6,0.8c0.7,0,1.2-0.3,1.6-0.8c0.4-0.5,0.6-1.4,0.6-2.5c0-1-0.2-1.7-0.6-2.3s-0.9-0.8-1.6-0.8c-0.7,0-1.2,0.3-1.6,0.8
					S287.3,675.9,287.3,677z"/>
				<path class="st3" d="M301.3,676.4c0-1.5,0.2-2.9,0.6-4.3s1-2.5,1.8-3.6s1.6-1.8,2.5-2.2l0.5,1.5c-1,0.7-1.7,1.8-2.2,3.3
					s-0.8,3.2-0.8,5.2v0.3c0,2,0.3,3.7,0.8,5.2s1.3,2.6,2.2,3.3l-0.5,1.5c-0.9-0.4-1.7-1.1-2.5-2.1s-1.3-2.2-1.8-3.5
					s-0.6-2.7-0.6-4.1V676.4z"/>
				<path class="st3" d="M316.4,679.3h-5.1l-1,2.9h-3.1l5.3-14.2h2.7l5.3,14.2h-3.1L316.4,679.3z M312.1,676.9h3.6l-1.8-5.3
					L312.1,676.9z"/>
				<path class="st3" d="M325.1,678.8l2-7.1h2.9l-3.6,10.6h-2.7l-3.6-10.6h2.9L325.1,678.8z"/>
				<path class="st3" d="M336.2,682.4c-1.5,0-2.8-0.5-3.8-1.4s-1.5-2.2-1.5-3.8v-0.3c0-1.1,0.2-2,0.6-2.8s1-1.5,1.7-1.9
					s1.6-0.7,2.6-0.7c1.4,0,2.6,0.5,3.4,1.4s1.2,2.2,1.2,3.9v1.2h-6.7c0.1,0.7,0.4,1.2,0.8,1.7s1,0.6,1.7,0.6c1.1,0,1.9-0.4,2.5-1.2
					l1.4,1.6c-0.4,0.6-1,1.1-1.7,1.4S337,682.4,336.2,682.4z M335.8,673.7c-0.6,0-1,0.2-1.4,0.6c-0.3,0.4-0.6,0.9-0.7,1.6h3.9v-0.2
					c0-0.6-0.2-1.1-0.5-1.5C336.9,673.9,336.4,673.7,335.8,673.7z"/>
				<path class="st3" d="M347.8,679.3c0-0.3-0.2-0.6-0.5-0.8s-0.9-0.4-1.6-0.5c-2.5-0.5-3.8-1.6-3.8-3.2c0-0.9,0.4-1.7,1.2-2.3
					s1.8-0.9,3.1-0.9c1.3,0,2.4,0.3,3.2,0.9s1.2,1.5,1.2,2.5h-2.8c0-0.4-0.1-0.7-0.4-1s-0.7-0.4-1.2-0.4c-0.5,0-0.8,0.1-1.1,0.3
					s-0.4,0.5-0.4,0.8c0,0.3,0.1,0.6,0.4,0.8s0.8,0.4,1.5,0.5s1.3,0.3,1.8,0.5c1.5,0.5,2.2,1.5,2.2,2.8c0,1-0.4,1.7-1.2,2.3
					s-1.9,0.9-3.2,0.9c-0.9,0-1.7-0.2-2.4-0.5s-1.2-0.7-1.6-1.3s-0.6-1.1-0.6-1.8h2.7c0,0.5,0.2,0.9,0.6,1.2s0.8,0.4,1.4,0.4
					c0.5,0,0.9-0.1,1.2-0.3S347.8,679.6,347.8,679.3z"/>
				<path class="st3" d="M355.8,669v2.6h1.8v2.1h-1.8v5.3c0,0.4,0.1,0.7,0.2,0.8s0.4,0.3,0.9,0.3c0.3,0,0.6,0,0.8-0.1v2.1
					c-0.6,0.2-1.1,0.3-1.7,0.3c-2,0-3-1-3-3v-5.7h-1.5v-2.1h1.5V669H355.8z"/>
				<path class="st3" d="M365.1,674.3c-0.4-0.1-0.7-0.1-1-0.1c-1.1,0-1.8,0.4-2.1,1.1v6.9h-2.8v-10.6h2.7l0.1,1.3
					c0.6-1,1.4-1.5,2.4-1.5c0.3,0,0.6,0,0.9,0.1L365.1,674.3z"/>
				<path class="st3" d="M372.8,681.1c-0.7,0.8-1.7,1.3-2.9,1.3c-1.1,0-2-0.3-2.6-1s-0.9-1.6-0.9-2.9v-6.9h2.8v6.8
					c0,1.1,0.5,1.7,1.5,1.7c1,0,1.6-0.3,2-1v-7.5h2.8v10.6h-2.7L372.8,681.1z"/>
				<path class="st3" d="M380.9,679.9h5.2v2.3h-8.8v-1.7l5-6.6h-4.8v-2.3h8.5v1.7L380.9,679.9z"/>
				<path class="st3" d="M392.7,676.6c0,1.5-0.2,2.9-0.6,4.2s-1,2.6-1.8,3.6s-1.6,1.8-2.5,2.1l-0.5-1.5c0.9-0.7,1.7-1.8,2.2-3.2
					s0.8-3.1,0.8-5v-0.5c0-1.9-0.3-3.7-0.8-5.1s-1.3-2.6-2.2-3.3l0.5-1.5c0.9,0.4,1.7,1.1,2.5,2.1s1.4,2.2,1.8,3.5s0.7,2.7,0.7,4.2
					V676.6z"/>
			</g>
			<g class="st2">
				<path class="st3" d="M760,475.2c-0.1,1.5-0.7,2.7-1.7,3.6s-2.4,1.3-4,1.3c-1.8,0-3.3-0.6-4.3-1.8s-1.6-2.9-1.6-5.1v-0.9
					c0-1.4,0.2-2.6,0.7-3.6s1.2-1.8,2.1-2.4s1.9-0.8,3.1-0.8c1.6,0,3,0.4,4,1.3s1.6,2.1,1.7,3.7h-2.9c-0.1-0.9-0.3-1.6-0.8-2
					s-1.1-0.6-2-0.6c-1,0-1.7,0.3-2.2,1s-0.7,1.8-0.7,3.3v1.1c0,1.5,0.2,2.7,0.7,3.4s1.2,1.1,2.2,1.1c0.9,0,1.6-0.2,2-0.6
					s0.7-1.1,0.8-1.9H760z"/>
				<path class="st3" d="M761.3,474.6c0-1,0.2-2,0.6-2.8s1-1.5,1.7-1.9s1.6-0.7,2.6-0.7c1.4,0,2.6,0.4,3.5,1.3s1.4,2.1,1.5,3.6
					l0,0.7c0,1.6-0.5,2.9-1.4,3.9s-2.1,1.5-3.6,1.5s-2.7-0.5-3.6-1.5s-1.4-2.3-1.4-4V474.6z M764.1,474.8c0,1,0.2,1.8,0.6,2.3
					s0.9,0.8,1.6,0.8c0.7,0,1.2-0.3,1.6-0.8c0.4-0.5,0.6-1.4,0.6-2.5c0-1-0.2-1.7-0.6-2.3s-0.9-0.8-1.6-0.8c-0.7,0-1.2,0.3-1.6,0.8
					S764.1,473.6,764.1,474.8z"/>
				<path class="st3" d="M776,479.9h-2.8v-15h2.8V479.9z"/>
				<path class="st3" d="M784.5,479.9c-0.1-0.3-0.2-0.6-0.3-0.9c-0.7,0.8-1.6,1.1-2.7,1.1c-1,0-1.9-0.3-2.6-0.9s-1-1.4-1-2.3
					c0-1.1,0.4-2,1.2-2.6s2-0.9,3.6-0.9h1.3v-0.6c0-0.5-0.1-0.9-0.4-1.2s-0.6-0.4-1.2-0.4c-0.5,0-0.8,0.1-1.1,0.3s-0.4,0.5-0.4,0.9
					h-2.8c0-0.6,0.2-1.2,0.6-1.7s0.9-0.9,1.6-1.2s1.5-0.4,2.3-0.4c1.3,0,2.3,0.3,3.1,1s1.1,1.6,1.1,2.8v4.6c0,1,0.1,1.8,0.4,2.3v0.2
					H784.5z M782.2,478c0.4,0,0.8-0.1,1.2-0.3s0.6-0.4,0.8-0.7v-1.8H783c-1.4,0-2.2,0.5-2.3,1.5l0,0.2c0,0.4,0.1,0.6,0.4,0.9
					S781.7,478,782.2,478z"/>
				<path class="st3" d="M798.6,474.7c0,1.7-0.4,3-1.1,4s-1.7,1.4-3,1.4c-1.1,0-2.1-0.4-2.7-1.3l-0.1,1.1h-2.5v-15h2.8v5.4
					c0.7-0.8,1.5-1.1,2.6-1.1c1.3,0,2.3,0.5,3,1.4s1.1,2.3,1.1,4V474.7z M795.8,474.5c0-1.1-0.2-1.8-0.5-2.3s-0.8-0.7-1.5-0.7
					c-0.9,0-1.5,0.4-1.9,1.1v4.2c0.3,0.7,1,1.1,1.9,1.1c0.9,0,1.5-0.4,1.8-1.3C795.7,476.1,795.8,475.4,795.8,474.5z"/>
				<path class="st3" d="M799.9,474.6c0-1,0.2-2,0.6-2.8s1-1.5,1.7-1.9s1.6-0.7,2.6-0.7c1.4,0,2.6,0.4,3.5,1.3s1.4,2.1,1.5,3.6
					l0,0.7c0,1.6-0.5,2.9-1.4,3.9s-2.1,1.5-3.6,1.5s-2.7-0.5-3.6-1.5s-1.4-2.3-1.4-4V474.6z M802.7,474.8c0,1,0.2,1.8,0.6,2.3
					s0.9,0.8,1.6,0.8c0.7,0,1.2-0.3,1.6-0.8c0.4-0.5,0.6-1.4,0.6-2.5c0-1-0.2-1.7-0.6-2.3s-0.9-0.8-1.6-0.8c-0.7,0-1.2,0.3-1.6,0.8
					S802.7,473.6,802.7,474.8z"/>
				<path class="st3" d="M817.6,472c-0.4-0.1-0.7-0.1-1-0.1c-1.1,0-1.8,0.4-2.1,1.1v6.9h-2.8v-10.6h2.7l0.1,1.3
					c0.6-1,1.4-1.5,2.4-1.5c0.3,0,0.6,0,0.9,0.1L817.6,472z"/>
				<path class="st3" d="M824.8,479.9c-0.1-0.3-0.2-0.6-0.3-0.9c-0.7,0.8-1.6,1.1-2.7,1.1c-1,0-1.9-0.3-2.6-0.9s-1-1.4-1-2.3
					c0-1.1,0.4-2,1.2-2.6s2-0.9,3.6-0.9h1.3v-0.6c0-0.5-0.1-0.9-0.4-1.2s-0.6-0.4-1.2-0.4c-0.5,0-0.8,0.1-1.1,0.3s-0.4,0.5-0.4,0.9
					h-2.8c0-0.6,0.2-1.2,0.6-1.7s0.9-0.9,1.6-1.2s1.5-0.4,2.3-0.4c1.3,0,2.3,0.3,3.1,1s1.1,1.6,1.1,2.8v4.6c0,1,0.1,1.8,0.4,2.3v0.2
					H824.8z M822.5,478c0.4,0,0.8-0.1,1.2-0.3s0.6-0.4,0.8-0.7v-1.8h-1.1c-1.4,0-2.2,0.5-2.3,1.5l0,0.2c0,0.4,0.1,0.6,0.4,0.9
					S822,478,822.5,478z"/>
				<path class="st3" d="M832.8,466.8v2.6h1.8v2.1h-1.8v5.3c0,0.4,0.1,0.7,0.2,0.8s0.4,0.3,0.9,0.3c0.3,0,0.6,0,0.8-0.1v2.1
					c-0.6,0.2-1.1,0.3-1.7,0.3c-2,0-3-1-3-3v-5.7h-1.5v-2.1h1.5v-2.6H832.8z"/>
				<path class="st3" d="M836.1,466.6c0-0.4,0.1-0.8,0.4-1s0.7-0.4,1.2-0.4c0.5,0,0.9,0.1,1.2,0.4s0.4,0.6,0.4,1
					c0,0.4-0.1,0.8-0.4,1.1s-0.7,0.4-1.1,0.4s-0.9-0.1-1.1-0.4S836.1,467.1,836.1,466.6z M839.1,479.9h-2.8v-10.6h2.8V479.9z"/>
				<path class="st3" d="M845.4,476.5l2-7.1h2.9l-3.6,10.6h-2.7l-3.6-10.6h2.9L845.4,476.5z"/>
				<path class="st3" d="M851,474.6c0-1,0.2-2,0.6-2.8s1-1.5,1.7-1.9s1.6-0.7,2.6-0.7c1.4,0,2.6,0.4,3.5,1.3s1.4,2.1,1.5,3.6l0,0.7
					c0,1.6-0.5,2.9-1.4,3.9s-2.1,1.5-3.6,1.5s-2.7-0.5-3.6-1.5s-1.4-2.3-1.4-4V474.6z M853.8,474.8c0,1,0.2,1.8,0.6,2.3
					s0.9,0.8,1.6,0.8c0.7,0,1.2-0.3,1.6-0.8c0.4-0.5,0.6-1.4,0.6-2.5c0-1-0.2-1.7-0.6-2.3s-0.9-0.8-1.6-0.8c-0.7,0-1.2,0.3-1.6,0.8
					S853.8,473.6,853.8,474.8z"/>
				<path class="st3" d="M867.8,474.2c0-1.5,0.2-2.9,0.6-4.3s1-2.5,1.8-3.6s1.6-1.8,2.5-2.2l0.5,1.5c-1,0.7-1.7,1.8-2.2,3.3
					s-0.8,3.2-0.8,5.2v0.3c0,2,0.3,3.7,0.8,5.2s1.3,2.6,2.2,3.3l-0.5,1.5c-0.9-0.4-1.7-1.1-2.5-2.1s-1.3-2.2-1.8-3.5
					s-0.6-2.7-0.6-4.1V474.2z"/>
				<path class="st3" d="M886.1,475.2c-0.1,1.5-0.7,2.7-1.7,3.6s-2.4,1.3-4,1.3c-1.8,0-3.3-0.6-4.3-1.8s-1.6-2.9-1.6-5.1v-0.9
					c0-1.4,0.2-2.6,0.7-3.6s1.2-1.8,2.1-2.4s1.9-0.8,3.1-0.8c1.6,0,3,0.4,4,1.3s1.6,2.1,1.7,3.7h-2.9c-0.1-0.9-0.3-1.6-0.8-2
					s-1.1-0.6-2-0.6c-1,0-1.7,0.3-2.2,1s-0.7,1.8-0.7,3.3v1.1c0,1.5,0.2,2.7,0.7,3.4s1.2,1.1,2.2,1.1c0.9,0,1.6-0.2,2-0.6
					s0.7-1.1,0.8-1.9H886.1z"/>
				<path class="st3" d="M887.4,474.6c0-1,0.2-2,0.6-2.8s1-1.5,1.7-1.9s1.6-0.7,2.6-0.7c1.4,0,2.6,0.4,3.5,1.3s1.4,2.1,1.5,3.6
					l0,0.7c0,1.6-0.5,2.9-1.4,3.9s-2.1,1.5-3.6,1.5s-2.7-0.5-3.6-1.5s-1.4-2.3-1.4-4V474.6z M890.2,474.8c0,1,0.2,1.8,0.6,2.3
					s0.9,0.8,1.6,0.8c0.7,0,1.2-0.3,1.6-0.8c0.4-0.5,0.6-1.4,0.6-2.5c0-1-0.2-1.7-0.6-2.3s-0.9-0.8-1.6-0.8c-0.7,0-1.2,0.3-1.6,0.8
					S890.2,473.6,890.2,474.8z"/>
				<path class="st3" d="M901.7,469.4l0.1,1.2c0.8-0.9,1.8-1.4,3-1.4c1.1,0,2,0.3,2.5,1s0.8,1.6,0.8,2.9v6.8h-2.8v-6.8
					c0-0.6-0.1-1-0.4-1.3s-0.7-0.4-1.3-0.4c-0.8,0-1.4,0.3-1.8,1v7.5h-2.8v-10.6H901.7z"/>
				<path class="st3" d="M915.2,480.1c-1.5,0-2.8-0.5-3.8-1.4s-1.5-2.2-1.5-3.8v-0.3c0-1.1,0.2-2,0.6-2.8s1-1.5,1.7-1.9
					s1.6-0.7,2.6-0.7c1.4,0,2.6,0.5,3.4,1.4s1.2,2.2,1.2,3.9v1.2h-6.7c0.1,0.7,0.4,1.2,0.8,1.7s1,0.6,1.7,0.6c1.1,0,1.9-0.4,2.5-1.2
					l1.4,1.6c-0.4,0.6-1,1.1-1.7,1.4S916.1,480.1,915.2,480.1z M914.9,471.4c-0.6,0-1,0.2-1.4,0.6c-0.3,0.4-0.6,0.9-0.7,1.6h3.9
					v-0.2c0-0.6-0.2-1.1-0.5-1.5C915.9,471.6,915.5,471.4,914.9,471.4z"/>
				<path class="st3" d="M924.1,469.4v11.1c0,1.2-0.3,2.1-0.9,2.7s-1.5,1-2.7,1c-0.5,0-1-0.1-1.4-0.2v-2.2c0.3,0.1,0.6,0.1,0.9,0.1
					c0.9,0,1.3-0.5,1.3-1.4v-11.2H924.1z M921.1,466.6c0-0.4,0.1-0.8,0.4-1s0.7-0.4,1.2-0.4s0.9,0.1,1.2,0.4s0.4,0.6,0.4,1
					c0,0.4-0.1,0.8-0.4,1.1s-0.7,0.4-1.1,0.4s-0.9-0.1-1.1-0.4S921.1,467.1,921.1,466.6z"/>
				<path class="st3" d="M925.9,474.6c0-1,0.2-2,0.6-2.8s1-1.5,1.7-1.9s1.6-0.7,2.6-0.7c1.4,0,2.6,0.4,3.5,1.3s1.4,2.1,1.5,3.6
					l0,0.7c0,1.6-0.5,2.9-1.4,3.9s-2.1,1.5-3.6,1.5s-2.7-0.5-3.6-1.5s-1.4-2.3-1.4-4V474.6z M928.7,474.8c0,1,0.2,1.8,0.6,2.3
					s0.9,0.8,1.6,0.8c0.7,0,1.2-0.3,1.6-0.8c0.4-0.5,0.6-1.4,0.6-2.5c0-1-0.2-1.7-0.6-2.3s-0.9-0.8-1.6-0.8c-0.7,0-1.2,0.3-1.6,0.8
					S928.7,473.6,928.7,474.8z"/>
				<path class="st3" d="M942.5,474.4c0,1.5-0.2,2.9-0.6,4.2s-1,2.6-1.8,3.6s-1.6,1.8-2.5,2.1l-0.5-1.5c0.9-0.7,1.7-1.8,2.2-3.2
					s0.8-3.1,0.8-5v-0.5c0-1.9-0.3-3.7-0.8-5.1s-1.3-2.6-2.2-3.3l0.5-1.5c0.9,0.4,1.7,1.1,2.5,2.1s1.4,2.2,1.8,3.5s0.7,2.7,0.7,4.2
					V474.4z"/>
			</g>
			<g class="st2">
				<path class="st3" d="M756.9,679.3h-5.1l-1,2.9h-3.1L753,668h2.7l5.3,14.2h-3.1L756.9,679.3z M752.5,676.9h3.6l-1.8-5.3
					L752.5,676.9z"/>
				<path class="st3" d="M761.7,676.8c0-1.6,0.4-3,1.1-3.9s1.7-1.5,3-1.5c1,0,1.9,0.4,2.5,1.2v-5.4h2.8v15h-2.5l-0.1-1.1
					c-0.7,0.9-1.6,1.3-2.7,1.3c-1.2,0-2.2-0.5-3-1.5S761.7,678.6,761.7,676.8z M764.5,677.1c0,1,0.2,1.8,0.5,2.3s0.8,0.8,1.5,0.8
					c0.9,0,1.5-0.4,1.8-1.1v-4.2c-0.4-0.7-1-1.1-1.8-1.1C765.2,673.7,764.5,674.8,764.5,677.1z"/>
				<path class="st3" d="M779.5,682.2c-0.1-0.3-0.2-0.6-0.3-0.9c-0.7,0.8-1.6,1.1-2.7,1.1c-1,0-1.9-0.3-2.6-0.9s-1-1.4-1-2.3
					c0-1.1,0.4-2,1.2-2.6s2-0.9,3.6-0.9h1.3v-0.6c0-0.5-0.1-0.9-0.4-1.2s-0.6-0.4-1.2-0.4c-0.5,0-0.8,0.1-1.1,0.3s-0.4,0.5-0.4,0.9
					h-2.8c0-0.6,0.2-1.2,0.6-1.7s0.9-0.9,1.6-1.2s1.5-0.4,2.3-0.4c1.3,0,2.3,0.3,3.1,1s1.1,1.6,1.1,2.8v4.6c0,1,0.1,1.8,0.4,2.3v0.2
					H779.5z M777.2,680.2c0.4,0,0.8-0.1,1.2-0.3s0.6-0.4,0.8-0.7v-1.8h-1.1c-1.4,0-2.2,0.5-2.3,1.5l0,0.2c0,0.4,0.1,0.6,0.4,0.9
					S776.8,680.2,777.2,680.2z"/>
				<path class="st3" d="M793.6,677c0,1.6-0.4,2.9-1.1,3.9s-1.7,1.5-3,1.5c-1.1,0-1.9-0.4-2.6-1.1v5h-2.8v-14.6h2.6l0.1,1
					c0.7-0.8,1.6-1.2,2.7-1.2c1.3,0,2.3,0.5,3,1.4s1.1,2.3,1.1,4V677z M790.8,676.8c0-1-0.2-1.7-0.5-2.3s-0.9-0.8-1.5-0.8
					c-0.9,0-1.5,0.3-1.8,1v4.3c0.3,0.7,1,1,1.8,1C790.1,680.1,790.8,679,790.8,676.8z"/>
				<path class="st3" d="M798.8,669v2.6h1.8v2.1h-1.8v5.3c0,0.4,0.1,0.7,0.2,0.8s0.4,0.3,0.9,0.3c0.3,0,0.6,0,0.8-0.1v2.1
					c-0.6,0.2-1.1,0.3-1.7,0.3c-2,0-3-1-3-3v-5.7h-1.5v-2.1h1.5V669H798.8z"/>
				<path class="st3" d="M808.3,682.2c-0.1-0.3-0.2-0.6-0.3-0.9c-0.7,0.8-1.6,1.1-2.7,1.1c-1,0-1.9-0.3-2.6-0.9s-1-1.4-1-2.3
					c0-1.1,0.4-2,1.2-2.6s2-0.9,3.6-0.9h1.3v-0.6c0-0.5-0.1-0.9-0.4-1.2s-0.6-0.4-1.2-0.4c-0.5,0-0.8,0.1-1.1,0.3s-0.4,0.5-0.4,0.9
					H802c0-0.6,0.2-1.2,0.6-1.7s0.9-0.9,1.6-1.2s1.5-0.4,2.3-0.4c1.3,0,2.3,0.3,3.1,1s1.1,1.6,1.1,2.8v4.6c0,1,0.1,1.8,0.4,2.3v0.2
					H808.3z M805.9,680.2c0.4,0,0.8-0.1,1.2-0.3s0.6-0.4,0.8-0.7v-1.8h-1.1c-1.4,0-2.2,0.5-2.3,1.5l0,0.2c0,0.4,0.1,0.6,0.4,0.9
					S805.5,680.2,805.9,680.2z"/>
				<path class="st3" d="M816.2,669v2.6h1.8v2.1h-1.8v5.3c0,0.4,0.1,0.7,0.2,0.8s0.4,0.3,0.9,0.3c0.3,0,0.6,0,0.8-0.1v2.1
					c-0.6,0.2-1.1,0.3-1.7,0.3c-2,0-3-1-3-3v-5.7h-1.5v-2.1h1.5V669H816.2z"/>
				<path class="st3" d="M819.6,668.9c0-0.4,0.1-0.8,0.4-1s0.7-0.4,1.2-0.4c0.5,0,0.9,0.1,1.2,0.4s0.4,0.6,0.4,1
					c0,0.4-0.1,0.8-0.4,1.1s-0.7,0.4-1.1,0.4s-0.9-0.1-1.1-0.4S819.6,669.3,819.6,668.9z M822.6,682.2h-2.8v-10.6h2.8V682.2z"/>
				<path class="st3" d="M828.9,678.8l2-7.1h2.9l-3.6,10.6h-2.7l-3.6-10.6h2.9L828.9,678.8z"/>
				<path class="st3" d="M834.4,676.8c0-1,0.2-2,0.6-2.8s1-1.5,1.7-1.9s1.6-0.7,2.6-0.7c1.4,0,2.6,0.4,3.5,1.3s1.4,2.1,1.5,3.6
					l0,0.7c0,1.6-0.5,2.9-1.4,3.9s-2.1,1.5-3.6,1.5s-2.7-0.5-3.6-1.5s-1.4-2.3-1.4-4V676.8z M837.3,677c0,1,0.2,1.8,0.6,2.3
					s0.9,0.8,1.6,0.8c0.7,0,1.2-0.3,1.6-0.8c0.4-0.5,0.6-1.4,0.6-2.5c0-1-0.2-1.7-0.6-2.3s-0.9-0.8-1.6-0.8c-0.7,0-1.2,0.3-1.6,0.8
					S837.3,675.9,837.3,677z"/>
				<path class="st3" d="M851.3,676.4c0-1.5,0.2-2.9,0.6-4.3s1-2.5,1.8-3.6s1.6-1.8,2.5-2.2l0.5,1.5c-1,0.7-1.7,1.8-2.2,3.3
					s-0.8,3.2-0.8,5.2v0.3c0,2,0.3,3.7,0.8,5.2s1.3,2.6,2.2,3.3l-0.5,1.5c-0.9-0.4-1.7-1.1-2.5-2.1s-1.3-2.2-1.8-3.5
					s-0.6-2.7-0.6-4.1V676.4z"/>
				<path class="st3" d="M870.1,675.4c0,1.4-0.2,2.6-0.7,3.7s-1.2,1.9-2.1,2.4s-2,0.9-3.2,0.9c-1.2,0-2.2-0.3-3.2-0.8
					s-1.6-1.4-2.1-2.4s-0.8-2.3-0.8-3.6v-0.7c0-1.4,0.3-2.6,0.8-3.7s1.2-1.9,2.1-2.5s2-0.9,3.2-0.9s2.2,0.3,3.2,0.9s1.6,1.4,2.1,2.5
					s0.8,2.3,0.8,3.7V675.4z M867.1,674.8c0-1.5-0.3-2.6-0.8-3.4s-1.3-1.2-2.3-1.2c-1,0-1.7,0.4-2.3,1.1s-0.8,1.9-0.8,3.4v0.7
					c0,1.5,0.3,2.6,0.8,3.4s1.3,1.2,2.3,1.2c1,0,1.7-0.4,2.3-1.2s0.8-1.9,0.8-3.4V674.8z"/>
				<path class="st3" d="M876,678.8l2-7.1h2.9l-3.6,10.6h-2.7l-3.6-10.6h2.9L876,678.8z"/>
				<path class="st3" d="M887,682.4c-1.5,0-2.8-0.5-3.8-1.4s-1.5-2.2-1.5-3.8v-0.3c0-1.1,0.2-2,0.6-2.8s1-1.5,1.7-1.9
					s1.6-0.7,2.6-0.7c1.4,0,2.6,0.5,3.4,1.4s1.2,2.2,1.2,3.9v1.2h-6.7c0.1,0.7,0.4,1.2,0.8,1.7s1,0.6,1.7,0.6c1.1,0,1.9-0.4,2.5-1.2
					l1.4,1.6c-0.4,0.6-1,1.1-1.7,1.4S887.9,682.4,887,682.4z M886.7,673.7c-0.6,0-1,0.2-1.4,0.6c-0.3,0.4-0.6,0.9-0.7,1.6h3.9v-0.2
					c0-0.6-0.2-1.1-0.5-1.5C887.7,673.9,887.3,673.7,886.7,673.7z"/>
				<path class="st3" d="M895.9,671.6v11.1c0,1.2-0.3,2.1-0.9,2.7s-1.5,1-2.7,1c-0.5,0-1-0.1-1.4-0.2v-2.2c0.3,0.1,0.6,0.1,0.9,0.1
					c0.9,0,1.3-0.5,1.3-1.4v-11.2H895.9z M892.9,668.9c0-0.4,0.1-0.8,0.4-1s0.7-0.4,1.2-0.4s0.9,0.1,1.2,0.4s0.4,0.6,0.4,1
					c0,0.4-0.1,0.8-0.4,1.1s-0.7,0.4-1.1,0.4s-0.9-0.1-1.1-0.4S892.9,669.3,892.9,668.9z"/>
				<path class="st3" d="M904.2,682.2c-0.1-0.3-0.2-0.6-0.3-0.9c-0.7,0.8-1.6,1.1-2.7,1.1c-1,0-1.9-0.3-2.6-0.9s-1-1.4-1-2.3
					c0-1.1,0.4-2,1.2-2.6s2-0.9,3.6-0.9h1.3v-0.6c0-0.5-0.1-0.9-0.4-1.2s-0.6-0.4-1.2-0.4c-0.5,0-0.8,0.1-1.1,0.3s-0.4,0.5-0.4,0.9
					h-2.8c0-0.6,0.2-1.2,0.6-1.7s0.9-0.9,1.6-1.2s1.5-0.4,2.3-0.4c1.3,0,2.3,0.3,3.1,1s1.1,1.6,1.1,2.8v4.6c0,1,0.1,1.8,0.4,2.3v0.2
					H904.2z M901.9,680.2c0.4,0,0.8-0.1,1.2-0.3s0.6-0.4,0.8-0.7v-1.8h-1.1c-1.4,0-2.2,0.5-2.3,1.5l0,0.2c0,0.4,0.1,0.6,0.4,0.9
					S901.5,680.2,901.9,680.2z"/>
				<path class="st3" d="M913.7,676.6c0,1.5-0.2,2.9-0.6,4.2s-1,2.6-1.8,3.6s-1.6,1.8-2.5,2.1l-0.5-1.5c0.9-0.7,1.7-1.8,2.2-3.2
					s0.8-3.1,0.8-5v-0.5c0-1.9-0.3-3.7-0.8-5.1s-1.3-2.6-2.2-3.3l0.5-1.5c0.9,0.4,1.7,1.1,2.5,2.1s1.4,2.2,1.8,3.5s0.7,2.7,0.7,4.2
					V676.6z"/>
			</g>
			<circle id="Elipse_4067" class="st4" cx="577.3" cy="576.6" r="125.3"/>
			<g id="Grupo">
				<g class="st2">
					<path class="st5" d="M510.8,551.5h-10.5v7.1h12.4v4.4h-17.9v-26.7h17.8v4.4h-12.3v6.4h10.5V551.5z"/>
					<path class="st5" d="M514.7,553c0-3.1,0.7-5.6,2.1-7.4c1.4-1.8,3.3-2.7,5.7-2.7c2.1,0,3.8,0.8,5.1,2.4l0.3-2.1h4.7v27.4h-5.3
						v-9.3c-1.2,1.4-2.8,2.1-4.8,2.1c-2.4,0-4.2-0.9-5.6-2.7C515.4,558.9,514.7,556.3,514.7,553z M519.9,553.4c0,1.9,0.3,3.3,1,4.3
						s1.6,1.5,2.8,1.5c1.6,0,2.8-0.6,3.4-1.9V549c-0.7-1.2-1.8-1.9-3.4-1.9c-1.2,0-2.2,0.5-2.8,1.5
						C520.3,549.6,519.9,551.2,519.9,553.4z"/>
					<path class="st5" d="M548.5,561.1c-1.3,1.6-3.1,2.4-5.4,2.4c-2.1,0-3.7-0.6-4.9-1.8c-1.1-1.2-1.7-3-1.7-5.4v-13h5.3v12.8
						c0,2.1,0.9,3.1,2.8,3.1c1.8,0,3-0.6,3.7-1.9v-14h5.3v19.8h-5L548.5,561.1z"/>
					<path class="st5" d="M557.6,538.1c0-0.8,0.3-1.4,0.8-2c0.5-0.5,1.3-0.8,2.2-0.8c0.9,0,1.6,0.3,2.2,0.8s0.8,1.2,0.8,2
						c0,0.8-0.3,1.5-0.8,2c-0.5,0.5-1.3,0.8-2.2,0.8c-0.9,0-1.6-0.3-2.2-0.8C557.9,539.6,557.6,538.9,557.6,538.1z M563.2,563.1
						h-5.3v-19.8h5.3V563.1z"/>
					<path class="st5" d="M573.9,538.4v4.9h3.4v3.9h-3.4v9.9c0,0.7,0.1,1.3,0.4,1.6c0.3,0.3,0.8,0.5,1.6,0.5c0.6,0,1.1,0,1.6-0.1v4
						c-1,0.3-2.1,0.5-3.2,0.5c-3.7,0-5.6-1.9-5.7-5.6v-10.7h-2.9v-3.9h2.9v-4.9H573.9z"/>
					<path class="st5" d="M591.7,563.1c-0.2-0.5-0.4-1.1-0.5-1.8c-1.3,1.4-2.9,2.1-5,2.1c-1.9,0-3.5-0.6-4.8-1.7s-1.9-2.5-1.9-4.2
						c0-2.1,0.8-3.7,2.3-4.8c1.6-1.1,3.8-1.7,6.7-1.7h2.4v-1.1c0-0.9-0.2-1.6-0.7-2.2c-0.5-0.5-1.2-0.8-2.2-0.8
						c-0.9,0-1.6,0.2-2.1,0.6c-0.5,0.4-0.8,1-0.8,1.8h-5.3c0-1.1,0.4-2.2,1.1-3.2s1.7-1.7,3-2.3s2.7-0.8,4.4-0.8
						c2.4,0,4.4,0.6,5.8,1.8s2.2,3,2.2,5.2v8.6c0,1.9,0.3,3.3,0.8,4.3v0.3H591.7z M587.4,559.4c0.8,0,1.5-0.2,2.2-0.5
						s1.1-0.8,1.5-1.4v-3.4h-2c-2.6,0-4.1,0.9-4.2,2.7l0,0.3c0,0.7,0.2,1.2,0.7,1.6C585.9,559.2,586.6,559.4,587.4,559.4z"/>
					<path class="st5" d="M606.7,538.4v4.9h3.4v3.9h-3.4v9.9c0,0.7,0.1,1.3,0.4,1.6c0.3,0.3,0.8,0.5,1.6,0.5c0.6,0,1.1,0,1.6-0.1v4
						c-1,0.3-2.1,0.5-3.2,0.5c-3.7,0-5.6-1.9-5.7-5.6v-10.7h-2.9v-3.9h2.9v-4.9H606.7z"/>
					<path class="st5" d="M613,538.1c0-0.8,0.3-1.4,0.8-2c0.5-0.5,1.3-0.8,2.2-0.8c0.9,0,1.6,0.3,2.2,0.8s0.8,1.2,0.8,2
						c0,0.8-0.3,1.5-0.8,2c-0.5,0.5-1.3,0.8-2.2,0.8c-0.9,0-1.6-0.3-2.2-0.8C613.3,539.6,613,538.9,613,538.1z M618.6,563.1h-5.3
						v-19.8h5.3V563.1z"/>
					<path class="st5" d="M630.4,556.6l3.7-13.3h5.5l-6.7,19.8h-5.1l-6.7-19.8h5.5L630.4,556.6z"/>
					<path class="st5" d="M640.8,553c0-2,0.4-3.7,1.1-5.3c0.8-1.5,1.8-2.7,3.3-3.6c1.4-0.8,3.1-1.3,5-1.3c2.7,0,4.9,0.8,6.5,2.5
						s2.6,3.9,2.8,6.7l0,1.4c0,3-0.8,5.5-2.5,7.3c-1.7,1.8-4,2.8-6.8,2.8s-5.1-0.9-6.8-2.7c-1.7-1.8-2.6-4.3-2.6-7.5V553z
						 M646.1,553.4c0,1.9,0.4,3.3,1.1,4.3s1.7,1.5,3,1.5c1.3,0,2.3-0.5,3-1.5c0.7-1,1.1-2.6,1.1-4.7c0-1.8-0.4-3.3-1.1-4.3
						c-0.7-1-1.7-1.5-3-1.5c-1.3,0-2.3,0.5-3,1.5C646.5,549.7,646.1,551.2,646.1,553.4z"/>
				</g>
				<g class="st2">
					<path class="st5" d="M522.1,601.2c0-2.8,0.4-5.5,1.1-8c0.7-2.5,1.8-4.8,3.3-6.7c1.5-1.9,3-3.3,4.7-4.1l1,2.9
						c-1.8,1.3-3.2,3.4-4.2,6.1s-1.5,6-1.5,9.7v0.6c0,3.7,0.5,6.9,1.5,9.7c1,2.8,2.4,4.8,4.2,6.2l-1,2.8c-1.7-0.7-3.2-2.1-4.6-3.9
						c-1.4-1.9-2.5-4.1-3.3-6.5s-1.2-5-1.2-7.7V601.2z"/>
					<path class="st5" d="M535.4,612.1v-26.7h9.3c3.2,0,5.7,0.6,7.4,1.9c1.7,1.2,2.5,3.1,2.5,5.4c0,1.3-0.3,2.5-1,3.5
						c-0.7,1-1.6,1.7-2.8,2.2c1.4,0.3,2.4,1,3.2,2.1c0.8,1,1.2,2.3,1.2,3.8c0,2.6-0.8,4.5-2.5,5.8s-4,2-7,2H535.4z M540.9,596.6h4.1
						c2.8,0,4.2-1.2,4.2-3.3c0-1.2-0.4-2.1-1.1-2.6s-1.8-0.8-3.3-0.8h-3.8V596.6z M540.9,600.5v7.2h4.7c1.3,0,2.3-0.3,3-0.9
						c0.7-0.6,1.1-1.5,1.1-2.6c0-2.4-1.3-3.7-3.8-3.7H540.9z"/>
					<path class="st5" d="M570.8,610.1c-1.3,1.6-3.1,2.4-5.4,2.4c-2.1,0-3.7-0.6-4.9-1.8s-1.7-3-1.7-5.4v-13h5.3v12.8
						c0,2.1,0.9,3.1,2.8,3.1c1.8,0,3-0.6,3.7-1.9v-14h5.3v19.8h-5L570.8,610.1z M568.5,583.9h5.8l-5.1,5.7h-4.3L568.5,583.9z"/>
					<path class="st5" d="M585.1,594.4c1.4-1.7,3.2-2.5,5.3-2.5c4.3,0,6.5,2.5,6.5,7.5v12.7h-5.3v-12.5c0-1.1-0.2-2-0.7-2.5
						s-1.3-0.8-2.4-0.8c-1.6,0-2.7,0.6-3.4,1.8v14.1h-5.3v-28.1h5.3V594.4z"/>
					<path class="st5" d="M600.1,602c0-2,0.4-3.7,1.1-5.3c0.8-1.5,1.8-2.7,3.3-3.6c1.4-0.8,3.1-1.3,5-1.3c2.7,0,4.9,0.8,6.5,2.5
						c1.7,1.6,2.6,3.9,2.8,6.7l0,1.4c0,3-0.8,5.5-2.5,7.3c-1.7,1.8-4,2.8-6.8,2.8s-5.1-0.9-6.8-2.7c-1.7-1.8-2.6-4.3-2.6-7.5V602z
						 M605.4,602.4c0,1.9,0.4,3.3,1.1,4.3c0.7,1,1.7,1.5,3,1.5c1.3,0,2.3-0.5,3-1.5c0.7-1,1.1-2.6,1.1-4.7c0-1.8-0.4-3.3-1.1-4.3
						c-0.7-1-1.7-1.5-3-1.5c-1.3,0-2.3,0.5-3,1.5C605.8,598.7,605.4,600.2,605.4,602.4z"/>
					<path class="st5" d="M631.3,601.7c0,2.8-0.4,5.4-1.2,8c-0.8,2.6-1.9,4.8-3.4,6.8s-3.1,3.3-4.8,4l-1-2.8c1.7-1.3,3.1-3.3,4.1-6
						s1.5-5.9,1.6-9.4v-1c0-3.6-0.5-6.9-1.5-9.6s-2.4-4.9-4.2-6.3l1-2.8c1.7,0.7,3.2,2,4.7,3.9c1.5,1.9,2.6,4.1,3.4,6.6
						c0.8,2.5,1.2,5.1,1.3,7.8V601.7z"/>
				</g>
			</g>
		</g>
	</g>
	<g class="st2">
		<path class="st3" d="M324.3,5851.8c0.6,0.4,1.1,1,1.4,1.8c0.3,0.8,0.5,1.7,0.5,2.7c0,1-0.2,2-0.7,2.8c-0.5,0.8-1.2,1.4-2.1,1.9
			c-0.9,0.4-1.9,0.7-3.1,0.7h-1.1c-1.9,0-3.4-0.5-4.5-1.3c-1.1-0.9-1.6-2.2-1.6-3.8c0-1.3,0.3-2.4,1-3.2c0.7-0.8,1.7-1.3,2.9-1.5
			v1.7c-1.7,0.3-2.5,1.3-2.5,3c0,1.1,0.4,2,1.2,2.6c0.8,0.6,1.9,0.9,3.5,0.9h1c1.4,0,2.6-0.3,3.4-1c0.8-0.7,1.3-1.5,1.3-2.7
			c0-0.6-0.1-1.2-0.2-1.7c-0.1-0.5-0.4-0.9-0.7-1.2H321v3h-1.4v-4.6H324.3z"/>
		<path class="st3" d="M317.9,5844.6c0,0.2-0.1,0.5-0.1,0.8c0,1.1,0.5,1.8,1.4,2.2h6.8v1.6h-9.5v-1.6l1.1,0
			c-0.8-0.5-1.3-1.3-1.3-2.3c0-0.3,0-0.6,0.1-0.7H317.9z"/>
		<path class="st3" d="M326,5837.6c-0.2,0.1-0.5,0.2-1,0.2c0.8,0.8,1.2,1.7,1.2,2.7c0,0.9-0.3,1.7-0.8,2.3c-0.5,0.6-1.2,0.9-2,0.9
			c-1,0-1.8-0.4-2.3-1.1c-0.5-0.8-0.8-1.8-0.8-3.2v-1.6h-0.7c-0.6,0-1,0.2-1.4,0.5c-0.3,0.3-0.5,0.8-0.5,1.5c0,0.6,0.1,1.1,0.4,1.5
			s0.6,0.6,1.1,0.6v1.6c-0.5,0-0.9-0.2-1.4-0.5c-0.4-0.3-0.8-0.8-1.1-1.4c-0.3-0.6-0.4-1.2-0.4-1.9c0-1.1,0.3-2,0.8-2.6
			s1.3-0.9,2.3-1h4.4c0.9,0,1.6-0.1,2.1-0.3h0.1V5837.6z M324.8,5840.3c0-0.5-0.1-1-0.4-1.5s-0.6-0.8-1-1h-2v1.3c0,2,0.6,3,1.7,3
			c0.5,0,0.9-0.2,1.2-0.5S324.8,5840.8,324.8,5840.3z"/>
		<path class="st3" d="M321.2,5834.1c-1.5,0-2.6-0.3-3.5-1c-0.9-0.7-1.3-1.6-1.3-2.7c0-1.1,0.4-2,1.1-2.6h-5v-1.6H326v1.5l-1,0.1
			c0.8,0.7,1.2,1.6,1.2,2.7c0,1.1-0.5,2-1.4,2.7c-0.9,0.7-2.1,1-3.5,1H321.2z M321.4,5832.4c1.1,0,1.9-0.2,2.5-0.7s0.9-1.1,0.9-1.8
			c0-1-0.5-1.8-1.4-2.3H319c-0.9,0.5-1.3,1.2-1.3,2.2c0,0.8,0.3,1.4,0.9,1.9S320.1,5832.4,321.4,5832.4z"/>
		<path class="st3" d="M321.2,5823.9c-0.9,0-1.8-0.2-2.5-0.5c-0.7-0.4-1.3-0.9-1.7-1.5c-0.4-0.7-0.6-1.4-0.6-2.2
			c0-1.3,0.4-2.3,1.3-3.1c0.9-0.8,2.1-1.2,3.6-1.2h0.1c0.9,0,1.8,0.2,2.5,0.5c0.7,0.4,1.3,0.9,1.7,1.5c0.4,0.7,0.6,1.4,0.6,2.3
			c0,1.3-0.4,2.3-1.3,3.1c-0.9,0.8-2.1,1.2-3.6,1.2H321.2z M321.4,5822.3c1.1,0,1.9-0.2,2.5-0.7c0.6-0.5,1-1.1,1-2
			c0-0.8-0.3-1.5-1-2c-0.6-0.5-1.6-0.7-2.7-0.7c-1,0-1.9,0.2-2.5,0.7c-0.6,0.5-1,1.2-1,2c0,0.8,0.3,1.5,1,1.9
			S320.2,5822.3,321.4,5822.3z"/>
		<path class="st3" d="M321.2,5809.2c-1.5,0-2.6-0.3-3.5-1c-0.9-0.7-1.3-1.6-1.3-2.7c0-1.1,0.4-2,1.1-2.6h-5v-1.6H326v1.5l-1,0.1
			c0.8,0.7,1.2,1.6,1.2,2.7c0,1.1-0.5,2-1.4,2.7c-0.9,0.7-2.1,1-3.5,1H321.2z M321.4,5807.6c1.1,0,1.9-0.2,2.5-0.7s0.9-1.1,0.9-1.8
			c0-1-0.5-1.8-1.4-2.3H319c-0.9,0.5-1.3,1.2-1.3,2.2c0,0.8,0.3,1.4,0.9,1.9S320.1,5807.6,321.4,5807.6z"/>
		<path class="st3" d="M326.2,5794.7c0,1.3-0.4,2.3-1.3,3.1s-2,1.2-3.4,1.2h-0.3c-0.9,0-1.8-0.2-2.5-0.5c-0.7-0.4-1.3-0.9-1.7-1.5
			c-0.4-0.6-0.6-1.3-0.6-2.1c0-1.2,0.4-2.2,1.2-2.9s2-1,3.5-1h0.7v6.4c0.9,0,1.7-0.3,2.3-0.8c0.6-0.5,0.9-1.2,0.9-2
			c0-0.6-0.1-1.1-0.4-1.5s-0.5-0.7-0.9-1l0.8-1C325.6,5791.9,326.2,5793.1,326.2,5794.7z M317.7,5794.9c0,0.7,0.2,1.2,0.7,1.7
			s1.1,0.7,2,0.8v-4.8h-0.1c-0.8,0-1.5,0.3-1.9,0.7S317.7,5794.2,317.7,5794.9z"/>
		<path class="st3" d="M322.7,5777.3v5.4l3.3,1.2v1.7l-12.8-4.9v-1.5l12.8-4.9v1.7L322.7,5777.3z M321.3,5782.2v-4.4l-6,2.2
			L321.3,5782.2z"/>
		<path class="st3" d="M323.5,5767.4c-0.4,0-0.8,0.2-1,0.5c-0.2,0.3-0.5,0.9-0.6,1.7c-0.2,0.8-0.4,1.5-0.6,2
			c-0.2,0.5-0.5,0.8-0.9,1.1c-0.3,0.2-0.7,0.3-1.2,0.3c-0.8,0-1.4-0.3-2-1c-0.5-0.7-0.8-1.5-0.8-2.5c0-1.1,0.3-2,0.8-2.6
			c0.6-0.7,1.3-1,2.1-1v1.6c-0.4,0-0.8,0.2-1.2,0.6c-0.3,0.4-0.5,0.9-0.5,1.4c0,0.6,0.1,1.1,0.4,1.4s0.6,0.5,1,0.5
			c0.4,0,0.7-0.2,0.9-0.5s0.4-0.9,0.6-1.7c0.2-0.8,0.4-1.5,0.7-2s0.6-0.9,0.9-1.1c0.4-0.2,0.8-0.4,1.3-0.4c0.8,0,1.5,0.3,2,1
			c0.5,0.7,0.8,1.6,0.8,2.6c0,0.8-0.1,1.4-0.4,2s-0.6,1-1.1,1.4c-0.5,0.3-1,0.5-1.6,0.5v-1.6c0.5,0,1-0.2,1.3-0.7
			c0.3-0.4,0.5-0.9,0.5-1.6c0-0.6-0.1-1.1-0.4-1.5C324.2,5767.6,323.9,5767.4,323.5,5767.4z"/>
		<path class="st3" d="M326.2,5759.7c0,1.3-0.4,2.3-1.3,3.1s-2,1.2-3.4,1.2h-0.3c-0.9,0-1.8-0.2-2.5-0.5c-0.7-0.4-1.3-0.9-1.7-1.5
			c-0.4-0.6-0.6-1.3-0.6-2.1c0-1.2,0.4-2.2,1.2-2.9s2-1,3.5-1h0.7v6.4c0.9,0,1.7-0.3,2.3-0.8c0.6-0.5,0.9-1.2,0.9-2
			c0-0.6-0.1-1.1-0.4-1.5s-0.5-0.7-0.9-1l0.8-1C325.6,5756.9,326.2,5758.1,326.2,5759.7z M317.7,5759.9c0,0.7,0.2,1.2,0.7,1.7
			s1.1,0.7,2,0.8v-4.8h-0.1c-0.8,0-1.5,0.3-1.9,0.7S317.7,5759.2,317.7,5759.9z"/>
		<path class="st3" d="M317.9,5749.5c0,0.2-0.1,0.5-0.1,0.8c0,1.1,0.5,1.8,1.4,2.2h6.8v1.6h-9.5v-1.6l1.1,0
			c-0.8-0.5-1.3-1.3-1.3-2.3c0-0.3,0-0.6,0.1-0.7H317.9z"/>
		<path class="st3" d="M314.2,5745.4h2.3v-1.8h1.3v1.8h5.9c0.4,0,0.7-0.1,0.9-0.2s0.3-0.4,0.3-0.8c0-0.2,0-0.4-0.1-0.8h1.3
			c0.1,0.4,0.2,0.8,0.2,1.2c0,0.7-0.2,1.3-0.7,1.6s-1.1,0.6-1.9,0.6h-5.9v1.7h-1.3v-1.7h-2.3V5745.4z"/>
		<path class="st3" d="M314,5741.7c-0.3,0-0.5-0.1-0.7-0.2c-0.2-0.2-0.3-0.4-0.3-0.7s0.1-0.6,0.3-0.7s0.4-0.2,0.7-0.2
			s0.5,0.1,0.7,0.2s0.3,0.4,0.3,0.7s-0.1,0.6-0.3,0.7C314.5,5741.6,314.2,5741.7,314,5741.7z M326,5739.9v1.6h-9.5v-1.6H326z"/>
		<path class="st3" d="M323.8,5734.2l-7.3-2.4v-1.7l9.5,3.4v1.2l-9.5,3.4v-1.7L323.8,5734.2z"/>
		<path class="st3" d="M314,5728.6c-0.3,0-0.5-0.1-0.7-0.2c-0.2-0.2-0.3-0.4-0.3-0.7s0.1-0.6,0.3-0.7s0.4-0.2,0.7-0.2
			s0.5,0.1,0.7,0.2s0.3,0.4,0.3,0.7s-0.1,0.6-0.3,0.7C314.5,5728.5,314.2,5728.6,314,5728.6z M326,5726.8v1.6h-9.5v-1.6H326z"/>
		<path class="st3" d="M321.2,5724.6c-1.5,0-2.6-0.3-3.5-1c-0.9-0.7-1.3-1.6-1.3-2.7c0-1.1,0.4-2,1.1-2.6h-5v-1.6H326v1.5l-1,0.1
			c0.8,0.7,1.2,1.6,1.2,2.7c0,1.1-0.5,2-1.4,2.7c-0.9,0.7-2.1,1-3.5,1H321.2z M321.4,5723c1.1,0,1.9-0.2,2.5-0.7s0.9-1.1,0.9-1.8
			c0-1-0.5-1.8-1.4-2.3H319c-0.9,0.5-1.3,1.2-1.3,2.2c0,0.8,0.3,1.4,0.9,1.9S320.1,5723,321.4,5723z"/>
		<path class="st3" d="M326,5708.2c-0.2,0.1-0.5,0.2-1,0.2c0.8,0.8,1.2,1.7,1.2,2.7c0,0.9-0.3,1.7-0.8,2.3c-0.5,0.6-1.2,0.9-2,0.9
			c-1,0-1.8-0.4-2.3-1.1c-0.5-0.8-0.8-1.8-0.8-3.2v-1.6h-0.7c-0.6,0-1,0.2-1.4,0.5c-0.3,0.3-0.5,0.8-0.5,1.5c0,0.6,0.1,1.1,0.4,1.5
			s0.6,0.6,1.1,0.6v1.6c-0.5,0-0.9-0.2-1.4-0.5c-0.4-0.3-0.8-0.8-1.1-1.4c-0.3-0.6-0.4-1.2-0.4-1.9c0-1.1,0.3-2,0.8-2.6
			s1.3-0.9,2.3-1h4.4c0.9,0,1.6-0.1,2.1-0.3h0.1V5708.2z M324.8,5710.9c0-0.5-0.1-1-0.4-1.5s-0.6-0.8-1-1h-2v1.3c0,2,0.6,3,1.7,3
			c0.5,0,0.9-0.2,1.2-0.5S324.8,5711.4,324.8,5710.9z"/>
		<path class="st3" d="M321.2,5704.7c-1.5,0-2.6-0.3-3.5-1c-0.9-0.7-1.3-1.6-1.3-2.7c0-1.1,0.4-2,1.1-2.6h-5v-1.6H326v1.5l-1,0.1
			c0.8,0.7,1.2,1.6,1.2,2.7c0,1.1-0.5,2-1.4,2.7c-0.9,0.7-2.1,1-3.5,1H321.2z M321.4,5703.1c1.1,0,1.9-0.2,2.5-0.7s0.9-1.1,0.9-1.8
			c0-1-0.5-1.8-1.4-2.3H319c-0.9,0.5-1.3,1.2-1.3,2.2c0,0.8,0.3,1.4,0.9,1.9S320.1,5703.1,321.4,5703.1z"/>
	</g>
	<g class="st2">
		<path class="st3" d="M609.2,5902.3c-0.4,0.6-1,1.1-1.8,1.4c-0.8,0.3-1.7,0.5-2.7,0.5c-1,0-2-0.2-2.8-0.7c-0.8-0.5-1.4-1.2-1.9-2.1
			s-0.7-1.9-0.7-3.1v-1.1c0-1.9,0.4-3.4,1.3-4.5s2.2-1.6,3.8-1.6c1.3,0,2.4,0.3,3.2,1c0.8,0.7,1.3,1.7,1.5,2.9h-1.7
			c-0.3-1.7-1.3-2.5-3-2.5c-1.1,0-2,0.4-2.6,1.2c-0.6,0.8-0.9,1.9-0.9,3.5v1c0,1.4,0.3,2.6,1,3.4c0.7,0.8,1.5,1.3,2.7,1.3
			c0.6,0,1.2-0.1,1.7-0.2c0.5-0.1,0.9-0.4,1.2-0.7v-2.9h-3v-1.4h4.6V5902.3z"/>
		<path class="st3" d="M616.4,5895.9c-0.2,0-0.5-0.1-0.8-0.1c-1.1,0-1.8,0.5-2.2,1.4v6.8h-1.6v-9.5h1.6l0,1.1
			c0.5-0.8,1.3-1.3,2.3-1.3c0.3,0,0.6,0,0.7,0.1V5895.9z"/>
		<path class="st3" d="M623.4,5904c-0.1-0.2-0.2-0.5-0.2-1c-0.8,0.8-1.7,1.2-2.7,1.2c-0.9,0-1.7-0.3-2.3-0.8s-0.9-1.2-0.9-2
			c0-1,0.4-1.8,1.1-2.3s1.8-0.8,3.2-0.8h1.6v-0.7c0-0.6-0.2-1-0.5-1.4c-0.3-0.3-0.8-0.5-1.5-0.5c-0.6,0-1.1,0.1-1.5,0.4
			s-0.6,0.6-0.6,1.1h-1.6c0-0.5,0.2-0.9,0.5-1.4s0.8-0.8,1.4-1.1s1.2-0.4,1.9-0.4c1.1,0,2,0.3,2.6,0.8s0.9,1.3,1,2.3v4.4
			c0,0.9,0.1,1.6,0.3,2.1v0.1H623.4z M620.7,5902.7c0.5,0,1-0.1,1.5-0.4s0.8-0.6,1-1v-2h-1.3c-2,0-3,0.6-3,1.7
			c0,0.5,0.2,0.9,0.5,1.2S620.2,5902.7,620.7,5902.7z"/>
		<path class="st3" d="M626.9,5899.1c0-1.5,0.3-2.6,1-3.5c0.7-0.9,1.6-1.3,2.7-1.3c1.1,0,2,0.4,2.6,1.1v-5h1.6v13.5h-1.5l-0.1-1
			c-0.7,0.8-1.6,1.2-2.7,1.2c-1.1,0-2-0.5-2.7-1.4s-1-2.1-1-3.5V5899.1z M628.6,5899.3c0,1.1,0.2,1.9,0.7,2.5s1.1,0.9,1.8,0.9
			c1,0,1.8-0.5,2.3-1.4v-4.4c-0.5-0.9-1.2-1.3-2.2-1.3c-0.8,0-1.4,0.3-1.9,0.9S628.6,5898.1,628.6,5899.3z"/>
		<path class="st3" d="M637.1,5899.1c0-0.9,0.2-1.8,0.5-2.5s0.9-1.3,1.5-1.7s1.4-0.6,2.2-0.6c1.3,0,2.3,0.4,3.1,1.3s1.2,2.1,1.2,3.6
			v0.1c0,0.9-0.2,1.8-0.5,2.5c-0.4,0.7-0.9,1.3-1.5,1.7s-1.4,0.6-2.3,0.6c-1.3,0-2.3-0.4-3.1-1.3s-1.2-2.1-1.2-3.6V5899.1z
			 M638.7,5899.3c0,1.1,0.2,1.9,0.7,2.5s1.1,1,2,1c0.8,0,1.5-0.3,2-1c0.5-0.6,0.7-1.6,0.7-2.7c0-1-0.2-1.9-0.7-2.5
			c-0.5-0.6-1.2-1-2-1c-0.8,0-1.5,0.3-1.9,1S638.7,5898.1,638.7,5899.3z"/>
		<path class="st3" d="M651.8,5899.1c0-1.5,0.3-2.6,1-3.5c0.7-0.9,1.6-1.3,2.7-1.3c1.1,0,2,0.4,2.6,1.1v-5h1.6v13.5h-1.5l-0.1-1
			c-0.7,0.8-1.6,1.2-2.7,1.2c-1.1,0-2-0.5-2.7-1.4s-1-2.1-1-3.5V5899.1z M653.4,5899.3c0,1.1,0.2,1.9,0.7,2.5s1.1,0.9,1.8,0.9
			c1,0,1.8-0.5,2.3-1.4v-4.4c-0.5-0.9-1.2-1.3-2.2-1.3c-0.8,0-1.4,0.3-1.9,0.9S653.4,5898.1,653.4,5899.3z"/>
		<path class="st3" d="M666.3,5904.1c-1.3,0-2.3-0.4-3.1-1.3s-1.2-2-1.2-3.4v-0.3c0-0.9,0.2-1.8,0.5-2.5s0.9-1.3,1.5-1.7
			s1.3-0.6,2.1-0.6c1.2,0,2.2,0.4,2.9,1.2s1,2,1,3.5v0.7h-6.4c0,0.9,0.3,1.7,0.8,2.3c0.5,0.6,1.2,0.9,2,0.9c0.6,0,1.1-0.1,1.5-0.4
			s0.7-0.5,1-0.9l1,0.8C669.1,5903.5,667.9,5904.1,666.3,5904.1z M666.1,5895.6c-0.7,0-1.2,0.2-1.7,0.7s-0.7,1.1-0.8,2h4.8v-0.1
			c0-0.8-0.3-1.5-0.7-1.9S666.8,5895.6,666.1,5895.6z"/>
		<path class="st3" d="M686,5899.9c-0.2,1.4-0.7,2.4-1.5,3.1c-0.8,0.7-2,1.1-3.4,1.1c-1.5,0-2.7-0.5-3.6-1.6s-1.4-2.5-1.4-4.4v-1.2
			c0-1.2,0.2-2.2,0.6-3.1s1-1.6,1.8-2.1c0.8-0.5,1.7-0.7,2.7-0.7c1.4,0,2.4,0.4,3.3,1.1s1.3,1.8,1.4,3.2h-1.7c-0.1-1-0.5-1.8-1-2.2
			c-0.5-0.5-1.2-0.7-2.1-0.7c-1.1,0-1.9,0.4-2.5,1.2s-0.9,1.9-0.9,3.4v1.2c0,1.4,0.3,2.5,0.9,3.3s1.4,1.2,2.4,1.2
			c0.9,0,1.7-0.2,2.2-0.6c0.5-0.4,0.8-1.2,1-2.2H686z"/>
		<path class="st3" d="M687.6,5899.1c0-0.9,0.2-1.8,0.5-2.5s0.9-1.3,1.5-1.7s1.4-0.6,2.2-0.6c1.3,0,2.3,0.4,3.1,1.3s1.2,2.1,1.2,3.6
			v0.1c0,0.9-0.2,1.8-0.5,2.5c-0.4,0.7-0.9,1.3-1.5,1.7s-1.4,0.6-2.3,0.6c-1.3,0-2.3-0.4-3.1-1.3s-1.2-2.1-1.2-3.6V5899.1z
			 M689.3,5899.3c0,1.1,0.2,1.9,0.7,2.5s1.1,1,2,1c0.8,0,1.5-0.3,2-1c0.5-0.6,0.7-1.6,0.7-2.7c0-1-0.2-1.9-0.7-2.5
			c-0.5-0.6-1.2-1-2-1c-0.8,0-1.5,0.3-1.9,1S689.3,5898.1,689.3,5899.3z"/>
		<path class="st3" d="M697.9,5899.1c0-0.9,0.2-1.8,0.5-2.5s0.9-1.3,1.5-1.7s1.4-0.6,2.2-0.6c1.3,0,2.3,0.4,3.1,1.3s1.2,2.1,1.2,3.6
			v0.1c0,0.9-0.2,1.8-0.5,2.5c-0.4,0.7-0.9,1.3-1.5,1.7s-1.4,0.6-2.3,0.6c-1.3,0-2.3-0.4-3.1-1.3s-1.2-2.1-1.2-3.6V5899.1z
			 M699.5,5899.3c0,1.1,0.2,1.9,0.7,2.5s1.1,1,2,1c0.8,0,1.5-0.3,2-1c0.5-0.6,0.7-1.6,0.7-2.7c0-1-0.2-1.9-0.7-2.5
			c-0.5-0.6-1.2-1-2-1c-0.8,0-1.5,0.3-1.9,1S699.5,5898.1,699.5,5899.3z"/>
		<path class="st3" d="M716.6,5899.3c0,1.4-0.3,2.6-1,3.5s-1.6,1.3-2.7,1.3c-1.2,0-2.1-0.4-2.7-1.1v4.6h-1.6v-13.2h1.5l0.1,1.1
			c0.7-0.8,1.6-1.2,2.8-1.2c1.1,0,2,0.4,2.7,1.3s1,2.1,1,3.6V5899.3z M715,5899.1c0-1.1-0.2-1.9-0.7-2.5s-1.1-0.9-1.9-0.9
			c-1,0-1.7,0.4-2.2,1.3v4.5c0.5,0.9,1.2,1.3,2.2,1.3c0.8,0,1.4-0.3,1.9-0.9S715,5900.3,715,5899.1z"/>
		<path class="st3" d="M722.6,5904.1c-1.3,0-2.3-0.4-3.1-1.3s-1.2-2-1.2-3.4v-0.3c0-0.9,0.2-1.8,0.5-2.5s0.9-1.3,1.5-1.7
			s1.3-0.6,2.1-0.6c1.2,0,2.2,0.4,2.9,1.2s1,2,1,3.5v0.7h-6.4c0,0.9,0.3,1.7,0.8,2.3c0.5,0.6,1.2,0.9,2,0.9c0.6,0,1.1-0.1,1.5-0.4
			s0.7-0.5,1-0.9l1,0.8C725.4,5903.5,724.2,5904.1,722.6,5904.1z M722.4,5895.6c-0.7,0-1.2,0.2-1.7,0.7s-0.7,1.1-0.8,2h4.8v-0.1
			c0-0.8-0.3-1.5-0.7-1.9S723.1,5895.6,722.4,5895.6z"/>
		<path class="st3" d="M732.8,5895.9c-0.2,0-0.5-0.1-0.8-0.1c-1.1,0-1.8,0.5-2.2,1.4v6.8h-1.6v-9.5h1.6l0,1.1
			c0.5-0.8,1.3-1.3,2.3-1.3c0.3,0,0.6,0,0.7,0.1V5895.9z"/>
		<path class="st3" d="M739.8,5904c-0.1-0.2-0.2-0.5-0.2-1c-0.8,0.8-1.7,1.2-2.7,1.2c-0.9,0-1.7-0.3-2.3-0.8s-0.9-1.2-0.9-2
			c0-1,0.4-1.8,1.1-2.3s1.8-0.8,3.2-0.8h1.6v-0.7c0-0.6-0.2-1-0.5-1.4c-0.3-0.3-0.8-0.5-1.5-0.5c-0.6,0-1.1,0.1-1.5,0.4
			s-0.6,0.6-0.6,1.1h-1.6c0-0.5,0.2-0.9,0.5-1.4s0.8-0.8,1.4-1.1s1.2-0.4,1.9-0.4c1.1,0,2,0.3,2.6,0.8s0.9,1.3,1,2.3v4.4
			c0,0.9,0.1,1.6,0.3,2.1v0.1H739.8z M737.1,5902.7c0.5,0,1-0.1,1.5-0.4s0.8-0.6,1-1v-2h-1.3c-2,0-3,0.6-3,1.7
			c0,0.5,0.2,0.9,0.5,1.2S736.6,5902.7,737.1,5902.7z"/>
		<path class="st3" d="M747.6,5902.8c0.6,0,1.1-0.2,1.5-0.5s0.7-0.8,0.7-1.3h1.5c0,0.5-0.2,1.1-0.6,1.6s-0.8,0.9-1.4,1.2
			s-1.2,0.4-1.8,0.4c-1.3,0-2.3-0.4-3.1-1.3c-0.8-0.9-1.1-2-1.1-3.5v-0.3c0-0.9,0.2-1.7,0.5-2.5s0.8-1.3,1.5-1.7s1.4-0.6,2.3-0.6
			c1.1,0,2,0.3,2.7,1s1.1,1.5,1.1,2.5h-1.5c0-0.6-0.3-1.1-0.7-1.5c-0.4-0.4-0.9-0.6-1.6-0.6c-0.8,0-1.5,0.3-1.9,0.9
			s-0.7,1.5-0.7,2.6v0.3c0,1.1,0.2,1.9,0.7,2.5S746.7,5902.8,747.6,5902.8z"/>
		<path class="st3" d="M753.2,5891.9c0-0.3,0.1-0.5,0.2-0.7s0.4-0.3,0.7-0.3s0.6,0.1,0.7,0.3s0.2,0.4,0.2,0.7s-0.1,0.5-0.2,0.7
			s-0.4,0.3-0.7,0.3s-0.6-0.1-0.7-0.3S753.2,5892.2,753.2,5891.9z M755,5904h-1.6v-9.5h1.6V5904z"/>
		<path class="st3" d="M757.1,5899.1c0-0.9,0.2-1.8,0.5-2.5s0.9-1.3,1.5-1.7s1.4-0.6,2.2-0.6c1.3,0,2.3,0.4,3.1,1.3s1.2,2.1,1.2,3.6
			v0.1c0,0.9-0.2,1.8-0.5,2.5c-0.4,0.7-0.9,1.3-1.5,1.7s-1.4,0.6-2.3,0.6c-1.3,0-2.3-0.4-3.1-1.3s-1.2-2.1-1.2-3.6V5899.1z
			 M758.8,5899.3c0,1.1,0.2,1.9,0.7,2.5s1.1,1,2,1c0.8,0,1.5-0.3,2-1c0.5-0.6,0.7-1.6,0.7-2.7c0-1-0.2-1.9-0.7-2.5
			c-0.5-0.6-1.2-1-2-1c-0.8,0-1.5,0.3-1.9,1S758.8,5898.1,758.8,5899.3z M762.2,5890.5h2l-2.4,2.6l-1.3,0L762.2,5890.5z"/>
		<path class="st3" d="M769.4,5894.5l0.1,1.2c0.7-0.9,1.7-1.4,2.8-1.4c2,0,3,1.1,3,3.4v6.3h-1.6v-6.3c0-0.7-0.2-1.2-0.5-1.5
			s-0.8-0.5-1.4-0.5c-0.5,0-1,0.1-1.4,0.4s-0.7,0.7-0.9,1.1v6.8h-1.6v-9.5H769.4z"/>
	</g>
	<g id="Línea_208">
		<g>
			<line class="st6" x1="347.5" y1="5835.5" x2="347.5" y2="5513.6"/>
			<g>
				<path class="st1" d="M347.5,5495.5c3.2,8.5,8.6,19.1,14.3,25.6l-14.3-5.2l-14.3,5.2C338.9,5514.6,344.3,5504,347.5,5495.5z"/>
			</g>
		</g>
	</g>
	<g id="Línea_209">
		<g>
			<line class="st6" x1="390.5" y1="5873.5" x2="1182.4" y2="5873.5"/>
			<g>
				<path class="st1" d="M1200.5,5873.5c-8.5,3.2-19.1,8.6-25.6,14.3l5.2-14.3l-5.2-14.3C1181.4,5864.9,1192,5870.3,1200.5,5873.5z"
					/>
			</g>
		</g>
	</g>
</g>
</svg>
