<svg xmlns="http://www.w3.org/2000/svg" width="120" height="120" viewBox="0 0 120 120"><g transform="translate(-293.75 -644.443)"><g transform="translate(293.75 644.443)"><rect width="120" height="120" fill="none"/><path d="M60,10h0a50,50,0,0,1,50,50v50H60A50,50,0,0,1,10,60h0A50,50,0,0,1,60,10Z" transform="translate(120 120) rotate(180)" fill="#043f45"/></g><g transform="translate(319.726 667.977)"><g transform="translate(37.471 32.929)"><path d="M285.853,255.845c-3.066,0-3.406-1.363-3.406-2.044a11.3,11.3,0,0,0,6.813-10.787v-.795A10.177,10.177,0,0,0,279.04,232H265.414a1.073,1.073,0,0,0-1.135,1.135A10.2,10.2,0,0,0,267,240.062a16.416,16.416,0,0,0-.454,3.293,11.475,11.475,0,0,0,6.813,10.446c0,.681-.341,2.044-3.406,2.044a5.622,5.622,0,0,0-5.677,5.677V267.2h2.271v-5.677a3.346,3.346,0,0,1,3.406-3.406c3.52,0,5.677-1.7,5.677-4.542v-.568a1.091,1.091,0,0,0-.795-1.022,9.194,9.194,0,0,1-6.018-8.63,6.98,6.98,0,0,1,.114-1.59,10.282,10.282,0,0,0,5.564,1.59h12.49a8.94,8.94,0,0,1-6.018,8.516,1.091,1.091,0,0,0-.795,1.022v.681c0,2.839,2.157,4.542,5.677,4.542a3.346,3.346,0,0,1,3.406,3.406V267.2h2.271v-5.677A5.622,5.622,0,0,0,285.853,255.845ZM274.5,241.084a7.945,7.945,0,0,1-7.835-6.813H279.04a7.945,7.945,0,0,1,7.835,6.813Z" transform="translate(-264.279 -232)" fill="#fff"/></g><g transform="translate(0)"><path d="M68.294,30.658v-19.3a4.389,4.389,0,0,0-4.428-4.542H41.156V4.542A4.555,4.555,0,0,0,36.614,0H4.821A4.555,4.555,0,0,0,.279,4.542V29.522q0,7.154,5.11,10.219l1.135-1.93C3.913,36.108,2.55,33.5,2.55,29.522V4.542A2.278,2.278,0,0,1,4.821,2.271H36.614a2.278,2.278,0,0,1,2.271,2.271V26.116a2.278,2.278,0,0,1-2.271,2.271H16.4a7.1,7.1,0,0,0-7.04,6.132V35.2h2.271v-.454A4.776,4.776,0,0,1,16.4,30.658H36.614a4.555,4.555,0,0,0,4.542-4.542H54.782a5.622,5.622,0,0,1,5.677,5.677H62.73a7.9,7.9,0,0,0-7.948-7.948H41.156V9.084h22.71a2.278,2.278,0,0,1,2.271,2.271v19.3a9.9,9.9,0,0,1-2.044,6.586l1.7,1.476A11.428,11.428,0,0,0,68.294,30.658Z" transform="translate(-0.279)" fill="#fff"/></g><g transform="translate(6.813 32.891)"><path d="M69.853,256.751a3.373,3.373,0,0,1-3.406-3.179,11.391,11.391,0,1,0-14.988-5.9,11.525,11.525,0,0,0,5.9,5.9,3.373,3.373,0,0,1-3.406,3.179,5.622,5.622,0,0,0-5.677,5.677v4.542H50.55v-4.542a3.346,3.346,0,0,1,3.406-3.406,5.622,5.622,0,0,0,5.677-5.677v-.568a1.091,1.091,0,0,0-.795-1.022,9.187,9.187,0,0,1-6.018-7.381h3.406a1.614,1.614,0,0,0,.681-.227l2.725-1.817,2.725,1.817a1.614,1.614,0,0,0,.681.227h7.835a9,9,0,0,1-6.018,7.381,1.091,1.091,0,0,0-.795,1.022v.568a5.622,5.622,0,0,0,5.677,5.677,3.346,3.346,0,0,1,3.406,3.406v4.542h2.271v-4.542A5.46,5.46,0,0,0,69.853,256.751ZM63.381,241.99l-3.066-2.044a1.23,1.23,0,0,0-1.249,0l-3.179,2.044H52.934a8.92,8.92,0,0,1,10.106-7.835,9.038,9.038,0,0,1,7.835,7.835Z" transform="translate(-48.279 -231.733)" fill="#fff"/></g><g transform="translate(5.78 5.775)"><g transform="translate(0 0)"><rect width="23.649" height="2.2" fill="#fff"/></g></g><g transform="translate(5.78 10.175)"><g transform="translate(0 0)"><rect width="6.6" height="2.2" fill="#fff"/></g></g><g transform="translate(14.855 10.175)"><g transform="translate(0 0)"><rect width="17.05" height="2.2" fill="#fff"/></g></g><g transform="translate(5.78 14.85)"><g transform="translate(0 0)"><rect width="2.2" height="2.2" fill="#fff"/></g></g><g transform="translate(10.18 14.85)"><g transform="translate(0 0)"><rect width="9.075" height="2.2" fill="#fff"/></g></g><g transform="translate(21.454 14.85)"><g transform="translate(0 0)"><rect width="10.45" height="2.2" fill="#fff"/></g></g><g transform="translate(47.579 13.75)"><g transform="translate(0 0)"><rect width="15.95" height="2.2" fill="#fff"/></g></g><g transform="translate(43.179 18.149)"><g transform="translate(0 0)"><rect width="7.975" height="2.2" fill="#fff"/></g></g><g transform="translate(53.353 18.149)"><g transform="translate(0 0)"><rect width="10.175" height="2.2" fill="#fff"/></g></g><g transform="translate(43.179 13.75)"><g transform="translate(0 0)"><rect width="2.2" height="2.2" fill="#fff"/></g></g></g></g></svg>