<?xml version="1.0" encoding="utf-8"?>
<!-- Generator: Adobe Illustrator 25.2.3, SVG Export Plug-In . SVG Version: 6.00 Build 0)  -->
<!DOCTYPE svg PUBLIC "-//W3C//DTD SVG 1.1//EN" "http://www.w3.org/Graphics/SVG/1.1/DTD/svg11.dtd" [
	<!ENTITY ns_extend "http://ns.adobe.com/Extensibility/1.0/">
	<!ENTITY ns_ai "http://ns.adobe.com/AdobeIllustrator/10.0/">
	<!ENTITY ns_graphs "http://ns.adobe.com/Graphs/1.0/">
	<!ENTITY ns_vars "http://ns.adobe.com/Variables/1.0/">
	<!ENTITY ns_imrep "http://ns.adobe.com/ImageReplacement/1.0/">
	<!ENTITY ns_sfw "http://ns.adobe.com/SaveForWeb/1.0/">
	<!ENTITY ns_custom "http://ns.adobe.com/GenericCustomNamespace/1.0/">
	<!ENTITY ns_adobe_xpath "http://ns.adobe.com/XPath/1.0/">
]>
<svg version="1.1" id="Capa_1" xmlns:x="&ns_extend;" xmlns:i="&ns_ai;" xmlns:graph="&ns_graphs;"
	 xmlns="http://www.w3.org/2000/svg" xmlns:xlink="http://www.w3.org/1999/xlink" x="0px" y="0px" viewBox="0 0 442.4 447.8"
	 style="enable-background:new 0 0 442.4 447.8;" xml:space="preserve">
<style type="text/css">
	.st0{fill:#E0E0E0;}
	.st1{fill:#FAFAFA;}
	.st2{fill:#EBEBEB;}
	.st3{fill:#263238;}
	.st4{fill:#77CFD9;}
	.st5{opacity:0.3;}
	.st6{fill:#FFFFFF;}
	.st7{fill:#F26D3D;}
	.st8{fill:#455A64;}
	.st9{fill:#FFBE9D;}
	.st10{fill:#EB996E;}
	.st11{opacity:0.6;}
	.st12{opacity:0.2;}
</style>
<metadata>
	<sfw  xmlns="&ns_sfw;">
		<slices></slices>
		<sliceSourceBounds  bottomLeftOrigin="true" height="447.8" width="442.2" x="0" y="0"></sliceSourceBounds>
	</sfw>
</metadata>
<g transform="translate(-40.31 -40.59)">
	<path class="st0" d="M385.9,379.1c-3.9-2.5-8.4-4-13-4.5c-2.1-0.2-4.4-0.1-6.1,1.1c-0.4,0.2-0.6,0.7-0.6,1.1
		c0.1,0.3,0.3,0.6,0.6,0.8C372.3,381.7,379.7,382.3,385.9,379.1"/>
	<path class="st0" d="M385.5,378.8c-3-2.2-5.8-4.7-8.4-7.4c-2.6-2.7-4.4-6.1-5.3-9.7c-0.3-1.1-0.2-2.3,0.4-3.2
		C379,363.6,384.2,370.4,385.5,378.8"/>
	<path class="st0" d="M385.8,379.1c-0.6-3.6-0.6-7.4,0.1-11c0.7-3.7,2.8-6.9,5.9-9.1c1.1,2.7,0.7,5.8-0.2,8.6
		c-1.3,4.4-3.2,8.5-5.8,12.2"/>
	<path class="st0" d="M392.4,390.8c-3.9,0.6-7.5,2.5-10.4,5.3c-3,2.7-5.1,6.3-6,10.2c3.9-0.2,7.2-3,9.6-6.1S389.7,393.8,392.4,390.8
		"/>
	<path class="st0" d="M393.8,392.7c-3.2-8.1-2-17.2,3-24.3C399,376.5,398.2,385.6,393.8,392.7"/>
	<path class="st0" d="M402.4,403c-7.4-0.5-14.4,3.6-17.8,10.2c-0.2,0.4-0.4,1-0.1,1.4c0.3,0.3,0.7,0.4,1.2,0.4
		c3.5-0.2,6.6-2.3,9.2-4.7S399.7,405.1,402.4,403"/>
	<path class="st0" d="M402.2,402.5c-1.9-6-2-12.4-0.3-18.5c0.7-2.4,1.8-4.9,4-6c0.2-0.1,0.4-0.2,0.6-0.1c0.2,0.1,0.3,0.3,0.4,0.5
		c0.7,1.7,1.1,3.5,0.9,5.3c-0.1,1.8-0.4,3.6-0.8,5.4c-0.7,3.3-1.1,6.8-2.9,9.6c-0.4,0.7-0.8,1.4-1.1,2.1c-0.3,0.7-0.4,1-0.7,1.5"/>
	<path class="st0" d="M425.1,405.9c-1.6-6.8,0-14,4.2-19.6c0.3-0.4,0.7-0.8,1.2-0.8c0.8,0.1,1,1.1,0.9,1.8
		C431,394,428.9,400.4,425.1,405.9"/>
	<path class="st0" d="M427.1,407.3c8.1,1.9,16.7,0.2,23.4-4.8c-3.9-2-8.4-2.5-12.6-1.5C433.6,402,429.8,403.9,427.1,407.3"/>
	<path class="st0" d="M428.9,403c4.4-7.2,12.8-11.8,21.2-12.3c-1.2,3.4-3.7,6.2-6.9,7.7c-3.2,1.5-6.7,2.5-10.2,3
		C431.6,401.7,429.8,402,428.9,403"/>
	<path class="st0" d="M425.5,382.1c1.3-4,2.2-8.2,2.7-12.4c0.5-4.3-0.4-8.5-2.5-12.3c-4.1,8-4.5,17.2-0.4,25.1"/>
	<path class="st0" d="M439.3,375.1c4.8-8.7,14.6-15.7,24.5-16.7C460,368,449.6,375.4,439.3,375.1"/>
	<path class="st0" d="M436.3,376.9c7.2,1.1,13.3,5.7,20,8.4c1.4,0.7,3,1,4.5,0.9c2,0,3.5-1.6,3.5-3.6c0-1-0.5-2-1.3-2.7
		c-0.9-0.9-2.1-1.6-3.3-2c-7.3-3-15.1-3.1-22.8-1.3"/>
	<path class="st0" d="M432.2,381.9c1.6,0.5,2.2,1.3,3.5,2.4c4.4,3.7,9.6,6.3,15.1,7.7c0.6,0.1,1.3,0.2,1.6-0.3s-0.1-1-0.4-1.4
		c-2.4-2.9-5.6-5-9.1-6.2c-3.5-1.3-6.5-2.9-10.7-2.5"/>
	<path class="st0" d="M427.5,351.5c5.9,5.5,13.9,8.2,22,7.5c0.4,0,0.7-0.1,1-0.4c0.5-0.6-0.1-1.5-0.8-2
		C443.2,351.6,435.4,349.5,427.5,351.5"/>
	<path class="st0" d="M433,349.5c7.9-5.8,18.1-7.5,27.4-4.5c-3.6,3.3-8.2,5.3-13,5.7C442.6,351.2,437.7,350.8,433,349.5"/>
	<path class="st0" d="M430.8,335.6c-0.6-6.4-0.2-11.5-0.7-18c0-0.5-0.1-1.1-0.6-1.3c-0.7-0.3-1.2,0.6-1.5,1.3
		c-1.9,6.1-0.9,12.7,2.8,17.9"/>
	<path class="st0" d="M430.4,336.3c4.2-2.7,7.8-6.2,10.7-10.4c2.1-2.9,3.9-6.3,3.4-9.9c-3,0.1-5.8,1.5-7.7,3.8
		c-1.8,2.3-3.2,5-3.9,7.9C432,330.6,431.4,333.5,430.4,336.3"/>
	<path class="st0" d="M440.9,333.4c9.6-3.6,18.5-8.8,26.3-15.5c-3.1-1.3-6.7-0.5-9.9,0.8c-7.1,2.7-13,7.9-16.5,14.6"/>
	<path class="st0" d="M433.3,339.8c4.8,0.7,9.7,0.7,14.6,0.1c4.7-0.8,9.2-2.7,13.6-4.5c0.4-0.1,0.7-0.4,0.9-0.7
		c0.1-0.4,0-0.9-0.3-1.2c-0.3-0.2-0.7-0.4-1.1-0.5c-4.8-1.4-10-0.7-14.7,0.9C441.8,335.4,437.5,337.4,433.3,339.8"/>
	<path class="st0" d="M405.6,351.8c-3.2-6.7-3.2-14.5-0.2-21.4c2,3.1,2.3,7,1.9,10.6s-1.5,7.4-1.5,11.1"/>
	<path class="st0" d="M392.4,345.1c-8.4-0.1-16.4,3.3-22.1,9.4c4.2,0.5,8.4-0.3,12.1-2.2c3.7-2,7.2-4.3,10.4-7"/>
	<path class="st0" d="M383.5,342.1c-4-0.3-7.9-0.8-11.8,0.4c-4,1.1-7.3,3.9-9,7.6c3.8,0.3,7.6-0.4,11.1-2.1
		C377.2,346.3,380.5,344.3,383.5,342.1"/>
	<path class="st0" d="M396.7,342.3c-3.6-2.4-7.4-4.8-11.6-5.8s-9.1-0.3-12.1,2.9c3.4,2,7.6,2.2,11.5,2.2s8.8,0,12.6,1.3"/>
	<path class="st0" d="M396.7,342.5c-6.2-6.1-8.6-17.1-6.1-25.4C395.6,324.6,397.7,333.5,396.7,342.5"/>
	<path class="st0" d="M413.8,325.2c1.2-2.7,2-5.6,3-8.4c1-2.8,2.4-5.4,4.4-7.7c1.9-2.3,4.7-3.7,7.7-4c-1.9,8.5-7.3,15.8-14.9,20.1"
		/>
	<path class="st0" d="M410.7,328.8c-1.9-2.7-4.2-6.3-6.8-8.3s-6-3.2-9.3-2.4C398,324,404,327.9,410.7,328.8"/>
	<path class="st0" d="M411.3,325.4c-1.4-3.2-2.4-6.5-3.1-9.9c-0.6-3.4-0.1-7,1.5-10.1c3.4,6.5,4.5,13.4,1.7,20.1"/>
	<path class="st0" d="M413.8,305.4c1.9-6.4,7.8-11.1,14.1-13.2c0.8-0.3,1.6-0.4,2.5-0.4c0.9,0.1,1.6,0.7,1.8,1.5
		c0.2,1.1-0.7,2.1-1.5,2.8C425.8,300.3,420,303.4,413.8,305.4"/>
	<path class="st0" d="M413.9,300.2c0.2-4.1,0.5-8.3,1.8-12.2s3.9-7.6,7.7-9.3c0.6,4.2-1.2,8.3-3.4,11.9s-4.9,7-6.2,11"/>
	<path class="st0" d="M413.8,303c-1.6-4.6-1.8-10.6-4.5-14.6c-2-2.8-5.1-4.8-6.8-7.8c-1,2.9-0.9,6,0.4,8.8c1.3,2.7,3,5.2,5.2,7.4
		C410.1,299,411.9,300.7,413.8,303"/>
	<path class="st0" d="M413.8,440.1c-0.1,0-0.2-31.1-0.2-69.4s0.1-69.4,0.2-69.4s0.2,31.1,0.2,69.4S414,440.1,413.8,440.1z"/>
	<path class="st0" d="M441,347.1c-0.4,0.2-0.8,0.3-1.2,0.4l-3.2,1.1c-2.7,0.9-6.4,2.3-10.5,3.9s-7.8,3.1-9.9,5
		c-0.9,0.7-1.5,1.6-2,2.6c-0.3,0.7-0.4,1.2-0.4,1.2s0-0.1,0-0.3c0.1-0.3,0.1-0.6,0.2-0.9c0.4-1.1,1.1-2,2-2.8c1.3-1.1,2.7-2,4.3-2.7
		c1.7-0.8,3.6-1.6,5.7-2.5c4-1.7,7.8-3,10.5-3.8c1.4-0.4,2.5-0.7,3.3-1C440.2,347.2,440.6,347.1,441,347.1L441,347.1z"/>
	<path class="st0" d="M449.9,325.2c-0.1,0.1-0.2,0.2-0.3,0.4l-1,0.9l-3.7,3.4l-12.4,11c-4.8,4.3-9,8.4-11.9,11.5
		c-1.5,1.5-2.6,2.8-3.4,3.7l-0.9,1c-0.1,0.1-0.2,0.2-0.3,0.3c0.1-0.1,0.2-0.3,0.3-0.4c0.2-0.2,0.5-0.6,0.8-1.1
		c0.7-0.9,1.9-2.2,3.3-3.8c3.7-4.1,7.7-8,11.8-11.6c4.9-4.3,9.3-8.1,12.5-10.9l3.8-3.3l1-0.9C449.6,325.4,449.8,325.3,449.9,325.2
		L449.9,325.2z"/>
	<path class="st0" d="M427.2,345.3c-0.1,0,0.9-2.4,1.9-5.3s1.5-5.4,1.6-5.4c-0.1,1.9-0.5,3.8-1.2,5.6c-0.4,1.3-0.9,2.5-1.5,3.7
		C427.9,344.4,427.6,344.8,427.2,345.3z"/>
	<path class="st0" d="M413.9,364.1c-0.3-0.3-0.5-0.6-0.8-0.9l-1.9-2.5c-1.6-2.1-3.8-4.9-6.3-8.1s-4.8-5.9-6.4-8l-2-2.4
		c-0.3-0.3-0.5-0.6-0.7-0.9c0.3,0.2,0.6,0.5,0.8,0.8c0.5,0.5,1.2,1.3,2.1,2.3c1.7,2,4,4.8,6.5,7.9s4.7,6,6.2,8.1
		c0.8,1.1,1.4,1.9,1.8,2.5C413.5,363.4,413.7,363.7,413.9,364.1L413.9,364.1z"/>
	<path class="st0" d="M407.9,356.5c-1.2-1.3-2.1-2.9-2.5-4.7c-0.5-1.5-0.7-3.1-0.6-4.7h0.2c-0.1,0.4-0.1,0.5-0.2,0.5
		c0-0.2,0-0.4,0-0.6h0.2c0.1,1.6,0.4,3.1,0.8,4.6C406.4,353.3,407.1,354.9,407.9,356.5L407.9,356.5z"/>
	<path class="st0" d="M400.2,346.8c-0.5-0.4-1.1-0.7-1.7-1c-1.6-0.5-3.2-0.6-4.8-0.4c-1.6,0.1-3.3,0.4-4.9,0.8
		c-0.7,0.2-1.3,0.4-2,0.5c0.6-0.4,1.2-0.6,1.9-0.8c1.6-0.5,3.3-0.8,4.9-0.9c1.7-0.2,3.4,0,5,0.5
		C399.3,345.7,399.9,346.2,400.2,346.8L400.2,346.8z"/>
	<path class="st0" d="M398.4,344.4c0,0.1-1-0.4-2.7-1c-4.3-1.5-8.9-1.8-13.4-1c-1.7,0.3-2.8,0.6-2.8,0.5c0.2-0.1,0.5-0.2,0.7-0.3
		c0.7-0.2,1.3-0.4,2-0.6c2.3-0.5,4.6-0.7,6.9-0.5c2.3,0.2,4.6,0.7,6.7,1.5c0.7,0.3,1.3,0.5,1.9,0.9
		C398,344.1,398.2,344.3,398.4,344.4L398.4,344.4z"/>
	<path class="st0" d="M413.8,334.5c-0.8-2.2-1.4-4.5-2-6.8c-0.6-2.3-1.2-4.6-1.5-6.9C411.8,325.4,413,329.9,413.8,334.5L413.8,334.5
		z"/>
	<path class="st0" d="M413.9,334.5c-0.6-1.4-1.3-2.8-2.1-4c-0.9-1.2-2-2.3-3.2-3.3c0.5,0.1,0.9,0.3,1.2,0.6c0.9,0.7,1.7,1.5,2.3,2.4
		C413.1,331.5,413.7,333,413.9,334.5L413.9,334.5z"/>
	<path class="st0" d="M413.8,423.6c0,0-0.1-0.8-0.5-2.1c-0.5-1.9-1.2-3.7-2.1-5.4c-3-5.6-6.7-10.8-11-15.5c-2.5-2.8-4.9-5.5-6.9-8
		c-1.8-2.2-3.5-4.6-4.9-7.1c-1-1.7-1.8-3.4-2.5-5.3c-0.2-0.6-0.4-1.1-0.5-1.5c-0.1-0.2-0.1-0.4-0.1-0.5c0,0,0.3,0.7,0.8,2
		c0.7,1.8,1.6,3.5,2.6,5.2c1.5,2.4,3.2,4.8,5,7c2,2.5,4.4,5.1,6.9,8c4.4,4.7,8.1,10,11,15.7c0.9,1.8,1.5,3.6,2,5.5
		c0.1,0.5,0.2,1,0.3,1.6C413.9,423.3,413.9,423.4,413.8,423.6z"/>
	<path class="st0" d="M438.4,395.9c-0.4,0.3-0.8,0.5-1.3,0.7c-1.2,0.7-2.3,1.4-3.3,2.2c-1.6,1.2-3,2.6-4.4,4
		c-1.5,1.6-3.1,3.5-4.7,5.5c-3.2,4-6.2,7.6-8.1,10.5c-0.7,1.1-1.4,2.3-2,3.5c-0.2,0.4-0.4,0.9-0.7,1.3c0-0.1,0.1-0.3,0.1-0.4
		c0.1-0.2,0.2-0.6,0.4-1c0.6-1.2,1.2-2.4,1.9-3.5c2.5-3.7,5.1-7.2,8-10.6c1.6-2,3.2-3.9,4.8-5.5c1.4-1.5,2.9-2.8,4.5-4
		c1.1-0.8,2.2-1.5,3.4-2.1c0.4-0.2,0.8-0.3,1-0.4S438.4,395.9,438.4,395.9z"/>
	<path class="st0" d="M438.9,404.9c-0.9,0.2-1.8,0.3-2.7,0.4c-2.2,0.2-4.3,0.7-6.4,1.3c-2.1,0.7-4,1.7-5.8,3c-0.7,0.6-1.4,1.2-2,1.8
		c0.1-0.2,0.2-0.4,0.4-0.6c0.4-0.5,0.9-1,1.4-1.5c1.7-1.4,3.7-2.5,5.8-3.2c2.1-0.6,4.3-1,6.5-1.2C437,404.8,437.9,404.8,438.9,404.9
		L438.9,404.9z"/>
	<path class="st0" d="M422.7,410.4c-0.1-0.1,1.1-2,2-4.5s1.1-4.8,1.3-4.7c0.1,0.5,0,1,0,1.5c-0.1,1.2-0.4,2.3-0.8,3.4
		c-0.4,1.1-0.9,2.2-1.6,3.1C423.3,409.7,423,410.1,422.7,410.4z"/>
	<path class="st0" d="M446.3,371.7c-0.1,0.1-0.3,0.2-0.4,0.2l-1.3,0.6c-0.5,0.2-1.2,0.5-2,0.9s-1.7,0.8-2.6,1.4l-1.5,0.8
		c-0.5,0.3-1,0.6-1.6,1c-1.1,0.7-2.2,1.5-3.4,2.3c-2.5,1.9-4.8,3.9-7,6.2c-2.2,2.3-4.1,4.7-5.9,7.2c-0.8,1.2-1.6,2.3-2.2,3.4
		c-0.3,0.5-0.7,1.1-0.9,1.6s-0.5,1-0.8,1.5c-0.5,1-0.9,1.9-1.3,2.6s-0.7,1.5-0.9,2l-0.5,1.3c-0.1,0.2-0.1,0.3-0.2,0.4
		c0-0.2,0.1-0.3,0.1-0.5l0.5-1.3c0.2-0.6,0.5-1.3,0.8-2.1s0.7-1.7,1.2-2.7l0.8-1.5c0.3-0.5,0.6-1.1,0.9-1.6c0.6-1.1,1.4-2.3,2.2-3.5
		c1.8-2.6,3.8-5,5.9-7.3c2.2-2.2,4.6-4.3,7.1-6.2c1.2-0.8,2.3-1.6,3.4-2.3c0.5-0.3,1.1-0.7,1.6-1l1.5-0.8c1-0.5,1.9-0.9,2.6-1.3
		c0.7-0.3,1.4-0.6,2-0.9l1.3-0.5C446,371.8,446.2,371.7,446.3,371.7L446.3,371.7z"/>
	<path class="st0" d="M426.9,384.7c0.2-0.6,0.6-1.2,1.1-1.6c1.2-1,2.7-1.6,4.3-1.6c1.6,0,3.1,0.3,4.5,0.9c0.6,0.2,1.2,0.5,1.7,0.8
		c-0.6-0.1-1.2-0.3-1.8-0.5c-1.4-0.5-2.9-0.7-4.4-0.7c-1.5,0-2.9,0.5-4.1,1.4C427.7,383.8,427.3,384.3,426.9,384.7L426.9,384.7z"/>
	<path class="st0" d="M424,387.7c0.6-1.3,1-2.6,1.2-4c0.1-1.4,0-2.8-0.3-4.1c0.3,0.3,0.4,0.7,0.5,1.2c0.3,1,0.3,2,0.2,3
		c-0.1,1-0.4,2-0.9,2.9C424.6,387.1,424.3,387.4,424,387.7z"/>
	<path class="st0" d="M392.4,428c0.7,11.9,4.2,23.9,9.8,36.1h23.9c5.2-12.1,8.6-24.1,9.2-36.1H392.4z"/>
	<path class="st1" d="M431.4,447.2c0,0.1-7.9,0.2-17.6,0.2s-17.6-0.1-17.6-0.2s7.9-0.2,17.6-0.2S431.4,447.1,431.4,447.2z"/>
	<path class="st1" d="M430.8,451.5c0,0.1-7.4,0.2-16.5,0.2s-16.5-0.1-16.5-0.2s7.4-0.2,16.5-0.2S430.8,451.4,430.8,451.5z"/>
	<path class="st1" d="M402.5,435.8c0.3,3.7,0.3,7.3,0,11C402.2,443.2,402.2,439.5,402.5,435.8z"/>
	<path class="st1" d="M415.3,435.8c0.3,3.8,0.3,7.6,0,11.4C415,443.4,415,439.6,415.3,435.8z"/>
	<path class="st1" d="M427.4,435.7c0.3,3.9,0.3,7.8,0,11.6C427.1,443.5,427.1,439.6,427.4,435.7z"/>
	<path class="st1" d="M434.5,435.8c0,0.1-9.2,0.2-20.6,0.2s-20.6-0.1-20.6-0.2s9.2-0.2,20.6-0.2S434.5,435.7,434.5,435.8z"/>
	<rect x="55.4" y="329.5" class="st0" width="19.7" height="118.2"/>
	<rect x="87.1" y="329.5" class="st0" width="19.7" height="118.2"/>
	<rect x="118.7" y="329.5" class="st0" width="19.7" height="118.2"/>
	<rect x="150.3" y="329.5" class="st0" width="19.7" height="118.2"/>
	<rect x="182" y="329.5" class="st0" width="19.7" height="118.2"/>
	<rect x="213.6" y="329.5" class="st0" width="19.7" height="118.2"/>
	<rect x="245.3" y="329.5" class="st0" width="19.7" height="118.2"/>
	<path class="st0" d="M44.9,342.8h215.9c0.8,0,1.4,0.6,1.4,1.4v3.5c0,0.8-0.6,1.4-1.4,1.4H44.9c-0.8,0-1.4-0.6-1.4-1.4v-3.5
		C43.4,343.5,44.1,342.8,44.9,342.8z"/>
	<path class="st0" d="M44.9,433.4h215.9c0.8,0,1.4,0.6,1.4,1.4v3.5c0,0.8-0.6,1.4-1.4,1.4H44.9c-0.8,0-1.4-0.6-1.4-1.4v-3.5
		C43.4,434,44.1,433.4,44.9,433.4z"/>
	<rect x="345.4" y="40.6" class="st0" width="109.8" height="181.7"/>
	<rect x="341.7" y="40.6" class="st2" width="109.8" height="181.7"/>
	<rect x="346.4" y="44.3" class="st1" width="100.4" height="174.3"/>
	<rect x="365.5" y="66.9" class="st2" width="61.8" height="129"/>
	<path class="st0" d="M365.5,150.3c-0.1-12,10.7-23.8,22.6-25.5c5.7-0.8,11.7,0.3,17.1-1.9c9.5-3.9,12.5-16.5,22.1-20.2l0.4,93.3
		h-62.2V150.3z"/>
	<path class="st3" d="M451,465.4c0,0.1-90.5,0.3-202,0.3s-202-0.1-202-0.3s90.4-0.3,202-0.3S451,465.2,451,465.4z"/>
	<path class="st4" d="M255,73.8l48.1-2c8.6-0.4,15.9,6.3,16.3,14.9c0,0.1,0,0.2,0,0.3l1.7,74.3c0.2,8.1-5.9,15-14,15.9l0,0
		c-2.7,0.3-4.7,2.6-4.6,5.4l6,157c0.4,10.7-7.9,19.7-18.6,20.2l-183.8,8.2c-2.9,0.1-5.3-2.1-5.4-4.9c0,0,0,0,0-0.1L92.6,90.3
		c-0.1-2.8,2-5.1,4.8-5.3L255,73.8z"/>
	<g class="st5">
		<path d="M100.5,357.6l0.2,5.1l197.9-18.2l-3.8-272.5c0,0-48,7.3-48.9,7.3S100.5,357.6,100.5,357.6z"/>
	</g>
	<path class="st2" d="M229.9,59.1l57.4-3.5l5.9,282.5L91.2,358.6l-29.8-281L229.9,59.1z"/>
	<path class="st3" d="M230,59.1c0,0-1,0.1-3,0.3l-8.7,1l-33.6,3.7L61.5,77.8l0.2-0.2c8,75.3,18.4,173.1,29.8,281l-0.3-0.2l45.3-4.6
		l156.8-15.9l-0.2,0.2c-2.5-123.5-4.6-224.8-5.8-282.5l0.1,0.1l-42.7,2.5l-11,0.6L230,59.1c-0.1,0,1.2-0.1,3.6-0.2l11-0.7l42.7-2.7
		h0.1v0.1c1.2,57.7,3.4,159,6.1,282.5v0.2h-0.2l-156.8,15.9l-45.3,4.6H91v-0.2c-11.4-107.9-21.7-205.7-29.7-281v-0.2h0.2L184.6,64
		l33.6-3.6l8.7-0.9C228.9,59.2,230,59.1,230,59.1z"/>
	<path class="st6" d="M51.4,68.2l27.4,284.3l211.7-19.9L259.9,48.5L51.4,68.2z"/>
	<path class="st3" d="M51.4,68.2l208.5-19.9h0.2v0.2c8.6,79.7,19.2,178,30.6,284.1v0.3h-0.3l-1.5,0.1L78.8,352.7h-0.2v-0.2
		C62.5,184.2,51.6,70.3,51.4,68.2c0.2,2.1,11.3,116,27.6,284.3l-0.3-0.2l210.2-19.8l1.5-0.1l-0.2,0.3
		c-11.4-106.1-21.9-204.3-30.5-284.1l0.2,0.2L51.4,68.2z"/>
	<path class="st0" d="M213.7,283.8c0-17.2,14-31.2,31.3-31.1c17.2,0,31.2,14,31.1,31.3c0,17.2-14,31.2-31.3,31.1
		C227.6,315.1,213.7,301.1,213.7,283.8C213.7,283.8,213.7,283.8,213.7,283.8z M275.5,284c0-16.9-13.7-30.6-30.6-30.6
		s-30.6,13.7-30.6,30.6s13.7,30.6,30.6,30.6C261.9,314.5,275.5,300.9,275.5,284L275.5,284z"/>
	<path class="st0" d="M217.3,283.8c0-15,12.3-27.2,27.3-27.1c15,0,27.2,12.3,27.1,27.3c0,15-12.3,27.2-27.3,27.1
		C229.4,311.1,217.2,298.9,217.3,283.8C217.3,283.8,217.3,283.8,217.3,283.8z M267.7,283.9c0-12.8-10.4-23.1-23.1-23.1
		s-23.1,10.4-23.1,23.1c0,12.8,10.4,23.1,23.1,23.1C257.3,307.1,267.7,296.7,267.7,283.9L267.7,283.9z"/>
	<path class="st0" d="M224,284.2c0-3.1,0.7-6.2,2.2-9l3.6,1.8c-1.1,2.2-1.7,4.7-1.7,7.2c0,8.9,7.3,16.1,16.2,16.1
		c2.9,0,5.8-0.8,8.3-2.3l2.1,3.4c-9.5,5.8-21.9,2.8-27.7-6.8C225,291.5,224,287.9,224,284.2z"/>
	<path class="st0" d="M234.8,266.4c9.9-5.1,22-1.3,27.2,8.6c3.3,6.3,3,14-0.8,20l-3.4-2.1c4.7-7.5,2.4-17.5-5.1-22.2
		c-4.8-3-10.9-3.3-16-0.6L234.8,266.4z"/>
	<path class="st3" d="M113.2,95.3c-0.3-3.1,1.9-5.8,5-6.2c0.1,0,0.3,0,0.4,0c1.8-0.3,3.6,0.3,4.8,1.6l-1.8,2c-0.7-0.7-1.7-1.1-2.7-1
		c-1.7,0.2-2.9,1.7-2.7,3.4c0.2,1.7,1.7,2.9,3.3,2.7c1-0.1,1.9-0.7,2.4-1.6l2.1,1.6c-1,1.5-2.6,2.4-4.4,2.5c-3,0.5-5.9-1.5-6.5-4.6
		C113.2,95.6,113.2,95.5,113.2,95.3z"/>
	<path class="st3" d="M124.3,94.2c-0.1-3.3,2.5-6.1,5.8-6.2c3-0.1,5.6,2,6.1,5c0.3,3.2-2,5.8-5.4,6.2c-3.1,0.5-6-1.6-6.5-4.7
		C124.3,94.4,124.3,94.3,124.3,94.2z M133.2,93.3c-0.3-1.6-1.8-2.7-3.3-2.4c-1.6,0.3-2.7,1.8-2.4,3.3c0.2,1.5,1.6,2.6,3.2,2.4
		c1.6-0.1,2.8-1.5,2.6-3.1C133.2,93.5,133.2,93.4,133.2,93.3z"/>
	<path class="st3" d="M190.9,87.2c-0.1-3.3,2.5-6.1,5.8-6.2c3-0.1,5.6,2,6.1,5c0.3,3.2-2,5.8-5.4,6.2c-3.1,0.5-6-1.6-6.5-4.7
		C190.9,87.4,190.9,87.3,190.9,87.2z M199.8,86.3c-0.3-1.6-1.8-2.7-3.3-2.4c-1.6,0.3-2.7,1.8-2.4,3.3c0.2,1.5,1.6,2.6,3.2,2.4
		c1.6-0.1,2.8-1.5,2.6-3.1C199.8,86.5,199.8,86.4,199.8,86.3z"/>
	<path class="st3" d="M147.5,86.4l1.1,10.8l-2.5,0.2l-5.3-5.2l0.6,5.7l-3,0.3l-1.1-10.8l2.5-0.3l5.3,5.2l-0.6-5.7L147.5,86.4z"/>
	<path class="st3" d="M152.2,88.4l-3.3,0.3l-0.2-2.4l9.6-1l0.2,2.4l-3.3,0.3l0.9,8.3l-3,0.3L152.2,88.4z"/>
	<path class="st3" d="M164.9,92.6l-1.7,0.2l0.3,2.9l-3,0.3l-1.1-10.8l4.9-0.5c2.9-0.3,4.9,1,5.2,3.5c0.2,1.4-0.5,2.9-1.8,3.6
		l2.7,3.2l-3.3,0.3L164.9,92.6z M164.4,87.1l-1.7,0.2l0.3,3.2l1.7-0.2c1.3-0.1,1.8-0.8,1.7-1.8S165.7,87,164.4,87.1z"/>
	<path class="st3" d="M178.9,92l-4.6,0.5l-0.6,2.2l-3.1,0.3l3.6-11.2l3-0.3l5.9,10.3L180,94L178.9,92z M177.8,89.8l-1.8-3.3l-1,3.6
		L177.8,89.8z"/>
	<path class="st3" d="M184.1,85.1l-3.3,0.3l-0.2-2.4l9.6-1l0.2,2.4l-3.3,0.3l0.9,8.3l-3,0.3L184.1,85.1z"/>
	<path class="st3" d="M254.9,121.6c0,0.2-39.9,4-89.2,8.7c-49.3,4.7-89.2,8.3-89.3,8.2s39.9-4,89.2-8.7S254.9,121.5,254.9,121.6z"/>
	<path class="st3" d="M158,119.4c0,0.1-18.4,2-41.2,4.2s-41.2,3.8-41.2,3.6s18.4-2,41.2-4.2S158,119.2,158,119.4z"/>
	<path class="st3" d="M255.7,133.2c0,0.1-39.9,4-89.2,8.7s-89.2,8.3-89.3,8.2s39.9-4,89.2-8.7S255.6,133.1,255.7,133.2z"/>
	<path class="st3" d="M256.4,144.8c0,0.1-39.9,4-89.2,8.7S78,161.8,78,161.6s39.9-4,89.2-8.7S256.4,144.6,256.4,144.8z"/>
	<path class="st3" d="M257.2,156.4c0,0.1-39.9,4-89.2,8.7s-89.2,8.3-89.3,8.2s39.9-4,89.2-8.7S257.2,156.2,257.2,156.4z"/>
	<path class="st3" d="M258,168c0,0.1-39.9,4-89.2,8.7s-89.3,8.3-89.3,8.1s39.9-4,89.2-8.7S258,167.8,258,168z"/>
	<path class="st3" d="M258.8,179.5c0,0.1-39.9,4-89.2,8.7s-89.2,8.3-89.3,8.2s39.9-4,89.2-8.7S258.8,179.4,258.8,179.5z"/>
	<path class="st3" d="M259.5,191.1c0,0.1-39.4,4-88,8.6s-88.1,8.2-88.1,8.1s39.4-4,88.1-8.6S259.5,191,259.5,191.1z"/>
	<path class="st3" d="M190.8,213.4c0,0.1-23.8,2.4-53.1,5s-53.2,4.7-53.2,4.6s23.8-2.4,53.1-5S190.8,213.3,190.8,213.4z"/>
	<path d="M161.9,309.1c0,0.1-14.5,1.5-32.3,3s-32.4,2.6-32.4,2.5s14.5-1.5,32.3-3S161.9,309,161.9,309.1z"/>
	<path d="M134.1,320.2c0,0.1-8.1,1-18.2,1.8s-18.2,1.4-18.2,1.3s8.1-1,18.2-1.8S134.1,320.1,134.1,320.2z"/>
	<path class="st7" d="M131.8,238.7c0,0.1-9.6,1.2-21.3,2.4s-21.4,2-21.4,1.8s9.6-1.2,21.4-2.4S131.8,238.5,131.8,238.7z"/>
	<g class="st5">
		<path d="M74.4,304.4l19.4-3.8l10.9-16.4l-31,10.2L74.4,304.4z"/>
	</g>
	<path class="st4" d="M40.3,283.5l51.9-4.9l12.5,5.7l-10,11.2L42,301.2L40.3,283.5z"/>
	<path d="M197.6,237.4c0.1,0,0.1,0,0.2,0.1c0.2,0.1,0.3,0.1,0.5,0.2c0.6,0.4,1.2,0.9,1.7,1.4c1.8,2.2,3.2,4.6,4.2,7.2
		c1.7,4.1,2.4,8.6,2.2,13.1c-0.1,1.4-0.3,2.7-0.7,4c-0.4,1.4-1,2.7-1.6,4c-1.4,2.8-3.3,5.3-5.5,7.5c-2.5,2.4-5.4,4.3-8.6,5.6
		c-3.5,1.4-7.2,2-10.9,1.7c-8.4-0.9-15.7-6.1-19.2-13.7c-0.9-2-1.5-4.2-1.7-6.4c-0.3-2.3,0-4.6,0.7-6.7c0.7-2.3,2.1-4.2,4-5.6
		c1-0.7,2.1-1.1,3.3-1.2c1.2-0.1,2.4,0,3.6,0.4c2.3,0.8,4.2,2.4,5.5,4.6c1.2,2.1,2,4.5,2.2,6.9c0.5,4.9-0.3,9.9-2.1,14.5
		c-1.9,4.6-4.9,8.7-8.8,11.8c-3.8,3-8.4,4.8-13.2,5.3c-4.6,0.6-9.4-0.2-13.6-2.2c-4-2-7.4-5.1-9.7-9c-2.2-3.6-3.3-7.9-3.3-12.1
		c0-2.1,0.4-4.1,1.2-6c0.7-1.9,1.9-3.5,3.4-4.8c1.5-1.3,3.5-1.8,5.4-1.6c1.9,0.3,3.5,1.2,4.8,2.7c1.2,1.3,2,2.9,2.4,4.7
		c0.3,1.7,0.3,3.3,0,5c-0.7,3.1-1.9,6-3.6,8.6c-1.4,2.4-3.1,4.6-5,6.6c-3,3.3-6.5,6.1-10.4,8.3c-2.4,1.4-5,2.5-7.7,3.4
		c-1.8,0.6-2.8,0.8-2.8,0.8l0.7-0.2c0.5-0.2,1.2-0.3,2.1-0.7c2.7-0.9,5.2-2.1,7.6-3.5c3.8-2.2,7.3-4.9,10.3-8.2
		c1.9-2,3.5-4.3,4.9-6.6c1.7-2.6,2.8-5.5,3.5-8.5c0.3-1.6,0.3-3.3,0-4.9c-0.4-1.7-1.2-3.2-2.3-4.5c-1.2-1.3-2.8-2.2-4.5-2.5
		c-1.8-0.2-3.7,0.3-5.1,1.5c-1.5,1.2-2.6,2.8-3.3,4.6c-0.7,1.9-1.1,3.8-1.1,5.8c-0.1,4.2,1.1,8.3,3.2,11.9c2.2,3.8,5.5,6.8,9.5,8.8
		c4.1,2,8.8,2.7,13.3,2.2c4.7-0.5,9.2-2.3,13-5.2c3.8-3,6.8-7,8.6-11.6c1.9-4.5,2.6-9.4,2.1-14.3c-0.2-2.4-0.9-4.7-2.1-6.7
		c-1.2-2-3-3.5-5.2-4.3c-1.1-0.4-2.2-0.5-3.3-0.4c-1.1,0.1-2.2,0.5-3.1,1.2c-1.8,1.3-3.2,3.2-3.8,5.3c-0.7,2.1-1,4.3-0.7,6.5
		c0.2,2.1,0.8,4.2,1.7,6.2c3.5,7.5,10.6,12.6,18.8,13.5c3.7,0.3,7.4-0.3,10.8-1.7c3.1-1.3,6-3.2,8.5-5.5c2.3-2.1,4.1-4.6,5.5-7.4
		c0.6-1.3,1.2-2.6,1.6-3.9c0.4-1.3,0.6-2.6,0.7-3.9c0.3-4.4-0.4-8.9-2.1-13c-0.9-2.6-2.3-5.1-4.1-7.2c-0.5-0.6-1-1-1.6-1.4
		C198,237.6,197.8,237.5,197.6,237.4z"/>
	<path class="st8" d="M213.6,97.5c0-0.2,0-0.3-0.1-0.5c-0.1-0.3-0.1-0.8-0.2-1.4c-0.1-1.3-0.4-3.1-0.6-5.5
		c-0.5-4.8-1.3-11.8-2.2-20.6l0.2,0.1L102.7,81l0,0l0.2-0.3c1,9.6,2,19,2.9,28.1l-0.3-0.2l77.1-7.9l22.7-2.3l6.1-0.6l1.6-0.2
		L213.6,97.5l-0.5,0.1l-1.6,0.2l-6.1,0.7l-22.6,2.4l-77.2,8.2h-0.2v-0.2c-0.9-9-1.9-18.4-2.9-28v-0.3h0.3l108-11.2h0.2v0.2
		c0.9,8.9,1.6,15.9,2.1,20.7c0.2,2.4,0.4,4.2,0.5,5.5c0.1,0.6,0.1,1.1,0.1,1.4L213.6,97.5z"/>
	<path class="st3" d="M334.6,145.8c0.1-0.6,0.5-1.1,0.9-1.5c1.2-0.8,2.6-1.1,4-1c0.8-1.7,1.4-3.4,1.6-5.3c-0.7,0-1.3-0.2-1.9-0.5
		c-0.1,0-0.2,0-0.3-0.1c-1.3-0.6-1.5-2.6-0.6-3.8c1-1.1,2.2-1.9,3.6-2.4c-1,0.2-1.9,0.6-2.8,1c-1,0.3-2.3,0-2.4-1
		c0-0.3,0-0.6,0.1-0.9l0.6-1.8c0.1-0.5,0.4-0.9,0.8-1.2c0.3-0.1,0.7-0.2,1-0.2c1.1-0.3,1.7-1.7,2.8-2c0.9-0.1,1.7,0,2.5,0.4
		c0.8,0.2,1.9,0,2.2-0.8c-1.1-0.6-2.1-1.4-2.9-2.4c-0.7-1.1-0.6-2.5,0.3-3.5c0.8-0.5,1.8-0.7,2.8-0.6c1.1,0,2.5,0.3,2.8,1.4
		c1.5-0.4,3.1,0.5,3.5,2.1c0,0.1,0,0.1,0,0.2l2.8-0.3c-0.8-0.8-1.9-1.4-2.6-2.3s-0.6-2.6,0.6-2.9c0.4-0.1,0.9,0.1,1.3-0.1
		s0.5-0.4,0.8-0.4c0.2,0,0.4,0.1,0.6,0.2l6,3.9c-0.5-1.2-1.1-2.5-1.6-3.8s-0.9-2.8,0.1-3.5s2.5,0.3,2.7,1.5c1.1-0.2,2.1,0.5,2.3,1.6
		c0,0.1,0,0.1,0,0.2c1-0.4,2.2,0.2,2.5,1.2c0.2,0.6,0.1,1.2-0.2,1.8c1,0,2,0.3,2.9,0.8c0.1-0.9,0.9-1.6,1.9-1.5
		c0.3,0,0.6,0.2,0.9,0.4c0-0.6,0.1-1.2,0.4-1.7c0.3-0.5,0.9-0.6,1.4-0.3c0.1,0,0.1,0.1,0.2,0.1c-0.3-1.1,0.4-2.2,1.5-2.4
		c0.6-0.2,1.3,0,1.8,0.4l1-1.2c1-0.1,2,0.5,2.5,1.4c0.4,0.9-0.3,2.2-1.3,2.2c0.7,0,0.5,1.1,0.1,1.7l-1.7,2.4
		c0.7-0.7,1.9-0.8,2.7-0.2c0.7-0.7,1.7-0.7,2.4,0c0,0,0,0,0,0c0.4-0.6,1.3-0.8,1.9-0.4c0.3,0.2,0.5,0.5,0.6,0.8
		c0.2-0.5,0.8-0.5,1.3-0.4c0.7,0,1.4,0.2,2,0.7c0.5,0.5,0.5,1.5-0.2,1.8c0.6-0.3,1.4,0.3,1.4,1c-0.1,0.7-0.4,1.3-1,1.8
		c-0.6,0.4-1,0.9-1.4,1.5c0.6-0.4,1.3-0.5,2-0.4c1.2-0.1,2.5,0.2,3.6,0.7c0.2-0.5,0.9-0.5,1.4-0.4c1.6,0.3,3.1,1.2,4.3,2.4
		c0.6,0.5,0.9,1.3,0.7,2.1c-0.2,0.3-0.5,0.5-0.8,0.7l-3.8,2.4c2.1,0.7,3.9,2,5.2,3.7c0.8,0.4,1.8,0.5,2.4,1.1s0.6,2-0.2,2
		c0.6,0.5,0.7,1.2,0.5,1.9c-0.1,0.3-0.3,0.5-0.6,0.7c-0.1,0.2-0.3,0.3-0.4,0.5c-0.3,0.2-0.6,0.4-1,0.5c-0.4,0.5-1,0.8-1.7,0.8
		c0.7,0.6,1.3,1.3,1.8,2.2c0.7,1.1,0.7,2.4,0,3.5c0,0.1-0.1,0.1-0.1,0.1c-0.1,0.4-0.4,0.8-0.7,1.1c0.1,0.3,0.2,0.6,0.1,0.9
		c1.9,0.7,2.9,2.9,2.2,4.8c-0.3,0.7-0.7,1.3-1.3,1.7c-0.9,0.6-2.5,0.5-2.6-0.6c-0.4,0.9-1.2,1.5-2.2,1.6c0.7,1.4,0.1,3.1-1.3,3.8
		c-0.1,0-0.2,0.1-0.2,0.1c1.2,1.2,1.2,3.1,0.1,4.2c-0.3,0.3-0.6,0.5-1,0.7c0.5,1.2-0.1,2.5-1.3,3c-1.2,0.5-2.5-0.1-3-1.3
		c0-0.1-0.1-0.1-0.1-0.2c-0.4,0.9-0.9,1.6-1.7,2.2c-0.8,0.5-1.8,0.3-2.3-0.5c0,0,0-0.1-0.1-0.1c-0.6,1.6-2.5,2.4-4.1,1.8
		c-0.2-0.1-0.4-0.2-0.6-0.3c0.1,1.1-0.7,2.1-1.9,2.2c-1.1,0.1-2.1-0.7-2.2-1.8l-5.3-0.1c-1.2,0-2.3-0.1-3.5-0.3
		c-1.5-0.3-2.8-0.9-4-1.9c-0.7-0.8-1.9-1.1-2.8-0.5c-2.9,0.8-5.9,0.1-8.1-1.9c-0.3-0.3-0.7-0.6-1.1-0.9c-0.5-0.2-1-0.3-1.6-0.2
		c-1.3,0-2.6-0.2-3.9-0.6c-1.1-0.2-2.1-0.8-2.7-1.8c-0.5-1,0.1-2.5,1.2-2.5c0.1-0.7-0.1-1.5-0.6-2c-0.5-0.6-1.4-0.6-2-0.1
		c-0.4,0.4-0.4,1,0,1.4c0.1,0.1,0.3,0.2,0.5,0.3c-1.2,0.8-3-0.3-3.1-1.8c0.1-1.5,1.3-2.7,2.9-2.7c-0.3-1-0.3-2.1-0.1-3.2
		c-0.8,0.9-2.2,1.1-3.2,0.4c-0.6,1-1.5,1.7-2.6,1.9c-1.1,0.2-2.2-0.4-2.7-1.5c-0.3-0.9,0.3-1.9,1.2-2.2c0.2,0,0.3-0.1,0.5-0.1
		c-0.5-1-0.1-2.3,1-2.8c0.3-0.1,0.6-0.2,0.9-0.2c-0.2-1.5,0.6-2.9,2-3.5c-0.8,0.5-1.9,0.2-2.3-0.7c0-0.1-0.1-0.2-0.1-0.3
		c-0.7,1.1-2.3,0.8-3.4,0.2C335,147.8,334.4,146.8,334.6,145.8L334.6,145.8z"/>
	<path class="st8" d="M334.6,145.8c0,0.1-0.1,0.3-0.1,0.4c0,0.4,0.1,0.9,0.4,1.2c0.5,0.6,1.1,1,1.8,1.2c0.4,0.2,0.9,0.3,1.4,0.2
		c0.6,0,1.1-0.3,1.4-0.7h-0.1c0.3,0.9,1.3,1.4,2.3,1.1c0.1,0,0.2-0.1,0.3-0.1l-0.1-0.1c-1.4,0.6-2.3,2-2,3.5l0.1-0.1
		c-0.7,0-1.4,0.4-1.8,1c-0.5,0.6-0.5,1.5-0.1,2.2l0.1-0.1c-0.8,0-1.6,0.5-1.8,1.3c-0.2,0.8,0.1,1.7,0.9,2.2c0.8,0.5,1.7,0.6,2.5,0.2
		c0.9-0.4,1.6-1,2.1-1.8h-0.2c1.1,0.8,2.5,0.6,3.4-0.4l-0.2-0.1c-0.2,1.1-0.2,2.2,0.1,3.3l0.1-0.2c-0.7,0-1.4,0.3-2,0.7
		c-0.6,0.5-0.9,1.2-1,1.9c0,0.8,0.3,1.6,1,2c0.7,0.5,1.6,0.6,2.3,0.1l0.3-0.2l-0.4-0.1c-0.4,0-0.7-0.6-0.6-1c0.1-0.5,0.5-0.8,1-0.7
		c0.5,0,1,0.3,1.2,0.7c0.2,0.4,0.3,0.9,0.3,1.4l0.2-0.1c-0.4,0-0.8,0.2-1,0.5c-0.2,0.3-0.4,0.6-0.5,1c-0.1,0.4,0,0.8,0.1,1.1
		c0.2,0.3,0.4,0.7,0.7,0.9c0.6,0.5,1.3,0.8,2,1c0.7,0.2,1.5,0.4,2.2,0.5c1.5,0.3,3.2-0.3,4.2,1.1c1.2,1.1,2.7,1.9,4.3,2.2
		c0.8,0.2,1.7,0.2,2.5,0.1c0.8-0.1,1.6-0.3,2.4-0.5c0.4-0.1,0.8-0.1,1.1,0.1c0.4,0.2,0.7,0.5,1,0.7c0.7,0.6,1.5,1,2.3,1.4
		c1.7,0.6,3.4,0.8,5.2,0.7l5.3,0.1l-0.2-0.2c0.1,1.2,1.3,2.1,2.5,2c1.2-0.1,2-1.2,2-2.4l-0.3,0.2c1.6,1,3.7,0.6,4.7-1
		c0.1-0.2,0.2-0.4,0.3-0.6h-0.4c0.2,0.5,0.6,0.8,1.1,0.9c0.5,0.1,1,0.1,1.5-0.2c0.8-0.6,1.5-1.3,1.9-2.3h-0.4
		c0.5,1.2,1.8,1.9,3.1,1.6c1.3-0.4,2.1-1.9,1.6-3.2l-0.1,0.3c1.6-0.7,2.4-2.6,1.7-4.2c-0.2-0.4-0.4-0.8-0.7-1.1l-0.1,0.4
		c1.6-0.6,2.3-2.4,1.7-4c0-0.1-0.1-0.2-0.1-0.3l-0.2,0.3c1-0.2,1.9-0.8,2.4-1.8l-0.4-0.1c0,0.3,0.1,0.5,0.4,0.7
		c0.2,0.2,0.4,0.3,0.7,0.4c0.5,0.1,1,0.1,1.5-0.1c0.9-0.4,1.6-1.2,1.9-2.2c0.4-1,0.3-2.1-0.1-3c-0.5-0.9-1.2-1.6-2.2-2l0.1,0.3
		c0.1-0.4,0-0.7-0.1-1.1l-0.1,0.3c0.4-0.3,0.7-0.7,0.8-1.2v0.1c0.7-1,0.9-2.2,0.4-3.3c-0.5-1.1-1.2-2.1-2.1-2.8l-0.2,0.4
		c0.7,0,1.5-0.3,1.9-0.9l-0.1,0.1c0.6-0.2,1.2-0.6,1.6-1.1l-0.1,0.1c0.5-0.3,0.8-0.8,0.8-1.4c0-0.6-0.2-1.2-0.7-1.5l-0.1,0.4
		c0.3,0,0.5-0.1,0.7-0.4c0.1-0.2,0.2-0.5,0.2-0.7c0-0.5-0.2-1-0.6-1.3c-0.8-0.6-1.8-0.6-2.5-1.1l0.1,0.1c-1.3-1.8-3.2-3.1-5.4-3.8
		l0,0.4l1.8-1.1l1.3-0.8c0.5-0.3,0.9-0.6,1.3-0.9c0.2-0.2,0.4-0.5,0.4-0.8c0-0.3,0-0.6-0.1-0.9c-0.2-0.5-0.6-0.9-1-1.3
		c-1.2-1.1-2.6-1.8-4.2-2.2c-0.3-0.1-0.6-0.1-0.9,0c-0.3,0-0.6,0.3-0.8,0.6l0.3-0.1c-0.9-0.5-1.9-0.7-2.9-0.7h-1.5
		c-0.5,0-1.1,0.2-1.5,0.5l0.3,0.3c0.4-0.8,1.5-1.3,2.1-2.2c0.4-0.5,0.4-1.1,0.2-1.7c-0.1-0.3-0.4-0.5-0.6-0.6c-0.3-0.2-0.7-0.2-1,0
		l0.2,0.4c0.3-0.1,0.5-0.4,0.6-0.7c0.1-0.3,0.1-0.6,0-0.8c-0.1-0.3-0.2-0.5-0.4-0.7c-0.2-0.2-0.4-0.3-0.7-0.4
		c-0.5-0.2-1-0.3-1.5-0.3c-0.3,0-0.5,0-0.8,0c-0.3,0.1-0.6,0.3-0.7,0.6l0.4,0.1c-0.2-0.9-1.1-1.4-1.9-1.2c-0.4,0.1-0.8,0.3-1,0.7
		h0.4c-0.7-0.8-2-0.8-2.7-0.1c0,0-0.1,0.1-0.1,0.1h0.3c-0.9-0.6-2.2-0.5-3,0.3l0.3,0.3l1.5-2c0.3-0.3,0.5-0.7,0.6-1.2
		c0.1-0.2,0.1-0.5,0-0.7c0-0.1-0.1-0.3-0.2-0.4c-0.1-0.1-0.3-0.1-0.4-0.1v0.4c0.6,0,1.2-0.3,1.4-0.9c0.3-0.5,0.3-1.1,0.1-1.7
		c-0.6-1-1.6-1.5-2.7-1.4h-0.1l-0.1,0.1l-1,1.2h0.3c-0.9-0.8-2.3-0.7-3.1,0.3c-0.4,0.5-0.6,1.2-0.5,1.9l0.4-0.2
		c-0.2-0.3-0.6-0.4-1-0.3c-0.3,0.1-0.7,0.3-0.9,0.5c-0.3,0.5-0.5,1.2-0.5,1.8l0.4-0.1c-0.8-0.7-2-0.6-2.7,0.3
		c-0.2,0.3-0.4,0.7-0.4,1.1l0.3-0.2c-0.9-0.6-1.9-0.9-3-0.9l0.2,0.3c0.7-1,0.5-2.3-0.4-3.1c-0.6-0.5-1.4-0.6-2.1-0.3l0.3,0.2
		c0-1.2-1-2.1-2.2-2.1c-0.1,0-0.3,0-0.4,0.1l0.2,0.2c-0.1-0.5-0.4-1-0.8-1.4c-0.4-0.4-0.9-0.6-1.5-0.5c-0.6,0.1-1.1,0.5-1.3,1
		c-0.2,0.5-0.2,1-0.1,1.5c0.2,0.9,0.6,1.8,1,2.7l1.1,2.6l0.3-0.2l-3.7-2.4l-1.8-1.2c-0.3-0.2-0.6-0.4-1-0.6c-0.2-0.1-0.5,0-0.6,0.1
		c-0.2,0.1-0.3,0.2-0.4,0.3c-0.3,0.1-0.7,0.1-1,0.1c-0.4,0-0.8,0.2-1,0.5c-0.4,0.6-0.5,1.5-0.2,2.2c0.3,0.6,0.8,1.2,1.4,1.6
		c0.5,0.4,1.1,0.8,1.5,1.3l0.1-0.3l-2.8,0.3l0.2,0.2c-0.3-1.6-1.8-2.7-3.5-2.4c-0.1,0-0.2,0-0.3,0.1l0.2,0.1
		c-0.2-0.6-0.8-1.1-1.5-1.3c-0.6-0.2-1.2-0.2-1.8-0.2c-0.6,0-1.2,0-1.8,0.2c-0.6,0.2-1.1,0.6-1.4,1.2c-0.4,1.1-0.2,2.4,0.6,3.3
		c0.7,0.8,1.6,1.5,2.6,2l-0.1-0.2c-0.2,0.4-0.6,0.7-1,0.7c-0.4,0.1-0.9,0-1.3-0.1c-0.5-0.1-0.9-0.3-1.4-0.3c-0.5-0.1-1,0-1.4,0.3
		c-0.8,0.5-1.3,1.3-2,1.7c-0.4,0.2-0.8,0.1-1.2,0.3c-0.4,0.2-0.7,0.6-0.8,1c-0.3,0.8-0.5,1.6-0.8,2.3c-0.2,0.4-0.1,0.9,0.1,1.2
		c0.2,0.3,0.6,0.6,1,0.7c0.4,0.1,0.8,0.1,1.2,0c0.4-0.2,0.7-0.4,1-0.6c0.6-0.3,1.3-0.6,2-0.7v-0.2c-0.8,0.3-1.6,0.7-2.3,1.1
		c-0.7,0.4-1.3,1-1.6,1.8c-0.3,0.7-0.4,1.5-0.2,2.2c0.2,0.7,0.7,1.2,1.4,1.4l0,0c0.6,0.4,1.2,0.6,1.9,0.5L341,138
		c-0.2,1.8-0.8,3.6-1.6,5.3l0,0c-0.9,0-1.8,0.1-2.6,0.3c-0.6,0.2-1.2,0.5-1.6,0.9c-0.3,0.3-0.4,0.6-0.6,0.9
		C334.5,145.6,334.5,145.7,334.6,145.8c0.1-0.4,0.3-0.9,0.6-1.2c0.4-0.4,1-0.7,1.6-0.9c0.9-0.2,1.7-0.3,2.6-0.3l0,0
		c0.8-1.7,1.4-3.4,1.6-5.3V138H341c-0.6,0-1.3-0.2-1.8-0.5l0,0c-0.6-0.2-1.1-0.7-1.3-1.3c-0.2-0.7-0.1-1.4,0.2-2.1
		c0.4-0.7,0.9-1.3,1.6-1.6c0.7-0.4,1.5-0.8,2.3-1.1l0.6-0.3h-0.7c-0.7,0.1-1.4,0.3-2,0.7c-0.3,0.2-0.7,0.3-1,0.4
		c-0.3,0.1-0.7,0.1-1.1,0c-0.4-0.1-0.7-0.3-0.9-0.6c-0.2-0.3-0.2-0.7-0.1-1l0.7-2.3c0.1-0.4,0.4-0.7,0.7-0.9
		c0.4-0.1,0.8-0.2,1.2-0.3c0.9-0.4,1.3-1.2,2.1-1.7c0.8-0.3,1.8-0.3,2.6,0.1c0.5,0.2,1,0.2,1.5,0.1c0.5-0.1,1-0.4,1.2-0.9v-0.1
		l-0.1-0.1c-0.9-0.5-1.8-1.2-2.5-2c-0.7-0.8-0.9-2-0.5-3c0.2-0.5,0.7-0.8,1.2-1c0.5-0.2,1.1-0.2,1.7-0.2c0.6,0,1.2,0.1,1.7,0.2
		c0.5,0.1,1,0.5,1.2,1v0.2l0.2-0.1c1.4-0.4,2.9,0.5,3.3,2c0,0,0,0.1,0,0.1v0.2h0.2l2.8-0.3h0.4l-0.2-0.3c-0.5-0.5-1-0.9-1.6-1.3
		c-0.5-0.4-1-0.9-1.2-1.4c-0.2-0.6-0.2-1.3,0.2-1.8c0.2-0.2,0.5-0.4,0.8-0.4c0.4,0,0.8,0,1.1-0.1c0.4-0.2,0.6-0.4,0.9-0.3
		c0.3,0.1,0.6,0.3,0.9,0.5l1.8,1.2l3.7,2.4l0.5,0.3l-0.3-0.6l-1.1-2.6c-0.4-0.8-0.7-1.7-1-2.6c-0.1-0.4-0.1-0.9,0.1-1.3
		c0.2-0.4,0.5-0.7,0.9-0.7c0.9,0,1.7,0.7,1.8,1.6v0.2l0.2-0.1c0.9-0.2,1.9,0.4,2.1,1.3c0,0.1,0,0.2,0,0.3v0.3l0.3-0.1
		c0.9-0.4,1.9,0.1,2.3,1c0.2,0.6,0.1,1.2-0.2,1.7l-0.2,0.3h0.4c1,0,1.9,0.3,2.7,0.8l0.3,0.2V120c0.1-0.8,0.9-1.4,1.7-1.3
		c0.3,0,0.5,0.1,0.7,0.3l0.3,0.3v-0.5c0-0.5,0.1-1.1,0.4-1.6c0.3-0.4,1-0.5,1.2-0.2l0.6,0.8l-0.2-1c-0.2-1,0.4-1.9,1.4-2.1
		c0.5-0.1,1.1,0,1.5,0.4l0.2,0.1l0.1-0.2l1-1.2l-0.2,0.1c0.9-0.1,1.8,0.4,2.3,1.2c0.4,0.8-0.2,2-1,1.9v0.4c0.1,0,0.2,0.1,0.2,0.2
		c0,0,0,0,0,0c0,0.2,0,0.3,0,0.5c-0.1,0.4-0.3,0.7-0.5,1l-1.5,2l0.3,0.3c0.7-0.6,1.7-0.7,2.5-0.2l0.2,0.1l0.1-0.2
		c0.6-0.6,1.5-0.6,2.1,0c0,0,0,0,0,0l0.2,0.3l0.1-0.3c0.4-0.5,1.1-0.6,1.6-0.3c0.2,0.2,0.4,0.4,0.4,0.6l0.1,1.1l0.3-1.1
		c0.1-0.3,0.6-0.3,1-0.3c0.5,0,0.9,0.1,1.3,0.3c0.4,0.1,0.7,0.4,0.8,0.8c0.1,0.4,0,0.8-0.3,0.9l0.2,0.4c0.3-0.2,0.8,0.1,1,0.5
		c0.2,0.4,0.1,0.9-0.2,1.2c-0.5,0.8-1.6,1.2-2.1,2.3l-0.5,1l0.9-0.7c0.7-0.5,1.7-0.3,2.6-0.3c0.9,0,1.9,0.2,2.7,0.6l0.2,0.1l0.1-0.2
		c0.1-0.3,0.7-0.4,1.1-0.3c0.5,0.1,1,0.2,1.4,0.4c0.9,0.4,1.8,0.9,2.5,1.6c0.4,0.3,0.7,0.7,0.9,1.1c0.2,0.4,0.1,0.9-0.2,1.2
		c-0.4,0.3-0.8,0.6-1.3,0.8l-1.3,0.8l-1.6,1l-0.4,0.3l0.5,0.1c2.1,0.6,3.9,1.9,5.1,3.6l0,0c0.9,0.5,1.8,0.5,2.4,1
		c0.3,0.3,0.4,0.6,0.4,1c0,0.4-0.2,0.7-0.5,0.6H404l0.6,0.4c0.3,0.3,0.5,0.7,0.5,1.2c0,0.4-0.3,0.8-0.6,1h0
		c-0.3,0.5-0.8,0.8-1.3,0.9H403l0,0.1c-0.4,0.5-0.9,0.7-1.5,0.7l-0.7-0.1l0.5,0.5c0.9,0.7,1.6,1.6,2,2.6c0.4,1,0.3,2.1-0.3,2.9l0,0
		v0.1c-0.1,0.4-0.3,0.7-0.6,0.9l-0.2,0.1l0.1,0.2c0.1,0.2,0.2,0.5,0.1,0.8v0.2l0.2,0.1c0.9,0.3,1.5,1,1.9,1.8
		c0.4,0.8,0.4,1.8,0.1,2.6c-0.3,0.8-0.9,1.5-1.6,1.9c-0.4,0.2-0.8,0.2-1.2,0.1c-0.4,0-0.6-0.3-0.7-0.7l0-0.9l-0.4,0.8
		c-0.4,0.8-1.2,1.4-2,1.5h-0.3l0.2,0.3c0.6,1.3,0.1,2.9-1.2,3.5c-0.1,0-0.1,0.1-0.2,0.1l-0.4,0.1l0.3,0.3c0.7,0.7,1,1.6,0.8,2.6
		c-0.1,0.9-0.8,1.7-1.6,2l-0.2,0.1l0.1,0.2c0.3,1.1-0.3,2.3-1.4,2.7c-1.1,0.3-2.2-0.3-2.6-1.3l-0.1-0.5l-0.2,0.4
		c-0.3,0.9-0.9,1.6-1.7,2.1c-0.7,0.4-1.6,0.1-2-0.5l-0.2-0.6l-0.2,0.6c-0.3,0.9-1,1.5-1.9,1.7c-0.8,0.3-1.7,0.1-2.4-0.3l-0.3-0.2
		v0.4c0,1-0.8,1.9-1.8,1.9c-0.9,0-1.8-0.6-1.9-1.6v-0.2H379l-5.3-0.1c-1.7,0.1-3.4-0.2-5-0.7c-0.8-0.3-1.5-0.7-2.2-1.2
		c-0.3-0.3-0.6-0.5-1-0.8c-0.4-0.2-0.9-0.3-1.3-0.2c-0.8,0.3-1.6,0.4-2.4,0.5c-2.4,0.2-4.7-0.6-6.5-2.2c-0.3-0.3-0.6-0.6-0.9-0.8
		c-0.4-0.2-0.8-0.3-1.2-0.3c-0.8,0-1.5,0-2.3-0.1c-0.7-0.1-1.5-0.2-2.2-0.4c-0.7-0.2-1.3-0.5-1.9-0.9c-0.5-0.4-0.8-1.1-0.8-1.8
		c0-0.7,0.5-1.2,1.2-1.3h0.1v-0.1c0.1-0.6,0-1.2-0.3-1.7c-0.3-0.5-0.9-0.9-1.5-0.9c-0.6-0.1-1.2,0.4-1.3,1c-0.1,0.6,0.2,1.2,0.9,1.4
		l-0.1-0.3c-0.6,0.4-1.4,0.3-1.9-0.1c-0.6-0.4-0.9-1-0.9-1.7c0.2-1.4,1.3-2.4,2.7-2.4h0.2V160c-0.3-1-0.3-2-0.2-3l0.1-0.6l-0.4,0.5
		c-0.8,0.9-2.1,1-3,0.3l-0.1-0.1l-0.1,0.1c-0.5,0.7-1.1,1.3-1.9,1.7c-0.8,0.3-1.6,0.2-2.3-0.2c-0.7-0.4-1-1.2-0.8-1.9
		c0.2-0.7,0.8-1.2,1.5-1.2h0.2l-0.1-0.2c-0.5-1-0.1-2.2,0.9-2.7c0.3-0.1,0.6-0.2,0.8-0.2h0.1v-0.1c-0.2-1.4,0.6-2.8,1.9-3.4
		l-0.1-0.1c-0.8,0.4-1.8,0.1-2.2-0.7c0-0.1-0.1-0.1-0.1-0.2v-0.1l-0.1,0.1c-0.3,0.4-0.8,0.7-1.3,0.7c-0.5,0-0.9-0.1-1.3-0.2
		c-0.7-0.2-1.3-0.6-1.8-1.1c-0.3-0.3-0.4-0.7-0.4-1.2C334.6,146.1,334.5,145.9,334.6,145.8z"/>
	<path class="st9" d="M383,150.1c0.5-9.3-6.6-17.2-15.9-17.7c-0.2,0-0.4,0-0.6,0c-9.1-0.2-16.8,6.8-17.6,15.9
		c-0.7,7.9-1.2,15.8-1,18.6c0.7,8.6,6,11.6,8.1,12.5c0.8,0.2,1.5,0.4,2.3,0.4l0,0c0,0,0.1,0,0.1,0c0,0,0,0,0,0l-1.3,10
		c-0.5,6.5-1.9,28.7,4.7,29.2s17-21.4,17.6-28L383,150.1z"/>
	<path class="st3" d="M351.5,154.5c-0.1,0.8,0.4,1.4,1.2,1.5c0,0,0,0,0,0c0.7,0.1,1.4-0.4,1.5-1.1c0,0,0,0,0,0
		c0.1-0.7-0.5-1.4-1.2-1.5C352.3,153.3,351.6,153.7,351.5,154.5z"/>
	<path class="st3" d="M351,150.4c0.2,0.2,1.3-0.5,2.8-0.4s2.5,0.9,2.7,0.8s-0.1-0.4-0.5-0.8c-0.6-0.5-1.4-0.8-2.1-0.8
		c-0.8-0.1-1.6,0.1-2.2,0.5C351.3,149.9,351.1,150.1,351,150.4z"/>
	<path class="st3" d="M365.5,155.6c-0.1,0.7,0.5,1.4,1.2,1.5c0,0,0,0,0,0c0.7,0.1,1.4-0.4,1.5-1.1c0,0,0,0,0,0
		c0.1-0.7-0.5-1.4-1.2-1.5C366.3,154.3,365.6,154.8,365.5,155.6C365.5,155.6,365.5,155.6,365.5,155.6z"/>
	<path class="st3" d="M365.7,151.9c0.2,0.2,1.3-0.5,2.8-0.4s2.5,0.9,2.7,0.8s-0.1-0.4-0.5-0.8c-0.6-0.5-1.4-0.8-2.1-0.8
		c-0.8-0.1-1.6,0.1-2.2,0.5C365.8,151.5,365.6,151.8,365.7,151.9z"/>
	<path class="st3" d="M359.4,162.3c-0.8-0.3-1.6-0.5-2.4-0.6c-0.4-0.1-0.7-0.2-0.8-0.4c0-0.4,0.1-0.8,0.4-1.1
		c0.4-0.9,0.9-1.8,1.4-2.8c1.9-3.9,3.3-7.2,3.1-7.3s-1.8,3.1-3.7,7L356,160c-0.3,0.4-0.4,0.9-0.3,1.4c0.1,0.3,0.3,0.5,0.6,0.6
		c0.2,0.1,0.4,0.1,0.6,0.1C357.7,162.3,358.6,162.4,359.4,162.3z"/>
	<path class="st10" d="M358.4,179.8c0,0,5.7,0.9,13.3-2.8c-0.5,0.2-2.6,8.7-13.7,5.5L358.4,179.8z"/>
	<path class="st10" d="M359.7,165.9c0.6-0.7,1.6-1,2.5-0.8c0.7,0.1,1.2,0.5,1.6,1c0.4,0.5,0.4,1.2,0,1.8c-0.5,0.5-1.3,0.6-2,0.3
		c-0.7-0.3-1.3-0.7-1.9-1.2c-0.2-0.1-0.3-0.3-0.4-0.5c-0.1-0.2-0.1-0.4,0-0.6"/>
	<path class="st3" d="M363.7,163.7c-0.2,0-0.4,1.6-1.9,2.6s-3.2,0.7-3.2,0.9s0.4,0.3,1.1,0.4c0.9,0.1,1.9-0.2,2.7-0.7
		c0.7-0.5,1.3-1.3,1.5-2.2C364,164.1,363.8,163.7,363.7,163.7z"/>
	<path class="st3" d="M365.8,147.1c0.1,0.4,1.6,0.3,3.4,0.7s3.1,0.9,3.4,0.6c0.1-0.2-0.1-0.6-0.6-1c-0.7-0.5-1.6-0.9-2.5-1.1
		c-0.9-0.2-1.8-0.1-2.7,0.1C366.1,146.6,365.7,146.9,365.8,147.1z"/>
	<path class="st3" d="M351.8,146.6c0.2,0.4,1.3,0.1,2.5,0.2s2.3,0.4,2.5,0.1c0.1-0.2,0-0.5-0.5-0.9c-1.2-0.9-2.8-0.9-4.1-0.2
		C351.9,146.1,351.7,146.4,351.8,146.6z"/>
	<path class="st3" d="M346.6,137.9c0-0.5,0.1-1,0.2-1.4c0.3-0.7,0.7-1.3,1.3-1.8c1.8-1.8,3.7-3.6,6-4.2c1.4-0.4,2.9-0.2,4.2-0.6
		c0.9-0.3,1.7-0.6,2.5-0.9c3.5-1.1,7.2-1.3,10.8-0.6c2,0.3,4,0.9,5.8,1.9c2,1.3,3.7,2.9,5.2,4.7c2.5,2.7,4.4,5.9,5.8,9.3
		c1.1,2.8,1.4,5.8,0.8,8.8c-0.7,2.9-2.8,5.6-5.3,6c-0.3-0.4-0.6-0.8-0.9-1.2l-1.4-1.8c0.2,0.7,0,0.7-0.6,1c-0.6,0.3-1.3,0.1-1.6-0.6
		c0,0,0,0,0-0.1c-0.5,0.6-1.5-0.1-1.3-0.9c-0.6,0.3-1.3-0.6-1-1.2c-0.7,0.2-1-0.9-1.3-1.6c-0.2-0.4-0.4-0.8-0.6-1.1
		c-0.6-1.3-0.9-2.7-0.8-4.1c-0.7-1.2-1-2.6-0.9-4c0-0.9-0.1-1.8-0.1-2.6l-0.4-0.6c0,0.6-0.5,1.1-1.1,1.3c-0.5,0.1-1.1,0-1.6-0.2
		l-1.5-0.4l-1,0.2c0.1,0.9-0.1,1.8-0.5,2.5c-0.2,0.6-0.5,1-1,1.4c-0.4,0.2-0.8,0-1-0.4c-0.1-0.1-0.1-0.3,0-0.5
		c-0.4,0.3-0.9,0.2-1.2-0.1c0,0-0.1-0.1-0.1-0.2c-0.2-0.5-0.3-1.1-0.2-1.6c0.1-1.4,0.7-2.6,1.6-3.7l-2.9,2.3
		c-0.2,0.2-0.4,0.3-0.7,0.4c0,0.4-0.3,0.7-0.7,0.7c0,0-0.1,0-0.1,0c-0.4-0.1-0.7-0.4-1-0.8c-0.6-0.8-1.2-2-0.6-2.7
		c-0.3-0.1-0.4-0.6-0.2-0.9l-3.3,2.1c0.3-0.1,0.6,0.4,0.5,0.8c-0.1,0.4-0.4,0.7-0.7,0.9c0.2,0.5,0.3,1,0.2,1.5
		c0.6-0.4,1.4,0.5,1.1,1.3c-0.3,0.7-1,1.2-1.7,1.1c-0.6,0-1.2-0.4-1.3-1c-0.7,0.1-1.3-0.9-1-1.6c-0.5,0.3-0.9-0.6-0.9-1.3
		c0-1.2,0.3-2.3,0.8-3.4c-0.1,0.1-0.2,0.1-0.2,0.1c0,0,0,0,0,0c0,0-0.1-0.1,0-0.1l-2,3.8c-0.6,1.1-1,2.2-1.2,3.4
		c0,0.5-0.2,1.2-0.6,1.2c-0.1,0-0.2,0-0.3-0.1c-1.2-0.8-2.1-2-2.5-3.5c-0.2-0.5-0.3-1-0.3-1.5C346,140,346.2,138.9,346.6,137.9
		L346.6,137.9z"/>
	<path class="st9" d="M381.4,155.2c0.1-0.1,6-1.4,5.5,4.5s-6.3,4.1-6.3,3.9S381.4,155.2,381.4,155.2z"/>
	<path class="st10" d="M382.5,161.5c0.1,0.1,0.2,0.1,0.3,0.2c0.2,0.1,0.5,0.2,0.8,0.1c0.8-0.4,1.3-1.2,1.4-2.1c0.1-0.5,0-1-0.1-1.5
		c-0.1-0.4-0.3-0.7-0.7-0.9c-0.2-0.1-0.5,0-0.6,0.2c-0.1,0.2-0.1,0.3-0.1,0.3s-0.1-0.1,0-0.3c0-0.1,0.1-0.3,0.3-0.4
		c0.2-0.1,0.4-0.1,0.6-0.1c0.5,0.1,0.9,0.5,1,1c0.2,0.5,0.3,1.1,0.2,1.7c0,1.1-0.7,2-1.7,2.4c-0.3,0.1-0.7,0-0.9-0.2
		C382.5,161.7,382.5,161.5,382.5,161.5z"/>
	<path class="st8" d="M360.1,136.5c-0.2-0.2-0.3-0.5-0.3-0.8c0-0.3,0.1-0.6,0.3-0.9c0.3-0.3,0.8-0.3,1.1-0.2l0.2,0.1l-0.1-0.2
		c-0.1-0.5,0-1,0.4-1.3c0.5-0.3,1.1-0.2,1.5,0.2l0.2-0.2c0-0.1-0.1-0.1-0.1-0.2c0-0.2,0-0.4,0.1-0.5c0.1-0.2,0.3-0.2,0.5-0.3
		c0.2,0,0.4,0,0.6,0.1c0.2,0.1,0.4,0.2,0.6,0.2c0.3,0,0.4-0.2,0.6-0.3c0.2-0.1,0.3-0.2,0.5-0.2c0.3-0.1,0.7-0.2,1-0.1
		c0.5,0,0.9,0.2,1.3,0.4c0.3,0.2,0.4,0.4,0.4,0.3c-0.1-0.2-0.2-0.3-0.4-0.4c-0.4-0.3-0.9-0.5-1.4-0.6c-0.3,0-0.7,0-1,0.1
		c-0.2,0.1-0.4,0.2-0.5,0.3c-0.2,0.1-0.3,0.2-0.5,0.2c-0.2,0-0.4-0.1-0.5-0.2c-0.2-0.1-0.5-0.1-0.7-0.1c-0.3,0-0.5,0.2-0.7,0.4
		c-0.2,0.2-0.3,0.5-0.2,0.8c0,0.1,0.1,0.2,0.1,0.2l0.2-0.2c-0.5-0.6-1.3-0.6-1.9-0.1c-0.4,0.4-0.6,0.9-0.4,1.5l0.1-0.1
		c-0.5-0.2-1-0.1-1.4,0.3c-0.3,0.3-0.4,0.6-0.4,1c0,0.2,0.1,0.5,0.3,0.6C360.1,136.4,360.1,136.5,360.1,136.5L360.1,136.5z"/>
	<path class="st8" d="M353.5,137.7c-0.2-0.2-0.4-0.5-0.4-0.8c-0.1-0.3,0-0.7,0.1-1c0.2-0.4,0.6-0.6,1.1-0.7h0.2l-0.1-0.2
		c-0.3-0.4-0.5-0.9-0.3-1.5c0.1-0.3,0.3-0.5,0.6-0.6c0.3-0.1,0.6,0,0.8,0.2l0.7,0.9l-0.5-1c-0.2-0.4-0.2-0.8,0-1.1
		c0.2-0.4,0.6-0.6,1-0.7c0.3,0,0.6,0,0.9,0.2l0.3,0.2l-0.1-0.3c-0.1-0.5,0.3-0.9,0.7-1c0,0,0.1,0,0.1,0c0.5,0,1,0.2,1.4,0.5l0.2,0.2
		l0-0.3c0-0.4,0.1-0.7,0.4-0.9c0.3-0.2,0.6-0.3,0.9-0.3c0.6,0,1.1,0,1.7,0.2c0.5,0.2,0.9,0.4,1.4,0.6c-0.1-0.1-0.2-0.2-0.3-0.3
		c-0.8-0.5-1.8-0.8-2.8-0.8c-0.4,0-0.7,0.1-1,0.3c-0.4,0.3-0.6,0.7-0.5,1.1l0.2-0.1c-0.4-0.3-1-0.5-1.5-0.5c-0.3,0-0.6,0.2-0.8,0.4
		c-0.2,0.2-0.3,0.6-0.2,0.9l0.2-0.1c-0.3-0.2-0.7-0.2-1-0.2c-0.5,0.1-0.9,0.4-1.2,0.9c-0.2,0.4-0.2,0.9,0,1.4l0.2-0.1
		c-0.3-0.3-0.6-0.4-1-0.2c-0.3,0.1-0.6,0.4-0.7,0.7c-0.2,0.6,0,1.2,0.4,1.7l0.1-0.2c-0.5,0-1,0.3-1.2,0.8c-0.2,0.3-0.2,0.7-0.1,1.1
		c0.1,0.2,0.2,0.4,0.4,0.6C353.4,137.6,353.5,137.7,353.5,137.7z"/>
	<path class="st8" d="M339.2,137.7c0-0.3,0.2-0.5,0.4-0.7c0.3-0.2,0.6-0.3,0.9-0.2c0.4,0.1,0.8,0.2,1.2,0.4l0.1,0.1v-0.2
		c0.1-0.5,0.5-0.9,1-1c0.6,0,1.3,0.1,1.8,0.5l0.8,0.4l-0.7-0.6c-0.3-0.4-0.2-1,0.2-1.3c0,0,0,0,0,0c0.5-0.3,1.1-0.4,1.7-0.2h0.1
		l0.5,0.1l-0.4-0.3c-0.4-0.4-0.4-1,0-1.4c0.1-0.1,0.1-0.1,0.2-0.2c0.6-0.2,1.2-0.1,1.7,0.3l0.5,0.5l-0.3-0.6
		c-0.4-0.8-0.3-1.6,0.2-2.3c0.4-0.5,1-0.8,1.6-0.9c0.4,0,0.8,0.1,1.2,0.3c0.3,0.1,0.4,0.2,0.4,0.2l-0.1-0.1
		c-0.1-0.1-0.2-0.2-0.3-0.2c-0.4-0.2-0.8-0.4-1.3-0.3c-0.7,0-1.4,0.3-1.8,0.9c-0.5,0.7-0.6,1.7-0.2,2.5l0.2-0.2
		c-0.5-0.5-1.3-0.7-2-0.4c-0.3,0.2-0.6,0.5-0.6,0.9c-0.1,0.4,0,0.8,0.4,1.1l0.1-0.2h-0.1c-0.6-0.2-1.3-0.1-1.9,0.3
		c-0.3,0.2-0.4,0.5-0.5,0.8c-0.1,0.3,0,0.7,0.3,0.9l0.1-0.2c-0.6-0.3-1.3-0.5-2-0.5c-0.6,0.1-1.1,0.6-1.2,1.3l0.1-0.1
		c-0.4-0.2-0.8-0.3-1.3-0.4c-0.4,0-0.7,0.1-1,0.3c-0.2,0.1-0.3,0.3-0.3,0.5C339.2,137.6,339.2,137.7,339.2,137.7z"/>
	<path class="st8" d="M347.8,124.9c0.1,0.1,0.2,0.1,0.3,0.2c0.3,0.1,0.7,0.1,1,0.1c0.5,0,1,0.1,1.5,0.3c0.2,0.2,0.4,0.4,0.5,0.7
		c0.1,0.3-0.1,0.6-0.3,0.8l0.2,0.1c0.1-0.3,0.5-0.5,0.9-0.7c0.4-0.2,0.8-0.4,1.3-0.4c0.4-0.1,0.9,0,1.2,0.3c0.3,0.2,0.5,0.6,0.5,1
		l-0.1,0.3l0.3-0.2c0.5-0.4,1.1-0.6,1.8-0.6c0.5,0,1,0.1,1.5,0.3c0.4,0.2,0.8,0.5,1.1,0.8c-0.1-0.1-0.1-0.2-0.2-0.3
		c-0.2-0.3-0.5-0.5-0.8-0.7c-0.5-0.3-1-0.4-1.5-0.4c-0.7,0-1.4,0.2-1.9,0.6l0.2,0.1c0.1-0.5-0.1-1-0.5-1.3c-0.4-0.3-0.9-0.4-1.4-0.4
		c-0.5,0.1-0.9,0.2-1.4,0.4c-0.2,0.1-0.4,0.2-0.6,0.3c-0.2,0.1-0.4,0.3-0.4,0.6l-0.1,0.2l0.2-0.1c0.4-0.2,0.5-0.6,0.5-1
		c-0.1-0.3-0.3-0.7-0.6-0.8c-0.5-0.2-1-0.4-1.6-0.3c-0.3,0-0.7,0-1-0.1C348,124.9,347.9,124.9,347.8,124.9L347.8,124.9z"/>
	<path class="st8" d="M361.3,120.9c0.2,0,0.5,0.1,0.7,0.2c0.2,0.1,0.5,0.3,0.6,0.5c0.2,0.3,0.3,0.6,0.4,0.9v0.1h0.1
		c0.4,0,0.8,0.2,0.9,0.6c0.1,0.5,0.1,1-0.1,1.5l-0.1,0.5l0.4-0.4l0.1-0.1c0.3-0.2,0.6-0.3,0.9-0.3c0.3,0,0.6,0.2,0.8,0.4
		c0.4,0.5,0.5,1,0.4,1.6c-0.1,0.4-0.2,0.8-0.4,1.1c-0.1,0.2-0.2,0.4-0.2,0.4c0.1-0.1,0.2-0.2,0.3-0.3c0.2-0.3,0.4-0.7,0.5-1.1
		c0.1-0.6,0-1.3-0.4-1.8c-0.5-0.6-1.4-0.7-2.1-0.2c0,0,0,0-0.1,0.1l-0.1,0.1l0.2,0.1c0.2-0.5,0.2-1.1,0-1.6
		c-0.2-0.5-0.7-0.8-1.2-0.8l0.1,0.1c0-0.4-0.2-0.7-0.4-1c-0.2-0.2-0.4-0.4-0.7-0.5c-0.2-0.1-0.4-0.1-0.5-0.1
		C361.4,120.9,361.4,120.9,361.3,120.9L361.3,120.9z"/>
	<path class="st8" d="M372.2,130h0.4c0.3-0.1,0.6-0.3,0.8-0.5c0.4-0.3,0.6-0.8,0.7-1.3c0-0.3,0.1-0.5,0.2-0.7
		c0.2-0.2,0.5-0.3,0.7-0.6c0.4-0.6,0.3-1.4-0.2-1.8v0.2c0.5-0.4,1-0.9,1.3-1.5c0.1-0.2,0.2-0.5,0.2-0.7c-0.1,0.2-0.3,0.4-0.4,0.6
		c-0.3,0.5-0.8,1-1.3,1.3l-0.1,0.1l0.1,0.1c0.4,0.4,0.5,1,0.1,1.4c-0.1,0.2-0.5,0.3-0.7,0.5c-0.2,0.2-0.3,0.5-0.3,0.8
		c-0.1,0.4-0.3,0.9-0.6,1.2C372.9,129.6,372.6,129.9,372.2,130L372.2,130z"/>
	<path class="st8" d="M375.4,132.6c0.1,0,0.1,0,0.2,0.1c0.2,0,0.4,0,0.6,0c0.8-0.1,1.5-0.4,2-0.9h-0.2c0.6,0.8,1.5,1.2,2.5,0.9
		c0.4-0.1,0.7-0.3,0.9-0.6c0.1-0.1,0.1-0.2,0.1-0.4c0-0.1,0.1-0.2,0.2-0.2c0.2-0.1,0.4-0.2,0.6-0.2c0.2,0,0.5-0.1,0.7-0.2
		c0.2-0.1,0.4-0.4,0.4-0.6l-0.2,0.1c0.5,0.2,1.1,0.3,1.6,0.2c0.4-0.1,0.8-0.3,1.1-0.6c0.2-0.2,0.4-0.4,0.5-0.6
		c0.1-0.1,0.1-0.2,0.1-0.3c-0.2,0.3-0.4,0.6-0.7,0.8c-0.3,0.2-0.7,0.4-1.1,0.5c-0.5,0.1-1,0-1.5-0.2l-0.2-0.1v0.2
		c0,0.2-0.1,0.3-0.3,0.4c-0.2,0.1-0.4,0.2-0.6,0.2c-0.3,0-0.5,0.1-0.7,0.3c-0.1,0.1-0.2,0.2-0.3,0.3c0,0.1-0.1,0.2-0.1,0.3
		c-0.2,0.2-0.4,0.4-0.7,0.5c-0.3,0.1-0.6,0.1-0.9,0c-0.5-0.1-1-0.4-1.3-0.8l-0.1-0.1l-0.1,0.1c-0.5,0.5-1.2,0.9-1.9,1
		C375.7,132.6,375.4,132.5,375.4,132.6z"/>
	<path class="st8" d="M395.5,142.5L395.5,142.5c0-0.2,0.1-0.3,0.1-0.4c0.1-0.4,0.1-0.7,0-1.1c-0.1-0.5-0.3-1.1-0.6-1.6
		c-0.1-0.3-0.3-0.6-0.5-0.9c-0.1-0.2-0.3-0.3-0.4-0.4c-0.2-0.1-0.4-0.1-0.6-0.1l0.1,0.1c0.2-0.9-0.4-1.8-1.3-2c-0.5-0.1-1,0-1.3,0.3
		l0.2,0.1c0-0.4-0.1-0.7-0.4-1c-0.3-0.3-0.7-0.4-1.1-0.2c-0.2,0.1-0.4,0.2-0.5,0.4l0.2,0.1c0-0.2-0.1-0.5-0.2-0.6
		c-0.2-0.2-0.4-0.3-0.6-0.3c-0.4,0-0.8,0-1.2,0.2l0.2,0.1c-0.2-0.4-0.6-0.7-1.1-0.9c-0.4-0.1-0.9-0.2-1.3-0.1
		c-0.7,0.1-1.4,0.4-2.1,0.8l0.1,0.1c0.1-0.1,0.1-0.3,0-0.5c-0.1-0.1-0.2-0.2-0.3-0.3c-0.2-0.1-0.5-0.2-0.7-0.2
		c-0.4,0-0.7,0.1-1.1,0.2c-0.2,0.1-0.4,0.2-0.6,0.3c-0.1,0-0.1,0.1-0.2,0.1c0.3-0.1,0.6-0.2,0.9-0.4c0.3-0.1,0.7-0.2,1-0.2
		c0.2,0,0.4,0.1,0.6,0.2c0.2,0.1,0.4,0.3,0.2,0.5l-0.2,0.3l0.3-0.1c0.6-0.4,1.3-0.6,2-0.8c0.4-0.1,0.8,0,1.2,0.1
		c0.4,0.1,0.7,0.4,0.9,0.8l0,0.1h0.1c0.3-0.1,0.7-0.2,1-0.2c0.3,0,0.6,0.3,0.6,0.6l-0.1,0.5l0.3-0.4c0.1-0.1,0.3-0.2,0.4-0.3
		c0.3-0.1,0.6,0,0.9,0.2c0.2,0.2,0.4,0.5,0.3,0.8v0.3l0.2-0.2c0.5-0.4,1.2-0.4,1.8,0c0.5,0.4,0.7,0.9,0.6,1.5v0.2l0.2-0.1
		c0.3-0.1,0.6,0.1,0.8,0.4c0.2,0.3,0.4,0.6,0.5,0.9c0.3,0.5,0.5,1,0.6,1.5C395.6,141.6,395.6,142,395.5,142.5z"/>
	<path class="st8" d="M393.4,150.1c0.1,0,0.1-0.1,0.1-0.2c0.1-0.2,0.2-0.3,0.4-0.5c0.2-0.3,0.3-0.6,0.3-0.9c0-0.2-0.1-0.4-0.1-0.6
		c-0.1-0.2-0.3-0.4-0.5-0.5v0.1c0.3-0.4,0.4-0.9,0.2-1.3c-0.2-0.5-0.8-0.8-1.3-0.7l0.1,0.2c0.3-0.3,0.3-0.8,0.1-1.2
		c-0.3-0.4-0.6-0.6-1.1-0.6c-0.2,0-0.4,0-0.6,0c-0.2,0-0.3-0.2-0.3-0.4c-0.1-0.2-0.2-0.4-0.3-0.6c-0.2-0.2-0.4-0.3-0.6-0.4
		c-0.5-0.1-0.9-0.1-1.4-0.1c-0.4,0-0.8-0.1-1.1-0.4c-0.1-0.1-0.2-0.4-0.3-0.5c-0.4-0.6-1.1-0.8-1.7-0.5l0.1,0.2
		c0.3-0.4,0.3-0.9,0-1.2c-0.2-0.3-0.6-0.5-1-0.6c-0.6-0.1-1.2-0.1-1.7,0.1c-0.4,0.1-0.7,0.2-1.1,0.3c-0.1,0-0.2,0.1-0.4,0.2
		c0.5-0.2,1-0.3,1.5-0.4c0.6-0.1,1.1-0.1,1.7,0c0.3,0.1,0.6,0.2,0.8,0.5c0.2,0.3,0.2,0.7,0,1l-0.3,0.4l0.5-0.2c0.3-0.1,0.7-0.1,1,0
		c0.2,0.1,0.3,0.2,0.4,0.4c0.1,0.2,0.2,0.4,0.3,0.6c0.2,0.2,0.4,0.3,0.6,0.4c0.2,0.1,0.5,0.1,0.7,0.1c0.5,0,0.9,0.1,1.4,0.1
		c0.2,0,0.3,0.2,0.5,0.3c0.1,0.2,0.2,0.4,0.3,0.6c0.1,0.2,0.3,0.4,0.5,0.5c0.2,0,0.4,0.1,0.6,0.1c0.4,0,0.7,0.2,0.9,0.5
		c0.2,0.3,0.2,0.6,0,0.9l-0.2,0.3l0.3-0.1c0.4-0.1,0.9,0.2,1.1,0.6c0.2,0.4,0.1,0.8-0.1,1.1l-0.1,0.1h0.1c0.4,0.2,0.6,0.5,0.6,0.9
		c0,0.3-0.1,0.6-0.2,0.9C393.5,149.9,393.4,150.1,393.4,150.1z"/>
	<path class="st8" d="M394.2,164.5c0.1,0,0.2,0,0.3-0.1c0.2-0.1,0.5-0.2,0.6-0.4c0.3-0.3,0.5-0.7,0.5-1.1c0.1-0.5-0.1-1.1-0.4-1.5
		v0.1c0.3-0.4,0.6-0.8,0.8-1.3c0.1-0.3,0.1-0.6,0-0.9c-0.1-0.3-0.3-0.6-0.6-0.7v0.2c0.5-0.3,0.8-0.8,0.8-1.3c0-0.3,0-0.6-0.2-0.9
		c-0.1-0.3-0.4-0.5-0.6-0.6c-0.2-0.1-0.4-0.3-0.3-0.5c0-0.3,0-0.5-0.1-0.8c-0.2-0.5-0.5-0.8-0.9-1.1c-0.3-0.3-0.6-0.6-0.9-0.8
		c-0.4-0.4-1-0.7-1.5-0.9c-0.2-0.1-0.3-0.1-0.5-0.1h-0.2c0.2,0,0.4,0.1,0.6,0.2c0.5,0.2,1,0.5,1.4,0.9l0.9,0.8
		c0.4,0.3,0.6,0.6,0.8,1.1c0.1,0.2,0.1,0.5,0.1,0.7c0,0.2,0,0.3,0.1,0.4c0.1,0.1,0.2,0.2,0.4,0.3c0.7,0.4,0.9,1.2,0.5,1.9
		c-0.1,0.2-0.3,0.4-0.5,0.5l-0.2,0.1l0.2,0.1c0.4,0.2,0.6,0.8,0.4,1.2c-0.2,0.4-0.4,0.8-0.7,1.2l-0.1,0.1l0.1,0.1
		c0.3,0.4,0.5,0.9,0.4,1.4c0,0.4-0.2,0.7-0.5,1C394.8,164.1,394.5,164.3,394.2,164.5z"/>
	<path class="st8" d="M372,141.1c0.3,0,0.6-0.1,0.8-0.2c0.3-0.1,0.6-0.3,0.8-0.6c0.3-0.3,0.4-0.7,0.4-1.1c0-0.1,0-0.2-0.1-0.3
		l-0.1,0.2c0.4-0.1,0.6-0.4,0.7-0.8c0.1-0.3,0-0.6-0.1-0.9c-0.3-0.4-0.6-0.5-0.6-0.5c0.2,0.2,0.3,0.4,0.4,0.6c0.1,0.2,0.1,0.5,0,0.7
		c-0.1,0.3-0.3,0.5-0.6,0.6h-0.1l0,0.1c0,0.1,0,0.1,0.1,0.2c0,0.3-0.1,0.7-0.3,0.9c-0.2,0.2-0.4,0.4-0.7,0.6
		C372.5,140.8,372.2,141,372,141.1z"/>
	<path class="st8" d="M366.1,137.7c-0.1-0.3-0.2-0.7-0.1-1c0.1-0.4,0.3-0.6,0.7-0.8c0.4-0.1,0.9,0,1.2,0.3l0.1,0.2l0.1-0.2
		c0.1-0.3,0.2-0.5,0.4-0.8c0.2-0.2,0.4-0.4,0.7-0.4c0.4,0,0.9,0.4,0.7,0.8l0.2,0.1c0.2-0.9,1-1.6,2-1.6c0.4,0,0.7,0.1,1.1,0.3
		c-0.1-0.1-0.1-0.1-0.2-0.2c-0.3-0.2-0.5-0.2-0.8-0.3c-0.5,0-0.9,0.1-1.3,0.3c-0.5,0.3-0.9,0.8-1,1.4l0.2,0.1c0.1-0.3,0-0.6-0.2-0.8
		c-0.2-0.2-0.5-0.3-0.8-0.3c-0.4,0-0.7,0.2-0.9,0.5c-0.2,0.3-0.3,0.5-0.4,0.9h0.2c-0.4-0.4-1-0.5-1.5-0.3c-0.4,0.2-0.7,0.5-0.8,0.9
		c-0.1,0.3,0,0.5,0.1,0.8C366,137.7,366.1,137.8,366.1,137.7z"/>
	<path class="st9" d="M313.4,440.4l-3.4,16.6l-11.1,1l-4.7-5.5l4.3-19.8L313.4,440.4z"/>
	<path class="st7" d="M292.1,450.7v1.3c0,0-21.2,8.2-21.6,12.4l41.7,1l-0.2-14.5C305.7,453.7,299.2,453.9,292.1,450.7z"/>
	<g class="st11">
		<path class="st6" d="M307.6,455.4c0.8,0.3,1.3,1.2,1.1,2.1c-0.2,0.9-1.1,1.4-2,1.2c0,0,0,0,0,0c-0.9-0.3-1.4-1.3-1.2-2.2
			C305.9,455.6,306.8,455.1,307.6,455.4c0.1,0.1,0.1,0.1,0.1,0.1"/>
	</g>
	<path class="st3" d="M312.2,465.4l-0.1-3.5l-39.9,0.3c-1.3,0.7-2,2-2,3.4L312.2,465.4z"/>
	<path class="st3" d="M291.9,452.1c0,0.2,1,0.3,2,1s1.5,1.6,1.7,1.5s-0.1-1.3-1.3-2.2S291.9,451.9,291.9,452.1z"/>
	<path class="st3" d="M287.5,453.9c0,0.2,0.8,0.6,1.5,1.5s0.9,1.9,1,1.9c0.3-0.8,0.1-1.7-0.5-2.3
		C288.6,453.8,287.5,453.7,287.5,453.9z"/>
	<path class="st3" d="M284.9,459.3c0.2,0,0.5-1,0-2.2s-1.4-1.7-1.5-1.5s0.5,0.8,0.9,1.8S284.7,459.3,284.9,459.3z"/>
	<path class="st9" d="M377.9,436.5c0.2,0.5,0,21.2,0,21.2l-6.2,3.9l-8.1-5.1l-1.7-20L377.9,436.5z"/>
	<path class="st7" d="M363,454.7c0,0,11.1,8.2,16.4,1.1l1.4,3.5l6.3,24.6c0.4,1.6-0.3,3.2-1.8,4c-1.1,0.5-2.4,0.2-3.2-0.6
		c-4.5-4.5-21.2-21.3-21.1-23.6l0.1-6C361.1,456.3,361.9,455.2,363,454.7L363,454.7z"/>
	<path class="st3" d="M384.8,488L361,461.5v1.3c-0.1,1.1,0.3,2.2,1.1,2.9c6.2,7.8,12.9,15.3,20,22.3
		C382.8,488.7,384.2,488.1,384.8,488L384.8,488z"/>
	<g class="st11">
		<path class="st6" d="M364.5,457.5c0.8,0.6,1,1.7,0.5,2.5c-0.5,0.8-1.6,1.1-2.4,0.6c0,0,0,0,0,0c-0.8-0.6-1-1.8-0.5-2.7
			C362.7,457.2,363.8,457,364.5,457.5c0.1,0.1,0.1,0.1,0.1,0.1"/>
	</g>
	<path class="st3" d="M377.9,474.4c0.2,0.1,0.8-1.5,2.6-2.4s3.4-0.5,3.4-0.7s-0.4-0.3-1-0.4c-0.9-0.1-1.8,0.1-2.7,0.5
		c-0.8,0.4-1.5,1.1-2,1.9C377.9,473.9,377.9,474.4,377.9,474.4z"/>
	<path class="st3" d="M380.1,478.5c0.1,0.1,1.1-0.9,2.6-1.4s2.9-0.2,2.9-0.4s-1.4-0.8-3.1-0.2S379.9,478.5,380.1,478.5z"/>
	<path class="st3" d="M374,469.1c0.1,0.1,1.6-1.4,3.9-2.4s4.4-0.9,4.4-1.1s-2.2-0.6-4.6,0.5S373.8,469,374,469.1z"/>
	<path class="st3" d="M373.4,461.6c0.1,0.2,1.7-0.5,3.9-0.6s3.8,0.4,3.9,0.2s-1.6-1-3.9-0.9S373.3,461.4,373.4,461.6z"/>
	<path class="st3" d="M378.5,460.9c0-0.4,0-0.8-0.2-1.2c-0.3-1-0.8-2-1.4-2.9c-0.4-0.7-1-1.2-1.8-1.4c-0.5-0.1-1,0.1-1.3,0.5
		c-0.2,0.4-0.3,1-0.2,1.5c0.5,2.1,2.3,3.5,4.4,3.4c2.1-0.2,3.8-1.6,4.3-3.6c0.2-0.5,0.1-1-0.2-1.5c-0.3-0.4-0.9-0.6-1.4-0.4
		c-0.7,0.3-1.3,0.8-1.7,1.4c-0.7,0.8-1.2,1.8-1.6,2.8c-0.2,0.4-0.2,0.7-0.3,1.1c0.6-1.3,1.3-2.5,2.2-3.6c0.4-0.5,0.9-0.9,1.5-1.2
		c0.3-0.1,0.6,0,0.7,0.2c0.2,0.3,0.2,0.7,0.1,1c-0.5,1.7-2,2.9-3.8,3.1c-1.8,0.1-3.4-1.1-3.8-2.8c-0.1-0.3,0-0.7,0.1-1
		c0.1-0.3,0.4-0.4,0.7-0.3c0.6,0.2,1.2,0.6,1.5,1.2C377.4,458.3,378.1,459.6,378.5,460.9z"/>
	<path class="st3" d="M389.6,265.8c3.3,6.7,5.9,13.7,7.8,20.9c3.4,12.9,7.3,19.4,5.9,43.2c-0.7,12.1-10.8,45.1-13.1,56.7
		c-1.9,9.6-7.9,54.5-10.9,66.3H362l-1.8-132.9c0,0-27.5,77.6-31,86.5s-15.7,44.5-15.7,44.5l-21.6-5.7c0,0,13.1-63.6,16.4-79.4
		s12.2-60.5,16-73.9s7.4-27.6,7.4-27.6L389.6,265.8z"/>
	<path class="st8" d="M387.5,289.3c0,0.2,0.1,0.5,0.2,0.7c0.2,0.6,0.5,1.1,0.8,1.7c1,1.8,2.4,3.3,4,4.5c1.6,1.2,3.5,2,5.4,2.4
		c0.6,0.1,1.2,0.2,1.8,0.2c0.2,0,0.4,0,0.6,0c0-0.1-0.9-0.1-2.4-0.5c-1.9-0.5-3.6-1.3-5.2-2.4c-1.6-1.2-2.9-2.6-4-4.2
		C387.9,290.2,387.6,289.3,387.5,289.3z"/>
	<path class="st8" d="M322.5,299c0.2,0.1,0.4,0.2,0.6,0.2c0.6,0.1,1.2,0.2,1.8,0.2c0.9,0,1.8-0.1,2.6-0.3c1.1-0.3,2.1-0.6,3.1-1.2
		c1.8-1,3.3-2.4,4.5-4c0.6-0.6,1-1.4,1.3-2.1c-0.1,0-0.6,0.7-1.6,1.9c-1.3,1.5-2.8,2.8-4.5,3.8c-1.7,0.9-3.6,1.5-5.5,1.5
		C323.4,299.1,322.5,298.9,322.5,299z"/>
	<path class="st8" d="M359.9,291.5c-0.1,0.4-0.2,0.7-0.2,1.1c-0.1,0.7-0.2,1.7-0.3,2.9c-0.2,2.5-0.4,6-0.3,9.8s0.3,7.3,0.5,9.8
		c0.1,1.2,0.2,2.2,0.4,3c0,0.4,0.1,0.7,0.2,1.1c0-0.4,0-0.7,0-1.1c-0.1-0.8-0.1-1.8-0.2-3c-0.2-2.5-0.3-5.9-0.4-9.7s0.1-7.2,0.2-9.7
		c0-1.2,0.1-2.1,0.1-3C360,292.2,359.9,291.8,359.9,291.5L359.9,291.5z"/>
	<path class="st8" d="M383.1,189.1l15.7,7.5l-2.2,28.6c0,0-1.9,2.2-4.9,17.5s7,45.1,7,45.1l-73.7,1.9c0,0,8.7-61.8,9.7-70l3.7-31.3
		l14.8-0.8h4.3l3.7,26.6l18.6-25.8L383.1,189.1z"/>
	<path class="st3" d="M314.9,244.5c0.2-0.5,0.3-1.1,0.2-1.7c0-1.4-0.2-2.7-0.7-4c-0.5-1.3-1.1-2.5-2-3.5c-0.7-0.8-1.2-1.2-1.2-1.1
		c1.1,1.5,2.1,3.1,2.8,4.8C314.5,240.7,314.8,242.6,314.9,244.5L314.9,244.5z"/>
	<path class="st8" d="M285,237.4l26.3-0.2l9.9-29.3l0,0c1.6-3.5,3.3-7,5.2-10.4c5.3-9.7,12-9.2,12-9.2l8.1,12.5l-8.6,19.2
		c0,0-8.2,36.2-17.7,37.8c-15.8,2.6-44-8.2-44-8.2L285,237.4z"/>
	<g class="st12">
		<path d="M331.1,246.4c0-1-0.3-2.3,0.6-2.7c0.7-0.2,1.5-0.2,2.2,0.2c21.8,7.7,34.4-1.2,56.1,6.5l4.4,22.4
			c-9.7,0.1-14.1-2.2-23.6-5.2c-9.7-3.1-19.4-6.2-28.9-9.9c-2.7-0.9-5.2-2.2-7.5-3.9C332.4,251.9,331.1,249.2,331.1,246.4
			L331.1,246.4z"/>
	</g>
	<path class="st3" d="M336.4,209.4c-0.1,0.5-0.3,1-0.5,1.5c-0.4,1.2-0.7,2.4-0.9,3.6c-0.5,2.9-0.6,5.3-0.8,5.3
		c-0.2-1.8-0.2-3.6,0.2-5.4c0.2-1.3,0.6-2.5,1.1-3.7C335.7,210.2,336,209.8,336.4,209.4L336.4,209.4z"/>
	<path class="st7" d="M470.4,238l6,0.2c3.4,0.1,6.2,3,6.1,6.4l0,0.7c-0.1,3.4-3,6.2-6.4,6.1l-6-0.2L470.4,238z"/>
	<path class="st7" d="M206.9,232.4l53.8-5.4l202.1,5.2c2,0.1,3.5,1.7,3.5,3.6l-0.5,19c0,2-1.7,3.5-3.6,3.5c0,0,0,0,0,0L259.2,253
		l-52.6-10.8L206.9,232.4z"/>
	<path class="st3" d="M206.8,235.1l-4.9-0.1l-4.2,1.4c-0.4,0.3-0.3,0.6,0,1l4.2,1.4l4.8,0.1L206.8,235.1z"/>
	
		<rect x="249.4" y="237.9" transform="matrix(2.565353e-02 -0.9997 0.9997 2.565353e-02 15.7468 496.219)" class="st3" width="26.1" height="4.2"/>
	<path class="st7" d="M466.9,233.3L466.9,233.3c-0.1,2.6-2.2,4.6-4.8,4.5l-100.9-2.6c-2.6-0.1-4.6-2.2-4.5-4.8l0,0
		c0.1-2.6,2.2-4.6,4.8-4.5l100.9,2.6C464.9,228.6,467,230.7,466.9,233.3z"/>
	<path class="st3" d="M466.9,233.3c0-0.8-0.2-1.5-0.6-2.2c-0.5-0.8-1.2-1.5-2-1.9c-0.5-0.3-1.1-0.4-1.7-0.5c-0.6,0-1.3,0-2.1-0.1
		l-24.7-0.6l-36.7-0.9l-21.7-0.6l-11.5-0.2l-2.9-0.1c-1-0.1-1.9-0.1-2.9,0.1c-2.3,0.6-3.7,3-3.1,5.4c0.4,1.4,1.5,2.6,2.9,3
		c0.9,0.2,1.9,0.3,2.8,0.3l2.9,0.1l11.5,0.3l21.7,0.6l36.7,1l24.7,0.7c0.7,0,1.4,0.1,2.1,0.1c0.6,0,1.2-0.2,1.7-0.4
		c0.9-0.4,1.6-1,2.1-1.8C466.6,234.8,466.8,234.1,466.9,233.3c0,0.2,0,0.4,0,0.6c-0.1,0.6-0.3,1.2-0.6,1.7c-0.5,0.8-1.2,1.5-2.1,1.9
		c-0.6,0.3-1.2,0.4-1.8,0.4h-2.1l-24.7-0.6l-36.7-0.9l-21.7-0.5l-11.5-0.3l-2.9-0.1h-1.5c-0.5,0-1-0.1-1.5-0.2
		c-2.6-0.8-4-3.6-3.1-6.2c0.5-1.6,1.8-2.8,3.4-3.2c0.5-0.1,1-0.2,1.5-0.2h1.5l2.9,0.1l11.5,0.3l21.7,0.6l36.7,1l24.7,0.7
		c0.7,0,1.4,0,2.1,0.1c0.6,0.1,1.2,0.2,1.8,0.5c0.9,0.4,1.6,1.1,2,2c0.3,0.5,0.4,1.1,0.5,1.7C466.9,232.9,466.9,233.1,466.9,233.3
		L466.9,233.3z"/>
	<path class="st3" d="M466.2,234.5l5.2,2.6l-0.4,15l-5.3,3L466.2,234.5z"/>
	<path class="st8" d="M405.1,245.1l-11.4-17.7l0,0l-1-1.6l0,0l-1.5-2.4l6.7-27.4c0,0,5.8,2.6,8.9,7c2.6,4,5,8.2,7,12.5
		c0,0,11.2,25.6,13,29.4s4.8,10.9,0,14.9c-4.8,4-37,4.1-37,4.1l-2.2-16.2L405.1,245.1z"/>
	<path class="st3" d="M391,220.6c0.1,0-0.2-1.2-0.3-3.1c-0.3-5.1,1-10.1,3.7-14.4c1-1.6,1.8-2.6,1.7-2.6s-0.2,0.2-0.6,0.6
		c-0.5,0.6-1,1.2-1.4,1.8c-1.4,2.1-2.5,4.5-3.1,7c-0.6,2.5-0.8,5.1-0.6,7.6c0.1,0.8,0.2,1.5,0.4,2.3
		C390.8,220,390.9,220.3,391,220.6L391,220.6z"/>
	<path class="st9" d="M383.9,250.8c-0.7-1.5-1.7-2.8-2.9-3.8c-2.1-1.8-6.7-3.2-7.3-5s-2.4-0.4-2,1.8c0.3,1.4,3.1,5,3.1,5
		s-3.4,0.9-5.6-0.4s-10.1-3.6-10.9-2.5s1.1,1.7,2,2.2c0.7,0.4,5.9,3,5.9,3s-10.4-0.4-11.7,0.1s0,1.8,0.7,1.8c0.4,0,2.2,1.6,3.5,2.8
		c0.9,0.8,2,1.2,3.1,1.3h2.4l-7.3,0.8c0,0-1.3,1.2,0.5,1.8c0.8,0.3,21.1,2.1,22.8,2c3.9-0.1,9.4-0.4,9.4-0.4l-1-11L383.9,250.8z"/>
	<path class="st10" d="M355,253.1c1.6,0.8,3.2,1.3,4.9,1.5c1.7,0.4,3.4,0.5,5.1,0.3c0-0.1-2.3-0.3-5.1-0.8S355,252.9,355,253.1z"/>
	<g class="st5">
		<path d="M278.3,240.3c2-0.4,3.9,0.8,5.6,2c1,0.7,2,1.5,3,2.4c2.5,2.5,3.9,6,6,8.9l-12-1.8L278.3,240.3z"/>
	</g>
	<path class="st9" d="M296.7,254.1l-5.2-1.1c0,0-4.7-7.5-7.2-8.4l-1.4-0.6c0,0-1.8-4-4.3-3.5c-1.5-1-2.8-0.6-2.9,0.9
		c0,0-0.7-3.3-3.5-2s3.8,12.9,3.8,12.9s2.3,5.9,5.1,3.9c0,0,2.8,0.7,4.7-0.4c0,0,1.8,2.5,5.9,0.6L296.7,254.1z"/>
	<path class="st10" d="M285.3,254.5c-0.1,0.2-0.1,0.4,0,0.6c0.1,0.5,0.3,1,0.7,1.3c0.6,0.6,1.3,0.9,2.1,1c0.9,0.1,1.8,0,2.7-0.3
		c1.6-0.5,3.1-1.1,4.5-2c0.6-0.3,1.1-0.7,1.6-1.2c-2,1.1-4,2.1-6.2,2.8c-0.8,0.3-1.7,0.4-2.5,0.3c-0.7-0.1-1.3-0.3-1.9-0.8
		C285.8,255.8,285.4,255.2,285.3,254.5z"/>
	<path class="st10" d="M280.3,251.9c0.1-0.1-1.5-2.3-2.8-5.4s-2-5.8-2.1-5.7c0,0.6,0.1,1.2,0.3,1.8c0.3,1.4,0.8,2.8,1.4,4.1
		c0.6,1.3,1.3,2.6,2.1,3.8C279.4,251,279.8,251.5,280.3,251.9L280.3,251.9z"/>
	<path class="st10" d="M283.3,251.6c0.1-0.1-1.2-2.4-2.5-5.5s-2.1-5.6-2.2-5.6C279.4,244.5,281,248.3,283.3,251.6z"/>
	<path class="st10" d="M279.3,254.3c-0.1,0,0,1,0.8,1.7s1.8,0.7,1.8,0.5s-0.8-0.3-1.5-0.9S279.4,254.3,279.3,254.3z"/>
	<path class="st10" d="M286.5,250c-0.5-1-1-2-1.7-2.9c-0.5-1-1.1-2-1.8-2.9C283.7,246.4,284.9,248.4,286.5,250L286.5,250z"/>
</g>
</svg>
