<svg xmlns="http://www.w3.org/2000/svg" width="99.547" height="99.444" viewBox="0 0 99.547 99.444"><g transform="translate(-511 -6710.5)"><g transform="translate(511.476 6710.5)"><path d="M47,0H99.547a0,0,0,0,1,0,0V52.444a47,47,0,0,1-47,47H47a47,47,0,0,1-47-47V47A47,47,0,0,1,47,0Z" transform="translate(-0.476)" fill="#77cfd9"/></g><g transform="translate(528 6661.935)"><path d="M0,78.057V118.59a4.709,4.709,0,0,0,4.7,4.7H65.28a4.709,4.709,0,0,0,4.7-4.7V78.057a4.709,4.709,0,0,0-4.7-4.7H4.7a4.709,4.709,0,0,0-4.7,4.7Z" fill="#695d67"/><path d="M4.859,118.59V78.057a4.709,4.709,0,0,1,4.7-4.7H4.7a4.709,4.709,0,0,0-4.7,4.7V118.59a4.709,4.709,0,0,0,4.7,4.7H9.554a4.709,4.709,0,0,1-4.7-4.7Z" transform="translate(0)" fill="#544e55"/><path d="M33.494,106.973v40.532a.135.135,0,0,0,.117.117H90.077a.135.135,0,0,0,.117-.117V106.973a.135.135,0,0,0-.117-.117H33.611A.135.135,0,0,0,33.494,106.973Z" transform="translate(-28.916 -28.916)" fill="#ff656f"/><path d="M38.353,147.506V106.973a.135.135,0,0,1,.117-.117H33.611a.135.135,0,0,0-.117.117v40.532a.135.135,0,0,0,.117.117h4.859A.135.135,0,0,1,38.353,147.506Z" transform="translate(-28.916 -28.916)" fill="#ff4756"/><path d="M181.615,160.782a9.228,9.228,0,1,0,9.228,9.228A9.255,9.255,0,0,0,181.615,160.782Z" transform="translate(-148.827 -75.472)" fill="#dfebfa"/><path d="M179.005,170.01a9.26,9.26,0,0,1,5.919-8.608,9.141,9.141,0,0,0-3.309-.619,9.228,9.228,0,0,0,0,18.456,9.142,9.142,0,0,0,3.309-.619A9.261,9.261,0,0,1,179.005,170.01Z" transform="translate(-148.828 -75.472)" fill="#b1dbfc"/><path d="M225.838,201.422l-5.245-3.159a.963.963,0,0,0-1.461.825v6.319a.964.964,0,0,0,1.461.825l5.245-3.159A.964.964,0,0,0,225.838,201.422Z" transform="translate(-189.183 -107.71)" fill="#ff656f"/><path d="M107.228,336.943H76.018a1.971,1.971,0,1,0,0,3.942h31.21Z" transform="translate(-63.927 -227.557)" fill="#dfebfa"/><path d="M327.012,336.943H316.828v3.942h10.184a1.971,1.971,0,1,0,0-3.942Z" transform="translate(-273.527 -227.557)" fill="#ff4756"/><g transform="translate(42.245 107.274)"><path d="M310.157,329.68a1.056,1.056,0,0,1-1.056-1.056v-6.078a1.056,1.056,0,0,1,2.112,0v6.078A1.056,1.056,0,0,1,310.157,329.68Z" transform="translate(-309.101 -321.491)" fill="#ff7f87"/></g><g transform="translate(64.106 96.358)"><path d="M470.113,245.551a1.056,1.056,0,0,1-1.056-1.056v-1.819a1.056,1.056,0,0,1,2.112,0V244.5A1.056,1.056,0,0,1,470.113,245.551Z" transform="translate(-469.057 -241.621)" fill="#544e55"/></g></g></g></svg>