<svg xmlns="http://www.w3.org/2000/svg" width="120" height="120" viewBox="0 0 120 120"><g transform="translate(-652.25 -644.443)"><g transform="translate(652.25 644.443)"><rect width="120" height="120" fill="none"/><path d="M60,10h0a50,50,0,0,1,50,50v50H60A50,50,0,0,1,10,60h0A50,50,0,0,1,60,10Z" transform="translate(120 120) rotate(180)" fill="#043f45"/></g><g transform="translate(675.915 667.977)"><path d="M247.414,41.075a1.419,1.419,0,0,0,1.419-1.419v-7.23a1.419,1.419,0,1,0-2.839,0v7.23A1.42,1.42,0,0,0,247.414,41.075Z" transform="translate(-211.08 -31.006)" fill="#fff"/><path d="M156.627,68.941a1.419,1.419,0,1,0,2.4-1.514l-3.782-6a1.419,1.419,0,1,0-2.4,1.514Z" transform="translate(-130.964 -56.541)" fill="#fff"/><path d="M313.41,69.386a1.419,1.419,0,0,0,1.957-.445l3.778-6a1.419,1.419,0,1,0-2.4-1.512l-3.778,6A1.42,1.42,0,0,0,313.41,69.386Z" transform="translate(-268.357 -56.541)" fill="#fff"/><path d="M72.212,138.468l-2.466-4.357a1.419,1.419,0,1,0-2.47,1.4l2.465,4.355a.7.7,0,0,1,.061.536.669.669,0,0,1-.317.406l-3.8,2.105a.72.72,0,0,1-.962-.256l-.966-1.708-.013-.022L53.762,123.27a.691.691,0,0,1-.063-.531.665.665,0,0,1,.316-.4l3.805-2.106a.707.707,0,0,1,.959.257L61,124.417a1.419,1.419,0,0,0,2.47-1.4l-2.224-3.929a3.553,3.553,0,0,0-4.8-1.344l-3.805,2.106a3.526,3.526,0,0,0-1.434,4.661l-2.1.607a8.254,8.254,0,0,1-1.736.4h0a3.543,3.543,0,0,1-1.077-.324c-.292-.111-.656-.249-1.1-.4l-3.714-1.3a8.509,8.509,0,0,0-4.322-.556l-6.333.567c-2.887.256-4.727.907-5.743,2.036l-3.609-1.046a3.525,3.525,0,0,0-1.442-4.64l-3.8-2.107a3.555,3.555,0,0,0-4.807,1.343L.461,138.466a3.531,3.531,0,0,0,1.347,4.824l3.8,2.106a3.559,3.559,0,0,0,4.807-1.343l.4-.711a6.667,6.667,0,0,1,2.645,2.014,4.764,4.764,0,0,0,3.08,7.828,4.759,4.759,0,0,0,4.19,5.234,4.757,4.757,0,0,0,4.19,5.234,4.773,4.773,0,0,0,7.726,4.225l2.972-2.378a4.785,4.785,0,0,0,.643-.621l1.7,1.356a4.769,4.769,0,0,0,7.661-2.809,4.744,4.744,0,0,0,1.555.26,4.908,4.908,0,0,0,.54-.03,4.762,4.762,0,0,0,4.217-5.238,4.754,4.754,0,0,0,4.19-5.234,4.771,4.771,0,0,0,3.081-7.829,6.639,6.639,0,0,1,2.642-2.015l.4.712a3.559,3.559,0,0,0,4.807,1.342l3.8-2.105a3.535,3.535,0,0,0,1.353-4.823ZM7.947,142.655a.719.719,0,0,1-.962.257l-3.8-2.106a.668.668,0,0,1-.316-.405.7.7,0,0,1,.064-.536l10.96-19.381a.693.693,0,0,1,.607-.347.728.728,0,0,1,.353.091l3.8,2.106h0a.665.665,0,0,1,.316.4.693.693,0,0,1-.064.533Zm10.358,7.3a1.932,1.932,0,0,1-2.415-3.016L21.2,142.7a1.94,1.94,0,0,1,2.721.3,1.933,1.933,0,0,1-.3,2.709l-.025.022-5.292,4.228Zm1.471,4.93a1.938,1.938,0,0,1,.3-2.713h0l7.654-6.115a1.939,1.939,0,0,1,2.721.3,1.939,1.939,0,0,1-.3,2.715L22.5,155.191a1.94,1.94,0,0,1-2.723-.3Zm5.487,5.946a1.931,1.931,0,0,1-.994-3.425h0l5.3-4.231.019-.014a1.939,1.939,0,0,1,2.719.3,1.938,1.938,0,0,1-.3,2.715l-5.314,4.247A1.927,1.927,0,0,1,25.262,160.835Zm9.3,1.152a1.916,1.916,0,0,1-.711,1.3l-2.972,2.378a1.94,1.94,0,0,1-2.722-.3,1.938,1.938,0,0,1,.3-2.712h0l2.971-2.375,0,0a1.94,1.94,0,0,1,2.721.3A1.911,1.911,0,0,1,34.562,161.987Zm22.522-12.329a1.946,1.946,0,0,1-2.719.3h0l-3.8-3.034a1.419,1.419,0,1,0-1.772,2.218l3.8,3.033a1.932,1.932,0,1,1-2.416,3.016l-4.12-3.287a1.419,1.419,0,1,0-1.77,2.219l4.118,3.286a1.935,1.935,0,0,1-2.418,3.021l-2.05-1.639-.01-.009L42.191,157.4l-.324-.259a1.419,1.419,0,0,0-1.773,2.217L42.155,161a1.933,1.933,0,0,1-2.421,3.015L37.4,162.149a4.749,4.749,0,0,0-2.729-4.691,4.763,4.763,0,0,0-1.85-7.1,4.771,4.771,0,0,0-5.744-7.174,4.733,4.733,0,0,0-.932-1.953,4.784,4.784,0,0,0-6.709-.748l-3.8,3.038a9.352,9.352,0,0,0-3.409-2.655l7.818-13.827,4.162,1.206a4.642,4.642,0,0,0,.115.705c1.008,4.143,4.822,6.073,9.955,5.039,4.325-.87,6.105.426,9.651,3.008.368.268.75.546,1.15.833,2.55,1.83,5.275,3.98,7.1,5.438l4.607,3.682a1.938,1.938,0,0,1,.3,2.715Zm-.044-6.144-3.092-2.471c-1.852-1.478-4.616-3.658-7.22-5.526-.395-.283-.771-.557-1.133-.82-3.677-2.678-6.334-4.612-11.882-3.5-1.7.342-5.744.742-6.636-2.926-.126-.518,0-.7.056-.772.19-.265.953-.909,3.941-1.173l6.339-.567a5.813,5.813,0,0,1,3.128.409l3.714,1.3c.413.144.743.269,1.034.38,1.788.677,2.262.677,4.612,0l2.738-.793,7.807,13.809A9.326,9.326,0,0,0,57.039,143.514Z" transform="translate(0 -105.053)" fill="#fff"/><path d="M451.989,194.425A1.42,1.42,0,1,0,450.57,193v0A1.418,1.418,0,0,0,451.989,194.425Z" transform="translate(-386.618 -168.792)" fill="#fff"/></g></g></svg>