<svg id="Layer_1" data-name="Layer 1" xmlns="http://www.w3.org/2000/svg" xmlns:xlink="http://www.w3.org/1999/xlink" width="1080" height="935" viewBox="0 0 1080 935">
  <defs>
    <style>
      .cls-1 {
        isolation: isolate;
      }

      .cls-2 {
        fill: #12263f;
      }

      .cls-3 {
        fill: #cae8ef;
      }

      .cls-4 {
        opacity: 0.74;
        fill: url(#linear-gradient);
      }

      .cls-5 {
        fill: url(#radial-gradient);
      }

      .cls-6 {
        opacity: 0.56;
        fill: url(#linear-gradient-2);
      }

      .cls-7 {
        fill: url(#radial-gradient-2);
      }

      .cls-8 {
        fill: url(#radial-gradient-3);
      }

      .cls-9 {
        opacity: 0.75;
      }

      .cls-10 {
        fill: #e6e7f4;
      }

      .cls-11 {
        fill: #d5e1f0;
      }

      .cls-12 {
        fill: #533e8a;
      }

      .cls-13 {
        fill: #8cd9d6;
      }
    </style>
    <linearGradient id="linear-gradient" x1="767.95" y1="510.64" x2="767.95" y2="363.71" gradientUnits="userSpaceOnUse">
      <stop offset="0" stop-color="#9799ce"/>
      <stop offset="1" stop-color="#e6e7f4"/>
    </linearGradient>
    <radialGradient id="radial-gradient" cx="819.77" cy="558.44" r="93.86" gradientUnits="userSpaceOnUse">
      <stop offset="0" stop-color="#e5f3f7"/>
      <stop offset="0.46" stop-color="#e3f2f6"/>
      <stop offset="0.63" stop-color="#dceff4"/>
      <stop offset="0.75" stop-color="#d1eaf0"/>
      <stop offset="0.85" stop-color="#c0e2ea"/>
      <stop offset="0.93" stop-color="#aad9e2"/>
      <stop offset="1" stop-color="#8fcdd9"/>
      <stop offset="1" stop-color="#8fcdd9"/>
    </radialGradient>
    <linearGradient id="linear-gradient-2" x1="534.82" y1="558.14" x2="1001.09" y2="558.14" gradientUnits="userSpaceOnUse">
      <stop offset="0" stop-color="#c6c7f4"/>
      <stop offset="0.49" stop-color="#e6e7f4"/>
      <stop offset="1" stop-color="#c6c7f4"/>
    </linearGradient>
    <radialGradient id="radial-gradient-2" cx="871.53" cy="346.61" r="93.86" xlink:href="#radial-gradient"/>
    <radialGradient id="radial-gradient-3" cx="674.1" cy="400.19" r="93.86" xlink:href="#radial-gradient"/>
  </defs>
  <g>
    <g id="Elementos_de_la_negociación" data-name="Elementos de la negociación" class="cls-1">
      <g class="cls-1">
        <path class="cls-2" d="M363,70H354.5v5.75h9.92v3.54H350.1V57.94h14.29v3.57H354.5V66.6H363Z"/>
        <path class="cls-2" d="M371.2,79.31h-4.26V56.77h4.26Z"/>
        <path class="cls-2" d="M382,79.6a7.79,7.79,0,0,1-5.69-2.14,7.62,7.62,0,0,1-2.19-5.71v-.41a9.68,9.68,0,0,1,.92-4.28,6.78,6.78,0,0,1,2.62-2.9,7.36,7.36,0,0,1,3.87-1,6.59,6.59,0,0,1,5.13,2A8.38,8.38,0,0,1,388.53,71v1.73H378.42a3.9,3.9,0,0,0,1.24,2.49,3.73,3.73,0,0,0,2.62.94,4.57,4.57,0,0,0,3.83-1.78l2.08,2.34a6.38,6.38,0,0,1-2.58,2.1A8.4,8.4,0,0,1,382,79.6Zm-.49-13a2.64,2.64,0,0,0-2,.86,4.39,4.39,0,0,0-1,2.45h5.9v-.34a3.13,3.13,0,0,0-.76-2.19A2.74,2.74,0,0,0,381.51,66.55Z"/>
        <path class="cls-2" d="M394.91,63.43,395,65.2a5.62,5.62,0,0,1,4.57-2.06,4.23,4.23,0,0,1,4.21,2.42,5.43,5.43,0,0,1,4.77-2.42,4.73,4.73,0,0,1,3.84,1.5,6.92,6.92,0,0,1,1.26,4.53V79.31h-4.25V69.16a3.06,3.06,0,0,0-.53-2,2.32,2.32,0,0,0-1.86-.63,2.65,2.65,0,0,0-2.65,1.83l0,10.93h-4.24V69.17a3,3,0,0,0-.54-2,2.38,2.38,0,0,0-1.85-.62,2.75,2.75,0,0,0-2.62,1.5V79.31h-4.24V63.43Z"/>
        <path class="cls-2" d="M424.26,79.6a7.79,7.79,0,0,1-5.69-2.14,7.62,7.62,0,0,1-2.19-5.71v-.41a9.68,9.68,0,0,1,.92-4.28,6.78,6.78,0,0,1,2.62-2.9,7.36,7.36,0,0,1,3.87-1,6.59,6.59,0,0,1,5.13,2A8.38,8.38,0,0,1,430.79,71v1.73H420.68a3.9,3.9,0,0,0,1.24,2.49,3.73,3.73,0,0,0,2.62.94,4.57,4.57,0,0,0,3.83-1.78l2.08,2.34a6.38,6.38,0,0,1-2.58,2.1A8.4,8.4,0,0,1,424.26,79.6Zm-.49-13a2.64,2.64,0,0,0-2,.86,4.39,4.39,0,0,0-1,2.45h5.9v-.34a3.13,3.13,0,0,0-.76-2.19A2.74,2.74,0,0,0,423.77,66.55Z"/>
        <path class="cls-2" d="M437.1,63.43l.13,1.83a5.54,5.54,0,0,1,4.56-2.12,4.61,4.61,0,0,1,3.76,1.48,6.92,6.92,0,0,1,1.26,4.43V79.31h-4.24V69.13a2.75,2.75,0,0,0-.59-2,2.6,2.6,0,0,0-2-.62,2.9,2.9,0,0,0-2.68,1.53V79.31H433.1V63.43Z"/>
        <path class="cls-2" d="M455.1,59.53v3.9h2.71v3.11H455.1v7.92a1.89,1.89,0,0,0,.34,1.27,1.7,1.7,0,0,0,1.29.38A6.68,6.68,0,0,0,458,76v3.22a8.93,8.93,0,0,1-2.57.38c-3,0-4.49-1.5-4.55-4.51V66.54h-2.32V63.43h2.32v-3.9Z"/>
        <path class="cls-2" d="M459.08,71.22A9.37,9.37,0,0,1,460,67a6.6,6.6,0,0,1,2.62-2.86,7.55,7.55,0,0,1,4-1,7.22,7.22,0,0,1,5.25,2,7.93,7.93,0,0,1,2.27,5.34l0,1.09a8.3,8.3,0,0,1-2,5.86,7.91,7.91,0,0,1-11,0,8.46,8.46,0,0,1-2-6Zm4.24.3a5.91,5.91,0,0,0,.85,3.46A3.06,3.06,0,0,0,469,75a6.48,6.48,0,0,0,.87-3.79,5.87,5.87,0,0,0-.87-3.44,2.83,2.83,0,0,0-2.44-1.22,2.77,2.77,0,0,0-2.4,1.22A6.58,6.58,0,0,0,463.32,71.52Z"/>
        <path class="cls-2" d="M485.33,74.92a1.38,1.38,0,0,0-.77-1.23,9.3,9.3,0,0,0-2.48-.8q-5.65-1.19-5.66-4.81a4.36,4.36,0,0,1,1.75-3.53,7.1,7.1,0,0,1,4.59-1.41,7.59,7.59,0,0,1,4.83,1.42,4.49,4.49,0,0,1,1.82,3.7h-4.24a2.07,2.07,0,0,0-.59-1.51,2.51,2.51,0,0,0-1.84-.59,2.53,2.53,0,0,0-1.65.48,1.53,1.53,0,0,0-.59,1.24,1.3,1.3,0,0,0,.67,1.13,6.73,6.73,0,0,0,2.25.75,18.64,18.64,0,0,1,2.67.71c2.24.82,3.36,2.25,3.36,4.27a4.16,4.16,0,0,1-1.86,3.52,8.1,8.1,0,0,1-4.82,1.34,8.44,8.44,0,0,1-3.54-.71,6.08,6.08,0,0,1-2.43-2,4.52,4.52,0,0,1-.88-2.68h4a2.22,2.22,0,0,0,.84,1.73,3.32,3.32,0,0,0,2.08.6,3,3,0,0,0,1.84-.46A1.43,1.43,0,0,0,485.33,74.92Z"/>
        <path class="cls-2" d="M499,71.25a9.56,9.56,0,0,1,1.67-5.91,5.39,5.39,0,0,1,4.55-2.2,4.83,4.83,0,0,1,3.83,1.73v-8.1h4.26V79.31h-3.83l-.21-1.69a5,5,0,0,1-4.08,2,5.39,5.39,0,0,1-4.49-2.21A9.87,9.87,0,0,1,499,71.25Zm4.24.3A6.3,6.3,0,0,0,504,75a2.54,2.54,0,0,0,2.26,1.19,2.83,2.83,0,0,0,2.77-1.67V68.22a2.79,2.79,0,0,0-2.74-1.67C504.27,66.55,503.24,68.22,503.24,71.55Z"/>
        <path class="cls-2" d="M523.9,79.6a7.76,7.76,0,0,1-5.68-2.14,7.59,7.59,0,0,1-2.2-5.71v-.41a9.55,9.55,0,0,1,.93-4.28,6.72,6.72,0,0,1,2.62-2.9,7.35,7.35,0,0,1,3.86-1,6.59,6.59,0,0,1,5.13,2A8.34,8.34,0,0,1,530.43,71v1.73H520.32a3.94,3.94,0,0,0,1.24,2.49,3.73,3.73,0,0,0,2.62.94A4.57,4.57,0,0,0,528,74.4l2.08,2.34a6.25,6.25,0,0,1-2.58,2.1A8.37,8.37,0,0,1,523.9,79.6Zm-.48-13a2.67,2.67,0,0,0-2,.86,4.38,4.38,0,0,0-1,2.45h5.9v-.34a3.14,3.14,0,0,0-.77-2.19A2.71,2.71,0,0,0,523.42,66.55Z"/>
        <path class="cls-2" d="M544.8,79.31h-4.26V56.77h4.26Z"/>
        <path class="cls-2" d="M557.49,79.31a4.74,4.74,0,0,1-.43-1.43,5.1,5.1,0,0,1-4,1.72,5.63,5.63,0,0,1-3.87-1.35,4.35,4.35,0,0,1-1.53-3.4A4.48,4.48,0,0,1,549.53,71a9.24,9.24,0,0,1,5.41-1.36h1.95V68.7a2.59,2.59,0,0,0-.57-1.76,2.21,2.21,0,0,0-1.78-.66,2.55,2.55,0,0,0-1.68.51,1.73,1.73,0,0,0-.61,1.41H548a4.23,4.23,0,0,1,.85-2.55,5.63,5.63,0,0,1,2.41-1.85,8.86,8.86,0,0,1,3.49-.66,6.94,6.94,0,0,1,4.66,1.47,5.16,5.16,0,0,1,1.72,4.15v6.88a7.65,7.65,0,0,0,.63,3.42v.25Zm-3.51-3a3.6,3.6,0,0,0,1.73-.42,2.78,2.78,0,0,0,1.18-1.12V72.09H555.3c-2.12,0-3.25.73-3.39,2.2v.25a1.67,1.67,0,0,0,.56,1.3A2.13,2.13,0,0,0,554,76.36Z"/>
        <path class="cls-2" d="M575.79,63.43l.13,1.83a5.56,5.56,0,0,1,4.56-2.12,4.6,4.6,0,0,1,3.76,1.48,6.92,6.92,0,0,1,1.26,4.43V79.31h-4.24V69.13a2.7,2.7,0,0,0-.59-2,2.6,2.6,0,0,0-1.95-.62A2.9,2.9,0,0,0,576,68.08V79.31H571.8V63.43Z"/>
        <path class="cls-2" d="M596,79.6a7.76,7.76,0,0,1-5.68-2.14,7.59,7.59,0,0,1-2.2-5.71v-.41a9.55,9.55,0,0,1,.93-4.28,6.72,6.72,0,0,1,2.62-2.9,7.32,7.32,0,0,1,3.86-1,6.59,6.59,0,0,1,5.13,2A8.34,8.34,0,0,1,602.55,71v1.73H592.44a3.94,3.94,0,0,0,1.24,2.49,3.73,3.73,0,0,0,2.62.94,4.57,4.57,0,0,0,3.83-1.78l2.08,2.34a6.25,6.25,0,0,1-2.58,2.1A8.37,8.37,0,0,1,596,79.6Zm-.48-13a2.66,2.66,0,0,0-2,.86,4.38,4.38,0,0,0-1,2.45h5.89v-.34a3.13,3.13,0,0,0-.76-2.19A2.71,2.71,0,0,0,595.54,66.55Z"/>
        <path class="cls-2" d="M604.34,71.25a9.27,9.27,0,0,1,1.74-5.88,5.63,5.63,0,0,1,4.69-2.23,4.92,4.92,0,0,1,4.06,1.79l.18-1.5h3.84V78.78a6.78,6.78,0,0,1-.94,3.62,6.06,6.06,0,0,1-2.67,2.35,9.3,9.3,0,0,1-4,.81,8.77,8.77,0,0,1-3.4-.7,6,6,0,0,1-2.51-1.8l1.88-2.58A5,5,0,0,0,611,82.25a3.65,3.65,0,0,0,2.63-.9,3.36,3.36,0,0,0,.94-2.56v-.85a4.9,4.9,0,0,1-3.86,1.66,5.63,5.63,0,0,1-4.63-2.24,9.29,9.29,0,0,1-1.77-5.93Zm4.24.3a5.8,5.8,0,0,0,.87,3.4,2.76,2.76,0,0,0,2.38,1.23,3,3,0,0,0,2.77-1.46V68a3,3,0,0,0-2.75-1.46,2.76,2.76,0,0,0-2.39,1.26A6.47,6.47,0,0,0,608.58,71.55Z"/>
        <path class="cls-2" d="M621.45,71.22a9.37,9.37,0,0,1,.91-4.21A6.66,6.66,0,0,1,625,64.15a7.59,7.59,0,0,1,4-1,7.21,7.21,0,0,1,5.24,2,7.88,7.88,0,0,1,2.27,5.34l0,1.09a8.3,8.3,0,0,1-2,5.86,7.9,7.9,0,0,1-11,0,8.42,8.42,0,0,1-2-6Zm4.24.3a5.91,5.91,0,0,0,.85,3.46,3.06,3.06,0,0,0,4.84,0,6.48,6.48,0,0,0,.87-3.79,5.87,5.87,0,0,0-.87-3.44,3,3,0,0,0-4.84,0A6.58,6.58,0,0,0,625.69,71.52Z"/>
        <path class="cls-2" d="M645.71,76.18a2.72,2.72,0,0,0,1.9-.65,2.26,2.26,0,0,0,.77-1.71h4a5.4,5.4,0,0,1-.88,3,5.74,5.74,0,0,1-2.37,2.09,7.46,7.46,0,0,1-3.32.74,6.9,6.9,0,0,1-5.37-2.16,8.59,8.59,0,0,1-2-6v-.28a8.48,8.48,0,0,1,1.95-5.86,6.82,6.82,0,0,1,5.36-2.18,6.68,6.68,0,0,1,4.78,1.69,6,6,0,0,1,1.82,4.51h-4a2.93,2.93,0,0,0-.77-2,2.52,2.52,0,0,0-1.93-.78,2.55,2.55,0,0,0-2.24,1.08,6.3,6.3,0,0,0-.76,3.51v.44a6.34,6.34,0,0,0,.75,3.53A2.6,2.6,0,0,0,645.71,76.18Z"/>
        <path class="cls-2" d="M654.75,59.32a2.11,2.11,0,0,1,.63-1.57,2.42,2.42,0,0,1,1.74-.62,2.39,2.39,0,0,1,1.73.62,2.09,2.09,0,0,1,.65,1.57,2.12,2.12,0,0,1-.65,1.59,2.42,2.42,0,0,1-1.73.61,2.4,2.4,0,0,1-1.72-.61A2.08,2.08,0,0,1,654.75,59.32Zm4.5,20H655V63.43h4.26Z"/>
        <path class="cls-2" d="M671.94,79.31a4.74,4.74,0,0,1-.42-1.43,5.13,5.13,0,0,1-4,1.72,5.67,5.67,0,0,1-3.87-1.35,4.35,4.35,0,0,1-1.53-3.4A4.48,4.48,0,0,1,664,71a9.24,9.24,0,0,1,5.41-1.36h2V68.7a2.63,2.63,0,0,0-.56-1.76,2.25,2.25,0,0,0-1.79-.66,2.55,2.55,0,0,0-1.68.51,1.76,1.76,0,0,0-.61,1.41h-4.24a4.29,4.29,0,0,1,.85-2.55,5.63,5.63,0,0,1,2.41-1.85,8.86,8.86,0,0,1,3.49-.66,6.94,6.94,0,0,1,4.66,1.47,5.17,5.17,0,0,1,1.73,4.15v6.88a7.65,7.65,0,0,0,.63,3.42v.25Zm-3.5-3a3.66,3.66,0,0,0,1.73-.42,2.7,2.7,0,0,0,1.17-1.12V72.09h-1.58c-2.13,0-3.26.73-3.39,2.2l0,.25a1.7,1.7,0,0,0,.56,1.3A2.13,2.13,0,0,0,668.44,76.36Z"/>
        <path class="cls-2" d="M685.46,76.18a2.72,2.72,0,0,0,1.9-.65,2.26,2.26,0,0,0,.77-1.71h4a5.4,5.4,0,0,1-.88,3,5.87,5.87,0,0,1-2.37,2.09,7.46,7.46,0,0,1-3.32.74,6.9,6.9,0,0,1-5.37-2.16,8.59,8.59,0,0,1-2-6v-.28a8.48,8.48,0,0,1,1.95-5.86,6.81,6.81,0,0,1,5.36-2.18,6.68,6.68,0,0,1,4.78,1.69,6,6,0,0,1,1.82,4.51h-4a2.93,2.93,0,0,0-.77-2,2.52,2.52,0,0,0-1.93-.78,2.55,2.55,0,0,0-2.24,1.08,6.21,6.21,0,0,0-.76,3.51v.44a6.34,6.34,0,0,0,.75,3.53A2.6,2.6,0,0,0,685.46,76.18Z"/>
        <path class="cls-2" d="M694.5,59.32a2.11,2.11,0,0,1,.63-1.57,2.42,2.42,0,0,1,1.74-.62,2.39,2.39,0,0,1,1.73.62,2.09,2.09,0,0,1,.65,1.57,2.12,2.12,0,0,1-.65,1.59,2.42,2.42,0,0,1-1.73.61,2.4,2.4,0,0,1-1.72-.61A2.08,2.08,0,0,1,694.5,59.32Zm4.5,20h-4.26V63.43H699Z"/>
        <path class="cls-2" d="M701.83,71.22a9.37,9.37,0,0,1,.91-4.21,6.66,6.66,0,0,1,2.62-2.86,7.59,7.59,0,0,1,4-1,7.21,7.21,0,0,1,5.24,2,7.88,7.88,0,0,1,2.27,5.34l0,1.09a8.3,8.3,0,0,1-2,5.86,7.9,7.9,0,0,1-11,0,8.42,8.42,0,0,1-2-6Zm4.24.3a5.91,5.91,0,0,0,.85,3.46,3.06,3.06,0,0,0,4.84,0,6.48,6.48,0,0,0,.87-3.79,5.87,5.87,0,0,0-.87-3.44,3,3,0,0,0-4.84,0A6.58,6.58,0,0,0,706.07,71.52Zm4.1-14.75h4.62l-4.07,4.55h-3.45Z"/>
        <path class="cls-2" d="M723.39,63.43l.13,1.83a5.54,5.54,0,0,1,4.56-2.12,4.61,4.61,0,0,1,3.76,1.48,6.92,6.92,0,0,1,1.26,4.43V79.31h-4.24V69.13a2.75,2.75,0,0,0-.59-2,2.6,2.6,0,0,0-1.95-.62,2.9,2.9,0,0,0-2.68,1.53V79.31H719.4V63.43Z"/>
      </g>
    </g>
    <g>
      <path class="cls-3" d="M483.89,493.14l-30.23-40.23a10.58,10.58,0,0,0-8.46-4.22H64.47a10.58,10.58,0,0,0-8.53,16.83l19.65,26.79a12.13,12.13,0,0,1,0,14.28L56.32,533.24a10.58,10.58,0,0,0,8.46,16.93H446.05a10.61,10.61,0,0,0,8.53-4.32L484,505.75A10.56,10.56,0,0,0,483.89,493.14Z"/>
      <path class="cls-3" d="M483.89,825.38l-30.23-40.24a10.58,10.58,0,0,0-8.46-4.22H64.47a10.58,10.58,0,0,0-8.53,16.83l19.65,26.79a12.13,12.13,0,0,1,0,14.28L56.32,865.47a10.58,10.58,0,0,0,8.46,16.93H446.05a10.58,10.58,0,0,0,8.53-4.32L484,838A10.56,10.56,0,0,0,483.89,825.38Z"/>
      <path class="cls-3" d="M483.89,188.35l-30.23-40.24a10.58,10.58,0,0,0-8.46-4.22H64.47a10.58,10.58,0,0,0-8.53,16.83l19.65,26.8a12.11,12.11,0,0,1,0,14.27L56.32,228.44a10.58,10.58,0,0,0,8.46,16.93H446.05a10.58,10.58,0,0,0,8.53-4.32L484,201A10.56,10.56,0,0,0,483.89,188.35Z"/>
      <ellipse class="cls-4" cx="767.95" cy="437.17" rx="208.21" ry="73.46"/>
      <circle class="cls-5" cx="819.77" cy="558.44" r="93.86"/>
      <path class="cls-6" d="M768,346.61c-128.75,0-233.13,40.55-233.13,90.56,0,9,5.14,16.3,9.65,25.85L696.8,747.19c5.2,9.94,17.09,22.47,71.15,22.47,52.57,0,66-12.53,71.15-22.47L991.44,463c6.51-12.49,9.65-16.86,9.65-25.85C1001.09,387.16,896.71,346.61,768,346.61Zm0,164c-115,0-208.21-32.89-208.21-73.47S653,363.71,768,363.71s208.21,32.89,208.21,73.46S883,510.64,768,510.64Z"/>
      <g>
        <circle class="cls-7" cx="871.53" cy="346.61" r="93.86"/>
        <g>
          <path d="M835.58,347.92a11,11,0,0,1-.88,4.58,6.74,6.74,0,0,1-2.5,3,7,7,0,0,1-3.78,1,6.66,6.66,0,0,1-6.27-4,10.66,10.66,0,0,1-.93-4.44v-1.29a10.84,10.84,0,0,1,.9-4.55,6.79,6.79,0,0,1,2.53-3,7.37,7.37,0,0,1,7.53,0,6.72,6.72,0,0,1,2.52,3,11.07,11.07,0,0,1,.88,4.58Zm-2.34-1.16a8,8,0,0,0-1.27-4.87,4.55,4.55,0,0,0-7.09,0,7.89,7.89,0,0,0-1.32,4.71v1.32a8.06,8.06,0,0,0,1.3,4.84,4.52,4.52,0,0,0,7.09.09,7.86,7.86,0,0,0,1.29-4.76Z"/>
          <path d="M850,349.78a8,8,0,0,1-1.38,4.88,4.45,4.45,0,0,1-3.76,1.86A4.85,4.85,0,0,1,841,355v6.39h-2.27V343h2.07l.12,1.47a4.67,4.67,0,0,1,3.85-1.72,4.51,4.51,0,0,1,3.78,1.81,8,8,0,0,1,1.39,5Zm-2.26-.26a5.85,5.85,0,0,0-1-3.54,3.09,3.09,0,0,0-2.63-1.3,3.34,3.34,0,0,0-3.09,1.83v6.34a3.34,3.34,0,0,0,3.12,1.81,3.07,3.07,0,0,0,2.59-1.29A6.4,6.4,0,0,0,847.71,349.52Z"/>
          <path d="M858.18,354.66a3.25,3.25,0,0,0,2.12-.73,2.6,2.6,0,0,0,1-1.84h2.15a4.23,4.23,0,0,1-.79,2.17,5.16,5.16,0,0,1-1.93,1.64,5.59,5.59,0,0,1-2.56.62,5.48,5.48,0,0,1-4.31-1.81,7.21,7.21,0,0,1-1.6-4.95v-.38a7.91,7.91,0,0,1,.71-3.45,5.31,5.31,0,0,1,2-2.34,5.79,5.79,0,0,1,3.15-.84,5.33,5.33,0,0,1,3.71,1.34,4.82,4.82,0,0,1,1.58,3.47h-2.15a3.11,3.11,0,0,0-1-2.11,3,3,0,0,0-2.16-.83,3.17,3.17,0,0,0-2.68,1.24,5.81,5.81,0,0,0-1,3.6v.43a5.76,5.76,0,0,0,.94,3.54A3.2,3.2,0,0,0,858.18,354.66Z"/>
          <path d="M866,339.48a1.32,1.32,0,0,1,.34-.93,1.23,1.23,0,0,1,1-.38,1.25,1.25,0,0,1,1,.38,1.33,1.33,0,0,1,.35.93,1.3,1.3,0,0,1-.35.92,1.32,1.32,0,0,1-1,.37,1.22,1.22,0,0,1-1.34-1.29Zm2.45,16.79H866.2V343h2.27Z"/>
          <path d="M871.5,349.51a7.87,7.87,0,0,1,.77-3.51,5.73,5.73,0,0,1,2.13-2.4,5.87,5.87,0,0,1,3.13-.85,5.61,5.61,0,0,1,4.38,1.88,7.2,7.2,0,0,1,1.67,5v.16a7.86,7.86,0,0,1-.74,3.48,5.57,5.57,0,0,1-2.12,2.4,5.91,5.91,0,0,1-3.17.86,5.57,5.57,0,0,1-4.37-1.88,7.17,7.17,0,0,1-1.68-5Zm2.28.27a5.65,5.65,0,0,0,1,3.55,3.48,3.48,0,0,0,5.49,0,6.2,6.2,0,0,0,1-3.8,5.7,5.7,0,0,0-1-3.54,3.3,3.3,0,0,0-2.75-1.35,3.26,3.26,0,0,0-2.72,1.33A6.23,6.23,0,0,0,873.78,349.78Z"/>
          <path d="M888.58,343l.07,1.67a4.82,4.82,0,0,1,4-1.92c2.81,0,4.22,1.59,4.25,4.75v8.77H894.6v-8.78a3,3,0,0,0-.66-2.12,2.61,2.61,0,0,0-2-.69,3.3,3.3,0,0,0-1.94.59,4,4,0,0,0-1.3,1.54v9.46h-2.27V343Z"/>
          <path d="M905.8,356.52a5.77,5.77,0,0,1-4.39-1.78,6.57,6.57,0,0,1-1.7-4.74v-.41a8,8,0,0,1,.76-3.53,5.83,5.83,0,0,1,2.11-2.43,5.33,5.33,0,0,1,2.94-.88,5,5,0,0,1,4,1.71,7.36,7.36,0,0,1,1.44,4.88v.94h-9a4.8,4.8,0,0,0,1.15,3.18,3.61,3.61,0,0,0,2.79,1.2,4,4,0,0,0,2-.49,5.13,5.13,0,0,0,1.46-1.3L910.8,354A5.57,5.57,0,0,1,905.8,356.52Zm-.28-11.9a3,3,0,0,0-2.31,1,4.86,4.86,0,0,0-1.15,2.8h6.65v-.17a4.33,4.33,0,0,0-.94-2.68A2.8,2.8,0,0,0,905.52,344.62Z"/>
          <path d="M921.33,352.75a1.68,1.68,0,0,0-.69-1.43,6.82,6.82,0,0,0-2.42-.88,11.46,11.46,0,0,1-2.74-.88,3.81,3.81,0,0,1-1.49-1.23,2.86,2.86,0,0,1-.49-1.69,3.44,3.44,0,0,1,1.38-2.76,5.41,5.41,0,0,1,3.53-1.13,5.54,5.54,0,0,1,3.66,1.17,3.7,3.7,0,0,1,1.41,3h-2.29a2,2,0,0,0-.79-1.61,2.94,2.94,0,0,0-2-.67,3.11,3.11,0,0,0-1.94.54,1.72,1.72,0,0,0-.7,1.41,1.39,1.39,0,0,0,.65,1.24,8.3,8.3,0,0,0,2.35.79,12.9,12.9,0,0,1,2.76.91,4.06,4.06,0,0,1,1.56,1.27,3.13,3.13,0,0,1,.51,1.81,3.4,3.4,0,0,1-1.42,2.85,6,6,0,0,1-3.7,1.08,6.64,6.64,0,0,1-2.82-.57,4.54,4.54,0,0,1-1.92-1.57,3.84,3.84,0,0,1-.69-2.19h2.27a2.35,2.35,0,0,0,.91,1.81,3.58,3.58,0,0,0,2.25.66,3.65,3.65,0,0,0,2.07-.52A1.59,1.59,0,0,0,921.33,352.75Z"/>
        </g>
      </g>
      <g>
        <circle class="cls-8" cx="674.1" cy="400.19" r="93.86"/>
        <g>
          <path d="M624.23,410.58h-2.36V392.72h2.36Z"/>
          <path d="M630.33,397.31l.07,1.67a4.82,4.82,0,0,1,4-1.92c2.81,0,4.22,1.59,4.25,4.75v8.77h-2.27V401.8a3,3,0,0,0-.66-2.12,2.62,2.62,0,0,0-2-.69,3.28,3.28,0,0,0-1.94.59,4,4,0,0,0-1.3,1.54v9.46h-2.27V397.31Z"/>
          <path d="M645.12,394.1v3.21h2.48v1.75h-2.48v8.24a1.83,1.83,0,0,0,.33,1.2,1.39,1.39,0,0,0,1.13.4,5.44,5.44,0,0,0,1.08-.15v1.83a6.36,6.36,0,0,1-1.74.25,2.85,2.85,0,0,1-2.3-.92,4,4,0,0,1-.77-2.62v-8.23h-2.42v-1.75h2.42V394.1Z"/>
          <path d="M655.75,410.83a5.79,5.79,0,0,1-4.39-1.78,6.56,6.56,0,0,1-1.69-4.74v-.41a8,8,0,0,1,.75-3.53,6,6,0,0,1,2.11-2.43,5.38,5.38,0,0,1,2.94-.88,5,5,0,0,1,4,1.71,7.42,7.42,0,0,1,1.43,4.88v1h-9a4.69,4.69,0,0,0,1.15,3.17,3.61,3.61,0,0,0,2.79,1.2,3.89,3.89,0,0,0,2-.49,4.87,4.87,0,0,0,1.46-1.3l1.39,1.08A5.58,5.58,0,0,1,655.75,410.83Zm-.28-11.9a3,3,0,0,0-2.3,1,4.8,4.8,0,0,0-1.16,2.8h6.65v-.17a4.26,4.26,0,0,0-.93-2.68A2.87,2.87,0,0,0,655.47,398.93Z"/>
          <path d="M670,399.35a6.52,6.52,0,0,0-1.12-.09,3,3,0,0,0-3,1.9v9.42h-2.26V397.31h2.2l0,1.53a3.54,3.54,0,0,1,3.16-1.78,2.22,2.22,0,0,1,1,.18Z"/>
          <path d="M677.33,410.83a5.77,5.77,0,0,1-4.39-1.78,6.56,6.56,0,0,1-1.69-4.74v-.41a8,8,0,0,1,.75-3.53,5.89,5.89,0,0,1,2.11-2.43,5.33,5.33,0,0,1,2.94-.88,5,5,0,0,1,4,1.71,7.36,7.36,0,0,1,1.44,4.88v1h-9a4.73,4.73,0,0,0,1.14,3.17,3.64,3.64,0,0,0,2.79,1.2,3.93,3.93,0,0,0,2-.49,5,5,0,0,0,1.46-1.3l1.39,1.08A5.59,5.59,0,0,1,677.33,410.83Zm-.28-11.9a3,3,0,0,0-2.31,1,4.86,4.86,0,0,0-1.15,2.8h6.65v-.17a4.38,4.38,0,0,0-.93-2.68A2.87,2.87,0,0,0,677.05,398.93Z"/>
          <path d="M692.86,407.06a1.68,1.68,0,0,0-.69-1.43,6.74,6.74,0,0,0-2.42-.88,10.8,10.8,0,0,1-2.73-.88,3.84,3.84,0,0,1-1.5-1.22A3,3,0,0,1,685,401a3.44,3.44,0,0,1,1.38-2.76,5.41,5.41,0,0,1,3.53-1.13,5.51,5.51,0,0,1,3.66,1.17,3.7,3.7,0,0,1,1.41,3h-2.28a2.06,2.06,0,0,0-.8-1.61,2.94,2.94,0,0,0-2-.67,3.13,3.13,0,0,0-1.94.54,1.72,1.72,0,0,0-.7,1.41,1.39,1.39,0,0,0,.65,1.24,8.24,8.24,0,0,0,2.35.8,12.23,12.23,0,0,1,2.76.9,4.06,4.06,0,0,1,1.56,1.27,3.13,3.13,0,0,1,.51,1.81,3.37,3.37,0,0,1-1.42,2.85,6,6,0,0,1-3.7,1.08,6.64,6.64,0,0,1-2.82-.57,4.66,4.66,0,0,1-1.92-1.57,3.84,3.84,0,0,1-.69-2.19h2.27a2.38,2.38,0,0,0,.91,1.81A3.58,3.58,0,0,0,690,409a3.65,3.65,0,0,0,2.07-.52A1.59,1.59,0,0,0,692.86,407.06Z"/>
          <path d="M703.59,410.83a5.77,5.77,0,0,1-4.39-1.78,6.56,6.56,0,0,1-1.69-4.74v-.41a8,8,0,0,1,.75-3.53,6,6,0,0,1,2.11-2.43,5.38,5.38,0,0,1,2.94-.88,5,5,0,0,1,4,1.71,7.42,7.42,0,0,1,1.43,4.88v1h-9a4.69,4.69,0,0,0,1.15,3.17,3.61,3.61,0,0,0,2.79,1.2,3.89,3.89,0,0,0,2-.49,4.87,4.87,0,0,0,1.46-1.3l1.39,1.08A5.58,5.58,0,0,1,703.59,410.83Zm-.28-11.9a3,3,0,0,0-2.3,1,4.8,4.8,0,0,0-1.16,2.8h6.65v-.17a4.32,4.32,0,0,0-.93-2.68A2.87,2.87,0,0,0,703.31,398.93Z"/>
          <path d="M719.12,407.06a1.68,1.68,0,0,0-.69-1.43,6.74,6.74,0,0,0-2.42-.88,10.8,10.8,0,0,1-2.73-.88,3.84,3.84,0,0,1-1.5-1.22,3,3,0,0,1-.48-1.7,3.44,3.44,0,0,1,1.38-2.76,5.39,5.39,0,0,1,3.52-1.13,5.55,5.55,0,0,1,3.67,1.17,3.72,3.72,0,0,1,1.4,3H719a2.08,2.08,0,0,0-.79-1.61,3,3,0,0,0-2-.67,3.08,3.08,0,0,0-1.93.54,1.69,1.69,0,0,0-.7,1.41,1.36,1.36,0,0,0,.65,1.24,8,8,0,0,0,2.35.8,12.13,12.13,0,0,1,2.75.9,4.06,4.06,0,0,1,1.56,1.27,3.13,3.13,0,0,1,.51,1.81,3.37,3.37,0,0,1-1.42,2.85,5.94,5.94,0,0,1-3.69,1.08,6.57,6.57,0,0,1-2.82-.57,4.54,4.54,0,0,1-1.92-1.57,3.77,3.77,0,0,1-.7-2.19h2.27a2.36,2.36,0,0,0,.92,1.81,3.54,3.54,0,0,0,2.25.66,3.61,3.61,0,0,0,2.06-.52A1.59,1.59,0,0,0,719.12,407.06Z"/>
        </g>
      </g>
      <g class="cls-9">
        <path d="M787.81,549.85a6.54,6.54,0,0,1-2.09,4.37,6.82,6.82,0,0,1-4.68,1.54,6.3,6.3,0,0,1-5.07-2.27,9.14,9.14,0,0,1-1.91-6.07V545.7a10.22,10.22,0,0,1,.89-4.38,6.63,6.63,0,0,1,2.52-2.9,7.07,7.07,0,0,1,3.78-1,6.43,6.43,0,0,1,4.56,1.59,6.63,6.63,0,0,1,2,4.4h-2.36a5.2,5.2,0,0,0-1.33-3.11,4.09,4.09,0,0,0-2.87-1,4.24,4.24,0,0,0-3.54,1.67,7.73,7.73,0,0,0-1.28,4.76v1.73a7.89,7.89,0,0,0,1.21,4.63,3.94,3.94,0,0,0,3.4,1.71,4.49,4.49,0,0,0,3-.89,4.91,4.91,0,0,0,1.4-3.09Z"/>
        <path d="M797.09,544.28a6.6,6.6,0,0,0-1.12-.09,3,3,0,0,0-3,1.9v9.42h-2.27V542.24h2.21l0,1.54a3.51,3.51,0,0,1,3.16-1.78,2.27,2.27,0,0,1,1,.17Z"/>
        <path d="M799.18,538.72a1.36,1.36,0,0,1,.34-.93,1.29,1.29,0,0,1,1-.38,1.24,1.24,0,0,1,1.35,1.31,1.28,1.28,0,0,1-.34.92,1.31,1.31,0,0,1-1,.37,1.28,1.28,0,0,1-1-.37A1.32,1.32,0,0,1,799.18,538.72Zm2.46,16.79h-2.27V542.24h2.27Z"/>
        <path d="M808.35,539v3.21h2.48V544h-2.48v8.24a1.87,1.87,0,0,0,.33,1.2,1.42,1.42,0,0,0,1.13.39,5.28,5.28,0,0,0,1.08-.14v1.83a6.76,6.76,0,0,1-1.75.24,2.84,2.84,0,0,1-2.29-.92,3.91,3.91,0,0,1-.77-2.61V544h-2.42v-1.76h2.42V539Z"/>
        <path d="M819,555.76a5.8,5.8,0,0,1-4.39-1.77,6.56,6.56,0,0,1-1.69-4.74v-.42a8,8,0,0,1,.75-3.53,6,6,0,0,1,2.11-2.43,5.37,5.37,0,0,1,2.94-.87,5,5,0,0,1,4,1.7,7.38,7.38,0,0,1,1.44,4.88v.95h-9a4.71,4.71,0,0,0,1.14,3.17,3.65,3.65,0,0,0,2.8,1.21,4,4,0,0,0,2-.49,5.14,5.14,0,0,0,1.46-1.3L824,553.2A5.57,5.57,0,0,1,819,555.76Zm-.28-11.9a3,3,0,0,0-2.31,1,4.89,4.89,0,0,0-1.15,2.8h6.65v-.17a4.41,4.41,0,0,0-.93-2.68A2.87,2.87,0,0,0,818.7,543.86Z"/>
        <path d="M833.2,544.28a6.52,6.52,0,0,0-1.12-.09,3,3,0,0,0-3,1.9v9.42h-2.27V542.24H829l0,1.54a3.52,3.52,0,0,1,3.16-1.78,2.27,2.27,0,0,1,1,.17Z"/>
        <path d="M835.3,538.72a1.36,1.36,0,0,1,.33-.93,1.52,1.52,0,0,1,2,0,1.32,1.32,0,0,1,.34.93,1.28,1.28,0,0,1-.34.92,1.55,1.55,0,0,1-2,0A1.31,1.31,0,0,1,835.3,538.72Zm2.45,16.79h-2.27V542.24h2.27Z"/>
        <path d="M840.78,548.76a7.87,7.87,0,0,1,.77-3.51,5.76,5.76,0,0,1,2.13-2.41,5.83,5.83,0,0,1,3.12-.84,5.61,5.61,0,0,1,4.39,1.87,7.26,7.26,0,0,1,1.67,5V549a7.79,7.79,0,0,1-.74,3.47,5.57,5.57,0,0,1-2.12,2.4,5.91,5.91,0,0,1-3.17.86,5.57,5.57,0,0,1-4.37-1.88,7.15,7.15,0,0,1-1.68-5Zm2.28.27a5.62,5.62,0,0,0,1,3.54,3.47,3.47,0,0,0,5.49,0,6.26,6.26,0,0,0,1-3.79,5.66,5.66,0,0,0-1-3.54,3.45,3.45,0,0,0-5.47,0A6.21,6.21,0,0,0,843.06,549Z"/>
        <path d="M863.44,552a1.63,1.63,0,0,0-.7-1.42,6.49,6.49,0,0,0-2.41-.88,11.42,11.42,0,0,1-2.74-.89,4,4,0,0,1-1.5-1.22,3,3,0,0,1-.48-1.69,3.47,3.47,0,0,1,1.38-2.77,5.41,5.41,0,0,1,3.53-1.12,5.59,5.59,0,0,1,3.66,1.16,3.69,3.69,0,0,1,1.4,3H863.3a2,2,0,0,0-.79-1.6,3,3,0,0,0-2-.68,3.09,3.09,0,0,0-1.94.54,1.69,1.69,0,0,0-.7,1.41,1.39,1.39,0,0,0,.65,1.24,8.12,8.12,0,0,0,2.35.8,11.61,11.61,0,0,1,2.75.91A3.94,3.94,0,0,1,865.2,550a3.08,3.08,0,0,1,.51,1.8,3.41,3.41,0,0,1-1.43,2.86,6,6,0,0,1-3.69,1.07,6.79,6.79,0,0,1-2.82-.56,4.63,4.63,0,0,1-1.92-1.58,3.84,3.84,0,0,1-.69-2.19h2.27a2.35,2.35,0,0,0,.91,1.81,3.59,3.59,0,0,0,2.25.67,3.73,3.73,0,0,0,2.07-.52A1.61,1.61,0,0,0,863.44,552Z"/>
        <path d="M783.46,577.31a11,11,0,0,1-.88,4.58,6.74,6.74,0,0,1-2.5,3,7,7,0,0,1-3.78,1,6.66,6.66,0,0,1-6.27-4,10.5,10.5,0,0,1-.93-4.44v-1.29a10.87,10.87,0,0,1,.9-4.55,6.79,6.79,0,0,1,2.53-3,7.37,7.37,0,0,1,7.53,0,6.72,6.72,0,0,1,2.52,3,11.07,11.07,0,0,1,.88,4.58Zm-2.34-1.16a8,8,0,0,0-1.27-4.87,4.55,4.55,0,0,0-7.09,0,7.9,7.9,0,0,0-1.32,4.72v1.31a8,8,0,0,0,1.3,4.84,4.53,4.53,0,0,0,7.09.1,7.92,7.92,0,0,0,1.29-4.77Z"/>
        <path d="M797.88,579.17a7.91,7.91,0,0,1-1.4,4.89,4.46,4.46,0,0,1-3.75,1.85,4.63,4.63,0,0,1-3.89-1.78l-.11,1.53h-2.09V566.82h2.27v7a4.6,4.6,0,0,1,3.79-1.71,4.5,4.5,0,0,1,3.8,1.83,8.14,8.14,0,0,1,1.38,5Zm-2.27-.26a6.11,6.11,0,0,0-.9-3.58,3,3,0,0,0-2.57-1.26,3.33,3.33,0,0,0-3.23,2.08v5.75a3.43,3.43,0,0,0,3.25,2.08,3,3,0,0,0,2.54-1.26A6.49,6.49,0,0,0,795.61,578.91Z"/>
        <path d="M803.08,572.39v14.8c0,2.56-1.16,3.83-3.47,3.83a4.18,4.18,0,0,1-1.39-.22V589a4.7,4.7,0,0,0,1,.1,1.53,1.53,0,0,0,1.16-.42,2,2,0,0,0,.4-1.43V572.39Zm-2.5-3.52a1.39,1.39,0,0,1,.33-.93,1.25,1.25,0,0,1,1-.38,1.28,1.28,0,0,1,1,.38,1.32,1.32,0,0,1,.34.93,1.29,1.29,0,0,1-.34.92,1.34,1.34,0,0,1-1,.37,1.28,1.28,0,0,1-1-.37A1.33,1.33,0,0,1,800.58,568.87Z"/>
        <path d="M812.24,585.91a5.77,5.77,0,0,1-4.39-1.78,6.56,6.56,0,0,1-1.69-4.74V579a8,8,0,0,1,.75-3.53A6,6,0,0,1,809,573a5.33,5.33,0,0,1,2.94-.88,5,5,0,0,1,4,1.71,7.36,7.36,0,0,1,1.44,4.88v.94h-9a4.74,4.74,0,0,0,1.14,3.18,3.64,3.64,0,0,0,2.79,1.2,3.93,3.93,0,0,0,2-.49,5,5,0,0,0,1.46-1.3l1.39,1.08A5.59,5.59,0,0,1,812.24,585.91ZM812,574a3,3,0,0,0-2.31,1,4.86,4.86,0,0,0-1.15,2.8h6.65v-.17a4.38,4.38,0,0,0-.93-2.68A2.87,2.87,0,0,0,812,574Z"/>
        <path d="M823.12,569.17v3.22h2.48v1.75h-2.48v8.24a1.83,1.83,0,0,0,.33,1.2,1.39,1.39,0,0,0,1.13.4,5.44,5.44,0,0,0,1.08-.15v1.83a6.36,6.36,0,0,1-1.74.25,2.83,2.83,0,0,1-2.29-.92,4,4,0,0,1-.78-2.62v-8.23h-2.41v-1.75h2.41v-3.22Z"/>
        <path d="M828.26,568.87a1.32,1.32,0,0,1,.34-.93,1.51,1.51,0,0,1,2,0,1.33,1.33,0,0,1,.35.93,1.35,1.35,0,1,1-2.69,0Zm2.45,16.79h-2.26V572.39h2.26Z"/>
        <path d="M838.73,582.58,842,572.39h2.32l-4.76,13.27h-1.73L833,572.39h2.32Z"/>
        <path d="M845.73,578.9a7.87,7.87,0,0,1,.77-3.51,5.73,5.73,0,0,1,2.13-2.4,5.84,5.84,0,0,1,3.12-.85,5.61,5.61,0,0,1,4.39,1.88,7.25,7.25,0,0,1,1.67,5v.16a8,8,0,0,1-.74,3.48,5.57,5.57,0,0,1-2.12,2.4,5.91,5.91,0,0,1-3.17.86A5.61,5.61,0,0,1,847.4,584a7.22,7.22,0,0,1-1.67-5Zm2.28.27a5.65,5.65,0,0,0,1,3.55,3.47,3.47,0,0,0,5.48,0,6.22,6.22,0,0,0,1-3.8,5.7,5.7,0,0,0-1-3.54,3.3,3.3,0,0,0-2.76-1.35,3.26,3.26,0,0,0-2.71,1.33A6.17,6.17,0,0,0,848,579.17Z"/>
        <path d="M868.39,582.14a1.69,1.69,0,0,0-.7-1.43,6.75,6.75,0,0,0-2.41-.88,11.46,11.46,0,0,1-2.74-.88,3.92,3.92,0,0,1-1.5-1.23,2.92,2.92,0,0,1-.48-1.69,3.44,3.44,0,0,1,1.38-2.76,5.41,5.41,0,0,1,3.53-1.13,5.54,5.54,0,0,1,3.66,1.17,3.72,3.72,0,0,1,1.4,3h-2.28a2,2,0,0,0-.79-1.61,3,3,0,0,0-2-.67,3.09,3.09,0,0,0-1.94.54,1.69,1.69,0,0,0-.7,1.41,1.39,1.39,0,0,0,.65,1.24,7.88,7.88,0,0,0,2.35.79,12.6,12.6,0,0,1,2.75.91,4,4,0,0,1,1.57,1.27,3.13,3.13,0,0,1,.51,1.81,3.38,3.38,0,0,1-1.43,2.85,5.94,5.94,0,0,1-3.69,1.08,6.64,6.64,0,0,1-2.82-.57,4.54,4.54,0,0,1-1.92-1.57,3.84,3.84,0,0,1-.69-2.19h2.27a2.35,2.35,0,0,0,.91,1.81,3.58,3.58,0,0,0,2.25.66,3.65,3.65,0,0,0,2.07-.52A1.59,1.59,0,0,0,868.39,582.14Z"/>
      </g>
      <g id="Antes_de_la_negociación" data-name="Antes de la negociación" class="cls-1">
        <g class="cls-1">
          <path class="cls-2" d="M157.08,196.69H150.7l-1.33,3.83h-3l6.22-16.47h2.57l6.24,16.47h-3Zm-5.57-2.31h4.77l-2.39-6.84Z"/>
          <path class="cls-2" d="M165,188.28l.08,1.41a4.4,4.4,0,0,1,3.56-1.64q3.83,0,3.89,4.38v8.09h-2.75v-7.93a2.52,2.52,0,0,0-.5-1.73,2.13,2.13,0,0,0-1.65-.56,2.64,2.64,0,0,0-2.47,1.51v8.71h-2.75V188.28Z"/>
          <path class="cls-2" d="M178.81,185.3v3H181v2h-2.16v6.84a1.47,1.47,0,0,0,.28,1,1.26,1.26,0,0,0,1,.31,4,4,0,0,0,1-.11v2.13a6.94,6.94,0,0,1-1.81.26q-3.16,0-3.17-3.5v-6.94h-2v-2h2v-3Z"/>
          <path class="cls-2" d="M188.46,200.75a5.7,5.7,0,0,1-4.24-1.65,6,6,0,0,1-1.62-4.38v-.34a7.22,7.22,0,0,1,.71-3.28,5.43,5.43,0,0,1,2-2.25,5.31,5.31,0,0,1,2.85-.8,4.8,4.8,0,0,1,3.87,1.6,6.73,6.73,0,0,1,1.36,4.51v1.11h-8a3.68,3.68,0,0,0,1,2.4,3.05,3.05,0,0,0,2.24.88A3.74,3.74,0,0,0,191.7,197l1.48,1.42a5,5,0,0,1-2,1.7A6.08,6.08,0,0,1,188.46,200.75Zm-.33-10.49a2.29,2.29,0,0,0-1.82.79,4,4,0,0,0-.89,2.21h5.24v-.21a3.31,3.31,0,0,0-.74-2.08A2.28,2.28,0,0,0,188.13,190.26Z"/>
          <path class="cls-2" d="M202.37,197.19a1.26,1.26,0,0,0-.61-1.12,6.42,6.42,0,0,0-2-.67,10.75,10.75,0,0,1-2.34-.75,3.14,3.14,0,0,1-2.06-2.89,3.25,3.25,0,0,1,1.34-2.64,5.27,5.27,0,0,1,3.39-1.07,5.47,5.47,0,0,1,3.55,1.09A3.44,3.44,0,0,1,205,192h-2.75a1.7,1.7,0,0,0-.59-1.32,2.25,2.25,0,0,0-1.56-.53,2.45,2.45,0,0,0-1.48.42,1.32,1.32,0,0,0-.57,1.12,1.11,1.11,0,0,0,.53,1,7.34,7.34,0,0,0,2.15.71,10.1,10.1,0,0,1,2.54.85,3.52,3.52,0,0,1,1.37,1.18,3,3,0,0,1,.45,1.68,3.19,3.19,0,0,1-1.37,2.67,5.79,5.79,0,0,1-3.59,1,6.23,6.23,0,0,1-2.68-.55,4.45,4.45,0,0,1-1.83-1.49,3.52,3.52,0,0,1-.66-2.05h2.67a2,2,0,0,0,.74,1.5,2.85,2.85,0,0,0,1.8.53,2.75,2.75,0,0,0,1.65-.42A1.26,1.26,0,0,0,202.37,197.19Z"/>
          <path class="cls-2" d="M212.72,194.31a7.29,7.29,0,0,1,1.31-4.54,4.2,4.2,0,0,1,3.52-1.72,4,4,0,0,1,3.15,1.36v-6.27h2.75v17.38H221l-.14-1.27a4,4,0,0,1-3.29,1.5,4.2,4.2,0,0,1-3.48-1.73A7.55,7.55,0,0,1,212.72,194.31Zm2.75.24a5.09,5.09,0,0,0,.72,2.91,2.33,2.33,0,0,0,2,1A2.6,2.6,0,0,0,220.7,197v-5.23a2.56,2.56,0,0,0-2.45-1.47,2.37,2.37,0,0,0-2.06,1.06A5.73,5.73,0,0,0,215.47,194.55Z"/>
          <path class="cls-2" d="M231.71,200.75a5.67,5.67,0,0,1-4.24-1.65,6,6,0,0,1-1.62-4.38v-.34a7.35,7.35,0,0,1,.7-3.28,5.45,5.45,0,0,1,2-2.25,5.28,5.28,0,0,1,2.85-.8,4.78,4.78,0,0,1,3.86,1.6,6.73,6.73,0,0,1,1.37,4.51v1.11h-8a3.68,3.68,0,0,0,1,2.4,3,3,0,0,0,2.24.88,3.72,3.72,0,0,0,3.07-1.53l1.48,1.42a4.91,4.91,0,0,1-2,1.7A6,6,0,0,1,231.71,200.75Zm-.33-10.49a2.31,2.31,0,0,0-1.83.79,4.15,4.15,0,0,0-.89,2.21h5.24v-.21a3.31,3.31,0,0,0-.73-2.08A2.28,2.28,0,0,0,231.38,190.26Z"/>
          <path class="cls-2" d="M247.45,200.52H244.7V183.14h2.75Z"/>
          <path class="cls-2" d="M257.75,200.52a4.2,4.2,0,0,1-.31-1.14,4.62,4.62,0,0,1-6.23.31,3.37,3.37,0,0,1-1.16-2.6,3.47,3.47,0,0,1,1.45-3,7,7,0,0,1,4.16-1.05h1.69v-.8a1.93,1.93,0,0,0-2.15-2.09,2.43,2.43,0,0,0-1.54.46,1.48,1.48,0,0,0-.6,1.2h-2.75a3.06,3.06,0,0,1,.67-1.89,4.45,4.45,0,0,1,1.81-1.37,6.42,6.42,0,0,1,2.56-.5,5.13,5.13,0,0,1,3.43,1.08,3.87,3.87,0,0,1,1.32,3v5.52a6.29,6.29,0,0,0,.46,2.64v.19Zm-3-2a3.18,3.18,0,0,0,1.54-.39,2.78,2.78,0,0,0,1.08-1.07v-2.31h-1.49a4.08,4.08,0,0,0-2.29.53,1.72,1.72,0,0,0-.77,1.51,1.59,1.59,0,0,0,.52,1.26A2.05,2.05,0,0,0,254.73,198.54Z"/>
          <path class="cls-2" d="M271.3,188.28l.08,1.41a4.4,4.4,0,0,1,3.56-1.64q3.82,0,3.89,4.38v8.09h-2.75v-7.93a2.52,2.52,0,0,0-.5-1.73,2.12,2.12,0,0,0-1.65-.56,2.65,2.65,0,0,0-2.47,1.51v8.71h-2.75V188.28Z"/>
          <path class="cls-2" d="M287,200.75a5.67,5.67,0,0,1-4.24-1.65,6,6,0,0,1-1.63-4.38v-.34a7.36,7.36,0,0,1,.71-3.28,5.45,5.45,0,0,1,2-2.25,5.28,5.28,0,0,1,2.85-.8,4.78,4.78,0,0,1,3.86,1.6,6.73,6.73,0,0,1,1.37,4.51v1.11h-8a3.68,3.68,0,0,0,1,2.4,3,3,0,0,0,2.23.88,3.72,3.72,0,0,0,3.08-1.53l1.48,1.42a4.91,4.91,0,0,1-2,1.7A6.07,6.07,0,0,1,287,200.75Zm-.33-10.49a2.3,2.3,0,0,0-1.83.79,4.15,4.15,0,0,0-.89,2.21h5.24v-.21a3.31,3.31,0,0,0-.73-2.08A2.28,2.28,0,0,0,286.7,190.26Z"/>
          <path class="cls-2" d="M293.59,194.31a7.21,7.21,0,0,1,1.34-4.56,4.31,4.31,0,0,1,3.56-1.7,4,4,0,0,1,3.29,1.46l.13-1.23h2.47v11.87a4.94,4.94,0,0,1-1.5,3.8,5.68,5.68,0,0,1-4,1.39,6.54,6.54,0,0,1-2.63-.56,4.6,4.6,0,0,1-1.95-1.46l1.3-1.66a3.9,3.9,0,0,0,3.12,1.51,3.06,3.06,0,0,0,2.16-.74,2.84,2.84,0,0,0,.79-2.18v-.83a4,4,0,0,1-3.16,1.33A4.3,4.3,0,0,1,295,199,7.4,7.4,0,0,1,293.59,194.31Zm2.74.24a4.94,4.94,0,0,0,.75,2.9,2.44,2.44,0,0,0,2.09,1.06,2.63,2.63,0,0,0,2.46-1.43V191.7a2.6,2.6,0,0,0-2.44-1.4,2.42,2.42,0,0,0-2.11,1.08A5.54,5.54,0,0,0,296.33,194.55Z"/>
          <path class="cls-2" d="M306.69,194.29a7.35,7.35,0,0,1,.71-3.25,5.2,5.2,0,0,1,2-2.21,5.62,5.62,0,0,1,3-.78,5.33,5.33,0,0,1,4,1.6,6.24,6.24,0,0,1,1.67,4.23v.64a7.34,7.34,0,0,1-.69,3.24,5.15,5.15,0,0,1-2,2.21,5.71,5.71,0,0,1-3,.78,5.3,5.3,0,0,1-4.14-1.73,6.59,6.59,0,0,1-1.56-4.6Zm2.75.23a4.93,4.93,0,0,0,.78,3,2.73,2.73,0,0,0,4.34,0,5.45,5.45,0,0,0,.78-3.18,4.91,4.91,0,0,0-.8-2.95,2.56,2.56,0,0,0-2.17-1.08,2.51,2.51,0,0,0-2.14,1.07A5.39,5.39,0,0,0,309.44,194.52Z"/>
          <path class="cls-2" d="M325.43,198.55a2.48,2.48,0,0,0,1.71-.6,2,2,0,0,0,.72-1.48h2.59a4,4,0,0,1-.71,2.13,4.69,4.69,0,0,1-1.81,1.57,5.32,5.32,0,0,1-2.47.58,5.21,5.21,0,0,1-4.07-1.67,6.6,6.6,0,0,1-1.51-4.59v-.28a6.47,6.47,0,0,1,1.5-4.48,5.16,5.16,0,0,1,4.07-1.68,5.07,5.07,0,0,1,3.56,1.27,4.54,4.54,0,0,1,1.44,3.35h-2.59a2.51,2.51,0,0,0-.72-1.73,2.28,2.28,0,0,0-1.71-.68,2.41,2.41,0,0,0-2.06,1,5,5,0,0,0-.74,2.93v.44a5,5,0,0,0,.72,3A2.4,2.4,0,0,0,325.43,198.55Z"/>
          <path class="cls-2" d="M332.54,185.09a1.46,1.46,0,0,1,.4-1.06,1.5,1.5,0,0,1,1.14-.43,1.55,1.55,0,0,1,1.16.43,1.46,1.46,0,0,1,.41,1.06,1.43,1.43,0,0,1-.41,1,1.54,1.54,0,0,1-1.16.42,1.49,1.49,0,0,1-1.14-.42A1.43,1.43,0,0,1,332.54,185.09Zm2.91,15.43H332.7V188.28h2.75Z"/>
          <path class="cls-2" d="M345.76,200.52a4.2,4.2,0,0,1-.31-1.14,4.62,4.62,0,0,1-6.23.31,3.37,3.37,0,0,1-1.16-2.6,3.47,3.47,0,0,1,1.45-3,7,7,0,0,1,4.16-1.05h1.68v-.8a1.92,1.92,0,0,0-2.14-2.09,2.43,2.43,0,0,0-1.54.46,1.48,1.48,0,0,0-.6,1.2h-2.75a3.1,3.1,0,0,1,.66-1.89,4.55,4.55,0,0,1,1.82-1.37,6.42,6.42,0,0,1,2.56-.5,5.13,5.13,0,0,1,3.43,1.08,3.86,3.86,0,0,1,1.31,3v5.52a6.27,6.27,0,0,0,.47,2.64v.19Zm-3-2a3.14,3.14,0,0,0,1.53-.39,2.65,2.65,0,0,0,1.08-1.07v-2.31h-1.48a4.06,4.06,0,0,0-2.29.53,1.72,1.72,0,0,0-.77,1.51,1.59,1.59,0,0,0,.52,1.26A2.05,2.05,0,0,0,342.74,198.54Z"/>
          <path class="cls-2" d="M356,198.55a2.48,2.48,0,0,0,1.71-.6,2,2,0,0,0,.73-1.48H361a4.07,4.07,0,0,1-.71,2.13,4.65,4.65,0,0,1-1.82,1.57,5.31,5.31,0,0,1-2.46.58,5.25,5.25,0,0,1-4.08-1.67,6.59,6.59,0,0,1-1.5-4.59v-.28a6.51,6.51,0,0,1,1.49-4.48,5.19,5.19,0,0,1,4.08-1.68,5.09,5.09,0,0,1,3.56,1.27,4.62,4.62,0,0,1,1.44,3.35h-2.59a2.51,2.51,0,0,0-.72-1.73,2.29,2.29,0,0,0-1.72-.68,2.42,2.42,0,0,0-2.06,1,5,5,0,0,0-.73,2.93v.44a5,5,0,0,0,.72,3A2.4,2.4,0,0,0,356,198.55Z"/>
          <path class="cls-2" d="M363.12,185.09a1.46,1.46,0,0,1,.4-1.06,1.75,1.75,0,0,1,2.3,0,1.42,1.42,0,0,1,.41,1.06,1.39,1.39,0,0,1-.41,1,1.78,1.78,0,0,1-2.3,0A1.43,1.43,0,0,1,363.12,185.09ZM366,200.52h-2.75V188.28H366Z"/>
          <path class="cls-2" d="M368.52,194.29a7.21,7.21,0,0,1,.71-3.25,5.18,5.18,0,0,1,2-2.21,5.63,5.63,0,0,1,3-.78,5.33,5.33,0,0,1,4,1.6,6.24,6.24,0,0,1,1.67,4.23v.64a7.21,7.21,0,0,1-.7,3.24,5.09,5.09,0,0,1-2,2.21,5.67,5.67,0,0,1-3,.78,5.32,5.32,0,0,1-4.15-1.73,6.63,6.63,0,0,1-1.55-4.6Zm2.75.23a4.93,4.93,0,0,0,.78,3,2.73,2.73,0,0,0,4.34,0,5.53,5.53,0,0,0,.77-3.18,4.85,4.85,0,0,0-.8-2.95,2.54,2.54,0,0,0-2.16-1.08,2.51,2.51,0,0,0-2.14,1.07A5.32,5.32,0,0,0,371.27,194.52ZM375,183.14h3.13L375,186.57h-2.21Z"/>
          <path class="cls-2" d="M384.78,188.28l.08,1.41a4.4,4.4,0,0,1,3.56-1.64q3.82,0,3.89,4.38v8.09h-2.75v-7.93a2.52,2.52,0,0,0-.5-1.73,2.15,2.15,0,0,0-1.65-.56,2.64,2.64,0,0,0-2.47,1.51v8.71h-2.75V188.28Z"/>
        </g>
      </g>
      <g id="Durante_la_negociación" data-name="Durante la negociación" class="cls-1">
        <g class="cls-1">
          <path class="cls-2" d="M147.86,506.2V489.72h4.87a7.6,7.6,0,0,1,3.87,1,6.65,6.65,0,0,1,2.62,2.76,8.74,8.74,0,0,1,.93,4.09v.83a8.75,8.75,0,0,1-.93,4.12,6.57,6.57,0,0,1-2.66,2.74,8,8,0,0,1-4,1ZM150.73,492v11.86h1.86a4.33,4.33,0,0,0,3.46-1.4,6.18,6.18,0,0,0,1.23-4v-.92a6.29,6.29,0,0,0-1.17-4.09,4.13,4.13,0,0,0-3.38-1.41Z"/>
          <path class="cls-2" d="M170.15,505a4.25,4.25,0,0,1-3.44,1.43,3.79,3.79,0,0,1-3-1.17,5,5,0,0,1-1-3.37V494h2.75v7.89c0,1.56.65,2.34,1.94,2.34a2.71,2.71,0,0,0,2.7-1.44V494h2.75V506.2h-2.59Z"/>
          <path class="cls-2" d="M182,496.47a6.77,6.77,0,0,0-1.12-.09,2.5,2.5,0,0,0-2.54,1.45v8.37h-2.75V494h2.62l.07,1.37a3.08,3.08,0,0,1,2.76-1.6,2.46,2.46,0,0,1,1,.16Z"/>
          <path class="cls-2" d="M190.74,506.2a3.91,3.91,0,0,1-.32-1.14,4.61,4.61,0,0,1-6.22.31,3.36,3.36,0,0,1-1.17-2.6,3.46,3.46,0,0,1,1.45-3,7,7,0,0,1,4.16-1h1.69v-.8a2.19,2.19,0,0,0-.53-1.53,2.13,2.13,0,0,0-1.62-.57,2.44,2.44,0,0,0-1.54.47,1.46,1.46,0,0,0-.6,1.2h-2.75a3.06,3.06,0,0,1,.67-1.89,4.45,4.45,0,0,1,1.81-1.37,6.44,6.44,0,0,1,2.57-.5,5.16,5.16,0,0,1,3.43,1.08,3.85,3.85,0,0,1,1.31,3v5.52a6.29,6.29,0,0,0,.46,2.64v.19Zm-3-2a3.08,3.08,0,0,0,1.54-.4,2.57,2.57,0,0,0,1.08-1.06v-2.31h-1.48a4.09,4.09,0,0,0-2.3.53,1.74,1.74,0,0,0-.77,1.51,1.6,1.6,0,0,0,.53,1.26A2,2,0,0,0,187.71,504.22Z"/>
          <path class="cls-2" d="M198.51,494l.08,1.41a4.4,4.4,0,0,1,3.56-1.64q3.82,0,3.89,4.38v8.09H203.3v-7.93a2.52,2.52,0,0,0-.51-1.73,2.11,2.11,0,0,0-1.64-.56,2.64,2.64,0,0,0-2.48,1.51v8.71h-2.75V494Z"/>
          <path class="cls-2" d="M212.29,491v3h2.16v2h-2.16v6.84a1.49,1.49,0,0,0,.28,1,1.26,1.26,0,0,0,1,.31,4.49,4.49,0,0,0,1-.11v2.13a6.94,6.94,0,0,1-1.81.26q-3.17,0-3.17-3.5V496h-2v-2h2v-3Z"/>
          <path class="cls-2" d="M221.94,506.43a5.66,5.66,0,0,1-4.23-1.65,6,6,0,0,1-1.63-4.39v-.34a7.34,7.34,0,0,1,.71-3.27,5.43,5.43,0,0,1,2-2.25,5.34,5.34,0,0,1,2.86-.8,4.79,4.79,0,0,1,3.86,1.6,6.71,6.71,0,0,1,1.36,4.51V501h-8a3.69,3.69,0,0,0,1,2.4,3,3,0,0,0,2.23.88,3.72,3.72,0,0,0,3.08-1.53l1.48,1.42a4.91,4.91,0,0,1-2,1.7A6.22,6.22,0,0,1,221.94,506.43Zm-.33-10.49a2.29,2.29,0,0,0-1.82.79,4.07,4.07,0,0,0-.89,2.2h5.24v-.2a3.37,3.37,0,0,0-.74-2.09A2.29,2.29,0,0,0,221.61,495.94Z"/>
          <path class="cls-2" d="M237.68,506.2h-2.75V488.82h2.75Z"/>
          <path class="cls-2" d="M248,506.2a4.25,4.25,0,0,1-.32-1.14,4.61,4.61,0,0,1-6.22.31,3.36,3.36,0,0,1-1.17-2.6,3.47,3.47,0,0,1,1.46-3,7,7,0,0,1,4.16-1h1.68v-.8a2.14,2.14,0,0,0-.53-1.53,2.1,2.1,0,0,0-1.62-.57,2.46,2.46,0,0,0-1.54.47,1.46,1.46,0,0,0-.6,1.2h-2.75a3.12,3.12,0,0,1,.67-1.89,4.48,4.48,0,0,1,1.82-1.37,6.39,6.39,0,0,1,2.56-.5,5.14,5.14,0,0,1,3.43,1.08,3.85,3.85,0,0,1,1.31,3v5.52a6.27,6.27,0,0,0,.47,2.64v.19Zm-3-2a3.07,3.07,0,0,0,1.53-.4,2.57,2.57,0,0,0,1.08-1.06v-2.31H246.1a4.12,4.12,0,0,0-2.3.53,1.74,1.74,0,0,0-.77,1.51,1.6,1.6,0,0,0,.53,1.26A2.05,2.05,0,0,0,245,504.22Z"/>
          <path class="cls-2" d="M261.53,494l.08,1.41a4.43,4.43,0,0,1,3.57-1.64c2.55,0,3.84,1.46,3.89,4.38v8.09h-2.75v-7.93a2.57,2.57,0,0,0-.5-1.73,2.15,2.15,0,0,0-1.65-.56,2.65,2.65,0,0,0-2.48,1.51v8.71h-2.75V494Z"/>
          <path class="cls-2" d="M277.26,506.43a5.7,5.7,0,0,1-4.24-1.65,6,6,0,0,1-1.62-4.39v-.34a7.34,7.34,0,0,1,.71-3.27,5.43,5.43,0,0,1,2-2.25,5.34,5.34,0,0,1,2.86-.8,4.79,4.79,0,0,1,3.86,1.6,6.71,6.71,0,0,1,1.36,4.51V501h-8a3.69,3.69,0,0,0,1,2.4,3,3,0,0,0,2.23.88,3.72,3.72,0,0,0,3.08-1.53l1.48,1.42a4.91,4.91,0,0,1-2,1.7A6.22,6.22,0,0,1,277.26,506.43Zm-.33-10.49a2.29,2.29,0,0,0-1.82.79,4.07,4.07,0,0,0-.89,2.2h5.24v-.2a3.37,3.37,0,0,0-.74-2.09A2.29,2.29,0,0,0,276.93,495.94Z"/>
          <path class="cls-2" d="M283.82,500a7.15,7.15,0,0,1,1.35-4.56,4.31,4.31,0,0,1,3.55-1.7,4.05,4.05,0,0,1,3.3,1.46l.12-1.23h2.48v11.87a4.94,4.94,0,0,1-1.5,3.8,5.7,5.7,0,0,1-4,1.39,6.63,6.63,0,0,1-2.64-.56,4.67,4.67,0,0,1-1.95-1.47l1.3-1.65a4,4,0,0,0,3.13,1.51,3.06,3.06,0,0,0,2.16-.74,2.84,2.84,0,0,0,.79-2.18v-.83a4.06,4.06,0,0,1-3.17,1.33,4.29,4.29,0,0,1-3.51-1.71A7.4,7.4,0,0,1,283.82,500Zm2.74.23a4.9,4.9,0,0,0,.76,2.91,2.42,2.42,0,0,0,2.08,1.06,2.66,2.66,0,0,0,2.47-1.43v-5.39a2.62,2.62,0,0,0-2.44-1.39,2.42,2.42,0,0,0-2.11,1.08A5.42,5.42,0,0,0,286.56,500.22Z"/>
          <path class="cls-2" d="M296.93,500a7.3,7.3,0,0,1,.71-3.24,5.27,5.27,0,0,1,2-2.22,5.71,5.71,0,0,1,3-.77,5.33,5.33,0,0,1,4,1.6,6.24,6.24,0,0,1,1.67,4.23v.64a7.21,7.21,0,0,1-.7,3.24,5.06,5.06,0,0,1-2,2.2,5.59,5.59,0,0,1-3,.79,5.32,5.32,0,0,1-4.15-1.73,6.63,6.63,0,0,1-1.55-4.6Zm2.75.24a4.93,4.93,0,0,0,.78,3,2.54,2.54,0,0,0,2.17,1.07,2.51,2.51,0,0,0,2.17-1.09,5.49,5.49,0,0,0,.77-3.18,4.83,4.83,0,0,0-.8-2.94,2.54,2.54,0,0,0-2.16-1.08,2.51,2.51,0,0,0-2.14,1.07A5.3,5.3,0,0,0,299.68,500.2Z"/>
          <path class="cls-2" d="M315.67,504.23a2.47,2.47,0,0,0,1.7-.6,2,2,0,0,0,.73-1.48h2.59a4.07,4.07,0,0,1-.71,2.13,4.78,4.78,0,0,1-1.81,1.57,5.51,5.51,0,0,1-2.47.58,5.21,5.21,0,0,1-4.07-1.67,6.57,6.57,0,0,1-1.51-4.59v-.28a6.51,6.51,0,0,1,1.49-4.48,5.19,5.19,0,0,1,4.08-1.68,5,5,0,0,1,3.56,1.27,4.62,4.62,0,0,1,1.44,3.35H318.1a2.51,2.51,0,0,0-.72-1.73,2.28,2.28,0,0,0-1.71-.68,2.41,2.41,0,0,0-2.06,1,4.93,4.93,0,0,0-.74,2.94v.44a5,5,0,0,0,.72,3A2.43,2.43,0,0,0,315.67,504.23Z"/>
          <path class="cls-2" d="M322.77,490.77a1.43,1.43,0,0,1,1.55-1.49,1.52,1.52,0,0,1,1.16.43,1.46,1.46,0,0,1,.4,1.06,1.44,1.44,0,0,1-.4,1,1.56,1.56,0,0,1-1.16.42,1.52,1.52,0,0,1-1.15-.42A1.48,1.48,0,0,1,322.77,490.77Zm2.92,15.43h-2.75V494h2.75Z"/>
          <path class="cls-2" d="M336,506.2a4.25,4.25,0,0,1-.32-1.14,4.61,4.61,0,0,1-6.22.31,3.36,3.36,0,0,1-1.17-2.6,3.47,3.47,0,0,1,1.46-3,7,7,0,0,1,4.16-1h1.68v-.8a2.19,2.19,0,0,0-.53-1.53,2.12,2.12,0,0,0-1.62-.57,2.44,2.44,0,0,0-1.54.47,1.46,1.46,0,0,0-.6,1.2h-2.75a3.12,3.12,0,0,1,.67-1.89,4.48,4.48,0,0,1,1.82-1.37,6.39,6.39,0,0,1,2.56-.5,5.14,5.14,0,0,1,3.43,1.08,3.85,3.85,0,0,1,1.31,3v5.52a6.45,6.45,0,0,0,.46,2.64v.19Zm-3-2a3.07,3.07,0,0,0,1.53-.4,2.57,2.57,0,0,0,1.08-1.06v-2.31h-1.48a4.09,4.09,0,0,0-2.3.53,1.74,1.74,0,0,0-.77,1.51,1.6,1.6,0,0,0,.53,1.26A2.05,2.05,0,0,0,333,504.22Z"/>
          <path class="cls-2" d="M346.25,504.23a2.48,2.48,0,0,0,1.71-.6,2,2,0,0,0,.72-1.48h2.59a4,4,0,0,1-.71,2.13,4.7,4.7,0,0,1-1.81,1.57,5.44,5.44,0,0,1-2.47.58,5.21,5.21,0,0,1-4.07-1.67,6.61,6.61,0,0,1-1.5-4.59v-.28a6.47,6.47,0,0,1,1.49-4.48,5.16,5.16,0,0,1,4.07-1.68,5,5,0,0,1,3.56,1.27,4.54,4.54,0,0,1,1.44,3.35h-2.59a2.51,2.51,0,0,0-.72-1.73,2.27,2.27,0,0,0-1.71-.68,2.42,2.42,0,0,0-2.06,1,4.93,4.93,0,0,0-.73,2.94v.44a5,5,0,0,0,.71,3A2.43,2.43,0,0,0,346.25,504.23Z"/>
          <path class="cls-2" d="M353.36,490.77a1.46,1.46,0,0,1,.4-1.06,1.47,1.47,0,0,1,1.15-.43,1.5,1.5,0,0,1,1.15.43,1.55,1.55,0,0,1,0,2.1,1.53,1.53,0,0,1-1.15.42,1.5,1.5,0,0,1-1.15-.42A1.44,1.44,0,0,1,353.36,490.77Zm2.91,15.43h-2.74V494h2.74Z"/>
          <path class="cls-2" d="M358.75,500a7.17,7.17,0,0,1,.72-3.24,5.2,5.2,0,0,1,2-2.22,5.7,5.7,0,0,1,3-.77,5.33,5.33,0,0,1,4,1.6,6.24,6.24,0,0,1,1.66,4.23l0,.64a7.34,7.34,0,0,1-.7,3.24,5.12,5.12,0,0,1-2,2.2,5.61,5.61,0,0,1-3,.79,5.32,5.32,0,0,1-4.15-1.73,6.59,6.59,0,0,1-1.56-4.6Zm2.75.24a4.93,4.93,0,0,0,.78,3,2.56,2.56,0,0,0,2.18,1.07,2.49,2.49,0,0,0,2.16-1.09,5.41,5.41,0,0,0,.78-3.18,4.9,4.9,0,0,0-.8-2.94,2.7,2.7,0,0,0-4.31,0A5.37,5.37,0,0,0,361.5,500.2Zm3.69-11.38h3.14l-3.14,3.43H363Z"/>
          <path class="cls-2" d="M375,494l.08,1.41a4.43,4.43,0,0,1,3.57-1.64c2.55,0,3.84,1.46,3.89,4.38v8.09H379.8v-7.93a2.57,2.57,0,0,0-.5-1.73,2.15,2.15,0,0,0-1.65-.56,2.64,2.64,0,0,0-2.48,1.51v8.71h-2.75V494Z"/>
        </g>
      </g>
      <g id="Resultados_de_la_negociación" data-name="Resultados de la negociación" class="cls-1">
        <g class="cls-1">
          <path class="cls-2" d="M153.92,832.59h-3.2v6.33h-2.86V822.45h5.8a6.77,6.77,0,0,1,4.4,1.28,4.53,4.53,0,0,1,1.55,3.7,4.65,4.65,0,0,1-.8,2.77,5.09,5.09,0,0,1-2.22,1.72l3.7,6.86v.14h-3.07Zm-3.2-2.31h2.95a3.25,3.25,0,0,0,2.26-.73,2.56,2.56,0,0,0,.81-2,2.73,2.73,0,0,0-.75-2,3.18,3.18,0,0,0-2.24-.74h-3Z"/>
          <path class="cls-2" d="M167.45,839.15a5.69,5.69,0,0,1-4.24-1.65,6,6,0,0,1-1.62-4.38v-.34a7.41,7.41,0,0,1,.7-3.28,5.43,5.43,0,0,1,2-2.24,5.2,5.2,0,0,1,2.85-.8,4.82,4.82,0,0,1,3.87,1.59,6.78,6.78,0,0,1,1.36,4.51v1.11h-8a3.68,3.68,0,0,0,1,2.4,3,3,0,0,0,2.24.89,3.7,3.7,0,0,0,3.07-1.53l1.49,1.41a4.94,4.94,0,0,1-2,1.7A6,6,0,0,1,167.45,839.15Zm-.33-10.49a2.33,2.33,0,0,0-1.83.79,4.18,4.18,0,0,0-.89,2.21h5.24v-.2a3.34,3.34,0,0,0-.73-2.09A2.31,2.31,0,0,0,167.12,828.66Z"/>
          <path class="cls-2" d="M181.35,835.6a1.24,1.24,0,0,0-.6-1.12,6.13,6.13,0,0,0-2-.68,10.57,10.57,0,0,1-2.34-.75,3.12,3.12,0,0,1-2.06-2.88,3.25,3.25,0,0,1,1.33-2.65,5.29,5.29,0,0,1,3.4-1.06,5.54,5.54,0,0,1,3.55,1.08,3.44,3.44,0,0,1,1.35,2.82h-2.75a1.7,1.7,0,0,0-.59-1.32,2.25,2.25,0,0,0-1.56-.53,2.45,2.45,0,0,0-1.48.42,1.32,1.32,0,0,0-.57,1.12,1.13,1.13,0,0,0,.53,1,7.3,7.3,0,0,0,2.15.7,10.1,10.1,0,0,1,2.54.85,3.61,3.61,0,0,1,1.37,1.19,3,3,0,0,1,.45,1.67,3.22,3.22,0,0,1-1.37,2.68,5.86,5.86,0,0,1-3.59,1,6.38,6.38,0,0,1-2.68-.54,4.4,4.4,0,0,1-1.83-1.5,3.49,3.49,0,0,1-.66-2h2.67a2,2,0,0,0,.74,1.49,2.8,2.8,0,0,0,1.8.53,2.83,2.83,0,0,0,1.65-.41A1.28,1.28,0,0,0,181.35,835.6Z"/>
          <path class="cls-2" d="M193.87,837.72a4.27,4.27,0,0,1-3.44,1.43,3.81,3.81,0,0,1-3-1.17,5,5,0,0,1-1-3.37v-7.93h2.75v7.9c0,1.55.64,2.33,1.93,2.33a2.72,2.72,0,0,0,2.71-1.44v-8.79h2.75v12.24h-2.59Z"/>
          <path class="cls-2" d="M202.25,838.92H199.5V821.54h2.75Z"/>
          <path class="cls-2" d="M208.69,823.71v3h2.16v2h-2.16v6.83a1.45,1.45,0,0,0,.28,1,1.26,1.26,0,0,0,1,.32,4,4,0,0,0,1-.12v2.13a6.94,6.94,0,0,1-1.81.26q-3.17,0-3.17-3.5v-6.93h-2v-2h2v-3Z"/>
          <path class="cls-2" d="M220.27,838.92a4.14,4.14,0,0,1-.32-1.14,4.62,4.62,0,0,1-6.22.32,3.36,3.36,0,0,1-1.17-2.6,3.49,3.49,0,0,1,1.46-3,7,7,0,0,1,4.15-1h1.69v-.8a2.16,2.16,0,0,0-.53-1.52,2.13,2.13,0,0,0-1.62-.57,2.38,2.38,0,0,0-1.54.47,1.45,1.45,0,0,0-.6,1.19h-2.75a3,3,0,0,1,.67-1.88,4.35,4.35,0,0,1,1.82-1.38,6.39,6.39,0,0,1,2.56-.49,5.16,5.16,0,0,1,3.43,1.08,3.84,3.84,0,0,1,1.31,3v5.52a6.22,6.22,0,0,0,.46,2.64v.19Zm-3-2a3.17,3.17,0,0,0,1.53-.39,2.65,2.65,0,0,0,1.08-1.07v-2.3h-1.48a4,4,0,0,0-2.3.53,1.71,1.71,0,0,0-.77,1.5,1.6,1.6,0,0,0,.53,1.26A2,2,0,0,0,217.25,836.94Z"/>
          <path class="cls-2" d="M225,832.71a7.25,7.25,0,0,1,1.32-4.54,4.19,4.19,0,0,1,3.52-1.71,4,4,0,0,1,3.14,1.35v-6.27h2.75v17.38h-2.49l-.13-1.26a4.08,4.08,0,0,1-3.3,1.49,4.2,4.2,0,0,1-3.48-1.73A7.59,7.59,0,0,1,225,832.71Zm2.75.24a5.07,5.07,0,0,0,.72,2.91,2.33,2.33,0,0,0,2,1,2.6,2.6,0,0,0,2.47-1.5v-5.23a2.55,2.55,0,0,0-2.44-1.47,2.35,2.35,0,0,0-2.06,1A5.64,5.64,0,0,0,227.72,833Z"/>
          <path class="cls-2" d="M238.05,832.69a7.14,7.14,0,0,1,.72-3.24,5.2,5.2,0,0,1,2-2.22,5.61,5.61,0,0,1,3-.77,5.36,5.36,0,0,1,4,1.59,6.29,6.29,0,0,1,1.67,4.23v.65a7.2,7.2,0,0,1-.7,3.23,5.15,5.15,0,0,1-2,2.21,5.67,5.67,0,0,1-3,.78,5.29,5.29,0,0,1-4.15-1.73,6.58,6.58,0,0,1-1.56-4.59Zm2.75.24a5,5,0,0,0,.78,3,2.57,2.57,0,0,0,2.18,1.07,2.5,2.5,0,0,0,2.16-1.09,5.45,5.45,0,0,0,.78-3.18,4.86,4.86,0,0,0-.8-2.94,2.68,2.68,0,0,0-4.3,0A5.33,5.33,0,0,0,240.8,832.93Z"/>
          <path class="cls-2" d="M258.63,835.6a1.25,1.25,0,0,0-.61-1.12,6.13,6.13,0,0,0-2-.68,10.75,10.75,0,0,1-2.34-.75,3.12,3.12,0,0,1-2.06-2.88,3.26,3.26,0,0,1,1.34-2.65,5.24,5.24,0,0,1,3.39-1.06,5.53,5.53,0,0,1,3.55,1.08,3.44,3.44,0,0,1,1.35,2.82h-2.75a1.7,1.7,0,0,0-.59-1.32,2.25,2.25,0,0,0-1.56-.53,2.45,2.45,0,0,0-1.48.42,1.32,1.32,0,0,0-.57,1.12,1.13,1.13,0,0,0,.53,1,7.3,7.3,0,0,0,2.15.7,10.1,10.1,0,0,1,2.54.85,3.61,3.61,0,0,1,1.37,1.19,3,3,0,0,1,.45,1.67,3.22,3.22,0,0,1-1.37,2.68,5.86,5.86,0,0,1-3.59,1,6.38,6.38,0,0,1-2.68-.54,4.4,4.4,0,0,1-1.83-1.5,3.49,3.49,0,0,1-.66-2h2.67a2,2,0,0,0,.74,1.49,2.8,2.8,0,0,0,1.8.53,2.83,2.83,0,0,0,1.65-.41A1.29,1.29,0,0,0,258.63,835.6Z"/>
          <path class="cls-2" d="M269,832.71a7.31,7.31,0,0,1,1.31-4.54,4.22,4.22,0,0,1,3.52-1.71,4,4,0,0,1,3.15,1.35v-6.27h2.75v17.38h-2.49l-.14-1.26a4.06,4.06,0,0,1-3.29,1.49,4.18,4.18,0,0,1-3.48-1.73A7.53,7.53,0,0,1,269,832.71Zm2.75.24a5.07,5.07,0,0,0,.72,2.91,2.33,2.33,0,0,0,2,1,2.61,2.61,0,0,0,2.47-1.5v-5.23a2.56,2.56,0,0,0-2.45-1.47,2.35,2.35,0,0,0-2.06,1A5.73,5.73,0,0,0,271.73,833Z"/>
          <path class="cls-2" d="M288,839.15a5.66,5.66,0,0,1-4.23-1.65,6,6,0,0,1-1.63-4.38v-.34a7.42,7.42,0,0,1,.71-3.28,5.29,5.29,0,0,1,2-2.24,5.2,5.2,0,0,1,2.85-.8,4.82,4.82,0,0,1,3.86,1.59,6.73,6.73,0,0,1,1.37,4.51v1.11h-8a3.68,3.68,0,0,0,1,2.4,3,3,0,0,0,2.23.89,3.72,3.72,0,0,0,3.08-1.53l1.48,1.41a4.91,4.91,0,0,1-2,1.7A6.08,6.08,0,0,1,288,839.15Zm-.32-10.49a2.3,2.3,0,0,0-1.83.79,4.18,4.18,0,0,0-.89,2.21h5.24v-.2a3.35,3.35,0,0,0-.74-2.09A2.29,2.29,0,0,0,287.64,828.66Z"/>
          <path class="cls-2" d="M303.7,838.92H301V821.54h2.75Z"/>
          <path class="cls-2" d="M314,838.92a4.2,4.2,0,0,1-.31-1.14,4.64,4.64,0,0,1-6.23.32,3.38,3.38,0,0,1-1.16-2.6,3.48,3.48,0,0,1,1.45-3,7,7,0,0,1,4.16-1h1.68v-.8a2.12,2.12,0,0,0-.53-1.52,2.09,2.09,0,0,0-1.61-.57,2.38,2.38,0,0,0-1.54.47,1.45,1.45,0,0,0-.6,1.19h-2.75a3.06,3.06,0,0,1,.66-1.88,4.48,4.48,0,0,1,1.82-1.38,6.42,6.42,0,0,1,2.56-.49,5.13,5.13,0,0,1,3.43,1.08,3.84,3.84,0,0,1,1.31,3v5.52a6.21,6.21,0,0,0,.47,2.64v.19Zm-3-2a3.14,3.14,0,0,0,1.53-.39,2.65,2.65,0,0,0,1.08-1.07v-2.3h-1.48a4,4,0,0,0-2.29.53,1.69,1.69,0,0,0-.77,1.5,1.59,1.59,0,0,0,.52,1.26A2,2,0,0,0,311,836.94Z"/>
          <path class="cls-2" d="M327.56,826.68l.08,1.42a4.37,4.37,0,0,1,3.56-1.64c2.55,0,3.85,1.45,3.89,4.37v8.09h-2.75V831a2.52,2.52,0,0,0-.5-1.72,2.11,2.11,0,0,0-1.65-.56,2.66,2.66,0,0,0-2.48,1.5v8.71H325V826.68Z"/>
          <path class="cls-2" d="M343.28,839.15a5.66,5.66,0,0,1-4.23-1.65,5.93,5.93,0,0,1-1.63-4.38v-.34a7.42,7.42,0,0,1,.71-3.28,5.29,5.29,0,0,1,2-2.24,5.2,5.2,0,0,1,2.85-.8,4.82,4.82,0,0,1,3.86,1.59,6.73,6.73,0,0,1,1.36,4.51v1.11h-8a3.68,3.68,0,0,0,1,2.4,3,3,0,0,0,2.23.89,3.72,3.72,0,0,0,3.08-1.53l1.48,1.41a4.91,4.91,0,0,1-2,1.7A6.08,6.08,0,0,1,343.28,839.15ZM343,828.66a2.3,2.3,0,0,0-1.83.79,4.18,4.18,0,0,0-.89,2.21h5.24v-.2a3.35,3.35,0,0,0-.74-2.09A2.29,2.29,0,0,0,343,828.66Z"/>
          <path class="cls-2" d="M349.85,832.71a7.1,7.1,0,0,1,1.34-4.55,4.28,4.28,0,0,1,3.56-1.7,4,4,0,0,1,3.29,1.45l.12-1.23h2.48v11.87a4.93,4.93,0,0,1-1.5,3.8,5.7,5.7,0,0,1-4,1.39,6.38,6.38,0,0,1-2.63-.56,4.7,4.7,0,0,1-2-1.46l1.31-1.65a3.92,3.92,0,0,0,3.12,1.5,3.06,3.06,0,0,0,2.16-.74,2.83,2.83,0,0,0,.79-2.18v-.82a4.05,4.05,0,0,1-3.17,1.32,4.29,4.29,0,0,1-3.51-1.71A7.38,7.38,0,0,1,349.85,832.71Zm2.74.24a4.92,4.92,0,0,0,.75,2.9,2.41,2.41,0,0,0,2.09,1.06,2.64,2.64,0,0,0,2.46-1.43V830.1a2.6,2.6,0,0,0-2.44-1.39,2.41,2.41,0,0,0-2.11,1.07A5.54,5.54,0,0,0,352.59,833Z"/>
          <path class="cls-2" d="M363,832.69a7.27,7.27,0,0,1,.71-3.24,5.29,5.29,0,0,1,2-2.22,5.58,5.58,0,0,1,3-.77,5.36,5.36,0,0,1,4,1.59,6.24,6.24,0,0,1,1.67,4.23v.65a7.33,7.33,0,0,1-.69,3.23,5.21,5.21,0,0,1-2,2.21,5.73,5.73,0,0,1-3,.78,5.27,5.27,0,0,1-4.14-1.73,6.58,6.58,0,0,1-1.56-4.59Zm2.75.24a5,5,0,0,0,.78,3,2.72,2.72,0,0,0,4.34,0,5.45,5.45,0,0,0,.77-3.18,4.86,4.86,0,0,0-.79-2.94,2.69,2.69,0,0,0-4.31,0A5.33,5.33,0,0,0,365.7,832.93Z"/>
          <path class="cls-2" d="M381.69,837a2.56,2.56,0,0,0,1.71-.6,2.07,2.07,0,0,0,.72-1.49h2.59A4.11,4.11,0,0,1,386,837a4.67,4.67,0,0,1-1.81,1.56,5.35,5.35,0,0,1-2.47.58,5.21,5.21,0,0,1-4.07-1.66,6.62,6.62,0,0,1-1.51-4.6v-.28a6.49,6.49,0,0,1,1.5-4.48,5.15,5.15,0,0,1,4.07-1.67,5,5,0,0,1,3.56,1.27,4.52,4.52,0,0,1,1.44,3.34h-2.59a2.51,2.51,0,0,0-.72-1.73,2.32,2.32,0,0,0-1.71-.68,2.41,2.41,0,0,0-2.06,1,5,5,0,0,0-.74,2.93V833a5,5,0,0,0,.72,3A2.43,2.43,0,0,0,381.69,837Z"/>
          <path class="cls-2" d="M388.79,823.49a1.5,1.5,0,0,1,.4-1.06,1.8,1.8,0,0,1,2.31,0,1.46,1.46,0,0,1,.4,1.06,1.41,1.41,0,0,1-.4,1,1.8,1.8,0,0,1-2.31,0A1.45,1.45,0,0,1,388.79,823.49Zm2.92,15.43H389V826.68h2.75Z"/>
          <path class="cls-2" d="M402,838.92a4.14,4.14,0,0,1-.32-1.14,4.27,4.27,0,0,1-3.21,1.37,4.33,4.33,0,0,1-3-1,3.35,3.35,0,0,1-1.16-2.6,3.48,3.48,0,0,1,1.45-3,7,7,0,0,1,4.16-1h1.68v-.8a1.92,1.92,0,0,0-2.15-2.09,2.4,2.4,0,0,0-1.54.47,1.44,1.44,0,0,0-.59,1.19h-2.75a3.06,3.06,0,0,1,.66-1.88,4.41,4.41,0,0,1,1.82-1.38,6.39,6.39,0,0,1,2.56-.49,5.13,5.13,0,0,1,3.43,1.08,3.84,3.84,0,0,1,1.31,3v5.52a6.21,6.21,0,0,0,.47,2.64v.19Zm-3-2a3.17,3.17,0,0,0,1.53-.39,2.65,2.65,0,0,0,1.08-1.07v-2.3h-1.48a4,4,0,0,0-2.3.53,1.71,1.71,0,0,0-.77,1.5,1.6,1.6,0,0,0,.53,1.26A2,2,0,0,0,399,836.94Z"/>
          <path class="cls-2" d="M412.27,837a2.53,2.53,0,0,0,1.71-.6,2.12,2.12,0,0,0,.73-1.49h2.59a4,4,0,0,1-.72,2.14,4.6,4.6,0,0,1-1.81,1.56,5.31,5.31,0,0,1-2.46.58,5.23,5.23,0,0,1-4.08-1.66,6.62,6.62,0,0,1-1.5-4.6v-.28a6.53,6.53,0,0,1,1.49-4.48,5.18,5.18,0,0,1,4.07-1.67,5,5,0,0,1,3.56,1.27,4.57,4.57,0,0,1,1.45,3.34h-2.59a2.55,2.55,0,0,0-.72-1.73,2.33,2.33,0,0,0-1.72-.68,2.42,2.42,0,0,0-2.06,1,4.88,4.88,0,0,0-.73,2.93V833a5,5,0,0,0,.72,3A2.41,2.41,0,0,0,412.27,837Z"/>
          <path class="cls-2" d="M419.38,823.49a1.46,1.46,0,0,1,.4-1.06,1.78,1.78,0,0,1,2.3,0,1.46,1.46,0,0,1,.41,1.06,1.42,1.42,0,0,1-.41,1,1.78,1.78,0,0,1-2.3,0A1.41,1.41,0,0,1,419.38,823.49Zm2.92,15.43h-2.75V826.68h2.75Z"/>
          <path class="cls-2" d="M424.78,832.69a7.14,7.14,0,0,1,.71-3.24,5.2,5.2,0,0,1,2-2.22,5.62,5.62,0,0,1,3-.77,5.36,5.36,0,0,1,4,1.59,6.29,6.29,0,0,1,1.67,4.23v.65a7.2,7.2,0,0,1-.7,3.23,5.15,5.15,0,0,1-2,2.21,5.67,5.67,0,0,1-3,.78,5.29,5.29,0,0,1-4.15-1.73,6.58,6.58,0,0,1-1.55-4.59Zm2.74.24a5,5,0,0,0,.79,3,2.72,2.72,0,0,0,4.34,0,5.53,5.53,0,0,0,.77-3.18,4.86,4.86,0,0,0-.8-2.94,2.68,2.68,0,0,0-4.3,0A5.33,5.33,0,0,0,427.52,832.93Zm3.69-11.39h3.14L431.21,825H429Z"/>
          <path class="cls-2" d="M441,826.68l.07,1.42a4.4,4.4,0,0,1,3.57-1.64c2.55,0,3.85,1.45,3.89,4.37v8.09h-2.75V831a2.52,2.52,0,0,0-.5-1.72,2.11,2.11,0,0,0-1.65-.56,2.66,2.66,0,0,0-2.48,1.5v8.71h-2.75V826.68Z"/>
        </g>
      </g>
      <rect class="cls-10" x="506.91" y="148.57" width="522.09" height="82.39" rx="21"/>
      <g>
        <path d="M633.44,191.45h-3.55v7h-3.18v-18.3h6.44a7.48,7.48,0,0,1,4.89,1.42,5,5,0,0,1,1.72,4.12,5.14,5.14,0,0,1-.89,3.07,5.63,5.63,0,0,1-2.47,1.91l4.11,7.62v.16h-3.4Zm-3.55-2.56h3.27a3.62,3.62,0,0,0,2.51-.81,2.81,2.81,0,0,0,.91-2.22,3,3,0,0,0-.84-2.28,3.58,3.58,0,0,0-2.49-.83h-3.36Z"/>
        <path d="M648.47,198.75a6.34,6.34,0,0,1-4.71-1.83A6.66,6.66,0,0,1,642,192v-.37a8.08,8.08,0,0,1,.79-3.64,6,6,0,0,1,2.2-2.5,5.9,5.9,0,0,1,3.17-.89,5.34,5.34,0,0,1,4.29,1.77,7.51,7.51,0,0,1,1.52,5v1.23H645a4.1,4.1,0,0,0,1.13,2.67,3.37,3.37,0,0,0,2.48,1,4.14,4.14,0,0,0,3.42-1.7l1.65,1.57a5.59,5.59,0,0,1-2.19,1.89A6.81,6.81,0,0,1,648.47,198.75Zm-.36-11.66a2.55,2.55,0,0,0-2,.88,4.54,4.54,0,0,0-1,2.45h5.82v-.22a3.69,3.69,0,0,0-.82-2.32A2.5,2.5,0,0,0,648.11,187.09Z"/>
        <path d="M659.55,198.49h-3.06V179.18h3.06Z"/>
        <path d="M671,198.49a4.83,4.83,0,0,1-.35-1.27,5.12,5.12,0,0,1-6.91.36,3.74,3.74,0,0,1-1.3-2.9,3.84,3.84,0,0,1,1.62-3.33,7.76,7.76,0,0,1,4.62-1.17h1.87v-.89a2.4,2.4,0,0,0-.59-1.69,2.34,2.34,0,0,0-1.8-.63,2.7,2.7,0,0,0-1.71.52,1.61,1.61,0,0,0-.66,1.32h-3.06a3.42,3.42,0,0,1,.74-2.09,5,5,0,0,1,2-1.53,7.07,7.07,0,0,1,2.85-.55,5.72,5.72,0,0,1,3.81,1.2,4.33,4.33,0,0,1,1.46,3.38v6.13a7,7,0,0,0,.51,2.93v.21Zm-3.35-2.2a3.4,3.4,0,0,0,1.7-.44,2.9,2.9,0,0,0,1.2-1.18v-2.56H668.9a4.45,4.45,0,0,0-2.55.59,1.9,1.9,0,0,0-.85,1.67,1.78,1.78,0,0,0,.58,1.4A2.26,2.26,0,0,0,667.65,196.29Z"/>
        <path d="M682.39,196.31a2.77,2.77,0,0,0,1.9-.67,2.3,2.3,0,0,0,.81-1.65H688a4.39,4.39,0,0,1-.79,2.37,5,5,0,0,1-2,1.74,6,6,0,0,1-2.74.65,5.83,5.83,0,0,1-4.53-1.85,7.37,7.37,0,0,1-1.67-5.11v-.31a7.23,7.23,0,0,1,1.66-5,5.75,5.75,0,0,1,4.53-1.87,5.59,5.59,0,0,1,4,1.41,5.09,5.09,0,0,1,1.6,3.72H685.1a2.81,2.81,0,0,0-.8-1.92,2.56,2.56,0,0,0-1.91-.76,2.69,2.69,0,0,0-2.29,1.08,5.52,5.52,0,0,0-.81,3.26v.49a5.54,5.54,0,0,0,.8,3.3A2.69,2.69,0,0,0,682.39,196.31Z"/>
        <path d="M690.29,181.35a1.79,1.79,0,0,1,3-1.18,1.63,1.63,0,0,1,.46,1.18,1.58,1.58,0,0,1-.46,1.15,2,2,0,0,1-2.56,0A1.6,1.6,0,0,1,690.29,181.35Zm3.24,17.14h-3v-13.6h3Z"/>
        <path d="M696.29,191.57a8,8,0,0,1,.79-3.61,5.84,5.84,0,0,1,2.22-2.46,6.34,6.34,0,0,1,3.3-.86,6,6,0,0,1,4.47,1.77,7,7,0,0,1,1.85,4.7v.72a8.2,8.2,0,0,1-.77,3.6,5.78,5.78,0,0,1-2.21,2.45,6.31,6.31,0,0,1-3.33.87,5.91,5.91,0,0,1-4.61-1.92,7.35,7.35,0,0,1-1.72-5.11Zm3.05.26a5.47,5.47,0,0,0,.87,3.29,3,3,0,0,0,4.82,0,6.09,6.09,0,0,0,.86-3.53,5.4,5.4,0,0,0-.89-3.27,3,3,0,0,0-4.78,0A5.92,5.92,0,0,0,699.34,191.83Zm4.1-12.65h3.48L703.44,183H701Z"/>
        <path d="M714.35,184.89l.09,1.57a4.92,4.92,0,0,1,4-1.82q4.25,0,4.32,4.86v9h-3.05v-8.81a2.84,2.84,0,0,0-.56-1.92,2.36,2.36,0,0,0-1.83-.62,2.94,2.94,0,0,0-2.75,1.67v9.68h-3.06v-13.6Z"/>
        <path d="M738.18,191.94h-6.6v-2.46h6.6Z"/>
        <path d="M761.37,192.53a6.56,6.56,0,0,1-2.16,4.57,7.35,7.35,0,0,1-5,1.65,7.16,7.16,0,0,1-3.85-1,6.81,6.81,0,0,1-2.57-3,10.59,10.59,0,0,1-.94-4.44v-1.71a10.73,10.73,0,0,1,.91-4.56,6.9,6.9,0,0,1,2.64-3,7.25,7.25,0,0,1,4-1.07,7,7,0,0,1,4.88,1.64,6.8,6.8,0,0,1,2.15,4.64H758.2a4.48,4.48,0,0,0-1.15-2.84,3.76,3.76,0,0,0-2.71-.88,3.71,3.71,0,0,0-3.18,1.52,7.61,7.61,0,0,0-1.14,4.45v1.62a8,8,0,0,0,1.06,4.53,3.53,3.53,0,0,0,3.11,1.56,4.13,4.13,0,0,0,2.82-.84,4.35,4.35,0,0,0,1.19-2.81Z"/>
        <path d="M763.35,191.57a8,8,0,0,1,.79-3.61,5.84,5.84,0,0,1,2.22-2.46,6.34,6.34,0,0,1,3.3-.86,6,6,0,0,1,4.47,1.77,7,7,0,0,1,1.85,4.7v.72a8.06,8.06,0,0,1-.77,3.6,5.71,5.71,0,0,1-2.21,2.45,6.31,6.31,0,0,1-3.33.87,5.88,5.88,0,0,1-4.6-1.92,7.31,7.31,0,0,1-1.73-5.11Zm3,.26a5.47,5.47,0,0,0,.87,3.29,3,3,0,0,0,4.82,0,6,6,0,0,0,.86-3.53,5.4,5.4,0,0,0-.88-3.27,3,3,0,0,0-4.79,0A6,6,0,0,0,766.4,191.83Z"/>
        <path d="M781.45,184.89l.09,1.42a4.89,4.89,0,0,1,3.92-1.67,3.78,3.78,0,0,1,3.74,2.09,4.82,4.82,0,0,1,4.17-2.09,4.23,4.23,0,0,1,3.35,1.24,5.48,5.48,0,0,1,1.12,3.68v8.93h-3.05v-8.85a2.71,2.71,0,0,0-.57-1.9,2.47,2.47,0,0,0-1.87-.6,2.56,2.56,0,0,0-1.7.56,3,3,0,0,0-.93,1.47l0,9.32h-3.06v-9a2.18,2.18,0,0,0-2.45-2.4,2.68,2.68,0,0,0-2.6,1.5v9.85h-3.06v-13.6Z"/>
        <path d="M809.22,197.16a4.72,4.72,0,0,1-3.82,1.59,4.23,4.23,0,0,1-3.35-1.3,5.5,5.5,0,0,1-1.14-3.75v-8.81H804v8.78c0,1.72.71,2.59,2.15,2.59a3,3,0,0,0,3-1.6v-9.77h3.06v13.6H809.3Z"/>
        <path d="M818.12,184.89l.09,1.57a4.92,4.92,0,0,1,4-1.82c2.83,0,4.28,1.62,4.33,4.86v9h-3.06v-8.81a2.79,2.79,0,0,0-.56-1.92,2.36,2.36,0,0,0-1.83-.62,2.94,2.94,0,0,0-2.75,1.67v9.68h-3v-13.6Z"/>
        <path d="M829.61,181.35a1.62,1.62,0,0,1,.45-1.18,2,2,0,0,1,2.56,0,1.62,1.62,0,0,1,.45,1.18,1.57,1.57,0,0,1-.45,1.15,2,2,0,0,1-2.56,0A1.57,1.57,0,0,1,829.61,181.35Zm3.25,17.14H829.8v-13.6h3.06Z"/>
        <path d="M841.77,196.31a2.79,2.79,0,0,0,1.9-.67,2.26,2.26,0,0,0,.8-1.65h2.88a4.39,4.39,0,0,1-.79,2.37,5,5,0,0,1-2,1.74,6,6,0,0,1-2.74.65,5.83,5.83,0,0,1-4.53-1.85,7.37,7.37,0,0,1-1.67-5.11v-.31a7.23,7.23,0,0,1,1.66-5,5.75,5.75,0,0,1,4.53-1.87,5.6,5.6,0,0,1,4,1.41,5.09,5.09,0,0,1,1.6,3.72h-2.88a2.8,2.8,0,0,0-.79-1.92,2.56,2.56,0,0,0-1.91-.76,2.69,2.69,0,0,0-2.29,1.08,5.45,5.45,0,0,0-.81,3.26v.49a5.62,5.62,0,0,0,.79,3.3A2.72,2.72,0,0,0,841.77,196.31Z"/>
        <path d="M857.79,198.49a4.47,4.47,0,0,1-.35-1.27,4.77,4.77,0,0,1-3.57,1.53,4.82,4.82,0,0,1-3.35-1.17,3.76,3.76,0,0,1-1.29-2.9,3.85,3.85,0,0,1,1.61-3.33,7.8,7.8,0,0,1,4.62-1.17h1.88v-.89a2.4,2.4,0,0,0-.59-1.69A2.37,2.37,0,0,0,855,187a2.66,2.66,0,0,0-1.71.52,1.59,1.59,0,0,0-.67,1.32h-3.05a3.36,3.36,0,0,1,.74-2.09,4.87,4.87,0,0,1,2-1.53,7.05,7.05,0,0,1,2.84-.55,5.69,5.69,0,0,1,3.81,1.2,4.27,4.27,0,0,1,1.46,3.38v6.13a6.87,6.87,0,0,0,.52,2.93v.21Zm-3.36-2.2a3.43,3.43,0,0,0,1.71-.44,2.9,2.9,0,0,0,1.2-1.18v-2.56h-1.65a4.45,4.45,0,0,0-2.55.59,1.91,1.91,0,0,0-.86,1.67,1.78,1.78,0,0,0,.59,1.4A2.25,2.25,0,0,0,854.43,196.29Z"/>
        <path d="M869.18,196.31a2.81,2.81,0,0,0,1.9-.67,2.26,2.26,0,0,0,.8-1.65h2.88a4.47,4.47,0,0,1-.79,2.37,5.16,5.16,0,0,1-2,1.74,6,6,0,0,1-2.74.65,5.81,5.81,0,0,1-4.53-1.85,7.37,7.37,0,0,1-1.67-5.11v-.31a7.18,7.18,0,0,1,1.66-5,5.71,5.71,0,0,1,4.52-1.87,5.61,5.61,0,0,1,4,1.41,5.09,5.09,0,0,1,1.6,3.72h-2.88a2.76,2.76,0,0,0-.8-1.92,2.54,2.54,0,0,0-1.9-.76,2.69,2.69,0,0,0-2.29,1.08,5.44,5.44,0,0,0-.82,3.26v.49a5.61,5.61,0,0,0,.8,3.3A2.7,2.7,0,0,0,869.18,196.31Z"/>
        <path d="M877.07,181.35a1.62,1.62,0,0,1,.45-1.18,2,2,0,0,1,2.56,0,1.62,1.62,0,0,1,.45,1.18,1.57,1.57,0,0,1-.45,1.15,2,2,0,0,1-2.56,0A1.57,1.57,0,0,1,877.07,181.35Zm3.25,17.14h-3.06v-13.6h3.06Z"/>
        <path d="M883.07,191.57a8,8,0,0,1,.79-3.61,5.79,5.79,0,0,1,2.23-2.46,6.28,6.28,0,0,1,3.29-.86,5.93,5.93,0,0,1,4.47,1.77,7,7,0,0,1,1.86,4.7v.72a8.2,8.2,0,0,1-.77,3.6,5.8,5.8,0,0,1-2.22,2.45,6.28,6.28,0,0,1-3.32.87,5.9,5.9,0,0,1-4.61-1.92,7.35,7.35,0,0,1-1.73-5.11Zm3.06.26a5.54,5.54,0,0,0,.86,3.29,3,3,0,0,0,4.83,0,6.09,6.09,0,0,0,.86-3.53,5.4,5.4,0,0,0-.89-3.27,3,3,0,0,0-4.78,0A5.92,5.92,0,0,0,886.13,191.83Zm4.09-12.65h3.49L890.22,183h-2.45Z"/>
        <path d="M901.14,184.89l.09,1.57a4.89,4.89,0,0,1,4-1.82q4.24,0,4.32,4.86v9h-3v-8.81a2.84,2.84,0,0,0-.56-1.92,2.39,2.39,0,0,0-1.83-.62,3,3,0,0,0-2.76,1.67v9.68h-3v-13.6Z"/>
      </g>
      <rect class="cls-11" x="506.91" y="790.46" width="522.09" height="82.39" rx="21"/>
      <g>
        <path d="M645.26,836.12h-7.09l-1.48,4.26h-3.31l6.91-18.3h2.86l6.93,18.3h-3.32Zm-6.2-2.56h5.31l-2.66-7.6Z"/>
        <path d="M655.1,840.38h-3.05V821.07h3.05Z"/>
        <path d="M662.26,823.47v3.31h2.4V829h-2.4v7.6a1.63,1.63,0,0,0,.31,1.12,1.42,1.42,0,0,0,1.1.35,4.33,4.33,0,0,0,1.06-.13v2.37a7.57,7.57,0,0,1-2,.29c-2.34,0-3.52-1.3-3.52-3.89V829H657v-2.26h2.24v-3.31Z"/>
        <path d="M673,840.64a6.34,6.34,0,0,1-4.71-1.83,6.65,6.65,0,0,1-1.8-4.87v-.38a8.21,8.21,0,0,1,.78-3.64,6,6,0,0,1,2.21-2.5,5.88,5.88,0,0,1,3.17-.89,5.34,5.34,0,0,1,4.29,1.77,7.51,7.51,0,0,1,1.52,5v1.23h-8.89a4.14,4.14,0,0,0,1.12,2.67,3.41,3.41,0,0,0,2.49,1,4.14,4.14,0,0,0,3.42-1.7l1.64,1.57A5.41,5.41,0,0,1,676,840,6.81,6.81,0,0,1,673,840.64ZM672.62,829a2.58,2.58,0,0,0-2,.88,4.54,4.54,0,0,0-1,2.45h5.82v-.22a3.69,3.69,0,0,0-.82-2.32A2.52,2.52,0,0,0,672.62,829Z"/>
        <path d="M687.93,829.57a8.41,8.41,0,0,0-1.24-.1,2.8,2.8,0,0,0-2.83,1.61v9.3H680.8v-13.6h2.92l.07,1.52a3.45,3.45,0,0,1,3.07-1.77,2.77,2.77,0,0,1,1.08.18Z"/>
        <path d="M692.7,826.78l.08,1.57a4.92,4.92,0,0,1,4-1.82q4.26,0,4.33,4.87v9H698v-8.81a2.79,2.79,0,0,0-.56-1.92,2.36,2.36,0,0,0-1.83-.62,2.94,2.94,0,0,0-2.75,1.67v9.68h-3v-13.6Z"/>
        <path d="M712.31,840.38a4.48,4.48,0,0,1-.35-1.26,5.15,5.15,0,0,1-6.92.35,3.76,3.76,0,0,1-1.29-2.89,3.86,3.86,0,0,1,1.61-3.34,7.8,7.8,0,0,1,4.62-1.17h1.88v-.89a2.36,2.36,0,0,0-.6-1.69,2.34,2.34,0,0,0-1.79-.63,2.66,2.66,0,0,0-1.71.52,1.6,1.6,0,0,0-.67,1.32H704a3.36,3.36,0,0,1,.74-2.09,4.87,4.87,0,0,1,2-1.53,7.05,7.05,0,0,1,2.84-.55,5.7,5.7,0,0,1,3.81,1.2,4.27,4.27,0,0,1,1.46,3.38v6.13a6.84,6.84,0,0,0,.52,2.93v.21Zm-3.36-2.2a3.46,3.46,0,0,0,1.71-.44,2.9,2.9,0,0,0,1.2-1.18V834h-1.65a4.53,4.53,0,0,0-2.55.59,1.91,1.91,0,0,0-.86,1.67,1.77,1.77,0,0,0,.59,1.4A2.25,2.25,0,0,0,709,838.18Z"/>
        <path d="M721.94,823.47v3.31h2.4V829h-2.4v7.6a1.63,1.63,0,0,0,.31,1.12,1.42,1.42,0,0,0,1.1.35,4.47,4.47,0,0,0,1.07-.13v2.37a7.7,7.7,0,0,1-2,.29c-2.34,0-3.52-1.3-3.52-3.89V829h-2.23v-2.26h2.23v-3.31Z"/>
        <path d="M726.68,823.24a1.66,1.66,0,0,1,.44-1.18,2,2,0,0,1,2.56,0,1.72,1.72,0,0,1,0,2.34,2,2,0,0,1-2.56,0A1.64,1.64,0,0,1,726.68,823.24Zm3.24,17.14h-3v-13.6h3Z"/>
        <path d="M738,836.51l2.88-9.73h3.16l-4.72,13.6h-2.65L732,826.78h3.17Z"/>
        <path d="M753.92,840.38a4.85,4.85,0,0,1-.35-1.26,5.13,5.13,0,0,1-6.91.35,3.73,3.73,0,0,1-1.3-2.89,3.84,3.84,0,0,1,1.62-3.34,7.76,7.76,0,0,1,4.62-1.17h1.87v-.89a2.4,2.4,0,0,0-.59-1.69,2.37,2.37,0,0,0-1.8-.63,2.66,2.66,0,0,0-1.71.52,1.63,1.63,0,0,0-.67,1.32h-3.05a3.42,3.42,0,0,1,.74-2.09,5,5,0,0,1,2-1.53,7.07,7.07,0,0,1,2.85-.55,5.72,5.72,0,0,1,3.81,1.2,4.29,4.29,0,0,1,1.45,3.38v6.13a7,7,0,0,0,.52,2.93v.21Zm-3.35-2.2a3.4,3.4,0,0,0,1.7-.44,2.9,2.9,0,0,0,1.2-1.18V834h-1.65a4.53,4.53,0,0,0-2.55.59,1.9,1.9,0,0,0-.85,1.67,1.76,1.76,0,0,0,.58,1.4A2.26,2.26,0,0,0,750.57,838.18Z"/>
        <path d="M767.35,836.69a1.41,1.41,0,0,0-.67-1.25,7.44,7.44,0,0,0-2.24-.75,11.54,11.54,0,0,1-2.6-.83,3.49,3.49,0,0,1-2.29-3.21,3.63,3.63,0,0,1,1.49-2.94,5.84,5.84,0,0,1,3.77-1.18,6.08,6.08,0,0,1,3.94,1.21,3.81,3.81,0,0,1,1.5,3.13h-3a1.88,1.88,0,0,0-.66-1.47,2.48,2.48,0,0,0-1.73-.58,2.7,2.7,0,0,0-1.64.46,1.49,1.49,0,0,0-.64,1.25,1.24,1.24,0,0,0,.59,1.09,8.34,8.34,0,0,0,2.39.79,11.49,11.49,0,0,1,2.83.94,4,4,0,0,1,1.52,1.31,3.41,3.41,0,0,1,.49,1.87,3.53,3.53,0,0,1-1.52,3,6.46,6.46,0,0,1-4,1.14,7,7,0,0,1-3-.61,4.89,4.89,0,0,1-2-1.66,3.88,3.88,0,0,1-.73-2.27h3a2.12,2.12,0,0,0,.82,1.66,3.14,3.14,0,0,0,2,.59,3.07,3.07,0,0,0,1.84-.46A1.43,1.43,0,0,0,767.35,836.69Z"/>
        <path d="M785.35,833.83h-6.6v-2.46h6.6Z"/>
        <path d="M804.83,836.12h-7.09l-1.49,4.26H793l6.91-18.3h2.85l6.93,18.3h-3.32Zm-6.2-2.56h5.3l-2.65-7.6Z"/>
        <path d="M817,838.2a2.76,2.76,0,0,0,1.9-.67,2.26,2.26,0,0,0,.8-1.65h2.88a4.47,4.47,0,0,1-.79,2.37,5.26,5.26,0,0,1-2,1.75,6.1,6.1,0,0,1-2.74.64,5.81,5.81,0,0,1-4.53-1.85,7.37,7.37,0,0,1-1.67-5.11v-.31a7.18,7.18,0,0,1,1.66-5,5.71,5.71,0,0,1,4.52-1.87,5.61,5.61,0,0,1,4,1.41,5.09,5.09,0,0,1,1.6,3.72h-2.88a2.76,2.76,0,0,0-.8-1.92A2.52,2.52,0,0,0,817,829a2.69,2.69,0,0,0-2.29,1.08,5.44,5.44,0,0,0-.82,3.26v.49a5.59,5.59,0,0,0,.8,3.3A2.7,2.7,0,0,0,817,838.2Z"/>
        <path d="M833.14,839.05a4.73,4.73,0,0,1-3.82,1.59,4.2,4.2,0,0,1-3.35-1.3,5.5,5.5,0,0,1-1.14-3.75v-8.81h3v8.78c0,1.72.72,2.59,2.15,2.59a3,3,0,0,0,3-1.6v-9.77h3.05v13.6h-2.88Z"/>
        <path d="M845.2,840.64a6.31,6.31,0,0,1-4.71-1.83,6.66,6.66,0,0,1-1.81-4.87v-.38a8.22,8.22,0,0,1,.79-3.64,6,6,0,0,1,2.21-2.5,5.84,5.84,0,0,1,3.16-.89,5.35,5.35,0,0,1,4.3,1.77,7.51,7.51,0,0,1,1.51,5v1.23h-8.89a4.15,4.15,0,0,0,1.13,2.67,3.4,3.4,0,0,0,2.48,1,4.14,4.14,0,0,0,3.42-1.7l1.65,1.57a5.48,5.48,0,0,1-2.18,1.89A6.81,6.81,0,0,1,845.2,840.64ZM844.83,829a2.6,2.6,0,0,0-2,.88,4.7,4.7,0,0,0-1,2.45h5.83v-.22a3.69,3.69,0,0,0-.82-2.32A2.54,2.54,0,0,0,844.83,829Z"/>
        <path d="M860.15,829.57a8.55,8.55,0,0,0-1.25-.1,2.81,2.81,0,0,0-2.83,1.61v9.3H853v-13.6h2.91l.08,1.52a3.45,3.45,0,0,1,3.07-1.77,2.83,2.83,0,0,1,1.08.18Z"/>
        <path d="M861.26,833.48a8.14,8.14,0,0,1,1.46-5.05,4.7,4.7,0,0,1,3.91-1.9,4.44,4.44,0,0,1,3.5,1.51v-7h3v19.31h-2.76l-.15-1.4a4.54,4.54,0,0,1-3.66,1.66,4.64,4.64,0,0,1-3.87-1.93A8.4,8.4,0,0,1,861.26,833.48Zm3.06.27a5.57,5.57,0,0,0,.8,3.23,2.59,2.59,0,0,0,2.27,1.17,2.89,2.89,0,0,0,2.74-1.68v-5.8a2.85,2.85,0,0,0-2.72-1.64,2.61,2.61,0,0,0-2.29,1.18A6.35,6.35,0,0,0,864.32,833.75Z"/>
        <path d="M875.8,833.46a7.94,7.94,0,0,1,.79-3.6,5.86,5.86,0,0,1,2.22-2.47,6.34,6.34,0,0,1,3.3-.86,6,6,0,0,1,4.47,1.77,7,7,0,0,1,1.85,4.7v.72a8.06,8.06,0,0,1-.77,3.6,5.71,5.71,0,0,1-2.21,2.45,6.31,6.31,0,0,1-3.33.87,5.88,5.88,0,0,1-4.6-1.92,7.31,7.31,0,0,1-1.73-5.11Zm3.05.26a5.47,5.47,0,0,0,.87,3.29,3,3,0,0,0,4.82,0,6,6,0,0,0,.86-3.53,5.4,5.4,0,0,0-.88-3.27,3,3,0,0,0-4.79,0A6,6,0,0,0,878.85,833.72Z"/>
        <path d="M898.65,836.69a1.39,1.39,0,0,0-.67-1.25,7.36,7.36,0,0,0-2.23-.75,11.21,11.21,0,0,1-2.6-.83,3.48,3.48,0,0,1-2.29-3.21,3.62,3.62,0,0,1,1.48-2.94,5.86,5.86,0,0,1,3.77-1.18,6.06,6.06,0,0,1,3.94,1.21,3.8,3.8,0,0,1,1.51,3.13H898.5a1.91,1.91,0,0,0-.65-1.47,2.52,2.52,0,0,0-1.74-.58,2.72,2.72,0,0,0-1.64.46,1.48,1.48,0,0,0-.63,1.25,1.24,1.24,0,0,0,.59,1.09,8.22,8.22,0,0,0,2.39.79,11.25,11.25,0,0,1,2.82.94,4,4,0,0,1,1.52,1.31,3.41,3.41,0,0,1,.5,1.87,3.55,3.55,0,0,1-1.52,3,6.51,6.51,0,0,1-4,1.14,7.08,7.08,0,0,1-3-.61,4.89,4.89,0,0,1-2-1.66,3.94,3.94,0,0,1-.72-2.27h3a2.18,2.18,0,0,0,.82,1.66,3.17,3.17,0,0,0,2,.59,3,3,0,0,0,1.83-.46A1.43,1.43,0,0,0,898.65,836.69Z"/>
      </g>
      <g>
        <path class="cls-12" d="M107.63,508.12a3,3,0,0,1-2-5.18l6.25-5.58-8.14-8.15A3,3,0,0,1,108,485l10.35,10.37a3,3,0,0,1-.13,4.31l-8.59,7.67A3,3,0,0,1,107.63,508.12Z"/>
        <path class="cls-12" d="M113.37,517.54a3,3,0,0,1-2.1-5.06l14.78-14.78-14.78-14.78a3,3,0,0,1,4.2-4.19l16.87,16.87a3,3,0,0,1,0,4.19l-16.87,16.88A3,3,0,0,1,113.37,517.54Z"/>
      </g>
      <g>
        <path class="cls-12" d="M107.63,205.05a3,3,0,0,1-2-5.17l6.25-5.58-8.14-8.16A3,3,0,1,1,108,182l10.35,10.37a3,3,0,0,1-.13,4.3l-8.59,7.67A2.91,2.91,0,0,1,107.63,205.05Z"/>
        <path class="cls-12" d="M113.37,214.47a3,3,0,0,1-2.1-5.06l14.78-14.78-14.78-14.78a3,3,0,0,1,4.2-4.19l16.87,16.88a3,3,0,0,1,0,4.19L115.47,213.6A3,3,0,0,1,113.37,214.47Z"/>
      </g>
      <g>
        <path class="cls-12" d="M107.63,842.08a3,3,0,0,1-2-5.17l6.25-5.59-8.14-8.15A3,3,0,0,1,108,819l10.35,10.37a3,3,0,0,1,.86,2.18,2.94,2.94,0,0,1-1,2.13l-8.59,7.67A3,3,0,0,1,107.63,842.08Z"/>
        <path class="cls-12" d="M113.37,851.5a3,3,0,0,1-2.1-5.06l14.78-14.78-14.78-14.78a3,3,0,0,1,4.2-4.19l16.87,16.87a3,3,0,0,1,0,4.2l-16.87,16.87A3,3,0,0,1,113.37,851.5Z"/>
      </g>
      <path id="Trazado_119511" data-name="Trazado 119511" class="cls-13" d="M768,782.27l27.75-45.22H781.34l.44-30.57c0-16.6-3.1-15.36-13.29-15.36h-.17c-10.19,0-13.29-1.24-13.29,15.36l-.45,30.57H740.21Z"/>
    </g>
  </g>
</svg>
