<?xml version="1.0" encoding="utf-8"?>
<!-- Generator: Adobe Illustrator 25.2.3, SVG Export Plug-In . SVG Version: 6.00 Build 0)  -->
<!DOCTYPE svg PUBLIC "-//W3C//DTD SVG 1.1//EN" "http://www.w3.org/Graphics/SVG/1.1/DTD/svg11.dtd" [
	<!ENTITY ns_extend "http://ns.adobe.com/Extensibility/1.0/">
	<!ENTITY ns_ai "http://ns.adobe.com/AdobeIllustrator/10.0/">
	<!ENTITY ns_graphs "http://ns.adobe.com/Graphs/1.0/">
	<!ENTITY ns_vars "http://ns.adobe.com/Variables/1.0/">
	<!ENTITY ns_imrep "http://ns.adobe.com/ImageReplacement/1.0/">
	<!ENTITY ns_sfw "http://ns.adobe.com/SaveForWeb/1.0/">
	<!ENTITY ns_custom "http://ns.adobe.com/GenericCustomNamespace/1.0/">
	<!ENTITY ns_adobe_xpath "http://ns.adobe.com/XPath/1.0/">
]>
<svg version="1.1" id="Capa_1" xmlns:x="&ns_extend;" xmlns:i="&ns_ai;" xmlns:graph="&ns_graphs;"
	 xmlns="http://www.w3.org/2000/svg" xmlns:xlink="http://www.w3.org/1999/xlink" x="0px" y="0px" viewBox="0 0 894.4 603.7"
	 style="enable-background:new 0 0 894.4 603.7;" xml:space="preserve">
<style type="text/css">
	.st0{opacity:0.2;fill:#E8E8E8;enable-background:new    ;}
	.st1{fill:#8CD9D6;}
	.st2{fill:#D2E1F1;}
	.st3{fill:#419CA6;}
	.st4{fill:#77CFD9;}
	.st5{opacity:0.58;fill:#FFFFFF;enable-background:new    ;}
	.st6{opacity:0.78;fill:#FFFFFF;enable-background:new    ;}
	.st7{enable-background:new    ;}
	.st8{fill:#12263F;}
	.st9{opacity:0.3;}
	.st10{fill:url(#SVGID_1_);}
	.st11{fill:url(#SVGID_2_);}
	.st12{fill:url(#SVGID_3_);}
	.st13{fill:url(#SVGID_4_);}
</style>
<metadata>
	<sfw  xmlns="&ns_sfw;">
		<slices></slices>
		<sliceSourceBounds  bottomLeftOrigin="true" height="603.7" width="894.4" x="0" y="0"></sliceSourceBounds>
	</sfw>
</metadata>
<path class="st0" d="M858.8,407.8C776.6,544.5,557.6,621,367.7,600.3C336.8,597,252.1,587,177,539.8C32.6,448.9,1.7,269,118.4,142.1
	C203,49.8,355-2.5,499.4,0.1c31.1,0.6,150.3,4,255.1,65c31.2,18.3,58.1,39.9,79.9,64C906.2,208.4,912.4,318.8,858.8,407.8z"/>
<path class="st1" d="M628.5,502.8l21.5-35.1h-11.1l0.3-23.7c0-12.9-2.4-11.9-10.3-11.9h-0.1c-7.9,0-10.3-1-10.3,11.9l-0.4,23.7H607
	L628.5,502.8z"/>
<path class="st2" d="M454.7,519.3h349.2c9.8,0,17.7,7.9,17.7,17.7v18c0,9.8-7.9,17.7-17.7,17.7H454.7c-9.8,0-17.7-7.9-17.7-17.7v-18
	C437,527.2,444.9,519.3,454.7,519.3z"/>
<path class="st2" d="M454.7,36h349.2c9.8,0,17.7,7.9,17.7,17.7v18c0,9.8-7.9,17.7-17.7,17.7H454.7c-9.8,0-17.7-7.9-17.7-17.7v-18
	C437,43.9,444.9,36,454.7,36z"/>
<g transform="translate(853.42 2496.256)">
	<g transform="translate(0 0)">
		<path class="st3" d="M-391.5-2313.4c5.8-33.3,51.6-57.2,102.3-53.4c50.7,3.8,87.1,33.8,81.4,67.1c-5.8,33.3-51.6,57.2-102.3,53.4
			S-397.2-2280.2-391.5-2313.4z"/>
		<path class="st4" d="M-317.4-2364.3c47.9-6.5,94.7,14,104.5,46c9.8,31.9-21,63.1-68.9,69.7s-94.7-14-104.5-46
			C-396.2-2326.6-365.3-2357.8-317.4-2364.3z"/>
		<path class="st5" d="M-387.6-2308.3L-387.6-2308.3c-0.4,0-0.7-0.4-0.7-0.7c0.1-2.5,0.4-5.1,0.9-7.6c0-0.4,0.3-0.7,0.7-0.7
			c0.4,0,0.7,0.3,0.7,0.7c0,0.1,0,0.1,0,0.2c-0.4,2.5-0.7,5-0.9,7.5C-386.9-2308.5-387.2-2308.3-387.6-2308.3L-387.6-2308.3z"/>
		<path class="st5" d="M-376.2-2315.9c-0.1,0-0.2,0.1-0.3,0.1c-0.4-0.1-0.6-0.5-0.5-0.9c0,0,0,0,0,0c6.6-22.1,25.1-38.6,47.8-42.6
			c3.6-0.6,7.3-1,11-0.9c0.4,0,0.7,0.3,0.7,0.7c0,0.4-0.3,0.7-0.7,0.7c-26.4-0.1-49.8,17.1-57.5,42.4
			C-375.7-2316.2-375.9-2316-376.2-2315.9z"/>
		<path class="st6" d="M-350.8-2340.9c29-19.8,76-19.8,105,0c29,19.8,29,51.8,0,71.6s-76,19.8-105,0
			C-379.8-2289.1-379.8-2321.1-350.8-2340.9z"/>
	</g>
	<g class="st7">
		<path class="st8" d="M-330.9-2307.6h-2.6v-12.8h2.6V-2307.6z"/>
		<path class="st8" d="M-326.2-2317.1l0.1,1.1c0.7-0.8,1.6-1.3,2.7-1.3c1,0,1.8,0.3,2.2,0.9s0.7,1.5,0.8,2.7v6.1h-2.5v-6.1
			c0-0.5-0.1-0.9-0.4-1.2c-0.2-0.2-0.6-0.4-1.2-0.4c-0.7,0-1.3,0.3-1.6,0.9v6.7h-2.5v-9.5H-326.2z"/>
		<path class="st8" d="M-315.5-2319.4v2.3h1.6v1.9h-1.6v4.7c0,0.4,0.1,0.6,0.2,0.8s0.4,0.2,0.8,0.2c0.3,0,0.5,0,0.7-0.1v1.9
			c-0.5,0.2-1,0.2-1.5,0.2c-1.8,0-2.7-0.9-2.7-2.7v-5.1h-1.4v-1.9h1.4v-2.3H-315.5z"/>
		<path class="st8" d="M-308-2307.4c-1.4,0-2.5-0.4-3.4-1.3s-1.3-2-1.3-3.4v-0.2c0-1,0.2-1.8,0.6-2.6s0.9-1.3,1.6-1.7
			s1.4-0.6,2.3-0.6c1.3,0,2.3,0.4,3.1,1.2s1.1,2,1.1,3.5v1h-6.1c0.1,0.6,0.3,1.1,0.7,1.5s0.9,0.6,1.6,0.6c1,0,1.7-0.4,2.3-1.1
			l1.2,1.4c-0.4,0.5-0.9,1-1.5,1.3C-306.5-2307.5-307.3-2307.4-308-2307.4z M-308.3-2315.2c-0.5,0-0.9,0.2-1.2,0.5
			c-0.3,0.3-0.5,0.8-0.6,1.5h3.5v-0.2c0-0.6-0.2-1-0.5-1.3C-307.4-2315-307.8-2315.2-308.3-2315.2z"/>
		<path class="st8" d="M-297.3-2314.7c-0.3,0-0.7-0.1-0.9-0.1c-1,0-1.6,0.3-1.9,1v6.2h-2.5v-9.5h2.4l0.1,1.1
			c0.5-0.9,1.2-1.3,2.1-1.3c0.3,0,0.5,0,0.8,0.1L-297.3-2314.7z"/>
		<path class="st8" d="M-291.8-2307.4c-1.4,0-2.5-0.4-3.4-1.3s-1.3-2-1.3-3.4v-0.2c0-1,0.2-1.8,0.6-2.6s0.9-1.3,1.6-1.7
			s1.4-0.6,2.3-0.6c1.3,0,2.3,0.4,3.1,1.2s1.1,2,1.1,3.5v1h-6.1c0.1,0.6,0.3,1.1,0.7,1.5s0.9,0.6,1.6,0.6c1,0,1.7-0.4,2.3-1.1
			l1.2,1.4c-0.4,0.5-0.9,1-1.5,1.3C-290.2-2307.5-291-2307.4-291.8-2307.4z M-292-2315.2c-0.5,0-0.9,0.2-1.2,0.5
			c-0.3,0.3-0.5,0.8-0.6,1.5h3.5v-0.2c0-0.6-0.2-1-0.5-1.3C-291.1-2315-291.5-2315.2-292-2315.2z"/>
		<path class="st8" d="M-281.2-2310.2c0-0.3-0.2-0.6-0.5-0.7s-0.8-0.3-1.5-0.5c-2.3-0.5-3.4-1.4-3.4-2.9c0-0.8,0.4-1.5,1.1-2.1
			c0.7-0.6,1.6-0.8,2.7-0.8c1.2,0,2.2,0.3,2.9,0.9s1.1,1.3,1.1,2.2h-2.5c0-0.4-0.1-0.7-0.4-0.9c-0.2-0.2-0.6-0.4-1.1-0.4
			c-0.4,0-0.8,0.1-1,0.3s-0.4,0.4-0.4,0.7c0,0.3,0.1,0.5,0.4,0.7c0.3,0.2,0.7,0.3,1.3,0.4s1.2,0.3,1.6,0.4c1.3,0.5,2,1.3,2,2.6
			c0,0.9-0.4,1.6-1.1,2.1c-0.7,0.5-1.7,0.8-2.9,0.8c-0.8,0-1.5-0.1-2.1-0.4c-0.6-0.3-1.1-0.7-1.5-1.2c-0.4-0.5-0.5-1-0.5-1.6h2.4
			c0,0.5,0.2,0.8,0.5,1s0.7,0.4,1.2,0.4c0.5,0,0.9-0.1,1.1-0.3C-281.4-2309.6-281.2-2309.9-281.2-2310.2z"/>
		<path class="st8" d="M-272.8-2307.4c-1.4,0-2.5-0.4-3.4-1.3s-1.3-2-1.3-3.4v-0.2c0-1,0.2-1.8,0.6-2.6s0.9-1.3,1.6-1.7
			s1.4-0.6,2.3-0.6c1.3,0,2.3,0.4,3.1,1.2s1.1,2,1.1,3.5v1h-6.1c0.1,0.6,0.3,1.1,0.7,1.5s0.9,0.6,1.6,0.6c1,0,1.7-0.4,2.3-1.1
			l1.2,1.4c-0.4,0.5-0.9,1-1.5,1.3C-271.3-2307.5-272-2307.4-272.8-2307.4z M-273.1-2315.2c-0.5,0-0.9,0.2-1.2,0.5
			c-0.3,0.3-0.5,0.8-0.6,1.5h3.5v-0.2c0-0.6-0.2-1-0.5-1.3C-272.1-2315-272.5-2315.2-273.1-2315.2z"/>
		<path class="st8" d="M-262.3-2310.2c0-0.3-0.2-0.6-0.5-0.7s-0.8-0.3-1.5-0.5c-2.3-0.5-3.4-1.4-3.4-2.9c0-0.8,0.4-1.5,1.1-2.1
			c0.7-0.6,1.6-0.8,2.7-0.8c1.2,0,2.2,0.3,2.9,0.9s1.1,1.3,1.1,2.2h-2.5c0-0.4-0.1-0.7-0.4-0.9c-0.2-0.2-0.6-0.4-1.1-0.4
			c-0.4,0-0.8,0.1-1,0.3s-0.4,0.4-0.4,0.7c0,0.3,0.1,0.5,0.4,0.7c0.3,0.2,0.7,0.3,1.3,0.4s1.2,0.3,1.6,0.4c1.3,0.5,2,1.3,2,2.6
			c0,0.9-0.4,1.6-1.1,2.1c-0.7,0.5-1.7,0.8-2.9,0.8c-0.8,0-1.5-0.1-2.1-0.4c-0.6-0.3-1.1-0.7-1.5-1.2c-0.4-0.5-0.5-1-0.5-1.6h2.4
			c0,0.5,0.2,0.8,0.5,1s0.7,0.4,1.2,0.4c0.5,0,0.9-0.1,1.1-0.3C-262.4-2309.6-262.3-2309.9-262.3-2310.2z"/>
	</g>
</g>
<g class="st7">
	<path class="st8" d="M533.1,549.7h-4.6l-0.9,2.6h-2.8l4.8-12.8h2.4l4.8,12.8H534L533.1,549.7z M529.2,547.5h3.2l-1.6-4.8
		L529.2,547.5z"/>
	<path class="st8" d="M540.5,552.3h-2.5v-13.5h2.5V552.3z"/>
	<path class="st8" d="M545.6,540.4v2.3h1.6v1.9h-1.6v4.7c0,0.4,0.1,0.6,0.2,0.8s0.4,0.2,0.8,0.2c0.3,0,0.5,0,0.7-0.1v1.9
		c-0.5,0.2-1,0.2-1.5,0.2c-1.8,0-2.7-0.9-2.7-2.7v-5.1h-1.4v-1.9h1.4v-2.3H545.6z"/>
	<path class="st8" d="M553,552.5c-1.4,0-2.5-0.4-3.4-1.3c-0.9-0.9-1.3-2-1.3-3.4v-0.2c0-1,0.2-1.8,0.6-2.6s0.9-1.3,1.6-1.7
		c0.7-0.4,1.4-0.6,2.3-0.6c1.3,0,2.3,0.4,3.1,1.2c0.7,0.8,1.1,2,1.1,3.5v1h-6.1c0.1,0.6,0.3,1.1,0.7,1.5c0.4,0.4,0.9,0.6,1.6,0.6
		c1,0,1.7-0.4,2.3-1.1l1.2,1.4c-0.4,0.5-0.9,1-1.5,1.3C554.6,552.3,553.8,552.5,553,552.5z M552.8,544.7c-0.5,0-0.9,0.2-1.2,0.5
		c-0.3,0.3-0.5,0.8-0.6,1.5h3.5v-0.2c0-0.6-0.2-1-0.5-1.3C553.7,544.8,553.3,544.7,552.8,544.7z"/>
	<path class="st8" d="M563.7,545.2c-0.3,0-0.7-0.1-0.9-0.1c-1,0-1.6,0.3-1.9,1v6.2h-2.5v-9.5h2.4l0.1,1.1c0.5-0.9,1.2-1.3,2.1-1.3
		c0.3,0,0.5,0,0.8,0.1L563.7,545.2z"/>
	<path class="st8" d="M567.3,542.8l0.1,1.1c0.7-0.8,1.6-1.3,2.7-1.3c1,0,1.8,0.3,2.2,0.9s0.7,1.5,0.8,2.7v6.1h-2.5v-6.1
		c0-0.5-0.1-0.9-0.4-1.2c-0.2-0.2-0.6-0.4-1.2-0.4c-0.7,0-1.3,0.3-1.6,0.9v6.7h-2.5v-9.5H567.3z"/>
	<path class="st8" d="M580.6,552.3c-0.1-0.2-0.2-0.5-0.3-0.9c-0.6,0.7-1.4,1-2.4,1c-0.9,0-1.7-0.3-2.3-0.8c-0.6-0.5-0.9-1.2-0.9-2
		c0-1,0.4-1.8,1.1-2.3c0.7-0.5,1.8-0.8,3.2-0.8h1.2v-0.5c0-0.4-0.1-0.8-0.3-1.1c-0.2-0.3-0.6-0.4-1.1-0.4c-0.4,0-0.8,0.1-1,0.3
		c-0.2,0.2-0.4,0.5-0.4,0.8h-2.5c0-0.6,0.2-1.1,0.5-1.5s0.8-0.8,1.4-1.1s1.3-0.4,2.1-0.4c1.2,0,2.1,0.3,2.8,0.9c0.7,0.6,1,1.4,1,2.5
		v4.1c0,0.9,0.1,1.6,0.4,2v0.1H580.6z M578.5,550.5c0.4,0,0.7-0.1,1-0.3c0.3-0.2,0.6-0.4,0.7-0.7V548h-0.9c-1.3,0-1.9,0.4-2,1.3
		l0,0.1c0,0.3,0.1,0.6,0.3,0.8S578.1,550.5,578.5,550.5z"/>
	<path class="st8" d="M587.7,540.4v2.3h1.6v1.9h-1.6v4.7c0,0.4,0.1,0.6,0.2,0.8s0.4,0.2,0.8,0.2c0.3,0,0.5,0,0.7-0.1v1.9
		c-0.5,0.2-1,0.2-1.5,0.2c-1.8,0-2.7-0.9-2.7-2.7v-5.1h-1.4v-1.9h1.4v-2.3H587.7z"/>
	<path class="st8" d="M590.8,540.3c0-0.4,0.1-0.7,0.4-0.9c0.3-0.2,0.6-0.4,1-0.4c0.4,0,0.8,0.1,1,0.4s0.4,0.6,0.4,0.9
		c0,0.4-0.1,0.7-0.4,0.9c-0.3,0.2-0.6,0.4-1,0.4s-0.8-0.1-1-0.4C590.9,541,590.8,540.7,590.8,540.3z M593.5,552.3h-2.5v-9.5h2.5
		V552.3z"/>
	<path class="st8" d="M599.1,549.2l1.8-6.4h2.7l-3.2,9.5h-2.4l-3.2-9.5h2.7L599.1,549.2z"/>
	<path class="st8" d="M610,552.3c-0.1-0.2-0.2-0.5-0.3-0.9c-0.6,0.7-1.4,1-2.4,1c-0.9,0-1.7-0.3-2.3-0.8c-0.6-0.5-0.9-1.2-0.9-2
		c0-1,0.4-1.8,1.1-2.3c0.7-0.5,1.8-0.8,3.2-0.8h1.2v-0.5c0-0.4-0.1-0.8-0.3-1.1c-0.2-0.3-0.6-0.4-1.1-0.4c-0.4,0-0.8,0.1-1,0.3
		c-0.2,0.2-0.4,0.5-0.4,0.8h-2.5c0-0.6,0.2-1.1,0.5-1.5s0.8-0.8,1.4-1.1s1.3-0.4,2.1-0.4c1.2,0,2.1,0.3,2.8,0.9c0.7,0.6,1,1.4,1,2.5
		v4.1c0,0.9,0.1,1.6,0.4,2v0.1H610z M607.9,550.5c0.4,0,0.7-0.1,1-0.3c0.3-0.2,0.6-0.4,0.7-0.7V548h-0.9c-1.3,0-1.9,0.4-2,1.3l0,0.1
		c0,0.3,0.1,0.6,0.3,0.8S607.5,550.5,607.9,550.5z"/>
	<path class="st8" d="M619.3,549.7c0-0.3-0.2-0.6-0.5-0.7c-0.3-0.2-0.8-0.3-1.5-0.5c-2.3-0.5-3.4-1.4-3.4-2.9c0-0.8,0.3-1.5,1.1-2.1
		c0.7-0.6,1.6-0.8,2.7-0.8c1.2,0,2.2,0.3,2.9,0.9c0.7,0.6,1.1,1.3,1.1,2.2h-2.5c0-0.4-0.1-0.7-0.4-0.9c-0.2-0.2-0.6-0.4-1.1-0.4
		c-0.4,0-0.8,0.1-1,0.3s-0.4,0.4-0.4,0.7c0,0.3,0.1,0.5,0.4,0.7c0.3,0.2,0.7,0.3,1.3,0.4s1.2,0.3,1.6,0.4c1.3,0.5,2,1.3,2,2.6
		c0,0.9-0.4,1.6-1.1,2.1c-0.7,0.5-1.7,0.8-2.9,0.8c-0.8,0-1.5-0.1-2.1-0.4c-0.6-0.3-1.1-0.7-1.5-1.2c-0.4-0.5-0.5-1-0.5-1.6h2.4
		c0,0.5,0.2,0.8,0.5,1s0.7,0.4,1.2,0.4c0.5,0,0.9-0.1,1.1-0.3C619.2,550.2,619.3,550,619.3,549.7z"/>
	<path class="st8" d="M641.8,547.8h-4.9v-2h4.9V547.8z"/>
	<path class="st8" d="M664.7,549.7h-4.6l-0.9,2.6h-2.8l4.8-12.8h2.4l4.8,12.8h-2.8L664.7,549.7z M660.8,547.5h3.2l-1.6-4.8
		L660.8,547.5z"/>
	<path class="st8" d="M673.4,550.4c0.5,0,0.8-0.1,1.1-0.4s0.4-0.6,0.5-1h2.4c0,0.6-0.2,1.2-0.5,1.8c-0.3,0.5-0.8,1-1.4,1.2
		c-0.6,0.3-1.3,0.4-2,0.4c-1.4,0-2.4-0.4-3.2-1.3c-0.8-0.9-1.2-2.1-1.2-3.6v-0.2c0-1.5,0.4-2.6,1.2-3.5s1.8-1.3,3.2-1.3
		c1.2,0,2.1,0.3,2.9,1c0.7,0.7,1.1,1.6,1.1,2.7H675c0-0.5-0.2-0.9-0.5-1.2s-0.7-0.5-1.2-0.5c-0.6,0-1,0.2-1.3,0.6
		c-0.3,0.4-0.5,1.1-0.5,2.1v0.3c0,1,0.1,1.7,0.4,2.1S672.7,550.4,673.4,550.4z"/>
	<path class="st8" d="M684.5,551.3c-0.6,0.8-1.5,1.1-2.6,1.1c-1,0-1.8-0.3-2.3-0.9c-0.5-0.6-0.8-1.4-0.8-2.6v-6.2h2.5v6.2
		c0,1,0.5,1.5,1.4,1.5c0.9,0,1.5-0.3,1.8-0.9v-6.7h2.5v9.5h-2.4L684.5,551.3z"/>
	<path class="st8" d="M693.2,552.5c-1.4,0-2.5-0.4-3.4-1.3c-0.9-0.9-1.3-2-1.3-3.4v-0.2c0-1,0.2-1.8,0.6-2.6s0.9-1.3,1.6-1.7
		c0.7-0.4,1.4-0.6,2.3-0.6c1.3,0,2.3,0.4,3.1,1.2c0.7,0.8,1.1,2,1.1,3.5v1h-6.1c0.1,0.6,0.3,1.1,0.7,1.5c0.4,0.4,0.9,0.6,1.6,0.6
		c1,0,1.7-0.4,2.3-1.1l1.2,1.4c-0.4,0.5-0.9,1-1.5,1.3C694.7,552.3,694,552.5,693.2,552.5z M692.9,544.7c-0.5,0-0.9,0.2-1.2,0.5
		c-0.3,0.3-0.5,0.8-0.6,1.5h3.5v-0.2c0-0.6-0.2-1-0.5-1.3C693.9,544.8,693.5,544.7,692.9,544.7z"/>
	<path class="st8" d="M703.9,545.2c-0.3,0-0.7-0.1-0.9-0.1c-1,0-1.6,0.3-1.9,1v6.2h-2.5v-9.5h2.4l0.1,1.1c0.5-0.9,1.2-1.3,2.1-1.3
		c0.3,0,0.5,0,0.8,0.1L703.9,545.2z"/>
	<path class="st8" d="M704.8,547.5c0-1.5,0.3-2.7,1-3.5c0.7-0.9,1.6-1.3,2.7-1.3c0.9,0,1.7,0.3,2.3,1v-4.9h2.5v13.5H711l-0.1-1
		c-0.6,0.8-1.4,1.2-2.4,1.2c-1.1,0-2-0.4-2.7-1.3C705.1,550.3,704.8,549,704.8,547.5z M707.3,547.7c0,0.9,0.2,1.6,0.5,2.1
		s0.8,0.7,1.4,0.7c0.8,0,1.3-0.3,1.7-1v-3.8c-0.3-0.7-0.9-1-1.6-1C707.9,544.7,707.3,545.7,707.3,547.7z"/>
	<path class="st8" d="M714.9,547.4c0-0.9,0.2-1.8,0.5-2.5s0.9-1.3,1.6-1.7c0.7-0.4,1.5-0.6,2.4-0.6c1.3,0,2.3,0.4,3.1,1.2
		c0.8,0.8,1.3,1.9,1.4,3.2l0,0.7c0,1.5-0.4,2.6-1.2,3.5s-1.9,1.3-3.3,1.3s-2.5-0.4-3.3-1.3c-0.8-0.9-1.2-2.1-1.2-3.6V547.4z
		 M717.4,547.6c0,0.9,0.2,1.6,0.5,2.1c0.3,0.5,0.8,0.7,1.5,0.7c0.6,0,1.1-0.2,1.4-0.7c0.3-0.5,0.5-1.2,0.5-2.3
		c0-0.9-0.2-1.6-0.5-2.1s-0.8-0.7-1.5-0.7c-0.6,0-1.1,0.2-1.4,0.7C717.6,545.9,717.4,546.6,717.4,547.6z"/>
	<path class="st8" d="M730.6,549.7c0-0.3-0.2-0.6-0.5-0.7c-0.3-0.2-0.8-0.3-1.5-0.5c-2.3-0.5-3.4-1.4-3.4-2.9c0-0.8,0.4-1.5,1-2.1
		c0.7-0.6,1.6-0.8,2.7-0.8c1.2,0,2.2,0.3,2.9,0.9c0.7,0.6,1.1,1.3,1.1,2.2h-2.5c0-0.4-0.1-0.7-0.4-0.9c-0.2-0.2-0.6-0.4-1.1-0.4
		c-0.4,0-0.8,0.1-1,0.3s-0.4,0.4-0.4,0.7c0,0.3,0.1,0.5,0.4,0.7c0.3,0.2,0.7,0.3,1.3,0.4s1.2,0.3,1.6,0.4c1.3,0.5,2,1.3,2,2.6
		c0,0.9-0.4,1.6-1.1,2.1c-0.7,0.5-1.7,0.8-2.9,0.8c-0.8,0-1.5-0.1-2.1-0.4c-0.6-0.3-1.1-0.7-1.5-1.2c-0.4-0.5-0.5-1-0.5-1.6h2.4
		c0,0.5,0.2,0.8,0.5,1s0.7,0.4,1.2,0.4c0.5,0,0.9-0.1,1.1-0.3C730.5,550.2,730.6,550,730.6,549.7z"/>
</g>
<g class="st7">
	<path class="st8" d="M525.2,64.3h-2.1V69h-2.6V56.2h4.8c1.5,0,2.7,0.3,3.5,1s1.2,1.6,1.2,2.9c0,0.9-0.2,1.6-0.6,2.2
		c-0.4,0.6-1,1-1.7,1.4l2.8,5.2V69h-2.8L525.2,64.3z M523.1,62.2h2.1c0.7,0,1.2-0.2,1.5-0.5c0.4-0.3,0.5-0.8,0.5-1.4
		c0-0.6-0.2-1.1-0.5-1.4s-0.9-0.5-1.6-0.5h-2.1V62.2z"/>
	<path class="st8" d="M536.2,69.2c-1.4,0-2.5-0.4-3.4-1.3s-1.3-2-1.3-3.4v-0.2c0-1,0.2-1.8,0.6-2.6s0.9-1.3,1.6-1.7s1.4-0.6,2.3-0.6
		c1.3,0,2.3,0.4,3.1,1.2s1.1,2,1.1,3.5v1H534c0.1,0.6,0.3,1.1,0.7,1.5s0.9,0.6,1.6,0.6c1,0,1.7-0.4,2.3-1.1l1.2,1.4
		c-0.4,0.5-0.9,1-1.5,1.3C537.7,69,536.9,69.2,536.2,69.2z M535.9,61.4c-0.5,0-0.9,0.2-1.2,0.5c-0.3,0.3-0.5,0.8-0.6,1.5h3.5v-0.2
		c0-0.6-0.2-1-0.5-1.3C536.8,61.5,536.4,61.4,535.9,61.4z"/>
	<path class="st8" d="M544.2,69h-2.5V55.5h2.5V69z"/>
	<path class="st8" d="M551.8,69c-0.1-0.2-0.2-0.5-0.3-0.9c-0.6,0.7-1.4,1-2.4,1c-0.9,0-1.7-0.3-2.3-0.8s-0.9-1.2-0.9-2
		c0-1,0.4-1.8,1.1-2.3s1.8-0.8,3.2-0.8h1.2v-0.5c0-0.4-0.1-0.8-0.3-1.1s-0.6-0.4-1.1-0.4c-0.4,0-0.8,0.1-1,0.3s-0.4,0.5-0.4,0.8
		h-2.5c0-0.6,0.2-1.1,0.5-1.5s0.8-0.8,1.4-1.1s1.3-0.4,2.1-0.4c1.2,0,2.1,0.3,2.8,0.9c0.7,0.6,1,1.4,1,2.5v4.1c0,0.9,0.1,1.6,0.4,2
		V69H551.8z M549.7,67.2c0.4,0,0.7-0.1,1-0.3c0.3-0.2,0.6-0.4,0.7-0.7v-1.6h-0.9c-1.3,0-1.9,0.4-2,1.3l0,0.1c0,0.3,0.1,0.6,0.3,0.8
		S549.3,67.2,549.7,67.2z"/>
	<path class="st8" d="M559.9,67.1c0.5,0,0.8-0.1,1.1-0.4s0.4-0.6,0.5-1h2.4c0,0.6-0.2,1.2-0.5,1.8c-0.3,0.5-0.8,1-1.4,1.2
		c-0.6,0.3-1.3,0.4-2,0.4c-1.4,0-2.4-0.4-3.2-1.3c-0.8-0.9-1.2-2.1-1.2-3.6v-0.2c0-1.5,0.4-2.6,1.2-3.5s1.8-1.3,3.2-1.3
		c1.2,0,2.1,0.3,2.9,1c0.7,0.7,1.1,1.6,1.1,2.7h-2.4c0-0.5-0.2-0.9-0.5-1.2s-0.7-0.5-1.2-0.5c-0.6,0-1,0.2-1.3,0.6
		c-0.3,0.4-0.5,1.1-0.5,2.1v0.3c0,1,0.1,1.7,0.4,2.1S559.3,67.1,559.9,67.1z"/>
	<path class="st8" d="M565.3,57c0-0.4,0.1-0.7,0.4-0.9s0.6-0.4,1-0.4c0.4,0,0.8,0.1,1,0.4s0.4,0.6,0.4,0.9c0,0.4-0.1,0.7-0.4,0.9
		s-0.6,0.4-1,0.4s-0.8-0.1-1-0.4S565.3,57.4,565.3,57z M568,69h-2.5v-9.5h2.5V69z"/>
	<path class="st8" d="M569.7,64.2c0-0.9,0.2-1.8,0.5-2.5s0.9-1.3,1.6-1.7s1.5-0.6,2.4-0.6c1.3,0,2.3,0.4,3.1,1.2s1.3,1.9,1.4,3.2
		l0,0.7c0,1.5-0.4,2.6-1.2,3.5s-1.9,1.3-3.3,1.3s-2.5-0.4-3.3-1.3s-1.2-2.1-1.2-3.6V64.2z M572.2,64.3c0,0.9,0.2,1.6,0.5,2.1
		c0.3,0.5,0.8,0.7,1.5,0.7c0.6,0,1.1-0.2,1.4-0.7c0.3-0.5,0.5-1.2,0.5-2.3c0-0.9-0.2-1.6-0.5-2.1s-0.8-0.7-1.5-0.7
		c-0.6,0-1.1,0.2-1.4,0.7C572.4,62.6,572.2,63.3,572.2,64.3z M574.7,55.5h2.8l-2.4,2.7H573L574.7,55.5z"/>
	<path class="st8" d="M582.6,59.5l0.1,1.1c0.7-0.8,1.6-1.3,2.7-1.3c1,0,1.8,0.3,2.2,0.9s0.7,1.5,0.8,2.7V69h-2.5v-6.1
		c0-0.5-0.1-0.9-0.4-1.2c-0.2-0.2-0.6-0.4-1.2-0.4c-0.7,0-1.2,0.3-1.6,0.9V69h-2.5v-9.5H582.6z"/>
	<path class="st8" d="M608.7,64.5h-4.9v-2h4.9V64.5z"/>
	<path class="st8" d="M634.4,64.7c-0.1,1.4-0.6,2.5-1.5,3.3s-2.1,1.2-3.6,1.2c-1.6,0-2.9-0.6-3.9-1.7S624,64.9,624,63v-0.8
		c0-1.2,0.2-2.3,0.7-3.3s1.1-1.7,1.9-2.2c0.8-0.5,1.7-0.8,2.8-0.8c1.5,0,2.7,0.4,3.6,1.2s1.4,1.9,1.6,3.3h-2.6
		c-0.1-0.8-0.3-1.4-0.7-1.8s-1-0.6-1.8-0.6c-0.9,0-1.5,0.3-2,0.9s-0.7,1.6-0.7,2.9v1c0,1.4,0.2,2.4,0.6,3s1.1,1,2,1
		c0.8,0,1.4-0.2,1.8-0.6s0.6-0.9,0.7-1.7H634.4z"/>
	<path class="st8" d="M635.6,64.2c0-0.9,0.2-1.8,0.5-2.5s0.9-1.3,1.6-1.7s1.5-0.6,2.4-0.6c1.3,0,2.3,0.4,3.1,1.2s1.3,1.9,1.4,3.2
		l0,0.7c0,1.5-0.4,2.6-1.2,3.5s-1.9,1.3-3.3,1.3s-2.5-0.4-3.3-1.3s-1.2-2.1-1.2-3.6V64.2z M638.1,64.3c0,0.9,0.2,1.6,0.5,2.1
		c0.3,0.5,0.8,0.7,1.5,0.7c0.6,0,1.1-0.2,1.4-0.7c0.3-0.5,0.5-1.2,0.5-2.3c0-0.9-0.2-1.6-0.5-2.1s-0.8-0.7-1.5-0.7
		c-0.6,0-1.1,0.2-1.4,0.7C638.3,62.6,638.1,63.3,638.1,64.3z"/>
	<path class="st8" d="M648.6,59.5l0.1,1.1c0.7-0.8,1.6-1.2,2.7-1.2c1.2,0,2.1,0.5,2.5,1.5c0.7-1,1.6-1.5,2.9-1.5
		c1,0,1.8,0.3,2.3,0.9c0.5,0.6,0.8,1.5,0.8,2.7V69h-2.5v-6.1c0-0.5-0.1-0.9-0.3-1.2s-0.6-0.4-1.1-0.4c-0.8,0-1.3,0.4-1.6,1.1l0,6.5
		h-2.5v-6.1c0-0.6-0.1-0.9-0.3-1.2s-0.6-0.4-1.1-0.4c-0.7,0-1.2,0.3-1.6,0.9V69h-2.5v-9.5H648.6z"/>
	<path class="st8" d="M667.5,68c-0.6,0.8-1.5,1.1-2.6,1.1c-1,0-1.8-0.3-2.3-0.9s-0.8-1.4-0.8-2.6v-6.2h2.5v6.2c0,1,0.5,1.5,1.4,1.5
		c0.9,0,1.5-0.3,1.8-0.9v-6.7h2.5V69h-2.4L667.5,68z"/>
	<path class="st8" d="M674.2,59.5l0.1,1.1c0.7-0.8,1.6-1.3,2.7-1.3c1,0,1.8,0.3,2.2,0.9s0.7,1.5,0.8,2.7V69h-2.5v-6.1
		c0-0.5-0.1-0.9-0.4-1.2c-0.2-0.2-0.6-0.4-1.2-0.4c-0.7,0-1.2,0.3-1.6,0.9V69h-2.5v-9.5H674.2z"/>
	<path class="st8" d="M681.9,57c0-0.4,0.1-0.7,0.4-0.9s0.6-0.4,1-0.4c0.4,0,0.8,0.1,1,0.4s0.4,0.6,0.4,0.9c0,0.4-0.1,0.7-0.4,0.9
		s-0.6,0.4-1,0.4s-0.8-0.1-1-0.4S681.9,57.4,681.9,57z M684.6,69H682v-9.5h2.5V69z"/>
	<path class="st8" d="M690.6,67.1c0.5,0,0.8-0.1,1.1-0.4s0.4-0.6,0.5-1h2.4c0,0.6-0.2,1.2-0.5,1.8c-0.3,0.5-0.8,1-1.4,1.2
		c-0.6,0.3-1.3,0.4-2,0.4c-1.4,0-2.4-0.4-3.2-1.3c-0.8-0.9-1.2-2.1-1.2-3.6v-0.2c0-1.5,0.4-2.6,1.2-3.5s1.8-1.3,3.2-1.3
		c1.2,0,2.1,0.3,2.9,1c0.7,0.7,1.1,1.6,1.1,2.7h-2.4c0-0.5-0.2-0.9-0.5-1.2s-0.7-0.5-1.2-0.5c-0.6,0-1,0.2-1.3,0.6
		c-0.3,0.4-0.5,1.1-0.5,2.1v0.3c0,1,0.2,1.7,0.4,2.1S690,67.1,690.6,67.1z"/>
	<path class="st8" d="M701.6,69c-0.1-0.2-0.2-0.5-0.3-0.9c-0.6,0.7-1.4,1-2.4,1c-0.9,0-1.7-0.3-2.3-0.8s-0.9-1.2-0.9-2
		c0-1,0.4-1.8,1.1-2.3s1.8-0.8,3.2-0.8h1.2v-0.5c0-0.4-0.1-0.8-0.3-1.1s-0.6-0.4-1.1-0.4c-0.4,0-0.8,0.1-1,0.3s-0.4,0.5-0.4,0.8
		h-2.5c0-0.6,0.2-1.1,0.5-1.5s0.8-0.8,1.4-1.1s1.3-0.4,2.1-0.4c1.2,0,2.1,0.3,2.8,0.9c0.7,0.6,1,1.4,1,2.5v4.1c0,0.9,0.1,1.6,0.4,2
		V69H701.6z M699.5,67.2c0.4,0,0.7-0.1,1-0.3c0.3-0.2,0.6-0.4,0.7-0.7v-1.6h-0.9c-1.3,0-1.9,0.4-2,1.3l0,0.1c0,0.3,0.1,0.6,0.3,0.8
		S699.1,67.2,699.5,67.2z"/>
	<path class="st8" d="M709.7,67.1c0.5,0,0.8-0.1,1.1-0.4s0.4-0.6,0.5-1h2.4c0,0.6-0.2,1.2-0.5,1.8c-0.3,0.5-0.8,1-1.4,1.2
		c-0.6,0.3-1.3,0.4-2,0.4c-1.4,0-2.4-0.4-3.2-1.3c-0.8-0.9-1.2-2.1-1.2-3.6v-0.2c0-1.5,0.4-2.6,1.2-3.5s1.8-1.3,3.2-1.3
		c1.2,0,2.1,0.3,2.9,1c0.7,0.7,1.1,1.6,1.1,2.7h-2.4c0-0.5-0.2-0.9-0.5-1.2s-0.7-0.5-1.2-0.5c-0.6,0-1,0.2-1.3,0.6
		c-0.3,0.4-0.5,1.1-0.5,2.1v0.3c0,1,0.2,1.7,0.4,2.1S709.1,67.1,709.7,67.1z"/>
	<path class="st8" d="M715.1,57c0-0.4,0.1-0.7,0.4-0.9s0.6-0.4,1-0.4c0.4,0,0.8,0.1,1,0.4s0.4,0.6,0.4,0.9c0,0.4-0.1,0.7-0.4,0.9
		s-0.6,0.4-1,0.4s-0.8-0.1-1-0.4S715.1,57.4,715.1,57z M717.8,69h-2.5v-9.5h2.5V69z"/>
	<path class="st8" d="M719.5,64.2c0-0.9,0.2-1.8,0.5-2.5s0.9-1.3,1.6-1.7s1.5-0.6,2.4-0.6c1.3,0,2.3,0.4,3.1,1.2s1.3,1.9,1.4,3.2
		l0,0.7c0,1.5-0.4,2.6-1.2,3.5s-1.9,1.3-3.3,1.3s-2.5-0.4-3.3-1.3s-1.2-2.1-1.2-3.6V64.2z M722,64.3c0,0.9,0.2,1.6,0.5,2.1
		c0.3,0.5,0.8,0.7,1.5,0.7c0.6,0,1.1-0.2,1.4-0.7c0.3-0.5,0.5-1.2,0.5-2.3c0-0.9-0.2-1.6-0.5-2.1s-0.8-0.7-1.5-0.7
		c-0.6,0-1.1,0.2-1.4,0.7C722.2,62.6,722,63.3,722,64.3z M724.5,55.5h2.8l-2.4,2.7h-2.1L724.5,55.5z"/>
	<path class="st8" d="M732.4,59.5l0.1,1.1c0.7-0.8,1.6-1.3,2.7-1.3c1,0,1.8,0.3,2.2,0.9s0.7,1.5,0.8,2.7V69h-2.5v-6.1
		c0-0.5-0.1-0.9-0.4-1.2c-0.2-0.2-0.6-0.4-1.2-0.4c-0.7,0-1.3,0.3-1.6,0.9V69H730v-9.5H732.4z"/>
</g>
<g transform="translate(1026.975 2473.828)">
	<g transform="translate(0 0)">
		<path class="st3" d="M-391.7-2318.3c5-32.4,45.1-55.8,89.7-52.2c44.6,3.6,76.7,32.8,71.8,65.2c-5,32.4-45.1,55.8-89.7,52.2
			S-396.7-2285.9-391.7-2318.3z"/>
		<path class="st4" d="M-323.8-2370.7c43.1-6.6,85.2,14.1,94,46.3c8.8,32.1-18.9,63.5-62,70.1s-85.2-14.1-94-46.3
			S-366.9-2364.1-323.8-2370.7z"/>
		<path class="st5" d="M-373.8-2311.6L-373.8-2311.6c-0.6,0-1.1-0.5-1.1-1.1c0.2-3.8,0.8-7.5,1.5-11.2c0.2-0.6,0.8-1,1.4-0.8
			c0.6,0,1,0.6,1,1.1c0,0,0,0,0,0c-0.8,3.6-1.3,7.3-1.5,11c0,0.3-0.2,0.5-0.4,0.7C-373.2-2311.7-373.5-2311.6-373.8-2311.6z"/>
		<path class="st5" d="M-382.6-2315.5c-0.1,0-0.3,0-0.4,0c-0.4-0.3-0.6-0.9-0.4-1.4c15.5-35.4,49.1-54.8,82.7-47.7
			c0.2,0,0.4,0.2,0.6,0.4c0.1,0.2,0.2,0.5,0.1,0.8c0,0.3-0.2,0.5-0.4,0.7c-0.2,0.2-0.4,0.2-0.6,0.2c-4.5-0.9-9-1.4-13.6-1.4
			c-28.4-0.1-54.5,18.5-67.2,48.1C-382-2315.6-382.3-2315.4-382.6-2315.5L-382.6-2315.5z"/>
		<path class="st6" d="M-352.2-2347.5c25.9-20.5,67.9-20.5,93.8,0c25.9,20.5,25.9,53.7,0,74.2c-25.9,20.5-67.9,20.5-93.8,0
			C-378.1-2293.8-378.1-2327-352.2-2347.5z"/>
	</g>
	<g class="st7">
		<path class="st8" d="M-329.8-2323.9c0,1.3-0.2,2.4-0.7,3.3s-1.1,1.7-1.9,2.2s-1.8,0.8-2.9,0.8c-1.1,0-2-0.3-2.8-0.8
			s-1.5-1.2-1.9-2.2c-0.5-0.9-0.7-2-0.7-3.3v-0.6c0-1.3,0.2-2.4,0.7-3.3c0.5-1,1.1-1.7,1.9-2.2s1.8-0.8,2.8-0.8s2,0.3,2.8,0.8
			s1.5,1.2,1.9,2.2c0.5,1,0.7,2.1,0.7,3.3V-2323.9z M-332.5-2324.5c0-1.3-0.2-2.4-0.7-3.1s-1.2-1-2.1-1c-0.9,0-1.6,0.3-2,1
			s-0.7,1.7-0.7,3v0.6c0,1.3,0.2,2.3,0.7,3s1.2,1.1,2.1,1.1c0.9,0,1.6-0.3,2-1c0.5-0.7,0.7-1.7,0.7-3V-2324.5z"/>
		<path class="st8" d="M-319.5-2322.5c0,1.5-0.3,2.6-1,3.5s-1.6,1.3-2.7,1.3c-1,0-1.7-0.3-2.3-1v4.5h-2.5v-13.2h2.4l0.1,0.9
			c0.6-0.7,1.4-1.1,2.4-1.1c1.2,0,2.1,0.4,2.7,1.3s1,2.1,1,3.6V-2322.5z M-322-2322.7c0-0.9-0.2-1.6-0.5-2s-0.8-0.7-1.4-0.7
			c-0.8,0-1.3,0.3-1.6,0.9v3.9c0.3,0.6,0.9,0.9,1.7,0.9C-322.7-2319.7-322-2320.7-322-2322.7z"/>
		<path class="st8" d="M-314-2319.7c0.5,0,0.8-0.1,1.1-0.4s0.4-0.6,0.5-1h2.4c0,0.6-0.2,1.2-0.5,1.8c-0.3,0.5-0.8,1-1.4,1.2
			c-0.6,0.3-1.3,0.4-2,0.4c-1.4,0-2.4-0.4-3.2-1.3c-0.8-0.9-1.2-2.1-1.2-3.6v-0.2c0-1.5,0.4-2.6,1.2-3.5s1.8-1.3,3.2-1.3
			c1.2,0,2.1,0.3,2.9,1c0.7,0.7,1.1,1.6,1.1,2.7h-2.4c0-0.5-0.2-0.9-0.5-1.2s-0.7-0.5-1.2-0.5c-0.6,0-1,0.2-1.3,0.6
			c-0.3,0.4-0.5,1.1-0.5,2.1v0.3c0,1,0.1,1.7,0.4,2.1S-314.6-2319.7-314-2319.7z"/>
		<path class="st8" d="M-308.6-2329.8c0-0.4,0.1-0.7,0.4-0.9s0.6-0.4,1-0.4c0.4,0,0.8,0.1,1,0.4s0.4,0.6,0.4,0.9
			c0,0.4-0.1,0.7-0.4,0.9s-0.6,0.4-1,0.4s-0.8-0.1-1-0.4S-308.6-2329.4-308.6-2329.8z M-305.9-2317.8h-2.5v-9.5h2.5V-2317.8z"/>
		<path class="st8" d="M-304.2-2322.7c0-0.9,0.2-1.8,0.5-2.5s0.9-1.3,1.6-1.7s1.5-0.6,2.4-0.6c1.3,0,2.3,0.4,3.1,1.2
			s1.3,1.9,1.4,3.2l0,0.7c0,1.5-0.4,2.6-1.2,3.5s-1.9,1.3-3.3,1.3s-2.5-0.4-3.3-1.3s-1.2-2.1-1.2-3.6V-2322.7z M-301.6-2322.5
			c0,0.9,0.2,1.6,0.5,2.1c0.3,0.5,0.8,0.7,1.5,0.7c0.6,0,1.1-0.2,1.4-0.7c0.3-0.5,0.5-1.2,0.5-2.3c0-0.9-0.2-1.6-0.5-2.1
			s-0.8-0.7-1.5-0.7c-0.6,0-1.1,0.2-1.4,0.7C-301.5-2324.3-301.6-2323.5-301.6-2322.5z"/>
		<path class="st8" d="M-291.3-2327.3l0.1,1.1c0.7-0.8,1.6-1.3,2.7-1.3c1,0,1.8,0.3,2.2,0.9s0.7,1.5,0.8,2.7v6.1h-2.5v-6.1
			c0-0.5-0.1-0.9-0.4-1.2c-0.2-0.2-0.6-0.4-1.2-0.4c-0.7,0-1.3,0.3-1.6,0.9v6.7h-2.5v-9.5H-291.3z"/>
		<path class="st8" d="M-279.1-2317.7c-1.4,0-2.5-0.4-3.4-1.3s-1.3-2-1.3-3.4v-0.2c0-1,0.2-1.8,0.6-2.6s0.9-1.3,1.6-1.7
			s1.4-0.6,2.3-0.6c1.3,0,2.3,0.4,3.1,1.2s1.1,2,1.1,3.5v1h-6.1c0.1,0.6,0.3,1.1,0.7,1.5s0.9,0.6,1.6,0.6c1,0,1.7-0.4,2.3-1.1
			l1.2,1.4c-0.4,0.5-0.9,1-1.5,1.3C-277.6-2317.8-278.3-2317.7-279.1-2317.7z M-279.4-2325.5c-0.5,0-0.9,0.2-1.2,0.5
			c-0.3,0.3-0.5,0.8-0.6,1.5h3.5v-0.2c0-0.6-0.2-1-0.5-1.3C-278.5-2325.3-278.9-2325.5-279.4-2325.5z"/>
		<path class="st8" d="M-268.6-2320.5c0-0.3-0.2-0.6-0.5-0.7s-0.8-0.3-1.5-0.5c-2.3-0.5-3.4-1.4-3.4-2.9c0-0.8,0.3-1.5,1-2.1
			c0.7-0.6,1.6-0.8,2.7-0.8c1.2,0,2.2,0.3,2.9,0.9s1.1,1.3,1.1,2.2h-2.5c0-0.4-0.1-0.7-0.4-0.9c-0.2-0.2-0.6-0.4-1.1-0.4
			c-0.4,0-0.8,0.1-1,0.3s-0.4,0.4-0.4,0.7c0,0.3,0.1,0.5,0.4,0.7c0.3,0.2,0.7,0.3,1.3,0.4s1.2,0.3,1.6,0.4c1.3,0.5,2,1.3,2,2.6
			c0,0.9-0.4,1.6-1.1,2.1c-0.7,0.5-1.7,0.8-2.9,0.8c-0.8,0-1.5-0.1-2.1-0.4c-0.6-0.3-1.1-0.7-1.5-1.2c-0.4-0.5-0.5-1-0.5-1.6h2.4
			c0,0.5,0.2,0.8,0.5,1s0.7,0.4,1.2,0.4c0.5,0,0.9-0.1,1.1-0.3C-268.8-2319.9-268.6-2320.2-268.6-2320.5z"/>
	</g>
</g>
<g transform="translate(0 0)">
	<path class="st3" d="M596.3,269c4.9-32.7,44.2-56.3,87.9-52.6c43.7,3.6,75.2,33.1,70.3,65.8s-44.2,56.3-87.9,52.6
		S591.4,301.7,596.3,269z"/>
	<path class="st4" d="M662.1,219c41.8-6.3,82.6,13.6,91.2,44.4c8.6,30.8-18.4,61-60.2,67.3c-41.8,6.3-82.6-13.6-91.2-44.4
		C593.3,255.5,620.3,225.3,662.1,219z"/>
	<path class="st5" d="M607.6,272L607.6,272c-0.5,0-0.9-0.2-0.9-0.5c0.2-1.9,0.6-3.8,1.1-5.6c0.3-0.3,0.6-0.4,1-0.4
		c0.5,0,0.8,0.3,0.7,0.5c-0.5,1.8-0.9,3.6-1,5.5c0,0.2-0.1,0.3-0.3,0.4C608,272,607.8,272,607.6,272z"/>
	<path class="st5" d="M615.8,249.2c-0.1,0-0.3,0-0.4,0c-0.2,0-0.3-0.1-0.5-0.3c-0.1-0.1-0.1-0.3,0.1-0.4
		c13.4-15.2,40.7-24.7,70.6-24.7c4.8,0,9.5,0.2,14.2,0.7c0.4,0.1,0.7,0.3,0.6,0.6c-0.1,0.3-0.5,0.4-1,0.4c-4.6-0.5-9.3-0.7-13.9-0.7
		c-29.2,0-56,9.3-69,24.1C616.4,249.2,616.1,249.3,615.8,249.2L615.8,249.2z"/>
	<path class="st6" d="M633.7,242.6c25.2-18.4,66.2-18.4,91.4,0c25.2,18.4,25.2,48.1,0,66.5c-25.2,18.4-66.2,18.4-91.4,0
		C608.4,290.8,608.4,261,633.7,242.6z"/>
</g>
<g class="st7">
	<path class="st8" d="M658.7,263c-0.1,1.4-0.6,2.5-1.5,3.3s-2.1,1.2-3.6,1.2c-1.6,0-2.9-0.6-3.9-1.7s-1.4-2.6-1.4-4.5v-0.8
		c0-1.2,0.2-2.3,0.7-3.3s1.1-1.7,1.9-2.2c0.8-0.5,1.7-0.8,2.8-0.8c1.5,0,2.7,0.4,3.6,1.2s1.4,1.9,1.6,3.3H656
		c-0.1-0.8-0.3-1.4-0.7-1.8s-1-0.6-1.8-0.6c-0.9,0-1.5,0.3-2,0.9s-0.7,1.6-0.7,2.9v1c0,1.4,0.2,2.4,0.6,3s1.1,1,2,1
		c0.8,0,1.4-0.2,1.8-0.6s0.6-0.9,0.7-1.7H658.7z"/>
	<path class="st8" d="M665.6,260.2c-0.3,0-0.7-0.1-0.9-0.1c-1,0-1.6,0.3-1.9,1v6.2h-2.5v-9.5h2.4l0.1,1.1c0.5-0.9,1.2-1.3,2.1-1.3
		c0.3,0,0.5,0,0.8,0.1L665.6,260.2z"/>
	<path class="st8" d="M666.8,255.3c0-0.4,0.1-0.7,0.4-0.9s0.6-0.4,1-0.4c0.4,0,0.8,0.1,1,0.4s0.4,0.6,0.4,0.9c0,0.4-0.1,0.7-0.4,0.9
		s-0.6,0.4-1,0.4s-0.8-0.1-1-0.4S666.8,255.7,666.8,255.3z M669.5,267.3h-2.5v-9.5h2.5V267.3z"/>
	<path class="st8" d="M674.6,255.5v2.3h1.6v1.9h-1.6v4.7c0,0.4,0.1,0.6,0.2,0.8s0.4,0.2,0.8,0.2c0.3,0,0.5,0,0.7-0.1v1.9
		c-0.5,0.2-1,0.2-1.5,0.2c-1.8,0-2.7-0.9-2.7-2.7v-5.1h-1.4v-1.9h1.4v-2.3H674.6z"/>
	<path class="st8" d="M682,267.5c-1.4,0-2.5-0.4-3.4-1.3s-1.3-2-1.3-3.4v-0.2c0-1,0.2-1.8,0.6-2.6s0.9-1.3,1.6-1.7s1.4-0.6,2.3-0.6
		c1.3,0,2.3,0.4,3.1,1.2s1.1,2,1.1,3.5v1h-6.1c0.1,0.6,0.3,1.1,0.7,1.5s0.9,0.6,1.6,0.6c1,0,1.7-0.4,2.3-1.1l1.2,1.4
		c-0.4,0.5-0.9,1-1.5,1.3C683.5,267.3,682.8,267.5,682,267.5z M681.7,259.7c-0.5,0-0.9,0.2-1.2,0.5c-0.3,0.3-0.5,0.8-0.6,1.5h3.5
		v-0.2c0-0.6-0.2-1-0.5-1.3C682.7,259.8,682.3,259.7,681.7,259.7z"/>
	<path class="st8" d="M692.7,260.2c-0.3,0-0.7-0.1-0.9-0.1c-1,0-1.6,0.3-1.9,1v6.2h-2.5v-9.5h2.4l0.1,1.1c0.5-0.9,1.2-1.3,2.1-1.3
		c0.3,0,0.5,0,0.8,0.1L692.7,260.2z"/>
	<path class="st8" d="M693.9,255.3c0-0.4,0.1-0.7,0.4-0.9s0.6-0.4,1-0.4c0.4,0,0.8,0.1,1,0.4s0.4,0.6,0.4,0.9c0,0.4-0.1,0.7-0.4,0.9
		s-0.6,0.4-1,0.4s-0.8-0.1-1-0.4S693.9,255.7,693.9,255.3z M696.6,267.3h-2.5v-9.5h2.5V267.3z"/>
	<path class="st8" d="M698.3,262.5c0-0.9,0.2-1.8,0.5-2.5s0.9-1.3,1.6-1.7s1.5-0.6,2.4-0.6c1.3,0,2.3,0.4,3.1,1.2s1.3,1.9,1.4,3.2
		l0,0.7c0,1.5-0.4,2.6-1.2,3.5s-1.9,1.3-3.3,1.3s-2.5-0.4-3.3-1.3s-1.2-2.1-1.2-3.6V262.5z M700.9,262.6c0,0.9,0.2,1.6,0.5,2.1
		c0.3,0.5,0.8,0.7,1.5,0.7c0.6,0,1.1-0.2,1.4-0.7c0.3-0.5,0.5-1.2,0.5-2.3c0-0.9-0.2-1.6-0.5-2.1s-0.8-0.7-1.5-0.7
		c-0.6,0-1.1,0.2-1.4,0.7C701,260.9,700.9,261.6,700.9,262.6z"/>
	<path class="st8" d="M714,264.7c0-0.3-0.2-0.6-0.5-0.7s-0.8-0.3-1.5-0.5c-2.3-0.5-3.4-1.4-3.4-2.9c0-0.8,0.3-1.5,1-2.1
		c0.7-0.6,1.6-0.8,2.7-0.8c1.2,0,2.2,0.3,2.9,0.9s1.1,1.3,1.1,2.2h-2.5c0-0.4-0.1-0.7-0.4-0.9c-0.2-0.2-0.6-0.4-1.1-0.4
		c-0.4,0-0.8,0.1-1,0.3s-0.4,0.4-0.4,0.7c0,0.3,0.1,0.5,0.4,0.7c0.3,0.2,0.7,0.3,1.3,0.4s1.2,0.3,1.6,0.4c1.3,0.5,2,1.3,2,2.6
		c0,0.9-0.4,1.6-1.1,2.1c-0.7,0.5-1.7,0.8-2.9,0.8c-0.8,0-1.5-0.1-2.1-0.4c-0.6-0.3-1.1-0.7-1.5-1.2c-0.4-0.5-0.5-1-0.5-1.6h2.4
		c0,0.5,0.2,0.8,0.5,1s0.7,0.4,1.2,0.4c0.5,0,0.9-0.1,1.1-0.3C713.9,265.2,714,265,714,264.7z"/>
</g>
<g class="st7">
	<path class="st8" d="M644,287.5c0-0.9,0.2-1.8,0.5-2.5s0.9-1.3,1.6-1.7s1.5-0.6,2.4-0.6c1.3,0,2.3,0.4,3.1,1.2s1.3,1.9,1.4,3.2
		l0,0.7c0,1.5-0.4,2.6-1.2,3.5s-1.9,1.3-3.3,1.3s-2.5-0.4-3.3-1.3s-1.2-2.1-1.2-3.6V287.5z M646.5,287.6c0,0.9,0.2,1.6,0.5,2.1
		c0.3,0.5,0.8,0.7,1.5,0.7c0.6,0,1.1-0.2,1.4-0.7c0.3-0.5,0.5-1.2,0.5-2.3c0-0.9-0.2-1.6-0.5-2.1s-0.8-0.7-1.5-0.7
		c-0.6,0-1.1,0.2-1.4,0.7C646.7,285.9,646.5,286.6,646.5,287.6z"/>
	<path class="st8" d="M663.1,287.6c0,1.5-0.3,2.7-1,3.6c-0.7,0.9-1.6,1.3-2.7,1.3c-1,0-1.9-0.4-2.5-1.2l-0.1,1h-2.3v-13.5h2.5v4.8
		c0.6-0.7,1.4-1,2.3-1c1.2,0,2.1,0.4,2.7,1.3c0.7,0.9,1,2.1,1,3.6V287.6z M660.6,287.5c0-1-0.2-1.7-0.5-2.1
		c-0.3-0.4-0.8-0.7-1.4-0.7c-0.8,0-1.4,0.3-1.7,1v3.8c0.3,0.7,0.9,1,1.7,1c0.8,0,1.4-0.4,1.6-1.2
		C660.5,288.8,660.6,288.2,660.6,287.5z"/>
	<path class="st8" d="M667.4,282.8v10c0,1-0.3,1.9-0.8,2.4c-0.6,0.6-1.4,0.9-2.4,0.9c-0.4,0-0.9,0-1.3-0.1v-2
		c0.3,0.1,0.6,0.1,0.8,0.1c0.8,0,1.2-0.4,1.2-1.2v-10H667.4z M664.6,280.3c0-0.4,0.1-0.7,0.4-0.9s0.6-0.4,1-0.4s0.8,0.1,1,0.4
		s0.4,0.6,0.4,0.9c0,0.4-0.1,0.7-0.4,0.9s-0.6,0.4-1,0.4s-0.8-0.1-1-0.4S664.6,280.7,664.6,280.3z"/>
	<path class="st8" d="M673.7,292.5c-1.4,0-2.5-0.4-3.4-1.3s-1.3-2-1.3-3.4v-0.2c0-1,0.2-1.8,0.6-2.6s0.9-1.3,1.6-1.7
		s1.4-0.6,2.3-0.6c1.3,0,2.3,0.4,3.1,1.2s1.1,2,1.1,3.5v1h-6.1c0.1,0.6,0.3,1.1,0.7,1.5s0.9,0.6,1.6,0.6c1,0,1.7-0.4,2.3-1.1
		l1.2,1.4c-0.4,0.5-0.9,1-1.5,1.3C675.3,292.3,674.5,292.5,673.7,292.5z M673.5,284.7c-0.5,0-0.9,0.2-1.2,0.5
		c-0.3,0.3-0.5,0.8-0.6,1.5h3.5v-0.2c0-0.6-0.2-1-0.5-1.3C674.4,284.8,674,284.7,673.5,284.7z"/>
	<path class="st8" d="M682.1,280.5v2.3h1.6v1.9h-1.6v4.7c0,0.4,0.1,0.6,0.2,0.8s0.4,0.2,0.8,0.2c0.3,0,0.5,0,0.7-0.1v1.9
		c-0.5,0.2-1,0.2-1.5,0.2c-1.8,0-2.7-0.9-2.7-2.7v-5.1h-1.4v-1.9h1.4v-2.3H682.1z"/>
	<path class="st8" d="M685.2,280.3c0-0.4,0.1-0.7,0.4-0.9s0.6-0.4,1-0.4c0.4,0,0.8,0.1,1,0.4s0.4,0.6,0.4,0.9c0,0.4-0.1,0.7-0.4,0.9
		s-0.6,0.4-1,0.4s-0.8-0.1-1-0.4S685.2,280.7,685.2,280.3z M687.9,292.3h-2.5v-9.5h2.5V292.3z"/>
	<path class="st8" d="M693.5,289.2l1.8-6.4h2.7l-3.2,9.5h-2.4l-3.2-9.5h2.7L693.5,289.2z"/>
	<path class="st8" d="M698.5,287.5c0-0.9,0.2-1.8,0.5-2.5s0.9-1.3,1.6-1.7s1.5-0.6,2.4-0.6c1.3,0,2.3,0.4,3.1,1.2s1.3,1.9,1.4,3.2
		l0,0.7c0,1.5-0.4,2.6-1.2,3.5s-1.9,1.3-3.3,1.3s-2.5-0.4-3.3-1.3s-1.2-2.1-1.2-3.6V287.5z M701.1,287.6c0,0.9,0.2,1.6,0.5,2.1
		c0.3,0.5,0.8,0.7,1.5,0.7c0.6,0,1.1-0.2,1.4-0.7c0.3-0.5,0.5-1.2,0.5-2.3c0-0.9-0.2-1.6-0.5-2.1s-0.8-0.7-1.5-0.7
		c-0.6,0-1.1,0.2-1.4,0.7C701.2,285.9,701.1,286.6,701.1,287.6z"/>
	<path class="st8" d="M714.2,289.7c0-0.3-0.2-0.6-0.5-0.7s-0.8-0.3-1.5-0.5c-2.3-0.5-3.4-1.4-3.4-2.9c0-0.8,0.4-1.5,1.1-2.1
		c0.7-0.6,1.6-0.8,2.7-0.8c1.2,0,2.2,0.3,2.9,0.9s1.1,1.3,1.1,2.2h-2.5c0-0.4-0.1-0.7-0.4-0.9c-0.2-0.2-0.6-0.4-1.1-0.4
		c-0.4,0-0.8,0.1-1,0.3s-0.4,0.4-0.4,0.7c0,0.3,0.1,0.5,0.4,0.7c0.3,0.2,0.7,0.3,1.3,0.4s1.2,0.3,1.6,0.4c1.3,0.5,2,1.3,2,2.6
		c0,0.9-0.4,1.6-1.1,2.1c-0.7,0.5-1.7,0.8-2.9,0.8c-0.8,0-1.5-0.1-2.1-0.4c-0.6-0.3-1.1-0.7-1.5-1.2c-0.4-0.5-0.5-1-0.5-1.6h2.4
		c0,0.5,0.2,0.8,0.5,1s0.7,0.4,1.2,0.4c0.5,0,0.9-0.1,1.1-0.3C714.1,290.2,714.2,290,714.2,289.7z"/>
</g>
<g transform="translate(835 2592.406)" class="st9">
	<g transform="translate(0)">
		
			<linearGradient id="SVGID_1_" gradientUnits="userSpaceOnUse" x1="-1345.0574" y1="-1751.8364" x2="-1345.0814" y2="-1750.8704" gradientTransform="matrix(361.12 0 0 -165.34 485530.2188 -291870.5312)">
			<stop  offset="0" style="stop-color:#5153FA"/>
			<stop  offset="1" style="stop-color:#4344DC"/>
		</linearGradient>
		<path class="st10" d="M-122.8-2221.4h-166.1c-32.5-54.6-65.1-110.2-97.5-165.3h361.1C-57.8-2331.6-90.3-2276-122.8-2221.4z"/>
		
			<linearGradient id="SVGID_2_" gradientUnits="userSpaceOnUse" x1="-1345.1694" y1="-1766.1783" x2="-1345.1694" y2="-1757.3604" gradientTransform="matrix(384.806 0 0 -15.157 517423.625 -29147.7461)">
			<stop  offset="0" style="stop-color:#5153FA"/>
			<stop  offset="1" style="stop-color:#4344DC"/>
		</linearGradient>
		<path class="st11" d="M-395.2-2395h379.1c1.6,0,2.9,1.3,2.9,2.9v9.4c0,1.6-1.3,2.9-2.9,2.9h-379.1c-1.6,0-2.9-1.3-2.9-2.9v-9.4
			C-398-2393.7-396.8-2395-395.2-2395z"/>
		
			<linearGradient id="SVGID_3_" gradientUnits="userSpaceOnUse" x1="-1343.2228" y1="-1752.9921" x2="-1343.2468" y2="-1754.1211" gradientTransform="matrix(156.516 0 0 -61.287 210031.125 -109693.1172)">
			<stop  offset="0" style="stop-color:#5153FA"/>
			<stop  offset="1" style="stop-color:#4344DC"/>
		</linearGradient>
		<path class="st12" d="M-139-2179h-133.3c-3.9-19.4-7.7-40.9-11.6-61.3h156.5C-131.2-2219.8-135.1-2198.4-139-2179z"/>
	</g>
	
		<linearGradient id="SVGID_4_" gradientUnits="userSpaceOnUse" x1="-1343.2264" y1="-1766.951" x2="-1343.2264" y2="-1772.8501" gradientTransform="matrix(156.405 0 0 -13.783 209881.0156 -26528.1035)">
		<stop  offset="0" style="stop-color:#5153FA"/>
		<stop  offset="1" style="stop-color:#4344DC"/>
	</linearGradient>
	<path class="st13" d="M-128.1-2170.1c0,3-1.8,4.8-4,4.8h-148.6c-2.2,0-3.8-1.9-3.8-4.8v-3.3c0-3,1.7-5.6,3.8-5.6h148.6
		c2.2,0,4,2.7,4,5.6L-128.1-2170.1z"/>
</g>
<g transform="translate(-403 117.552)">
	<g transform="translate(0 -26)">
		<path class="st4" d="M758.9-35.2c3.2,3,3.3,8.1,0.3,11.3c-0.1,0.1-0.2,0.2-0.3,0.3L717,16.1c-3.2,3-8.3,2.9-11.3-0.3
			c-1.4-1.5-2.2-3.5-2.2-5.5V-69c0-4.4,3.6-8,8-8c2,0,4,0.8,5.5,2.2L758.9-35.2z"/>
		<path class="st4" d="M421-57.1h287.3c9.9,0,18,8.1,18,18v16.6c0,9.9-8.1,18-18,18H421c-9.9,0-18-8.1-18-18v-16.6
			C403-49.1,411.1-57.1,421-57.1z"/>
		<g class="st7">
			<path class="st8" d="M444.5-28h-4.6l-0.9,2.6h-2.8l4.8-12.8h2.4l4.8,12.8h-2.8L444.5-28z M440.6-30.1h3.2l-1.6-4.8L440.6-30.1z"
				/>
			<path class="st8" d="M451.1-34.9l0.1,1.1c0.7-0.8,1.6-1.3,2.7-1.3c1,0,1.8,0.3,2.2,0.9s0.7,1.5,0.8,2.7v6.1h-2.5v-6.1
				c0-0.5-0.1-0.9-0.4-1.2c-0.2-0.2-0.6-0.4-1.2-0.4c-0.7,0-1.3,0.3-1.6,0.9v6.7h-2.5v-9.5H451.1z"/>
			<path class="st8" d="M461.9-37.2v2.3h1.6v1.9h-1.6v4.7c0,0.4,0.1,0.6,0.2,0.8s0.4,0.2,0.8,0.2c0.3,0,0.5,0,0.7-0.1v1.9
				c-0.5,0.2-1,0.2-1.5,0.2c-1.8,0-2.7-0.9-2.7-2.7V-33H458v-1.9h1.4v-2.3H461.9z"/>
			<path class="st8" d="M469.3-25.2c-1.4,0-2.5-0.4-3.4-1.3s-1.3-2-1.3-3.4v-0.2c0-1,0.2-1.8,0.6-2.6s0.9-1.3,1.6-1.7
				s1.4-0.6,2.3-0.6c1.3,0,2.3,0.4,3.1,1.2s1.1,2,1.1,3.5v1h-6.1c0.1,0.6,0.3,1.1,0.7,1.5s0.9,0.6,1.6,0.6c1,0,1.7-0.4,2.3-1.1
				l1.2,1.4c-0.4,0.5-0.9,1-1.5,1.3C470.9-25.3,470.1-25.2,469.3-25.2z M469-33c-0.5,0-0.9,0.2-1.2,0.5c-0.3,0.3-0.5,0.8-0.6,1.5
				h3.5v-0.2c0-0.6-0.2-1-0.5-1.3C470-32.8,469.6-33,469-33z"/>
			<path class="st8" d="M479.8-28c0-0.3-0.2-0.6-0.5-0.7s-0.8-0.3-1.5-0.5c-2.3-0.5-3.4-1.4-3.4-2.9c0-0.8,0.4-1.5,1.1-2.1
				c0.7-0.6,1.6-0.8,2.7-0.8c1.2,0,2.2,0.3,2.9,0.9s1.1,1.3,1.1,2.2h-2.5c0-0.4-0.1-0.7-0.4-0.9c-0.2-0.2-0.6-0.4-1.1-0.4
				c-0.4,0-0.8,0.1-1,0.3s-0.4,0.4-0.4,0.7c0,0.3,0.1,0.5,0.4,0.7c0.3,0.2,0.7,0.3,1.3,0.4s1.2,0.3,1.6,0.4c1.3,0.5,2,1.3,2,2.6
				c0,0.9-0.4,1.6-1.1,2.1c-0.7,0.5-1.7,0.8-2.9,0.8c-0.8,0-1.5-0.1-2.1-0.4c-0.6-0.3-1.1-0.7-1.5-1.2c-0.4-0.5-0.5-1-0.5-1.6h2.4
				c0,0.5,0.2,0.8,0.5,1s0.7,0.4,1.2,0.4c0.5,0,0.9-0.1,1.1-0.3C479.7-27.4,479.8-27.7,479.8-28z"/>
			<path class="st8" d="M488-30.2c0-1.5,0.3-2.7,1-3.5s1.6-1.3,2.7-1.3c0.9,0,1.7,0.3,2.3,1v-4.9h2.5v13.5h-2.3l-0.1-1
				c-0.6,0.8-1.4,1.2-2.4,1.2c-1.1,0-2-0.4-2.7-1.3S488-28.6,488-30.2z M490.6-30c0,0.9,0.2,1.6,0.5,2.1s0.8,0.7,1.4,0.7
				c0.8,0,1.3-0.3,1.7-1V-32c-0.3-0.7-0.9-1-1.6-1C491.2-33,490.6-32,490.6-30z"/>
			<path class="st8" d="M502.9-25.2c-1.4,0-2.5-0.4-3.4-1.3s-1.3-2-1.3-3.4v-0.2c0-1,0.2-1.8,0.6-2.6s0.9-1.3,1.6-1.7
				s1.4-0.6,2.3-0.6c1.3,0,2.3,0.4,3.1,1.2s1.1,2,1.1,3.5v1h-6.1c0.1,0.6,0.3,1.1,0.7,1.5s0.9,0.6,1.6,0.6c1,0,1.7-0.4,2.3-1.1
				l1.2,1.4c-0.4,0.5-0.9,1-1.5,1.3C504.5-25.3,503.7-25.2,502.9-25.2z M502.7-33c-0.5,0-0.9,0.2-1.2,0.5c-0.3,0.3-0.5,0.8-0.6,1.5
				h3.5v-0.2c0-0.6-0.2-1-0.5-1.3C503.6-32.8,503.2-33,502.7-33z"/>
			<path class="st8" d="M515.5-25.4h-2.5v-13.5h2.5V-25.4z"/>
			<path class="st8" d="M523.1-25.4c-0.1-0.2-0.2-0.5-0.3-0.9c-0.6,0.7-1.4,1-2.4,1c-0.9,0-1.7-0.3-2.3-0.8s-0.9-1.2-0.9-2
				c0-1,0.4-1.8,1.1-2.3s1.8-0.8,3.2-0.8h1.2v-0.5c0-0.4-0.1-0.8-0.3-1.1s-0.6-0.4-1.1-0.4c-0.4,0-0.8,0.1-1,0.3s-0.4,0.5-0.4,0.8
				h-2.5c0-0.6,0.2-1.1,0.5-1.5s0.8-0.8,1.4-1.1s1.3-0.4,2.1-0.4c1.2,0,2.1,0.3,2.8,0.9c0.7,0.6,1,1.4,1,2.5v4.1
				c0,0.9,0.1,1.6,0.4,2v0.1H523.1z M521-27.1c0.4,0,0.7-0.1,1-0.3c0.3-0.2,0.6-0.4,0.7-0.7v-1.6h-0.9c-1.3,0-1.9,0.4-2,1.3l0,0.1
				c0,0.3,0.1,0.6,0.3,0.8S520.6-27.1,521-27.1z"/>
			<path class="st8" d="M534-34.9l0.1,1.1c0.7-0.8,1.6-1.3,2.7-1.3c1,0,1.8,0.3,2.2,0.9s0.7,1.5,0.8,2.7v6.1h-2.5v-6.1
				c0-0.5-0.1-0.9-0.4-1.2c-0.2-0.2-0.6-0.4-1.2-0.4c-0.7,0-1.3,0.3-1.6,0.9v6.7h-2.5v-9.5H534z"/>
			<path class="st8" d="M546.1-25.2c-1.4,0-2.5-0.4-3.4-1.3s-1.3-2-1.3-3.4v-0.2c0-1,0.2-1.8,0.6-2.6s0.9-1.3,1.6-1.7
				s1.4-0.6,2.3-0.6c1.3,0,2.3,0.4,3.1,1.2s1.1,2,1.1,3.5v1H544c0.1,0.6,0.3,1.1,0.7,1.5s0.9,0.6,1.6,0.6c1,0,1.7-0.4,2.3-1.1
				l1.2,1.4c-0.4,0.5-0.9,1-1.5,1.3C547.7-25.3,546.9-25.2,546.1-25.2z M545.9-33c-0.5,0-0.9,0.2-1.2,0.5c-0.3,0.3-0.5,0.8-0.6,1.5
				h3.5v-0.2c0-0.6-0.2-1-0.5-1.3C546.8-32.8,546.4-33,545.9-33z"/>
			<path class="st8" d="M551.1-30.2c0-1.5,0.3-2.6,1-3.5s1.6-1.3,2.8-1.3c1,0,1.9,0.4,2.4,1.1l0.1-0.9h2.3v9.2
				c0,0.8-0.2,1.6-0.6,2.2s-0.9,1.1-1.6,1.4s-1.5,0.5-2.4,0.5c-0.7,0-1.4-0.1-2-0.4s-1.2-0.6-1.5-1.1l1.1-1.5
				c0.6,0.7,1.4,1.1,2.3,1.1c0.7,0,1.2-0.2,1.6-0.5c0.4-0.4,0.6-0.9,0.6-1.5v-0.5c-0.6,0.7-1.4,1-2.3,1c-1.1,0-2.1-0.4-2.8-1.3
				s-1.1-2.1-1.1-3.6V-30.2z M553.7-30c0,0.9,0.2,1.5,0.5,2c0.3,0.5,0.8,0.7,1.4,0.7c0.8,0,1.3-0.3,1.7-0.9v-4
				c-0.3-0.6-0.9-0.9-1.6-0.9c-0.6,0-1.1,0.2-1.4,0.7C553.8-31.7,553.7-31,553.7-30z"/>
			<path class="st8" d="M561.4-30.2c0-0.9,0.2-1.8,0.5-2.5s0.9-1.3,1.6-1.7s1.5-0.6,2.4-0.6c1.3,0,2.3,0.4,3.1,1.2s1.3,1.9,1.4,3.2
				l0,0.7c0,1.5-0.4,2.6-1.2,3.5s-1.9,1.3-3.3,1.3s-2.5-0.4-3.3-1.3s-1.2-2.1-1.2-3.6V-30.2z M563.9-30c0,0.9,0.2,1.6,0.5,2.1
				c0.3,0.5,0.8,0.7,1.5,0.7c0.6,0,1.1-0.2,1.4-0.7c0.3-0.5,0.5-1.2,0.5-2.3c0-0.9-0.2-1.6-0.5-2.1s-0.8-0.7-1.5-0.7
				c-0.6,0-1.1,0.2-1.4,0.7C564.1-31.8,563.9-31,563.9-30z"/>
			<path class="st8" d="M575.9-27.2c0.5,0,0.8-0.1,1.1-0.4s0.4-0.6,0.5-1h2.4c0,0.6-0.2,1.2-0.5,1.8c-0.3,0.5-0.8,1-1.4,1.2
				c-0.6,0.3-1.3,0.4-2,0.4c-1.4,0-2.4-0.4-3.2-1.3c-0.8-0.9-1.2-2.1-1.2-3.6v-0.2c0-1.5,0.4-2.6,1.2-3.5s1.8-1.3,3.2-1.3
				c1.2,0,2.1,0.3,2.9,1c0.7,0.7,1.1,1.6,1.1,2.7h-2.4c0-0.5-0.2-0.9-0.5-1.2s-0.7-0.5-1.2-0.5c-0.6,0-1,0.2-1.3,0.6
				c-0.3,0.4-0.5,1.1-0.5,2.1v0.3c0,1,0.1,1.7,0.4,2.1S575.3-27.2,575.9-27.2z"/>
			<path class="st8" d="M581.3-37.3c0-0.4,0.1-0.7,0.4-0.9s0.6-0.4,1-0.4c0.4,0,0.8,0.1,1,0.4s0.4,0.6,0.4,0.9
				c0,0.4-0.1,0.7-0.4,0.9s-0.6,0.4-1,0.4s-0.8-0.1-1-0.4S581.3-36.9,581.3-37.3z M584-25.4h-2.5v-9.5h2.5V-25.4z"/>
			<path class="st8" d="M591.6-25.4c-0.1-0.2-0.2-0.5-0.3-0.9c-0.6,0.7-1.4,1-2.4,1c-0.9,0-1.7-0.3-2.3-0.8s-0.9-1.2-0.9-2
				c0-1,0.4-1.8,1.1-2.3s1.8-0.8,3.2-0.8h1.2v-0.5c0-0.4-0.1-0.8-0.3-1.1s-0.6-0.4-1.1-0.4c-0.4,0-0.8,0.1-1,0.3s-0.4,0.5-0.4,0.8
				h-2.5c0-0.6,0.2-1.1,0.5-1.5s0.8-0.8,1.4-1.1s1.3-0.4,2.1-0.4c1.2,0,2.1,0.3,2.8,0.9c0.7,0.6,1,1.4,1,2.5v4.1
				c0,0.9,0.1,1.6,0.4,2v0.1H591.6z M589.5-27.1c0.4,0,0.7-0.1,1-0.3c0.3-0.2,0.6-0.4,0.7-0.7v-1.6h-0.9c-1.3,0-1.9,0.4-2,1.3l0,0.1
				c0,0.3,0.1,0.6,0.3,0.8S589.1-27.1,589.5-27.1z"/>
			<path class="st8" d="M599.7-27.2c0.5,0,0.8-0.1,1.1-0.4s0.4-0.6,0.5-1h2.4c0,0.6-0.2,1.2-0.5,1.8c-0.3,0.5-0.8,1-1.4,1.2
				c-0.6,0.3-1.3,0.4-2,0.4c-1.4,0-2.4-0.4-3.2-1.3c-0.8-0.9-1.2-2.1-1.2-3.6v-0.2c0-1.5,0.4-2.6,1.2-3.5s1.8-1.3,3.2-1.3
				c1.2,0,2.1,0.3,2.9,1c0.7,0.7,1.1,1.6,1.1,2.7h-2.4c0-0.5-0.2-0.9-0.5-1.2s-0.7-0.5-1.2-0.5c-0.6,0-1,0.2-1.3,0.6
				c-0.3,0.4-0.5,1.1-0.5,2.1v0.3c0,1,0.1,1.7,0.4,2.1S599.1-27.2,599.7-27.2z"/>
			<path class="st8" d="M605.1-37.3c0-0.4,0.1-0.7,0.4-0.9s0.6-0.4,1-0.4c0.4,0,0.8,0.1,1,0.4s0.4,0.6,0.4,0.9
				c0,0.4-0.1,0.7-0.4,0.9s-0.6,0.4-1,0.4s-0.8-0.1-1-0.4S605.1-36.9,605.1-37.3z M607.8-25.4h-2.5v-9.5h2.5V-25.4z"/>
			<path class="st8" d="M609.5-30.2c0-0.9,0.2-1.8,0.5-2.5s0.9-1.3,1.6-1.7s1.5-0.6,2.4-0.6c1.3,0,2.3,0.4,3.1,1.2s1.3,1.9,1.4,3.2
				l0,0.7c0,1.5-0.4,2.6-1.2,3.5s-1.9,1.3-3.3,1.3s-2.5-0.4-3.3-1.3s-1.2-2.1-1.2-3.6V-30.2z M612.1-30c0,0.9,0.2,1.6,0.5,2.1
				c0.3,0.5,0.8,0.7,1.5,0.7c0.6,0,1.1-0.2,1.4-0.7c0.3-0.5,0.5-1.2,0.5-2.3c0-0.9-0.2-1.6-0.5-2.1S614.6-33,614-33
				c-0.6,0-1.1,0.2-1.4,0.7C612.2-31.8,612.1-31,612.1-30z M614.5-38.9h2.8l-2.4,2.7h-2.1L614.5-38.9z"/>
			<path class="st8" d="M622.4-34.9l0.1,1.1c0.7-0.8,1.6-1.3,2.7-1.3c1,0,1.8,0.3,2.2,0.9s0.7,1.5,0.8,2.7v6.1h-2.5v-6.1
				c0-0.5-0.1-0.9-0.4-1.2c-0.2-0.2-0.6-0.4-1.2-0.4c-0.7,0-1.3,0.3-1.6,0.9v6.7H620v-9.5H622.4z"/>
		</g>
	</g>
</g>
<g transform="translate(-403 338.347)">
	<g transform="translate(0 -26)">
		<path class="st4" d="M758.9-35.2c3.2,3,3.3,8.1,0.3,11.3c-0.1,0.1-0.2,0.2-0.3,0.3L717,16.1c-3.2,3-8.3,2.9-11.3-0.3
			c-1.4-1.5-2.2-3.5-2.2-5.5V-69c0-4.4,3.6-8,8-8c2,0,4,0.8,5.5,2.2L758.9-35.2z"/>
		<path class="st4" d="M421-57.1h287.3c9.9,0,18,8.1,18,18v16.6c0,9.9-8.1,18-18,18H421c-9.9,0-18-8.1-18-18v-16.6
			C403-49.1,411.1-57.1,421-57.1z"/>
		<g class="st7">
			<path class="st8" d="M437.3-25.4v-12.8h3.9c1.1,0,2.1,0.3,3,0.8c0.9,0.5,1.6,1.2,2.1,2.2c0.5,0.9,0.7,2,0.7,3.2v0.6
				c0,1.2-0.2,2.2-0.7,3.2s-1.2,1.6-2.1,2.2s-1.9,0.8-3,0.8H437.3z M439.9-36v8.5h1.3c1,0,1.8-0.3,2.4-1s0.8-1.6,0.8-2.9v-0.7
				c0-1.3-0.3-2.3-0.8-3s-1.3-1-2.4-1H439.9z"/>
			<path class="st8" d="M454.5-26.3c-0.6,0.8-1.5,1.1-2.6,1.1c-1,0-1.8-0.3-2.3-0.9s-0.8-1.4-0.8-2.6v-6.2h2.5v6.2
				c0,1,0.5,1.5,1.4,1.5c0.9,0,1.5-0.3,1.8-0.9v-6.7h2.5v9.5h-2.4L454.5-26.3z"/>
			<path class="st8" d="M464.2-32.5c-0.3,0-0.7-0.1-0.9-0.1c-1,0-1.6,0.3-1.9,1v6.2h-2.5v-9.5h2.4l0.1,1.1c0.5-0.9,1.2-1.3,2.1-1.3
				c0.3,0,0.5,0,0.8,0.1L464.2-32.5z"/>
			<path class="st8" d="M470.7-25.4c-0.1-0.2-0.2-0.5-0.3-0.9c-0.6,0.7-1.4,1-2.4,1c-0.9,0-1.7-0.3-2.3-0.8s-0.9-1.2-0.9-2
				c0-1,0.4-1.8,1.1-2.3s1.8-0.8,3.2-0.8h1.2v-0.5c0-0.4-0.1-0.8-0.3-1.1s-0.6-0.4-1.1-0.4c-0.4,0-0.8,0.1-1,0.3s-0.4,0.5-0.4,0.8
				H465c0-0.6,0.2-1.1,0.5-1.5s0.8-0.8,1.4-1.1s1.3-0.4,2.1-0.4c1.2,0,2.1,0.3,2.8,0.9c0.7,0.6,1,1.4,1,2.5v4.1c0,0.9,0.1,1.6,0.4,2
				v0.1H470.7z M468.6-27.1c0.4,0,0.7-0.1,1-0.3c0.3-0.2,0.6-0.4,0.7-0.7v-1.6h-0.9c-1.3,0-1.9,0.4-2,1.3l0,0.1
				c0,0.3,0.1,0.6,0.3,0.8S468.2-27.1,468.6-27.1z"/>
			<path class="st8" d="M477.2-34.9l0.1,1.1c0.7-0.8,1.6-1.3,2.7-1.3c1,0,1.8,0.3,2.2,0.9s0.7,1.5,0.8,2.7v6.1h-2.5v-6.1
				c0-0.5-0.1-0.9-0.4-1.2c-0.2-0.2-0.6-0.4-1.2-0.4c-0.7,0-1.3,0.3-1.6,0.9v6.7h-2.5v-9.5H477.2z"/>
			<path class="st8" d="M488-37.2v2.3h1.6v1.9H488v4.7c0,0.4,0.1,0.6,0.2,0.8s0.4,0.2,0.8,0.2c0.3,0,0.5,0,0.7-0.1v1.9
				c-0.5,0.2-1,0.2-1.5,0.2c-1.8,0-2.7-0.9-2.7-2.7V-33H484v-1.9h1.4v-2.3H488z"/>
			<path class="st8" d="M495.4-25.2c-1.4,0-2.5-0.4-3.4-1.3s-1.3-2-1.3-3.4v-0.2c0-1,0.2-1.8,0.6-2.6s0.9-1.3,1.6-1.7
				s1.4-0.6,2.3-0.6c1.3,0,2.3,0.4,3.1,1.2s1.1,2,1.1,3.5v1h-6.1c0.1,0.6,0.3,1.1,0.7,1.5s0.9,0.6,1.6,0.6c1,0,1.7-0.4,2.3-1.1
				l1.2,1.4c-0.4,0.5-0.9,1-1.5,1.3C496.9-25.3,496.2-25.2,495.4-25.2z M495.1-33c-0.5,0-0.9,0.2-1.2,0.5c-0.3,0.3-0.5,0.8-0.6,1.5
				h3.5v-0.2c0-0.6-0.2-1-0.5-1.3C496-32.8,495.6-33,495.1-33z"/>
			<path class="st8" d="M507.9-25.4h-2.5v-13.5h2.5V-25.4z"/>
			<path class="st8" d="M515.5-25.4c-0.1-0.2-0.2-0.5-0.3-0.9c-0.6,0.7-1.4,1-2.4,1c-0.9,0-1.7-0.3-2.3-0.8s-0.9-1.2-0.9-2
				c0-1,0.4-1.8,1.1-2.3s1.8-0.8,3.2-0.8h1.2v-0.5c0-0.4-0.1-0.8-0.3-1.1s-0.6-0.4-1.1-0.4c-0.4,0-0.8,0.1-1,0.3s-0.4,0.5-0.4,0.8
				h-2.5c0-0.6,0.2-1.1,0.5-1.5s0.8-0.8,1.4-1.1s1.3-0.4,2.1-0.4c1.2,0,2.1,0.3,2.8,0.9c0.7,0.6,1,1.4,1,2.5v4.1
				c0,0.9,0.1,1.6,0.4,2v0.1H515.5z M513.4-27.1c0.4,0,0.7-0.1,1-0.3c0.3-0.2,0.6-0.4,0.7-0.7v-1.6h-0.9c-1.3,0-1.9,0.4-2,1.3l0,0.1
				c0,0.3,0.1,0.6,0.3,0.8S513-27.1,513.4-27.1z"/>
			<path class="st8" d="M526.5-34.9l0.1,1.1c0.7-0.8,1.6-1.3,2.7-1.3c1,0,1.8,0.3,2.2,0.9s0.7,1.5,0.8,2.7v6.1h-2.5v-6.1
				c0-0.5-0.1-0.9-0.4-1.2c-0.2-0.2-0.6-0.4-1.2-0.4c-0.7,0-1.3,0.3-1.6,0.9v6.7h-2.5v-9.5H526.5z"/>
			<path class="st8" d="M538.6-25.2c-1.4,0-2.5-0.4-3.4-1.3s-1.3-2-1.3-3.4v-0.2c0-1,0.2-1.8,0.6-2.6s0.9-1.3,1.6-1.7
				s1.4-0.6,2.3-0.6c1.3,0,2.3,0.4,3.1,1.2s1.1,2,1.1,3.5v1h-6.1c0.1,0.6,0.3,1.1,0.7,1.5s0.9,0.6,1.6,0.6c1,0,1.7-0.4,2.3-1.1
				l1.2,1.4c-0.4,0.5-0.9,1-1.5,1.3C540.1-25.3,539.4-25.2,538.6-25.2z M538.3-33c-0.5,0-0.9,0.2-1.2,0.5c-0.3,0.3-0.5,0.8-0.6,1.5
				h3.5v-0.2c0-0.6-0.2-1-0.5-1.3C539.2-32.8,538.8-33,538.3-33z"/>
			<path class="st8" d="M543.6-30.2c0-1.5,0.3-2.6,1-3.5s1.6-1.3,2.8-1.3c1,0,1.9,0.4,2.4,1.1l0.1-0.9h2.3v9.2
				c0,0.8-0.2,1.6-0.6,2.2s-0.9,1.1-1.6,1.4s-1.5,0.5-2.4,0.5c-0.7,0-1.4-0.1-2-0.4s-1.2-0.6-1.5-1.1l1.1-1.5
				c0.6,0.7,1.4,1.1,2.3,1.1c0.7,0,1.2-0.2,1.6-0.5c0.4-0.4,0.6-0.9,0.6-1.5v-0.5c-0.6,0.7-1.4,1-2.3,1c-1.1,0-2.1-0.4-2.8-1.3
				s-1.1-2.1-1.1-3.6V-30.2z M546.1-30c0,0.9,0.2,1.5,0.5,2c0.3,0.5,0.8,0.7,1.4,0.7c0.8,0,1.3-0.3,1.7-0.9v-4
				c-0.3-0.6-0.9-0.9-1.6-0.9c-0.6,0-1.1,0.2-1.4,0.7C546.3-31.7,546.1-31,546.1-30z"/>
			<path class="st8" d="M553.8-30.2c0-0.9,0.2-1.8,0.5-2.5s0.9-1.3,1.6-1.7s1.5-0.6,2.4-0.6c1.3,0,2.3,0.4,3.1,1.2s1.3,1.9,1.4,3.2
				l0,0.7c0,1.5-0.4,2.6-1.2,3.5s-1.9,1.3-3.3,1.3s-2.5-0.4-3.3-1.3s-1.2-2.1-1.2-3.6V-30.2z M556.3-30c0,0.9,0.2,1.6,0.5,2.1
				c0.3,0.5,0.8,0.7,1.5,0.7c0.6,0,1.1-0.2,1.4-0.7c0.3-0.5,0.5-1.2,0.5-2.3c0-0.9-0.2-1.6-0.5-2.1s-0.8-0.7-1.5-0.7
				c-0.6,0-1.1,0.2-1.4,0.7C556.5-31.8,556.3-31,556.3-30z"/>
			<path class="st8" d="M568.3-27.2c0.5,0,0.8-0.1,1.1-0.4s0.4-0.6,0.5-1h2.4c0,0.6-0.2,1.2-0.5,1.8c-0.3,0.5-0.8,1-1.4,1.2
				c-0.6,0.3-1.3,0.4-2,0.4c-1.4,0-2.4-0.4-3.2-1.3c-0.8-0.9-1.2-2.1-1.2-3.6v-0.2c0-1.5,0.4-2.6,1.2-3.5s1.8-1.3,3.2-1.3
				c1.2,0,2.1,0.3,2.9,1c0.7,0.7,1.1,1.6,1.1,2.7h-2.4c0-0.5-0.2-0.9-0.5-1.2s-0.7-0.5-1.2-0.5c-0.6,0-1,0.2-1.3,0.6
				c-0.3,0.4-0.5,1.1-0.5,2.1v0.3c0,1,0.1,1.7,0.4,2.1S567.7-27.2,568.3-27.2z"/>
			<path class="st8" d="M573.7-37.3c0-0.4,0.1-0.7,0.4-0.9s0.6-0.4,1-0.4c0.4,0,0.8,0.1,1,0.4s0.4,0.6,0.4,0.9
				c0,0.4-0.1,0.7-0.4,0.9s-0.6,0.4-1,0.4s-0.8-0.1-1-0.4S573.7-36.9,573.7-37.3z M576.4-25.4h-2.5v-9.5h2.5V-25.4z"/>
			<path class="st8" d="M584-25.4c-0.1-0.2-0.2-0.5-0.3-0.9c-0.6,0.7-1.4,1-2.4,1c-0.9,0-1.7-0.3-2.3-0.8s-0.9-1.2-0.9-2
				c0-1,0.4-1.8,1.1-2.3s1.8-0.8,3.2-0.8h1.2v-0.5c0-0.4-0.1-0.8-0.3-1.1s-0.6-0.4-1.1-0.4c-0.4,0-0.8,0.1-1,0.3s-0.4,0.5-0.4,0.8
				h-2.5c0-0.6,0.2-1.1,0.5-1.5s0.8-0.8,1.4-1.1s1.3-0.4,2.1-0.4c1.2,0,2.1,0.3,2.8,0.9c0.7,0.6,1,1.4,1,2.5v4.1
				c0,0.9,0.1,1.6,0.4,2v0.1H584z M581.9-27.1c0.4,0,0.7-0.1,1-0.3c0.3-0.2,0.6-0.4,0.7-0.7v-1.6h-0.9c-1.3,0-1.9,0.4-2,1.3l0,0.1
				c0,0.3,0.1,0.6,0.3,0.8S581.6-27.1,581.9-27.1z"/>
			<path class="st8" d="M592.1-27.2c0.5,0,0.8-0.1,1.1-0.4s0.4-0.6,0.5-1h2.4c0,0.6-0.2,1.2-0.5,1.8c-0.3,0.5-0.8,1-1.4,1.2
				c-0.6,0.3-1.3,0.4-2,0.4c-1.4,0-2.4-0.4-3.2-1.3c-0.8-0.9-1.2-2.1-1.2-3.6v-0.2c0-1.5,0.4-2.6,1.2-3.5s1.8-1.3,3.2-1.3
				c1.2,0,2.1,0.3,2.9,1c0.7,0.7,1.1,1.6,1.1,2.7h-2.4c0-0.5-0.2-0.9-0.5-1.2s-0.7-0.5-1.2-0.5c-0.6,0-1,0.2-1.3,0.6
				c-0.3,0.4-0.5,1.1-0.5,2.1v0.3c0,1,0.1,1.7,0.4,2.1S591.5-27.2,592.1-27.2z"/>
			<path class="st8" d="M597.6-37.3c0-0.4,0.1-0.7,0.4-0.9s0.6-0.4,1-0.4c0.4,0,0.8,0.1,1,0.4s0.4,0.6,0.4,0.9
				c0,0.4-0.1,0.7-0.4,0.9s-0.6,0.4-1,0.4s-0.8-0.1-1-0.4S597.6-36.9,597.6-37.3z M600.3-25.4h-2.5v-9.5h2.5V-25.4z"/>
			<path class="st8" d="M601.9-30.2c0-0.9,0.2-1.8,0.5-2.5s0.9-1.3,1.6-1.7s1.5-0.6,2.4-0.6c1.3,0,2.3,0.4,3.1,1.2s1.3,1.9,1.4,3.2
				l0,0.7c0,1.5-0.4,2.6-1.2,3.5s-1.9,1.3-3.3,1.3s-2.5-0.4-3.3-1.3s-1.2-2.1-1.2-3.6V-30.2z M604.5-30c0,0.9,0.2,1.6,0.5,2.1
				c0.3,0.5,0.8,0.7,1.5,0.7c0.6,0,1.1-0.2,1.4-0.7c0.3-0.5,0.5-1.2,0.5-2.3c0-0.9-0.2-1.6-0.5-2.1s-0.8-0.7-1.5-0.7
				c-0.6,0-1.1,0.2-1.4,0.7C604.7-31.8,604.5-31,604.5-30z M606.9-38.9h2.8l-2.4,2.7h-2.1L606.9-38.9z"/>
			<path class="st8" d="M614.9-34.9l0.1,1.1c0.7-0.8,1.6-1.3,2.7-1.3c1,0,1.8,0.3,2.2,0.9s0.7,1.5,0.8,2.7v6.1h-2.5v-6.1
				c0-0.5-0.1-0.9-0.4-1.2c-0.2-0.2-0.6-0.4-1.2-0.4c-0.7,0-1.3,0.3-1.6,0.9v6.7h-2.5v-9.5H614.9z"/>
		</g>
	</g>
</g>
<g transform="translate(-403 600.844)">
	<g transform="translate(0 -26)">
		<path class="st4" d="M758.9-35.2c3.2,3,3.3,8.1,0.3,11.3c-0.1,0.1-0.2,0.2-0.3,0.3L717,16.1c-3.2,3-8.3,2.9-11.3-0.3
			c-1.4-1.5-2.2-3.5-2.2-5.5V-69c0-4.4,3.6-8,8-8c2,0,4,0.8,5.5,2.2L758.9-35.2z"/>
		<path class="st4" d="M421-57.1h287.3c9.9,0,18,8.1,18,18v16.6c0,9.9-8.1,18-18,18H421c-9.9,0-18-8.1-18-18v-16.6
			C403-49.1,411.1-57.1,421-57.1z"/>
		<g class="st7">
			<path class="st8" d="M442-30h-2.1v4.7h-2.6v-12.8h4.8c1.5,0,2.7,0.3,3.5,1s1.2,1.6,1.2,2.9c0,0.9-0.2,1.6-0.6,2.2
				c-0.4,0.6-1,1-1.7,1.4l2.8,5.2v0.1h-2.8L442-30z M439.9-32.2h2.1c0.7,0,1.2-0.2,1.5-0.5c0.4-0.3,0.5-0.8,0.5-1.4
				c0-0.6-0.2-1.1-0.5-1.4S442.7-36,442-36h-2.1V-32.2z"/>
			<path class="st8" d="M453-25.2c-1.4,0-2.5-0.4-3.4-1.3s-1.3-2-1.3-3.4v-0.2c0-1,0.2-1.8,0.6-2.6s0.9-1.3,1.6-1.7s1.4-0.6,2.3-0.6
				c1.3,0,2.3,0.4,3.1,1.2s1.1,2,1.1,3.5v1h-6.1c0.1,0.6,0.3,1.1,0.7,1.5s0.9,0.6,1.6,0.6c1,0,1.7-0.4,2.3-1.1l1.2,1.4
				c-0.4,0.5-0.9,1-1.5,1.3C454.5-25.3,453.8-25.2,453-25.2z M452.7-33c-0.5,0-0.9,0.2-1.2,0.5c-0.3,0.3-0.5,0.8-0.6,1.5h3.5v-0.2
				c0-0.6-0.2-1-0.5-1.3C453.6-32.8,453.2-33,452.7-33z"/>
			<path class="st8" d="M463.5-28c0-0.3-0.2-0.6-0.5-0.7s-0.8-0.3-1.5-0.5c-2.3-0.5-3.4-1.4-3.4-2.9c0-0.8,0.4-1.5,1.1-2.1
				c0.7-0.6,1.6-0.8,2.7-0.8c1.2,0,2.2,0.3,2.9,0.9s1.1,1.3,1.1,2.2h-2.5c0-0.4-0.1-0.7-0.4-0.9c-0.2-0.2-0.6-0.4-1.1-0.4
				c-0.4,0-0.8,0.1-1,0.3s-0.4,0.4-0.4,0.7c0,0.3,0.1,0.5,0.4,0.7c0.3,0.2,0.7,0.3,1.3,0.4s1.2,0.3,1.6,0.4c1.3,0.5,2,1.3,2,2.6
				c0,0.9-0.4,1.6-1.1,2.1c-0.7,0.5-1.7,0.8-2.9,0.8c-0.8,0-1.5-0.1-2.1-0.4c-0.6-0.3-1.1-0.7-1.5-1.2c-0.4-0.5-0.5-1-0.5-1.6h2.4
				c0,0.5,0.2,0.8,0.5,1s0.7,0.4,1.2,0.4c0.5,0,0.9-0.1,1.1-0.3C463.4-27.4,463.5-27.7,463.5-28z"/>
			<path class="st8" d="M473.3-26.3c-0.6,0.8-1.5,1.1-2.6,1.1c-1,0-1.8-0.3-2.3-0.9s-0.8-1.4-0.8-2.6v-6.2h2.5v6.2
				c0,1,0.5,1.5,1.4,1.5c0.9,0,1.5-0.3,1.8-0.9v-6.7h2.5v9.5h-2.4L473.3-26.3z"/>
			<path class="st8" d="M480.3-25.4h-2.5v-13.5h2.5V-25.4z"/>
			<path class="st8" d="M485.5-37.2v2.3h1.6v1.9h-1.6v4.7c0,0.4,0.1,0.6,0.2,0.8s0.4,0.2,0.8,0.2c0.3,0,0.5,0,0.7-0.1v1.9
				c-0.5,0.2-1,0.2-1.5,0.2c-1.8,0-2.7-0.9-2.7-2.7V-33h-1.4v-1.9h1.4v-2.3H485.5z"/>
			<path class="st8" d="M494-25.4c-0.1-0.2-0.2-0.5-0.3-0.9c-0.6,0.7-1.4,1-2.4,1c-0.9,0-1.7-0.3-2.3-0.8s-0.9-1.2-0.9-2
				c0-1,0.4-1.8,1.1-2.3s1.8-0.8,3.2-0.8h1.2v-0.5c0-0.4-0.1-0.8-0.3-1.1s-0.6-0.4-1.1-0.4c-0.4,0-0.8,0.1-1,0.3s-0.4,0.5-0.4,0.8
				h-2.5c0-0.6,0.2-1.1,0.5-1.5s0.8-0.8,1.4-1.1s1.3-0.4,2.1-0.4c1.2,0,2.1,0.3,2.8,0.9c0.7,0.6,1,1.4,1,2.5v4.1
				c0,0.9,0.1,1.6,0.4,2v0.1H494z M491.9-27.1c0.4,0,0.7-0.1,1-0.3c0.3-0.2,0.6-0.4,0.7-0.7v-1.6h-0.9c-1.3,0-1.9,0.4-2,1.3l0,0.1
				c0,0.3,0.1,0.6,0.3,0.8S491.5-27.1,491.9-27.1z"/>
			<path class="st8" d="M497.8-30.2c0-1.5,0.3-2.7,1-3.5s1.6-1.3,2.7-1.3c0.9,0,1.7,0.3,2.3,1v-4.9h2.5v13.5H504l-0.1-1
				c-0.6,0.8-1.4,1.2-2.4,1.2c-1.1,0-2-0.4-2.7-1.3S497.8-28.6,497.8-30.2z M500.3-30c0,0.9,0.2,1.6,0.5,2.1s0.8,0.7,1.4,0.7
				c0.8,0,1.3-0.3,1.7-1V-32c-0.3-0.7-0.9-1-1.6-1C500.9-33,500.3-32,500.3-30z"/>
			<path class="st8" d="M507.9-30.2c0-0.9,0.2-1.8,0.5-2.5s0.9-1.3,1.6-1.7s1.5-0.6,2.4-0.6c1.3,0,2.3,0.4,3.1,1.2s1.3,1.9,1.4,3.2
				l0,0.7c0,1.5-0.4,2.6-1.2,3.5s-1.9,1.3-3.3,1.3s-2.5-0.4-3.3-1.3s-1.2-2.1-1.2-3.6V-30.2z M510.4-30c0,0.9,0.2,1.6,0.5,2.1
				c0.3,0.5,0.8,0.7,1.5,0.7c0.6,0,1.1-0.2,1.4-0.7c0.3-0.5,0.5-1.2,0.5-2.3c0-0.9-0.2-1.6-0.5-2.1S513-33,512.4-33
				c-0.6,0-1.1,0.2-1.4,0.7C510.6-31.8,510.4-31,510.4-30z"/>
			<path class="st8" d="M523.6-28c0-0.3-0.2-0.6-0.5-0.7s-0.8-0.3-1.5-0.5c-2.3-0.5-3.4-1.4-3.4-2.9c0-0.8,0.4-1.5,1.1-2.1
				c0.7-0.6,1.6-0.8,2.7-0.8c1.2,0,2.2,0.3,2.9,0.9s1.1,1.3,1.1,2.2h-2.5c0-0.4-0.1-0.7-0.4-0.9c-0.2-0.2-0.6-0.4-1.1-0.4
				c-0.4,0-0.8,0.1-1,0.3s-0.4,0.4-0.4,0.7c0,0.3,0.1,0.5,0.4,0.7c0.3,0.2,0.7,0.3,1.3,0.4s1.2,0.3,1.6,0.4c1.3,0.5,2,1.3,2,2.6
				c0,0.9-0.4,1.6-1.1,2.1c-0.7,0.5-1.7,0.8-2.9,0.8c-0.8,0-1.5-0.1-2.1-0.4c-0.6-0.3-1.1-0.7-1.5-1.2c-0.4-0.5-0.5-1-0.5-1.6h2.4
				c0,0.5,0.2,0.8,0.5,1s0.7,0.4,1.2,0.4c0.5,0,0.9-0.1,1.1-0.3C523.5-27.4,523.6-27.7,523.6-28z"/>
			<path class="st8" d="M531.8-30.2c0-1.5,0.3-2.7,1-3.5s1.6-1.3,2.7-1.3c0.9,0,1.7,0.3,2.3,1v-4.9h2.5v13.5h-2.3l-0.1-1
				c-0.6,0.8-1.4,1.2-2.4,1.2c-1.1,0-2-0.4-2.7-1.3S531.8-28.6,531.8-30.2z M534.4-30c0,0.9,0.2,1.6,0.5,2.1s0.8,0.7,1.4,0.7
				c0.8,0,1.3-0.3,1.7-1V-32c-0.3-0.7-0.9-1-1.6-1C535-33,534.4-32,534.4-30z"/>
			<path class="st8" d="M546.7-25.2c-1.4,0-2.5-0.4-3.4-1.3s-1.3-2-1.3-3.4v-0.2c0-1,0.2-1.8,0.6-2.6s0.9-1.3,1.6-1.7
				s1.4-0.6,2.3-0.6c1.3,0,2.3,0.4,3.1,1.2s1.1,2,1.1,3.5v1h-6.1c0.1,0.6,0.3,1.1,0.7,1.5s0.9,0.6,1.6,0.6c1,0,1.7-0.4,2.3-1.1
				l1.2,1.4c-0.4,0.5-0.9,1-1.5,1.3C548.2-25.3,547.5-25.2,546.7-25.2z M546.4-33c-0.5,0-0.9,0.2-1.2,0.5c-0.3,0.3-0.5,0.8-0.6,1.5
				h3.5v-0.2c0-0.6-0.2-1-0.5-1.3C547.4-32.8,547-33,546.4-33z"/>
			<path class="st8" d="M559.3-25.4h-2.5v-13.5h2.5V-25.4z"/>
			<path class="st8" d="M566.9-25.4c-0.1-0.2-0.2-0.5-0.3-0.9c-0.6,0.7-1.4,1-2.4,1c-0.9,0-1.7-0.3-2.3-0.8s-0.9-1.2-0.9-2
				c0-1,0.4-1.8,1.1-2.3s1.8-0.8,3.2-0.8h1.2v-0.5c0-0.4-0.1-0.8-0.3-1.1s-0.6-0.4-1.1-0.4c-0.4,0-0.8,0.1-1,0.3s-0.4,0.5-0.4,0.8
				h-2.5c0-0.6,0.2-1.1,0.5-1.5s0.8-0.8,1.4-1.1s1.3-0.4,2.1-0.4c1.2,0,2.1,0.3,2.8,0.9c0.7,0.6,1,1.4,1,2.5v4.1
				c0,0.9,0.1,1.6,0.4,2v0.1H566.9z M564.8-27.1c0.4,0,0.7-0.1,1-0.3c0.3-0.2,0.6-0.4,0.7-0.7v-1.6h-0.9c-1.3,0-1.9,0.4-2,1.3l0,0.1
				c0,0.3,0.1,0.6,0.3,0.8S564.4-27.1,564.8-27.1z"/>
			<path class="st8" d="M577.8-34.9l0.1,1.1c0.7-0.8,1.6-1.3,2.7-1.3c1,0,1.8,0.3,2.2,0.9s0.7,1.5,0.8,2.7v6.1h-2.5v-6.1
				c0-0.5-0.1-0.9-0.4-1.2c-0.2-0.2-0.6-0.4-1.2-0.4c-0.7,0-1.3,0.3-1.6,0.9v6.7h-2.5v-9.5H577.8z"/>
			<path class="st8" d="M589.9-25.2c-1.4,0-2.5-0.4-3.4-1.3s-1.3-2-1.3-3.4v-0.2c0-1,0.2-1.8,0.6-2.6s0.9-1.3,1.6-1.7
				s1.4-0.6,2.3-0.6c1.3,0,2.3,0.4,3.1,1.2s1.1,2,1.1,3.5v1h-6.1c0.1,0.6,0.3,1.1,0.7,1.5s0.9,0.6,1.6,0.6c1,0,1.7-0.4,2.3-1.1
				l1.2,1.4c-0.4,0.5-0.9,1-1.5,1.3C591.4-25.3,590.7-25.2,589.9-25.2z M589.6-33c-0.5,0-0.9,0.2-1.2,0.5c-0.3,0.3-0.5,0.8-0.6,1.5
				h3.5v-0.2c0-0.6-0.2-1-0.5-1.3C590.6-32.8,590.2-33,589.6-33z"/>
			<path class="st8" d="M594.9-30.2c0-1.5,0.3-2.6,1-3.5s1.6-1.3,2.8-1.3c1,0,1.9,0.4,2.4,1.1l0.1-0.9h2.3v9.2
				c0,0.8-0.2,1.6-0.6,2.2s-0.9,1.1-1.6,1.4s-1.5,0.5-2.4,0.5c-0.7,0-1.4-0.1-2-0.4s-1.2-0.6-1.5-1.1l1.1-1.5
				c0.6,0.7,1.4,1.1,2.3,1.1c0.7,0,1.2-0.2,1.6-0.5c0.4-0.4,0.6-0.9,0.6-1.5v-0.5c-0.6,0.7-1.4,1-2.3,1c-1.1,0-2.1-0.4-2.8-1.3
				s-1.1-2.1-1.1-3.6V-30.2z M597.5-30c0,0.9,0.2,1.5,0.5,2c0.3,0.5,0.8,0.7,1.4,0.7c0.8,0,1.3-0.3,1.7-0.9v-4
				c-0.3-0.6-0.9-0.9-1.6-0.9c-0.6,0-1.1,0.2-1.4,0.7C597.6-31.7,597.5-31,597.5-30z"/>
			<path class="st8" d="M605.2-30.2c0-0.9,0.2-1.8,0.5-2.5s0.9-1.3,1.6-1.7s1.5-0.6,2.4-0.6c1.3,0,2.3,0.4,3.1,1.2s1.3,1.9,1.4,3.2
				l0,0.7c0,1.5-0.4,2.6-1.2,3.5s-1.9,1.3-3.3,1.3s-2.5-0.4-3.3-1.3s-1.2-2.1-1.2-3.6V-30.2z M607.7-30c0,0.9,0.2,1.6,0.5,2.1
				c0.3,0.5,0.8,0.7,1.5,0.7c0.6,0,1.1-0.2,1.4-0.7c0.3-0.5,0.5-1.2,0.5-2.3c0-0.9-0.2-1.6-0.5-2.1s-0.8-0.7-1.5-0.7
				c-0.6,0-1.1,0.2-1.4,0.7C607.9-31.8,607.7-31,607.7-30z"/>
			<path class="st8" d="M619.7-27.2c0.5,0,0.8-0.1,1.1-0.4s0.4-0.6,0.5-1h2.4c0,0.6-0.2,1.2-0.5,1.8c-0.3,0.5-0.8,1-1.4,1.2
				c-0.6,0.3-1.3,0.4-2,0.4c-1.4,0-2.4-0.4-3.2-1.3c-0.8-0.9-1.2-2.1-1.2-3.6v-0.2c0-1.5,0.4-2.6,1.2-3.5s1.8-1.3,3.2-1.3
				c1.2,0,2.1,0.3,2.9,1c0.7,0.7,1.1,1.6,1.1,2.7h-2.4c0-0.5-0.2-0.9-0.5-1.2s-0.7-0.5-1.2-0.5c-0.6,0-1,0.2-1.3,0.6
				c-0.3,0.4-0.5,1.1-0.5,2.1v0.3c0,1,0.1,1.7,0.4,2.1S619.1-27.2,619.7-27.2z"/>
			<path class="st8" d="M625.1-37.3c0-0.4,0.1-0.7,0.4-0.9s0.6-0.4,1-0.4c0.4,0,0.8,0.1,1,0.4s0.4,0.6,0.4,0.9
				c0,0.4-0.1,0.7-0.4,0.9s-0.6,0.4-1,0.4s-0.8-0.1-1-0.4S625.1-36.9,625.1-37.3z M627.8-25.4h-2.5v-9.5h2.5V-25.4z"/>
			<path class="st8" d="M635.4-25.4c-0.1-0.2-0.2-0.5-0.3-0.9c-0.6,0.7-1.4,1-2.4,1c-0.9,0-1.7-0.3-2.3-0.8s-0.9-1.2-0.9-2
				c0-1,0.4-1.8,1.1-2.3s1.8-0.8,3.2-0.8h1.2v-0.5c0-0.4-0.1-0.8-0.3-1.1s-0.6-0.4-1.1-0.4c-0.4,0-0.8,0.1-1,0.3s-0.4,0.5-0.4,0.8
				h-2.5c0-0.6,0.2-1.1,0.5-1.5s0.8-0.8,1.4-1.1s1.3-0.4,2.1-0.4c1.2,0,2.1,0.3,2.8,0.9c0.7,0.6,1,1.4,1,2.5v4.1
				c0,0.9,0.1,1.6,0.4,2v0.1H635.4z M633.3-27.1c0.4,0,0.7-0.1,1-0.3c0.3-0.2,0.6-0.4,0.7-0.7v-1.6h-0.9c-1.3,0-1.9,0.4-2,1.3l0,0.1
				c0,0.3,0.1,0.6,0.3,0.8S632.9-27.1,633.3-27.1z"/>
			<path class="st8" d="M643.5-27.2c0.5,0,0.8-0.1,1.1-0.4s0.4-0.6,0.5-1h2.4c0,0.6-0.2,1.2-0.5,1.8c-0.3,0.5-0.8,1-1.4,1.2
				c-0.6,0.3-1.3,0.4-2,0.4c-1.4,0-2.4-0.4-3.2-1.3c-0.8-0.9-1.2-2.1-1.2-3.6v-0.2c0-1.5,0.4-2.6,1.2-3.5s1.8-1.3,3.2-1.3
				c1.2,0,2.1,0.3,2.9,1c0.7,0.7,1.1,1.6,1.1,2.7h-2.4c0-0.5-0.2-0.9-0.5-1.2S644-33,643.5-33c-0.6,0-1,0.2-1.3,0.6
				c-0.3,0.4-0.5,1.1-0.5,2.1v0.3c0,1,0.1,1.7,0.4,2.1S642.9-27.2,643.5-27.2z"/>
			<path class="st8" d="M648.9-37.3c0-0.4,0.1-0.7,0.4-0.9s0.6-0.4,1-0.4c0.4,0,0.8,0.1,1,0.4s0.4,0.6,0.4,0.9
				c0,0.4-0.1,0.7-0.4,0.9s-0.6,0.4-1,0.4s-0.8-0.1-1-0.4S648.9-36.9,648.9-37.3z M651.6-25.4h-2.5v-9.5h2.5V-25.4z"/>
			<path class="st8" d="M653.3-30.2c0-0.9,0.2-1.8,0.5-2.5s0.9-1.3,1.6-1.7s1.5-0.6,2.4-0.6c1.3,0,2.3,0.4,3.1,1.2s1.3,1.9,1.4,3.2
				l0,0.7c0,1.5-0.4,2.6-1.2,3.5s-1.9,1.3-3.3,1.3s-2.5-0.4-3.3-1.3s-1.2-2.1-1.2-3.6V-30.2z M655.9-30c0,0.9,0.2,1.6,0.5,2.1
				c0.3,0.5,0.8,0.7,1.5,0.7c0.6,0,1.1-0.2,1.4-0.7c0.3-0.5,0.5-1.2,0.5-2.3c0-0.9-0.2-1.6-0.5-2.1s-0.8-0.7-1.5-0.7
				c-0.6,0-1.1,0.2-1.4,0.7C656-31.8,655.9-31,655.9-30z M658.3-38.9h2.8l-2.4,2.7h-2.1L658.3-38.9z"/>
			<path class="st8" d="M666.2-34.9l0.1,1.1c0.7-0.8,1.6-1.3,2.7-1.3c1,0,1.8,0.3,2.2,0.9s0.7,1.5,0.8,2.7v6.1h-2.5v-6.1
				c0-0.5-0.1-0.9-0.4-1.2c-0.2-0.2-0.6-0.4-1.2-0.4c-0.7,0-1.3,0.3-1.6,0.9v6.7h-2.5v-9.5H666.2z"/>
		</g>
	</g>
</g>
</svg>
