<svg xmlns="http://www.w3.org/2000/svg" width="469.428" height="349.78" viewBox="0 0 469.428 349.78"><g transform="translate(0 -55)"><g transform="translate(0 55)"><rect width="469.428" height="0.235" transform="translate(0 307.382)" fill="#e6e6e6"/><rect width="51.017" height="0.235" transform="translate(48.492 318.516)" fill="#e6e6e6"/><rect width="19.209" height="0.235" transform="translate(216.444 313.418)" fill="#e6e6e6"/><rect width="28.109" height="0.235" transform="translate(142.087 313.418)" fill="#e6e6e6"/><rect width="59.467" height="0.235" transform="translate(343.218 316.122)" fill="#e6e6e6"/><rect width="13.416" height="0.235" transform="translate(211.177 316.122)" fill="#e6e6e6"/><rect width="12.515" height="0.235" transform="translate(108.597 318.516)" fill="#e6e6e6"/><rect width="7.99" height="0.235" transform="translate(410.355 316.122)" fill="#e6e6e6"/><path d="M224.845,320.509H43.561a5.361,5.361,0,0,1-5.351-5.361V60.314A5.361,5.361,0,0,1,43.561,55H224.845a5.361,5.361,0,0,1,5.361,5.361V315.148A5.361,5.361,0,0,1,224.845,320.509ZM43.561,55.188a5.126,5.126,0,0,0-5.117,5.126V315.148a5.126,5.126,0,0,0,5.117,5.126H224.845a5.136,5.136,0,0,0,5.126-5.126V60.314a5.136,5.136,0,0,0-5.126-5.126Z" transform="translate(-2.336 -55)" fill="#e6e6e6"/><path d="M441.154,320.509H259.861a5.37,5.37,0,0,1-5.361-5.361V60.314A5.37,5.37,0,0,1,259.861,55H441.154a5.361,5.361,0,0,1,5.342,5.314V315.148A5.361,5.361,0,0,1,441.154,320.509ZM259.861,55.188a5.136,5.136,0,0,0-5.126,5.126V315.148a5.136,5.136,0,0,0,5.126,5.126H441.154a5.136,5.136,0,0,0,5.126-5.126V60.314a5.136,5.136,0,0,0-5.126-5.126Z" transform="translate(-15.561 -55)" fill="#e6e6e6"/><rect width="209.262" height="121.638" transform="translate(177.697 28.691)" fill="#e6e6e6"/><rect width="209.262" height="121.638" transform="translate(180.523 28.691)" fill="#f5f5f5"/><rect width="110.222" height="199.103" transform="translate(384.706 34.4) rotate(90)" fill="#fff"/><rect width="110.222" height="2.141" transform="translate(384.715 34.4) rotate(90)" fill="#e6e6e6"/><rect width="205.065" height="7.661" transform="translate(182.626 110.363)" fill="#f5f5f5"/><rect width="34.362" height="76.188" transform="translate(203.168 226.368)" fill="#e6e6e6"/><rect width="151.269" height="4.826" transform="translate(209.759 302.556)" fill="#e6e6e6"/><rect width="130.107" height="76.188" transform="translate(367.628 302.556) rotate(180)" fill="#f5f5f5"/><rect width="103.086" height="24.983" transform="translate(354.127 260.73) rotate(180)" fill="#e6e6e6"/><rect width="103.086" height="24.983" transform="translate(354.127 293.167) rotate(180)" fill="#e6e6e6"/><rect width="33.93" height="3.427" rx="1.61" transform="translate(285.619 246.525)" fill="#f5f5f5"/><rect width="33.93" height="3.427" rx="1.61" transform="translate(285.619 278.972)" fill="#f5f5f5"/><path d="M137.955,366.584h-73.2L54.66,123.73h73.2Z" transform="translate(-3.342 -59.202)" fill="#e6e6e6"/><path d="M148.677,366.584H66.753L56.66,123.73h81.925Z" transform="translate(-3.464 -59.202)" fill="#f5f5f5"/><path d="M75.419,358.685,66.03,132.73h65.025l9.4,225.955Z" transform="translate(-4.037 -59.753)" fill="#fff"/><path d="M284.712,278.6c.939-25.65,1.878-61.185-.1-74.048l-3.239-2.507s.7,2.394,1.08,41.695.836,29.02.441,34.86Z" transform="translate(-17.204 -63.991)" fill="#e0e0e0"/><path d="M290.852,192.187c5.99-8.121,18.6-13.9,31.658-13.867,5.126,0-15.266,9.445-23.518,19.857-6.412,8.084-13.482,21.688-15.792,29.236C284.308,211.527,284.89,200.3,290.852,192.187Z" transform="translate(-17.316 -62.54)" fill="#e0e0e0"/><path d="M276.491,214.6c-5.5-8.45-17.754-14.956-30.785-15.688-5.117-.291,14.684,10.327,22.317,21.19,5.924,8.45,12.205,22.439,14.083,30.118C281.9,234.3,282,223.057,276.491,214.6Z" transform="translate(-14.972 -63.799)" fill="#e0e0e0"/><path d="M279.2,177.131c-5.013-9.858-16.712-19.369-29.433-23.237-5-1.521,15.716,15.829,21.641,29.1,4.6,10.327,10.177,23.3,11.642,31.5C283.6,198.33,284.207,187,279.2,177.131Z" transform="translate(-15.225 -61.041)" fill="#e0e0e0"/><path d="M282.8,294.184h0a11.923,11.923,0,0,0,11.9-11.266l1.052-18.308H269.84l1.061,18.308A11.914,11.914,0,0,0,282.8,294.184Z" transform="translate(-16.499 -67.816)" fill="#f0f0f0"/><path d="M268,268.565h29.264l.836-7.6H267.16Z" transform="translate(-16.335 -67.594)" fill="#ebebeb"/><rect width="19.378" height="52.576" transform="translate(395.456 75.259) rotate(180)" fill="#e6e6e6"/><rect width="9.604" height="48.351" transform="translate(366.473 22.692)" fill="#f5f5f5"/><rect width="19.378" height="52.576" transform="translate(366.473 75.259) rotate(180)" fill="#e6e6e6"/><rect width="9.604" height="48.351" transform="translate(337.491 22.692)" fill="#f5f5f5"/><rect width="19.378" height="52.576" transform="translate(337.491 75.259) rotate(180)" fill="#e6e6e6"/><rect width="9.604" height="48.351" transform="translate(308.508 22.692)" fill="#f5f5f5"/><rect width="19.378" height="52.576" transform="translate(308.499 75.259) rotate(180)" fill="#e6e6e6"/><rect width="9.604" height="48.351" transform="translate(279.516 22.692)" fill="#f5f5f5"/><rect width="19.378" height="52.576" transform="translate(279.526 75.259) rotate(180)" fill="#e6e6e6"/><rect width="9.604" height="48.351" transform="translate(250.534 22.692)" fill="#f5f5f5"/><rect width="19.378" height="52.576" transform="translate(250.534 75.259) rotate(180)" fill="#e6e6e6"/><rect width="9.604" height="48.351" transform="translate(221.551 22.692)" fill="#f5f5f5"/><rect width="19.378" height="52.576" transform="translate(221.551 75.259) rotate(180)" fill="#e6e6e6"/><rect width="9.604" height="48.351" transform="translate(192.569 22.692)" fill="#f5f5f5"/><rect width="19.378" height="52.576" transform="translate(192.569 75.259) rotate(180)" fill="#e6e6e6"/></g><g transform="translate(52.679 383.525)"><ellipse cx="182.035" cy="10.628" rx="182.035" ry="10.628" fill="#f5f5f5"/></g><g transform="translate(252.909 105.417)"><path d="M352.42,219.353l3.99,6.1,5.934-1.23-4.478-7.586Z" transform="translate(-274.457 -115.3)" fill="#9f5b53"/><path d="M363.938,163.82c.845,1.023,1.549,1.934,2.272,2.929s1.418,1.953,2.1,2.948c1.371,1.981,2.676,4.018,3.9,6.112s2.4,4.234,3.436,6.478c.554,1.1,1.023,2.263,1.53,3.4a29.132,29.132,0,0,1,1.305,3.558l.3.939.15.46c.085.272.169.563.225.836a10.7,10.7,0,0,1,.207,2.967,16.992,16.992,0,0,1-1,4.553,36.613,36.613,0,0,1-3.511,6.966,68.829,68.829,0,0,1-9.126,11.266l-4.1-3.211a133.626,133.626,0,0,0,6.178-11.867,33.226,33.226,0,0,0,2.037-5.755,8.45,8.45,0,0,0,.253-2.272,1.146,1.146,0,0,0-.1-.469h0l-.15-.357-.31-.714a80.741,80.741,0,0,0-6.2-11.37c-1.183-1.878-2.432-3.69-3.69-5.52s-2.629-3.662-3.868-5.323Z" transform="translate(-274.662 -112.07)" fill="#9f5b53"/><path d="M361.414,158.886c6.469,1.483,13.886,19.106,13.886,19.106l-12.947,8.9a109.476,109.476,0,0,1-8.581-14.58C349.932,164.247,354.842,157.375,361.414,158.886Z" transform="translate(-274.457 -111.756)" fill="#77cfd9"/><path d="M361.414,158.886c6.469,1.483,13.886,19.106,13.886,19.106l-12.947,8.9a109.476,109.476,0,0,1-8.581-14.58C349.932,164.247,354.842,157.375,361.414,158.886Z" transform="translate(-274.457 -111.756)" fill="#f2884b" opacity="0.8"/><path d="M357.1,170.87l6.14,16.345-.61.422s-2.657-3.755-5.53-8.76Z" transform="translate(-274.743 -112.501)" fill="#77cfd9"/><path d="M357.1,170.87l6.14,16.345-.61.422s-2.657-3.755-5.53-8.76Z" transform="translate(-274.743 -112.501)" fill="#fff" opacity="0.6"/><path d="M339.146,408.6h-6.9l-.685-15.97h6.9Z" transform="translate(-273.182 -126.061)" fill="#9f5b53"/><path d="M383.075,408.6h-6.9l-3.464-15.97H379.6Z" transform="translate(-275.698 -126.061)" fill="#9f5b53"/><path d="M331.56,392.64l.357,8.224h6.9l-.357-8.224Z" transform="translate(-273.182 -126.061)" fill="#8a4743"/><path d="M379.611,392.64h-6.9l1.784,8.224h6.9Z" transform="translate(-275.698 -126.061)" fill="#8a4743"/><path d="M334.38,222.778s7.83,52.707,12.121,72.452c4.694,21.594,22.439,93.66,22.439,93.66h12.637s-11.7-70.292-14.383-91.736c-2.91-23.237-9-74.414-9-74.414Z" transform="translate(-273.354 -115.673)" fill="#77cfd9"/><path d="M334.38,222.778s7.83,52.707,12.121,72.452c4.694,21.594,22.439,93.66,22.439,93.66h12.637s-11.7-70.292-14.383-91.736c-2.91-23.237-9-74.414-9-74.414Z" transform="translate(-273.354 -115.673)" opacity="0.5"/><path d="M339.517,242.775c9.051,1.774,8.093,35.526,7,52.886-2.61-12.271-6.431-35.883-9.041-52.642a3.089,3.089,0,0,1,2.037-.244Z" transform="translate(-273.544 -116.893)" opacity="0.4"/><path d="M320.409,222.78s-.939,51.562-.2,72.6c.779,21.875,8.45,93.51,8.45,93.51h11.679s.432-70.358.939-91.839c.563-23.424,3.389-74.273,3.389-74.273Z" transform="translate(-272.471 -115.675)" fill="#77cfd9"/><path d="M320.409,222.78s-.939,51.562-.2,72.6c.779,21.875,8.45,93.51,8.45,93.51h11.679s.432-70.358.939-91.839c.563-23.424,3.389-74.273,3.389-74.273Z" transform="translate(-272.471 -115.675)" opacity="0.5"/><path d="M363.262,215.72l-5.042.864,4.478,7.586s3.511-1.69,4.15-4.967Z" transform="translate(-274.812 -115.244)" fill="#9f5b53"/><path d="M328.014,131.535c0,.554-.291,1-.657,1s-.657-.451-.657-1,.291-1,.657-1S328.014,130.971,328.014,131.535Z" transform="translate(-272.885 -110.035)" fill="#263238"/><path d="M327.667,132.67a20.025,20.025,0,0,1-2.657,4.76,3.2,3.2,0,0,0,2.657.5Z" transform="translate(-272.781 -110.166)" fill="#892b29"/><path d="M330.008,128.238a.291.291,0,0,1-.188-.066,2.582,2.582,0,0,0-2.328-.422.327.327,0,0,1-.235-.61,3.211,3.211,0,0,1,2.939.507.31.31,0,0,1,.075.451A.3.3,0,0,1,330.008,128.238Z" transform="translate(-272.906 -109.818)" fill="#263238"/><path d="M346.218,138.43c-1,5.051-1.981,14.289,1.549,17.66,0,0-1.38,5.117-10.759,5.117-10.327,0-4.92-5.117-4.92-5.117,5.633-1.343,5.483-5.52,4.5-9.436Z" transform="translate(-273.128 -110.518)" fill="#9f5b53"/><path d="M349.131,158.8c.742-1.615,1.549-3.474-.131-4.056-1.878-.638-11.989-1.286-15.482-.094a3.615,3.615,0,0,0-2.507,4.488Z" transform="translate(-273.14 -111.469)" fill="#77cfd9"/><path d="M373.334,409.893a2.206,2.206,0,0,1-1.652-.451.657.657,0,0,1,0-.779.761.761,0,0,1,.507-.385c1.014-.225,2.91,1.07,2.995,1.127a.169.169,0,0,1,.066.169.15.15,0,0,1-.122.122,8.774,8.774,0,0,1-1.793.2Zm-.854-1.314h-.207a.441.441,0,0,0-.3.225c-.15.263-.056.376,0,.413.291.394,1.7.394,2.732.225a5.389,5.389,0,0,0-2.225-.845Z" transform="translate(-275.627 -127.016)" fill="#77cfd9"/><path d="M375.2,409.618h-.075c-.714-.394-2.094-1.878-1.953-2.666a.535.535,0,0,1,.526-.432.939.939,0,0,1,.695.207c.8.657.939,2.648.939,2.732a.15.15,0,0,1-.075.15A.132.132,0,0,1,375.2,409.618Zm-1.389-2.817h-.075c-.216,0-.235.131-.244.169-.085.46.8,1.6,1.5,2.131a3.962,3.962,0,0,0-.807-2.159.6.6,0,0,0-.375-.122Z" transform="translate(-275.725 -126.909)" fill="#77cfd9"/><path d="M329.2,409.892c-.883,0-1.737-.122-2.028-.516a.629.629,0,0,1,0-.714.789.789,0,0,1,.516-.385c1.136-.31,3.558,1.061,3.662,1.117a.169.169,0,0,1,.075.169.15.15,0,0,1-.131.131,11.339,11.339,0,0,1-2.094.2Zm-1.1-1.333a1.081,1.081,0,0,0-.31,0,.479.479,0,0,0-.319.225c-.113.207-.075.3,0,.357.319.432,2.056.46,3.352.282a7.389,7.389,0,0,0-2.723-.845Z" transform="translate(-272.907 -127.014)" fill="#77cfd9"/><path d="M331.4,409.617h-.066c-.836-.366-2.479-1.878-2.357-2.638,0-.188.16-.413.61-.46a1.146,1.146,0,0,1,.939.282,4.608,4.608,0,0,1,1.07,2.657.143.143,0,0,1-.2.16Zm-1.681-2.817h-.1c-.291,0-.31.15-.319.188-.075.469,1.052,1.643,1.878,2.15a3.756,3.756,0,0,0-.939-2.122.817.817,0,0,0-.516-.2Z" transform="translate(-273.024 -126.909)" fill="#77cfd9"/><path d="M375.179,408.79h7.746a.61.61,0,0,1,.591.479l1.361,6.131a1.014,1.014,0,0,1-1.014,1.221c-2.7-.047-4.018-.207-7.426-.207-2.094,0-6.412.225-9.313.225s-3.267-2.817-2.084-3.126c5.314-1.164,7.314-2.77,9.022-4.291A1.634,1.634,0,0,1,375.179,408.79Z" transform="translate(-275.19 -127.049)" fill="#263238"/><path d="M331.254,408.79h7.511a.61.61,0,0,1,.591.479l1.361,6.131a1,1,0,0,1-1,1.221c-2.713-.047-6.638-.207-10.055-.207-3.99,0-7.445.225-12.13.225-2.817,0-3.615-2.817-2.432-3.126,5.4-1.183,9.8-1.305,14.468-4.178A3.154,3.154,0,0,1,331.254,408.79Z" transform="translate(-272.143 -127.049)" fill="#263238"/><path d="M318.642,173.543c-2.732,4.037-5.558,7.8-8.609,11.539a127.921,127.921,0,0,1-9.764,10.778l-1.352,1.277-.347.319-.235.216-.347.3a10.325,10.325,0,0,1-1.418.939,12.609,12.609,0,0,1-5.117,1.427,28.429,28.429,0,0,1-8.13-.667,61.7,61.7,0,0,1-13.942-4.9l1.718-4.882A109.941,109.941,0,0,0,284.42,191.7a24.071,24.071,0,0,0,5.887-.244,3.755,3.755,0,0,0,1.559-.6v-.066h0l.066-.075.282-.31,1.108-1.221c2.939-3.352,5.783-6.91,8.544-10.562s5.52-7.37,8.159-11.022Z" transform="translate(-269.38 -112.301)" fill="#9f5b53"/><path d="M324.753,175.08a32.729,32.729,0,0,1-7.286,15.792c-.15-3.3-.207-6.272-.2-8.929Z" transform="translate(-272.308 -112.759)" fill="#bed3fc"/><path d="M346.583,129.687c-.413,6.835-.31,10.853-3.755,14.365-5.192,5.276-13.623,2.141-15.256-4.694-1.465-6.14-.535-16.28,6.159-19a9.332,9.332,0,0,1,12.853,9.332Z" transform="translate(-272.901 -109.37)" fill="#9f5b53"/><path d="M332.98,124.473c.056,8.037,2.666,17.895,10.44,17.209,5.164-.451,9.088-9.867,9.623-13.858.817-6.1.939-7.267-2.5-7.971,1.5-.817,2.047-4.694-1.465-5.633-4.882-1.286-14.083-2.544-11.191-5.52-5.765,1.042-7.21,3.352-6.159,6.159-3.37-.263-5.445-2.028-5.342-4.694C320.8,112.427,317.18,125.224,332.98,124.473Z" transform="translate(-272.574 -108.7)" fill="#263238"/><path d="M337.629,132.253a7.717,7.717,0,0,1-2.61,4.225c-1.737,1.408-3.126.15-3.089-1.878,0-1.831,1-4.769,2.948-5.389S338.108,130.254,337.629,132.253Z" transform="translate(-273.204 -109.946)" fill="#9f5b53"/><path d="M357.595,121.9a6.572,6.572,0,0,0-6.225-.451S355.276,116.2,357.595,121.9Z" transform="translate(-274.393 -109.345)" fill="#263238"/><path d="M369,394.75c-.056,0,1.305,4.854,1.305,4.854h14.214l-.263-4.328Z" transform="translate(-275.471 -126.19)" fill="#77cfd9"/><path d="M326.81,394.75c-.056,0,.657,4.854.657,4.854h14.214l.385-4.328Z" transform="translate(-272.891 -126.19)" fill="#77cfd9"/><path d="M331.275,380.749a.113.113,0,0,1-.113-.1c-2.066-19.829-6.919-67.8-7.511-85.013-.629-17.566-.056-56.979.131-68.64,0-.066.056-.1.122-.113a.122.122,0,0,1,.113.113c-.188,11.661-.76,51.074-.132,68.63.61,17.209,5.464,65.166,7.511,84.995a.131.131,0,0,1-.113.131Z" transform="translate(-272.681 -115.926)" fill="#77cfd9"/><path d="M331.275,380.749a.113.113,0,0,1-.113-.1c-2.066-19.829-6.919-67.8-7.511-85.013-.629-17.566-.056-56.979.131-68.64,0-.066.056-.1.122-.113a.122.122,0,0,1,.113.113c-.188,11.661-.76,51.074-.132,68.63.61,17.209,5.464,65.166,7.511,84.995a.131.131,0,0,1-.113.131Z" transform="translate(-272.681 -115.926)" opacity="0.3"/><path d="M327.009,164.859c.939,6.572-11.961,23.218-11.961,23.218l-12.928-8.9s3.586-9.191,9.623-15.219C318.634,157.133,326.014,157.752,327.009,164.859Z" transform="translate(-271.382 -111.786)" fill="#77cfd9"/><path d="M327.009,164.859c.939,6.572-11.961,23.218-11.961,23.218l-12.928-8.9s3.586-9.191,9.623-15.219C318.634,157.133,326.014,157.752,327.009,164.859Z" transform="translate(-271.382 -111.786)" fill="#f2884b" opacity="0.8"/><path d="M320.659,159.141s-7.342,8.29-.413,59.617h36.9c.253-5.633-3.3-33.292,2.15-59.974a96.287,96.287,0,0,0-12.346-1.559,136.384,136.384,0,0,0-15.679,0,69.011,69.011,0,0,0-10.609,1.915Z" transform="translate(-272.308 -111.653)" fill="#77cfd9"/><path d="M320.659,159.141s-7.342,8.29-.413,59.617h36.9c.253-5.633-3.3-33.292,2.15-59.974a96.287,96.287,0,0,0-12.346-1.559,136.384,136.384,0,0,0-15.679,0,69.011,69.011,0,0,0-10.609,1.915Z" transform="translate(-272.308 -111.653)" fill="#f2884b" opacity="0.8"/></g><g transform="translate(73.844 78.594)"><circle cx="24.1" cy="24.1" r="24.1" transform="translate(66.525 49.461) rotate(-77.21)" fill="#77cfd9"/><circle cx="24.1" cy="24.1" r="24.1" transform="translate(66.525 49.461) rotate(-77.21)" fill="#fff" opacity="0.2"/><path d="M175.805,145.307A31.208,31.208,0,0,1,148.4,123.432l.892-.282a30.278,30.278,0,0,0,26.588,21.218Z" transform="translate(-82.918 -82.761)" fill="#77cfd9"/><path d="M175.805,145.307A31.208,31.208,0,0,1,148.4,123.432l.892-.282a30.278,30.278,0,0,0,26.588,21.218Z" transform="translate(-82.918 -82.761)" fill="#fff" opacity="0.2"/><path d="M149.149,102.747l-.939-.263a31.339,31.339,0,0,1,40.2-20.655l-.3.892A30.419,30.419,0,0,0,149.1,102.785Z" transform="translate(-82.906 -80.13)" fill="#77cfd9"/><path d="M149.149,102.747l-.939-.263a31.339,31.339,0,0,1,40.2-20.655l-.3.892A30.419,30.419,0,0,0,149.1,102.785Z" transform="translate(-82.906 -80.13)" fill="#fff" opacity="0.2"/><path d="M210.284,102.641A30.325,30.325,0,0,0,197.14,85.807l.488-.807a31.311,31.311,0,0,1,13.538,17.359Z" transform="translate(-85.898 -80.428)" fill="#77cfd9"/><path d="M210.284,102.641A30.325,30.325,0,0,0,197.14,85.807l.488-.807a31.311,31.311,0,0,1,13.538,17.359Z" transform="translate(-85.898 -80.428)" fill="#fff" opacity="0.2"/><circle cx="24.1" cy="24.1" r="24.1" transform="translate(66.536 115.987) rotate(-77.21)" fill="#77cfd9"/><circle cx="24.1" cy="24.1" r="24.1" transform="translate(66.536 115.987) rotate(-77.21)" fill="#fff" opacity="0.6"/><circle cx="24.1" cy="24.1" r="24.1" transform="translate(66.528 182.512) rotate(-77.21)" fill="#77cfd9"/><circle cx="24.1" cy="24.1" r="24.1" transform="translate(66.528 182.512) rotate(-77.21)" fill="#fff" opacity="0.6"/><circle cx="24.1" cy="24.1" r="24.1" transform="translate(66.53 249.048) rotate(-77.21)" fill="#77cfd9"/><circle cx="24.1" cy="24.1" r="24.1" transform="translate(66.53 249.048) rotate(-77.21)" fill="#fff" opacity="0.6"/><circle cx="24.1" cy="24.1" r="24.1" transform="translate(0 49.453) rotate(-77.21)" fill="#77cfd9"/><circle cx="24.1" cy="24.1" r="24.1" transform="translate(0 49.453) rotate(-77.21)" fill="#fff" opacity="0.6"/><circle cx="24.1" cy="24.1" r="24.1" transform="translate(0.011 115.989) rotate(-77.21)" fill="#77cfd9"/><circle cx="24.1" cy="24.1" r="24.1" transform="translate(0.011 115.989) rotate(-77.21)" fill="#fff" opacity="0.6"/><circle cx="24.1" cy="24.1" r="24.1" transform="translate(0.003 182.514) rotate(-77.21)" fill="#77cfd9"/><circle cx="24.1" cy="24.1" r="24.1" transform="translate(0.003 182.514) rotate(-77.21)" fill="#fff" opacity="0.6"/><circle cx="24.1" cy="24.1" r="24.1" transform="translate(0.005 249.04) rotate(-77.21)" fill="#77cfd9"/><circle cx="24.1" cy="24.1" r="24.1" transform="translate(0.005 249.04) rotate(-77.21)" fill="#fff" opacity="0.6"/></g><g transform="translate(159.245 94.496)"><path d="M271.519,191.539l-5.06-5.239-5.4,6.966s4.112,3.962,9,2.817Z" transform="translate(-175.208 -102.525)" fill="#9f5b53"/><path d="M259.25,183.24l-2.31,7.3,3.868,2.535,5.4-6.966Z" transform="translate(-174.956 -102.338)" fill="#9f5b53"/><path d="M185.086,178.456a9.088,9.088,0,0,1,12.806-5.164l-5.633-2.929a9.3,9.3,0,0,1-4.413-11.811,9.107,9.107,0,0,1,12.524-4.431l-5.633-2.92a9.3,9.3,0,0,1-4.413-11.82,9.1,9.1,0,0,1,12.6-4.422l-26.748-13.989a9.257,9.257,0,0,1-4.694-11.05,9.107,9.107,0,0,1,12.815-5.164l56.331,29.452-5.783-23.734a9.68,9.68,0,0,1,18.43-5.774l18.477,47.994a18.12,18.12,0,0,0,8.5,9.529l3.22,1.681a4.225,4.225,0,0,1,1.784,5.718L262.72,212.667A4.244,4.244,0,0,1,257,214.461L249.1,210.33a18.58,18.58,0,0,0-9.708-2.009,45.065,45.065,0,0,1-23.415-5.07l-26.288-13.745a9.257,9.257,0,0,1-4.6-11.05Z" transform="translate(-169.705 -97.159)" fill="#77cfd9"/><path d="M258.924,216.239a5.633,5.633,0,0,1-2.61-.638l-7.905-4.131a17.378,17.378,0,0,0-8.975-1.878,46.492,46.492,0,0,1-24.147-5.22L189,190.627a10.694,10.694,0,0,1-5.323-12.75,10.449,10.449,0,0,1,6.037-6.384,9.07,9.07,0,0,1,1.174-.394,10.675,10.675,0,0,1-4.375-13.238,10.328,10.328,0,0,1,6.131-5.7c.253-.084.507-.169.76-.235a10.665,10.665,0,0,1-4.375-13.238A10.327,10.327,0,0,1,195.157,133c.235-.085.479-.16.714-.225l-20.43-10.684a10.694,10.694,0,0,1-5.323-12.75,10.515,10.515,0,0,1,14.8-5.962l53.6,28.053-5.06-20.721a11.079,11.079,0,0,1,21.105-6.572l18.477,47.994a16.7,16.7,0,0,0,7.839,8.788l3.211,1.681a5.633,5.633,0,0,1,2.385,7.614l-22.533,43.056A5.633,5.633,0,0,1,258.924,216.239Zm-18.43-9.473a19.913,19.913,0,0,1,9.22,2.206l7.905,4.131a2.817,2.817,0,0,0,3.821-1.192l22.533-43.056a2.817,2.817,0,0,0-1.2-3.812l-3.211-1.681a19.453,19.453,0,0,1-9.126-10.252l-18.486-47.994a8.262,8.262,0,0,0-15.745,4.929l5.8,23.744a1.406,1.406,0,0,1-2.019,1.577l-56.331-29.452a7.67,7.67,0,0,0-6.4-.31,7.511,7.511,0,0,0-4.422,4.694,7.868,7.868,0,0,0,3.962,9.389l26.757,13.989a1.409,1.409,0,0,1-1.305,2.5,7.68,7.68,0,0,0-6.1-.422,7.577,7.577,0,0,0-4.488,4.159,7.877,7.877,0,0,0,3.755,10.008l5.633,2.929h0a1.408,1.408,0,0,1-1.305,2.488h0a7.689,7.689,0,0,0-6.093-.423,7.6,7.6,0,0,0-4.488,4.169,7.877,7.877,0,0,0,3.755,10l5.633,2.929h0a1.409,1.409,0,0,1-1.305,2.5h0a7.708,7.708,0,0,0-6.4-.3,7.567,7.567,0,0,0-4.413,4.694h0a7.858,7.858,0,0,0,3.962,9.389l26.288,13.745a43.769,43.769,0,0,0,22.6,4.816c.413,0,.817-.066,1.221-.066Zm-55.5-28.4Z" transform="translate(-169.616 -97.069)" fill="#77cfd9"/><path d="M206.584,183.147a1.389,1.389,0,0,1-.657-.16l-6.976-3.671a1.409,1.409,0,1,1,1.3-2.5l7.013,3.671a1.408,1.408,0,0,1-.648,2.657Z" transform="translate(-171.364 -101.935)" fill="#77cfd9"/><path d="M209.255,162.725a1.362,1.362,0,0,1-.657-.16l-7.013-3.671a1.408,1.408,0,1,1,1.3-2.488l7.013,3.662a1.408,1.408,0,0,1-.648,2.657Z" transform="translate(-171.519 -100.684)" fill="#77cfd9"/><path d="M211.932,142.317a1.464,1.464,0,0,1-.648-.16l-7.013-3.671a1.409,1.409,0,0,1,1.305-2.5l7.013,3.671a1.408,1.408,0,0,1-.657,2.657Z" transform="translate(-171.689 -99.439)" fill="#77cfd9"/><path d="M258.924,216.239a5.633,5.633,0,0,1-2.61-.638l-7.905-4.131a17.378,17.378,0,0,0-8.975-1.878,46.492,46.492,0,0,1-24.147-5.22L189,190.627a10.694,10.694,0,0,1-5.323-12.75,10.449,10.449,0,0,1,6.037-6.384,9.07,9.07,0,0,1,1.174-.394,10.675,10.675,0,0,1-4.375-13.238,10.328,10.328,0,0,1,6.131-5.7c.253-.084.507-.169.76-.235a10.665,10.665,0,0,1-4.375-13.238A10.327,10.327,0,0,1,195.157,133c.235-.085.479-.16.714-.225l-20.43-10.684a10.694,10.694,0,0,1-5.323-12.75,10.515,10.515,0,0,1,14.8-5.962l53.6,28.053-5.06-20.721a11.079,11.079,0,0,1,21.105-6.572l18.477,47.994a16.7,16.7,0,0,0,7.839,8.788l3.211,1.681a5.633,5.633,0,0,1,2.385,7.614l-22.533,43.056A5.633,5.633,0,0,1,258.924,216.239Zm-18.43-9.473a19.913,19.913,0,0,1,9.22,2.206l7.905,4.131a2.817,2.817,0,0,0,3.821-1.192l22.533-43.056a2.817,2.817,0,0,0-1.2-3.812l-3.211-1.681a19.453,19.453,0,0,1-9.126-10.252l-18.486-47.994a8.262,8.262,0,0,0-15.745,4.929l5.8,23.744a1.406,1.406,0,0,1-2.019,1.577l-56.331-29.452a7.67,7.67,0,0,0-6.4-.31,7.511,7.511,0,0,0-4.422,4.694,7.868,7.868,0,0,0,3.962,9.389l26.757,13.989a1.409,1.409,0,0,1-1.305,2.5,7.68,7.68,0,0,0-6.1-.422,7.577,7.577,0,0,0-4.488,4.159,7.877,7.877,0,0,0,3.755,10.008l5.633,2.929h0a1.408,1.408,0,0,1-1.305,2.488h0a7.689,7.689,0,0,0-6.093-.423,7.6,7.6,0,0,0-4.488,4.169,7.877,7.877,0,0,0,3.755,10l5.633,2.929h0a1.409,1.409,0,0,1-1.305,2.5h0a7.708,7.708,0,0,0-6.4-.3,7.567,7.567,0,0,0-4.413,4.694h0a7.858,7.858,0,0,0,3.962,9.389l26.288,13.745a43.769,43.769,0,0,0,22.6,4.816c.413,0,.817-.066,1.221-.066Zm-55.5-28.4Z" transform="translate(-169.616 -97.069)" opacity="0.3"/></g></g></svg>