<svg xmlns="http://www.w3.org/2000/svg" xmlns:xlink="http://www.w3.org/1999/xlink" width="1320" height="584" viewBox="0 0 1320 584"><defs><linearGradient id="a" x1="0.023" y1="0.5" x2="1.096" y2="0.5" gradientUnits="objectBoundingBox"><stop offset="0" stop-color="#f6f6f6"/><stop offset="0.443" stop-color="#f4f3f3"/><stop offset="1" stop-color="#d9d9d9"/></linearGradient><linearGradient id="b" x1="1.3" y1="0.615" x2="0.5" y2="1" gradientUnits="objectBoundingBox"><stop offset="0" stop-color="#035159"/><stop offset="1" stop-color="#043f45"/></linearGradient></defs><g transform="translate(-140 -76)"><path d="M20.787,0H1299.213C1310.693,0,1320,9.676,1320,21.611V561.889c0,11.936-9.307,21.611-20.787,21.611H20.787C9.307,583.5,0,573.824,0,561.889V21.611C0,9.676,9.307,0,20.787,0Z" transform="translate(140 76)" fill="#f6f6f6" style="mix-blend-mode:multiply;isolation:isolate"/><path d="M20.787,0H1299.213C1310.693,0,1320,9.676,1320,21.611V561.889c0,11.936-9.307,21.611-20.787,21.611H20.787C9.307,583.5,0,573.824,0,561.889V21.611C0,9.676,9.307,0,20.787,0Z" transform="translate(140 76)" fill="url(#a)" style="mix-blend-mode:multiply;isolation:isolate"/><path d="M0,0H562a0,0,0,0,1,0,0V565a19,19,0,0,1-19,19H0a0,0,0,0,1,0,0V0A0,0,0,0,1,0,0Z" transform="translate(898 76)" fill="url(#b)"/><path d="M19,0H239.823a0,0,0,0,1,0,0V140.882a19,19,0,0,1-19,19H0a0,0,0,0,1,0,0V19A19,19,0,0,1,19,0Z" transform="translate(140 76)" fill="#419ca6" opacity="0.159"/><path d="M19,0H414a0,0,0,0,1,0,0V0a19,19,0,0,1-19,19H0a0,0,0,0,1,0,0v0A19,19,0,0,1,19,0Z" transform="translate(224 641)" fill="#419ca6" opacity="0.159"/></g></svg>