<svg xmlns="http://www.w3.org/2000/svg" xmlns:xlink="http://www.w3.org/1999/xlink" width="200" height="200" viewBox="0 0 200 200">
  <defs>
    <filter id="Rectángulo_33231" x="0" y="0" width="200" height="200" filterUnits="userSpaceOnUse">
      <feOffset dy="3" input="SourceAlpha"/>
      <feGaussianBlur stdDeviation="3" result="blur"/>
      <feFlood flood-opacity="0.161"/>
      <feComposite operator="in" in2="blur"/>
      <feComposite in="SourceGraphic"/>
    </filter>
  </defs>
  <g id="Grupo_79070" data-name="Grupo 79070" transform="translate(-701 -1494.719)">
    <g id="Grupo_78978" data-name="Grupo 78978" transform="translate(340 572.855)">
      <g transform="matrix(1, 0, 0, 1, 361, 921.86)" filter="url(#Rectángulo_33231)">
        <path id="Rectángulo_33231-2" data-name="Rectángulo 33231" d="M0,0H91a91,91,0,0,1,91,91v0a91,91,0,0,1-91,91h0A91,91,0,0,1,0,91V0A0,0,0,0,1,0,0Z" transform="translate(9 6)" fill="#77cfd9"/>
      </g>
      <path id="Rectángulo_33228" data-name="Rectángulo 33228" d="M0,0H22.976a16,16,0,0,1,16,16v6.976a16,16,0,0,1-16,16H16a16,16,0,0,1-16-16V0A0,0,0,0,1,0,0Z" transform="translate(380 936.863)" fill="#419ca6"/>
    </g>
    <g id="emotion" transform="translate(754.497 1554.989)">
      <path id="Trazado_140867" data-name="Trazado 140867" d="M78.4,30.5a18.652,18.652,0,0,0-2.7.2,33.174,33.174,0,0,0-8.744-8.735A18.591,18.591,0,0,0,33.121,8.779a1.418,1.418,0,1,0,2.359,1.575,15.693,15.693,0,1,1-2.224,5.116,1.418,1.418,0,1,0-2.761-.649,18.7,18.7,0,0,0-.271,7.141,33.165,33.165,0,0,0-8.757,8.761A18.6,18.6,0,0,0,0,49.091a18.445,18.445,0,0,0,1.66,7.689,1.418,1.418,0,1,0,2.582-1.174A15.776,15.776,0,1,1,7.4,60.177a1.418,1.418,0,0,0-2.015,2,18.6,18.6,0,0,0,16.078,5.285,33.181,33.181,0,0,0,8.711,8.729,18.59,18.59,0,1,0,36.834,0,33.181,33.181,0,0,0,8.694-8.7A18.592,18.592,0,0,0,91.963,61.8a1.418,1.418,0,1,0-2.069-1.94A15.6,15.6,0,0,1,78.4,64.844,15.739,15.739,0,1,1,92.923,55.21a1.418,1.418,0,0,0,2.613,1.1A18.6,18.6,0,0,0,78.4,30.5ZM48.591,94.466A15.753,15.753,0,1,1,64.344,78.713,15.771,15.771,0,0,1,48.591,94.466ZM59.813,49.091a18.622,18.622,0,0,0,12.9,17.7,30.366,30.366,0,0,1-6.377,6.391,18.592,18.592,0,0,0-35.5,0,30.371,30.371,0,0,1-6.413-6.44,18.59,18.59,0,0,0,0-35.3,30.368,30.368,0,0,1,6.512-6.512,18.59,18.59,0,0,0,35.3,0,30.358,30.358,0,0,1,6.475,6.463,18.622,18.622,0,0,0-12.9,17.7Z" transform="translate(0 -0.5)" fill="#fff"/>
      <path id="Trazado_140868" data-name="Trazado 140868" d="M440.289,219.218v-1.664a1.418,1.418,0,1,0-2.836,0v1.664a1.418,1.418,0,1,0,2.836,0Z" transform="translate(-354.736 -175.362)" fill="#fff"/>
      <path id="Trazado_140869" data-name="Trazado 140869" d="M379.65,219.218v-1.664a1.418,1.418,0,1,0-2.836,0v1.664a1.418,1.418,0,1,0,2.836,0Z" transform="translate(-305.563 -175.362)" fill="#fff"/>
      <path id="Trazado_140870" data-name="Trazado 140870" d="M192.6,110.107a1.418,1.418,0,0,0-.911,1.787,12.915,12.915,0,0,0,24.574,0,1.418,1.418,0,1,0-2.7-.876,10.079,10.079,0,0,1-19.179,0,1.419,1.419,0,0,0-1.787-.911Z" transform="translate(-155.39 -89.325)" fill="#fff"/>
      <path id="Trazado_140871" data-name="Trazado 140871" d="M220.571,54.257a1.418,1.418,0,0,0,1.418-1.418V51.175a1.418,1.418,0,1,0-2.836,0v1.664A1.418,1.418,0,0,0,220.571,54.257Z" transform="translate(-177.714 -40.443)" fill="#fff"/>
      <path id="Trazado_140872" data-name="Trazado 140872" d="M282.628,52.839V51.175a1.418,1.418,0,1,0-2.836,0v1.664a1.418,1.418,0,0,0,2.836,0Z" transform="translate(-226.887 -40.443)" fill="#fff"/>
      <path id="Trazado_140873" data-name="Trazado 140873" d="M356.558,283.814a1.418,1.418,0,0,0,1.418,1.418H377.1a1.418,1.418,0,0,0,0-2.836H357.976A1.418,1.418,0,0,0,356.558,283.814Z" transform="translate(-289.137 -229.093)" fill="#fff"/>
      <path id="Trazado_140874" data-name="Trazado 140874" d="M208.546,370.9a1.419,1.419,0,0,0-1.952-.461c-2.035,1.258-5.355,3.3-5.876,3.6a1.419,1.419,0,0,0-.1,2.528,1.351,1.351,0,0,0,.667.182,2.007,2.007,0,0,0,1.016-.35c.171-.1,1.044-.629,1.232-.744v.087a1.418,1.418,0,0,0,2.836,0v-1.664a1.443,1.443,0,0,0-.009-.158c.973-.6,1.725-1.064,1.725-1.064A1.418,1.418,0,0,0,208.546,370.9Z" transform="translate(-162.093 -300.32)" fill="#fff"/>
      <path id="Trazado_140875" data-name="Trazado 140875" d="M275.2,374.038c-.521-.3-3.841-2.337-5.876-3.6a1.418,1.418,0,1,0-1.491,2.413l1.725,1.064a1.451,1.451,0,0,0-.009.157v1.664a1.418,1.418,0,0,0,2.836,0v-.087c.188.115,1.061.643,1.232.744a2.008,2.008,0,0,0,1.016.35,1.351,1.351,0,0,0,.667-.182,1.419,1.419,0,0,0-.1-2.529Z" transform="translate(-216.643 -300.319)" fill="#fff"/>
      <path id="Trazado_140876" data-name="Trazado 140876" d="M52.328,215.123c-2.2-1.184-4.684-2.528-5.119-2.784a1.419,1.419,0,0,0-2.245,1.171c.011.842.464,1.091,1.559,1.694l.947.518V217.5a1.418,1.418,0,0,0,2.836,0v-.247l.68.366a1.418,1.418,0,1,0,1.342-2.5Z" transform="translate(-36.461 -172.068)" fill="#fff"/>
      <path id="Trazado_140877" data-name="Trazado 140877" d="M116.158,212.26a1.417,1.417,0,0,0-1.53.079c-.434.256-2.915,1.6-5.119,2.784a1.418,1.418,0,1,0,1.342,2.5l.68-.366v.248a1.418,1.418,0,0,0,2.836,0v-1.781c.347-.189.673-.367.947-.518,1.095-.6,1.548-.852,1.559-1.694a1.419,1.419,0,0,0-.715-1.25Z" transform="translate(-88.196 -172.067)" fill="#fff"/>
      <path id="Trazado_140878" data-name="Trazado 140878" d="M230.466,439.617a12.88,12.88,0,0,0-14.5,0,1.418,1.418,0,0,0,1.6,2.344,10.043,10.043,0,0,1,11.309,0,1.418,1.418,0,0,0,1.6-2.344Z" transform="translate(-174.623 -354.772)" fill="#fff"/>
      <path id="Trazado_140879" data-name="Trazado 140879" d="M68.946,263.747a6.47,6.47,0,0,0-6.462,6.462v.185a2.51,2.51,0,0,0,2.507,2.507h9.342a2.51,2.51,0,0,0,2.507-2.507v-.185a6.47,6.47,0,0,0-6.462-6.462ZM74,270.066H65.323a3.63,3.63,0,0,1,3.623-3.482h1.431A3.631,3.631,0,0,1,74,270.066Z" transform="translate(-50.669 -213.97)" fill="#fff"/>
    </g>
  </g>
</svg>
