<svg xmlns="http://www.w3.org/2000/svg" width="99.547" height="99.444" viewBox="0 0 99.547 99.444">
  <g id="Grupo_74277" data-name="Grupo 74277" transform="translate(-196.476 -10968)">
    <g id="Grupo_53772" data-name="Grupo 53772" transform="translate(-107.594 9242)">
      <path id="Rectángulo_5173" data-name="Rectángulo 5173" d="M47,0H99.547a0,0,0,0,1,0,0V52.444a47,47,0,0,1-47,47H47a47,47,0,0,1-47-47V47A47,47,0,0,1,47,0Z" transform="translate(304.07 1726)" fill="#77cfd9"/>
      <g id="Grupo_77029" data-name="Grupo 77029" transform="translate(290.436 1730.193)">
        <g id="Grupo_77009" data-name="Grupo 77009" transform="translate(88.781 54.641)">
          <path id="Trazado_101251" data-name="Trazado 101251" d="M417.31,329.384h-7.921V315.548h7.921a3.061,3.061,0,0,1,3.061,3.061v7.715a3.061,3.061,0,0,1-3.061,3.061Z" transform="translate(-409.389 -315.548)" fill="#f26d3d"/>
        </g>
        <g id="Grupo_77010" data-name="Grupo 77010" transform="translate(88.781 54.641)">
          <path id="Trazado_101252" data-name="Trazado 101252" d="M409.389,315.548h6.885v13.836h-6.885Z" transform="translate(-409.389 -315.548)" fill="#f26d3d"/>
        </g>
        <g id="Grupo_77011" data-name="Grupo 77011" transform="translate(88.781 20.676)">
          <path id="Trazado_101253" data-name="Trazado 101253" d="M417.31,120.705h-7.921V93.6h7.921a3.061,3.061,0,0,1,3.061,3.061v20.984A3.061,3.061,0,0,1,417.31,120.705Z" transform="translate(-409.389 -93.6)" fill="#f26d3d"/>
        </g>
        <g id="Grupo_77012" data-name="Grupo 77012" transform="translate(88.781 20.676)">
          <path id="Trazado_101254" data-name="Trazado 101254" d="M409.389,93.6h6.885v13.828h-6.885Z" transform="translate(-409.389 -93.6)" fill="#f2884b"/>
        </g>
        <g id="Grupo_77013" data-name="Grupo 77013" transform="translate(88.781 34.504)">
          <path id="Trazado_101255" data-name="Trazado 101255" d="M409.389,183.96v13.277h7.921a3.061,3.061,0,0,0,3.061-3.061V183.96Z" transform="translate(-409.389 -183.96)" fill="#fad9c5"/>
        </g>
        <g id="Grupo_77014" data-name="Grupo 77014" transform="translate(88.781 34.504)">
          <path id="Trazado_101256" data-name="Trazado 101256" d="M409.389,183.96h6.885v13.277h-6.885Z" transform="translate(-409.389 -183.96)" fill="#f26d3d"/>
        </g>
        <g id="Grupo_77015" data-name="Grupo 77015" transform="translate(36.023 7.5)">
          <path id="Trazado_101257" data-name="Trazado 101257" d="M64.645,9.8V81.262a2.3,2.3,0,0,0,2.3,2.3h49.286a5.356,5.356,0,0,0,5.356-5.356V13.621A6.121,6.121,0,0,0,115.462,7.5H66.94A2.3,2.3,0,0,0,64.645,9.8Z" transform="translate(-64.645 -7.5)" fill="#419ca6"/>
        </g>
        <g id="Grupo_77016" data-name="Grupo 77016" transform="translate(36.023 7.5)">
          <path id="Trazado_101258" data-name="Trazado 101258" d="M68.832,81.262V9.8a2.3,2.3,0,0,1,2.3-2.3H66.94a2.3,2.3,0,0,0-2.3,2.3V81.262a2.3,2.3,0,0,0,2.3,2.3h4.187A2.3,2.3,0,0,1,68.832,81.262Z" transform="translate(-64.645 -7.5)" fill="#2ca6b4"/>
        </g>
        <g id="Grupo_77017" data-name="Grupo 77017" transform="translate(51.995 20.155)">
          <path id="Trazado_101259" data-name="Trazado 101259" d="M189.207,102.178H170.544a1.53,1.53,0,0,1-1.53-1.53V91.724a1.53,1.53,0,0,1,1.53-1.53h18.663a1.53,1.53,0,0,1,1.53,1.53v8.923A1.53,1.53,0,0,1,189.207,102.178Z" transform="translate(-169.014 -90.194)" fill="#eef5f6"/>
        </g>
        <g id="Grupo_77018" data-name="Grupo 77018" transform="translate(51.995 20.155)">
          <path id="Trazado_101260" data-name="Trazado 101260" d="M171.7,100.648V91.724a1.53,1.53,0,0,1,1.53-1.53h-2.681a1.53,1.53,0,0,0-1.53,1.53v8.923a1.53,1.53,0,0,0,1.53,1.53h2.681A1.53,1.53,0,0,1,171.7,100.648Z" transform="translate(-169.014 -90.194)" fill="#deecf1"/>
        </g>
        <g id="Grupo_77019" data-name="Grupo 77019" transform="translate(79.213 7.5)">
          <path id="Trazado_101261" data-name="Trazado 101261" d="M346.867,7.5h5.214V83.557h-5.214Z" transform="translate(-346.867 -7.5)" fill="#89b4c9"/>
        </g>
        <g id="Grupo_77020" data-name="Grupo 77020" transform="translate(30.852 19.569)">
          <path id="Trazado_101262" data-name="Trazado 101262" d="M39.205,92.459H32.841a1.989,1.989,0,0,1-1.989-1.989V88.352a1.989,1.989,0,0,1,1.989-1.989h6.364A1.989,1.989,0,0,1,41.2,88.352v2.117A1.99,1.99,0,0,1,39.205,92.459Z" transform="translate(-30.852 -86.363)" fill="#eef5f6"/>
        </g>
        <g id="Grupo_77021" data-name="Grupo 77021" transform="translate(30.852 34.843)">
          <path id="Trazado_101263" data-name="Trazado 101263" d="M39.205,192.273H32.841a1.989,1.989,0,0,1-1.989-1.989v-2.117a1.989,1.989,0,0,1,1.989-1.989h6.364a1.989,1.989,0,0,1,1.989,1.989v2.117A1.99,1.99,0,0,1,39.205,192.273Z" transform="translate(-30.852 -186.177)" fill="#eef5f6"/>
        </g>
        <g id="Grupo_77022" data-name="Grupo 77022" transform="translate(30.852 50.118)">
          <path id="Trazado_101264" data-name="Trazado 101264" d="M39.205,292.087H32.841a1.989,1.989,0,0,1-1.989-1.989V287.98a1.989,1.989,0,0,1,1.989-1.989h6.364A1.989,1.989,0,0,1,41.2,287.98V290.1A1.99,1.99,0,0,1,39.205,292.087Z" transform="translate(-30.852 -285.991)" fill="#eef5f6"/>
        </g>
        <g id="Grupo_77023" data-name="Grupo 77023" transform="translate(30.852 65.393)">
          <path id="Trazado_101265" data-name="Trazado 101265" d="M39.205,391.9H32.841a1.989,1.989,0,0,1-1.989-1.989v-2.117a1.989,1.989,0,0,1,1.989-1.989h6.364a1.989,1.989,0,0,1,1.989,1.989v2.117A1.99,1.99,0,0,1,39.205,391.9Z" transform="translate(-30.852 -385.805)" fill="#eef5f6"/>
        </g>
        <g id="Grupo_77024" data-name="Grupo 77024" transform="translate(30.852 19.569)">
          <path id="Trazado_101266" data-name="Trazado 101266" d="M33.744,90.469V88.352a1.989,1.989,0,0,1,1.989-1.989H32.841a1.989,1.989,0,0,0-1.989,1.989v2.117a1.989,1.989,0,0,0,1.989,1.989h2.892A1.99,1.99,0,0,1,33.744,90.469Z" transform="translate(-30.852 -86.363)" fill="#deecf1"/>
        </g>
        <g id="Grupo_77025" data-name="Grupo 77025" transform="translate(30.852 34.843)">
          <path id="Trazado_101267" data-name="Trazado 101267" d="M33.744,190.282v-2.117a1.989,1.989,0,0,1,1.989-1.989H32.841a1.989,1.989,0,0,0-1.989,1.989v2.117a1.989,1.989,0,0,0,1.989,1.989h2.892A1.989,1.989,0,0,1,33.744,190.282Z" transform="translate(-30.852 -186.176)" fill="#deecf1"/>
        </g>
        <g id="Grupo_77026" data-name="Grupo 77026" transform="translate(30.852 50.118)">
          <path id="Trazado_101268" data-name="Trazado 101268" d="M33.744,290.1v-2.117a1.989,1.989,0,0,1,1.989-1.989H32.841a1.989,1.989,0,0,0-1.989,1.989V290.1a1.989,1.989,0,0,0,1.989,1.989h2.892A1.989,1.989,0,0,1,33.744,290.1Z" transform="translate(-30.852 -285.99)" fill="#deecf1"/>
        </g>
        <g id="Grupo_77027" data-name="Grupo 77027" transform="translate(30.852 65.393)">
          <path id="Trazado_101269" data-name="Trazado 101269" d="M33.744,389.91v-2.117a1.989,1.989,0,0,1,1.989-1.989H32.841a1.989,1.989,0,0,0-1.989,1.989v2.117a1.989,1.989,0,0,0,1.989,1.989h2.892A1.989,1.989,0,0,1,33.744,389.91Z" transform="translate(-30.852 -385.804)" fill="#deecf1"/>
        </g>
      </g>
    </g>
  </g>
</svg>
