<svg xmlns="http://www.w3.org/2000/svg" width="436.29" height="407.653" viewBox="0 0 436.29 407.653"><g transform="translate(-30.63 -43.53)"><path d="M35.34,423.9V449h5.79a34.81,34.81,0,0,1,0-7.95c.55-2.95,6.84-10.57,6.65-17.11Z" fill="#ebebeb"/><path d="M81.66,423.9V449h5.79a34.81,34.81,0,0,1,0-7.95c.55-2.95,6.84-10.57,6.65-17.11Z" fill="#e0e0e0"/><path d="M127,423.9V449h-5.8a35.44,35.44,0,0,0,0-7.95c-.56-2.95-6.84-10.57-6.66-17.11Z" fill="#ebebeb"/><path d="M167.08,423.9V449h-5.79a35.442,35.442,0,0,0,0-7.95c-.55-2.95-6.84-10.57-6.65-17.11Z" fill="#e0e0e0"/><rect width="138.72" height="124.57" transform="translate(31.4 300.13)" fill="#f5f5f5"/><path d="M132.75,300.13l1.03,124.57h36.34V300.13Z" fill="#e0e0e0"/><rect width="89.06" height="31.7" transform="translate(37.64 309.3)" fill="#ebebeb"/><rect width="89.06" height="31.7" transform="translate(37.64 347.31)" fill="#ebebeb"/><rect width="89.06" height="31.7" transform="translate(37.64 385.33)" fill="#ebebeb"/><path d="M71.78,264.34l-3.84,35.65h49.22l4.08-35.65Z" fill="#e0e0e0"/><path d="M73.81,266.9l-3.74,31.19h44.42l3.59-31.19Z" fill="#fff"/><path d="M81.28,272.15l-2.3,20.7h28.03l1.44-20.7Z" fill="#ebebeb"/><path d="M119.48,279.69l10.17,20.44-12.49-.14,2.32-20.3" fill="#ebebeb"/><path d="M85.43,326.8a3.26,3.26,0,1,1-3.26-3.25,3.26,3.26,0,0,1,3.26,3.25Z" fill="#e0e0e0"/><path d="M85.43,365.2a3.25,3.25,0,1,1-.952-2.308,3.26,3.26,0,0,1,.952,2.308Z" fill="#e0e0e0"/><path d="M85.43,403.59a3.26,3.26,0,1,1-3.26-3.26,3.26,3.26,0,0,1,3.26,3.26Z" fill="#e0e0e0"/><path d="M126.56,97.63l-78.65-.76,2.19,102.5,78.65.29Z" fill="#e0e0e0"/><path d="M121.49,102.2l-68.85-1.78,1.99,92.96,68.83.85Z" fill="#fafafa"/><path d="M109.74,116.09l-45.69-.76,1.4,64.98,45.64-.98Z" fill="#ebebeb"/><path d="M65.45,180.31l44.93-34.36L64.05,115.33Z" fill="#f5f5f5"/><path d="M465.01,44.2,396,43.53l1.93,89.93,68.99.25Z" fill="#e0e0e0"/><path d="M460.55,48.22l-60.4-1.57,1.75,81.55,60.38.74Z" fill="#fafafa"/><path d="M450.24,60.4l-40.07-.67,1.22,57,40.04-.85Z" fill="#ebebeb"/><path d="M411.39,116.73l39.42-30.14L410.17,59.73Z" fill="#f5f5f5"/><path d="M387.71,382.3c-.29.88,10,40,10,40l7.06-1.47-9.71-38.53Z" fill="#ebebeb"/><path d="M442.42,376.71,428.3,422.3h8.24l13.53-42.35Z" fill="#f5f5f5"/><path d="M455.36,369.65,439.18,422.3h8.24l15.59-49.41Z" fill="#ebebeb"/><path d="M392.71,419.07l8.24,28.53h41.47l7.65-28.53Z" fill="#e0e0e0"/><path d="M414.1,419.07a2.593,2.593,0,0,1-.09-.3l-.22-.87c-.19-.8-.45-1.93-.79-3.37l-2.85-12.46-9.31-41.55.25.21h-7.26l.25-.32c3.69,16.35,7,31,9.37,41.58,1.16,5.27,2.1,9.52,2.76,12.5.3,1.45.55,2.58.72,3.39.07.37.13.66.17.88a1,1,0,0,1,0,.31,2.585,2.585,0,0,1-.09-.3c-.06-.22-.13-.51-.22-.87-.2-.8-.47-1.93-.82-3.37-.69-3-1.68-7.21-2.91-12.46-2.43-10.58-5.78-25.21-9.52-41.55l-.08-.31h7.8l.05.2c3.59,16.35,6.82,31,9.15,41.58,1.13,5.27,2.05,9.52,2.69,12.5.3,1.45.53,2.58.7,3.39l.17.88A1,1,0,0,1,414.1,419.07Z" fill="#e0e0e0"/><path d="M454.63,448.79c0,.14-94.94.26-212,.26s-212-.12-212-.26,94.92-.26,212.05-.26S454.63,448.65,454.63,448.79Z" fill="#263238"/><path d="M427.33,175.85a3.77,3.77,0,0,0-.71-.22,4.94,4.94,0,0,0-2.17,0,8,8,0,0,0-3.15,1.62,16.649,16.649,0,0,0-3.2,3.73c-2.05,3.14-3.66,7.48-5.54,12.54a183.489,183.489,0,0,0-5.64,17.63h0a5.081,5.081,0,0,1-1.16,1.45,2.29,2.29,0,0,1-1.82.58,3.4,3.4,0,0,1-1.67-1c-.47-.43-.91-.89-1.35-1.36a32.173,32.173,0,0,0-2.77-2.7,5.12,5.12,0,0,0-3.51-1.43,4.74,4.74,0,0,0-3.21,2.14,8.13,8.13,0,0,0-1.11,4c-.17,2.86.66,5.75,1.16,8.74s1.13,6.06,1.71,9.19c.3,1.57.59,3.15.89,4.75l.45,2.42a3.11,3.11,0,0,1-.29,2.56,1.24,1.24,0,0,1-1.33.45,3.53,3.53,0,0,1-1.19-.61l-2-1.52a47.638,47.638,0,0,0-4.24-2.86,16.41,16.41,0,0,0-4.74-2,5.5,5.5,0,0,0-2.52,0,3.69,3.69,0,0,0-2.06,1.38,8.45,8.45,0,0,0-1.35,5,28.441,28.441,0,0,0,.53,5.42,68.672,68.672,0,0,0,3.05,10.78,14.8,14.8,0,0,1,.87,2.78,2,2,0,0,1-.37,1.55,2.655,2.655,0,0,1-.29.29,1.141,1.141,0,0,1-.39.23,1.22,1.22,0,0,1-.87-.2,14.472,14.472,0,0,1-2.31-1.84l-2.14-2a31.85,31.85,0,0,0-4.55-3.66,9.46,9.46,0,0,0-2.63-1.2,3.27,3.27,0,0,0-2.67.33,3.87,3.87,0,0,0-1.51,2.32,11.86,11.86,0,0,0-.36,2.92,25.31,25.31,0,0,0,.75,6,51.681,51.681,0,0,0,4.35,11.49,86.322,86.322,0,0,0,6.47,10.75,58.345,58.345,0,0,0,3.9,5c1.34,1.66,2.7,3.31,4.06,5v.06l-.24-.1,6.36-.92a61.221,61.221,0,0,0,6.27-1.08,88.374,88.374,0,0,0,12-3.61,52.291,52.291,0,0,0,10.95-5.59,24.532,24.532,0,0,0,4.57-3.91,11.741,11.741,0,0,0,1.71-2.41,3.88,3.88,0,0,0,.44-2.73,3.26,3.26,0,0,0-1.75-2.05,10,10,0,0,0-2.75-.88,32.44,32.44,0,0,0-5.83-.35h-2.92a14.729,14.729,0,0,1-3-.19,1.19,1.19,0,0,1-.78-.44,1.121,1.121,0,0,1-.13-.44,1.849,1.849,0,0,1,0-.41,2.07,2.07,0,0,1,.77-1.39,15.049,15.049,0,0,1,2.51-1.47,67.88,67.88,0,0,0,9.51-5.93,27.071,27.071,0,0,0,4-3.66,8.44,8.44,0,0,0,2.36-4.6,3.7,3.7,0,0,0-.6-2.41,5.43,5.43,0,0,0-1.86-1.7,16.22,16.22,0,0,0-4.83-1.73,46.01,46.01,0,0,0-5.06-.73l-2.52-.24a3.24,3.24,0,0,1-1.29-.35,1.25,1.25,0,0,1-.67-1.24,3.16,3.16,0,0,1,1.51-2.08l2-1.48,3.85-2.93,7.44-5.65c2.39-1.87,4.94-3.45,6.74-5.69a8.07,8.07,0,0,0,1.84-3.68,4.73,4.73,0,0,0-.94-3.75,3.4,3.4,0,0,0-1.63-1,7.87,7.87,0,0,0-1.93-.32,30.92,30.92,0,0,0-3.86.14c-.64,0-1.28.09-1.91.1a3.4,3.4,0,0,1-1.89-.41,2.31,2.31,0,0,1-1-1.65,5.28,5.28,0,0,1,.11-1.86h0A182.145,182.145,0,0,0,426,198.86c2-5,3.73-9.3,4.35-13a17,17,0,0,0,.2-4.9,7.82,7.82,0,0,0-1.17-3.34,4.63,4.63,0,0,0-1.54-1.51,4.09,4.09,0,0,0-.67-.33,2.781,2.781,0,0,1,.69.29,4.73,4.73,0,0,1,1.6,1.5,8,8,0,0,1,1.21,3.37,16.81,16.81,0,0,1-.15,4.95c-.6,3.71-2.3,8-4.29,13a182.379,182.379,0,0,1-7.62,16.87h0a4.73,4.73,0,0,0-.1,1.72,2,2,0,0,0,.82,1.43,3.1,3.1,0,0,0,1.7.35c.62,0,1.25-.06,1.89-.11a31.489,31.489,0,0,1,3.91-.15,8.2,8.2,0,0,1,2,.33,3.84,3.84,0,0,1,1.8,1.07,5.1,5.1,0,0,1,1,4,8.34,8.34,0,0,1-1.92,3.86c-1.85,2.3-4.42,3.9-6.79,5.78l-7.43,5.66-3.84,2.92-1.95,1.49a4.56,4.56,0,0,0-.89.78,2.07,2.07,0,0,0-.46,1,.82.82,0,0,0,.45.82,2.94,2.94,0,0,0,1.13.29l2.52.24a45,45,0,0,1,5.1.73,16.86,16.86,0,0,1,5,1.77,6.12,6.12,0,0,1,2,1.85,4.25,4.25,0,0,1,.68,2.69,9,9,0,0,1-2.47,4.88,28.471,28.471,0,0,1-4.1,3.73,69.1,69.1,0,0,1-9.57,6,14.188,14.188,0,0,0-2.42,1.4,1.56,1.56,0,0,0-.6,1.06,1.511,1.511,0,0,0,0,.3c0,.08,0,.27.07.26a.85.85,0,0,0,.46.21,14.7,14.7,0,0,0,2.84.18h2.92a31.124,31.124,0,0,1,5.92.35,9.819,9.819,0,0,1,2.9.93,3.77,3.77,0,0,1,2,2.37,4.34,4.34,0,0,1-.48,3.08,12,12,0,0,1-1.78,2.51,25.067,25.067,0,0,1-4.66,4,51.94,51.94,0,0,1-11.06,5.65,87.6,87.6,0,0,1-12.1,3.64,60.314,60.314,0,0,1-6.29,1.08l-6.37.93h-.15l-.09-.12h-.05l-4.06-5a61.153,61.153,0,0,1-3.91-5,86.885,86.885,0,0,1-6.52-10.83,52.429,52.429,0,0,1-4.37-11.61,25,25,0,0,1-.77-6.09,12.631,12.631,0,0,1,.38-3.06,4.39,4.39,0,0,1,1.72-2.6,3.77,3.77,0,0,1,3.08-.4,10,10,0,0,1,2.76,1.26,31.741,31.741,0,0,1,4.62,3.72l2.14,2a14.6,14.6,0,0,0,2.22,1.77.85.85,0,0,0,.49.16s.15-.09.22-.14l.22-.22a1.53,1.53,0,0,0,.26-1.18,13.941,13.941,0,0,0-.84-2.67,69,69,0,0,1-3.06-10.86,28.488,28.488,0,0,1-.53-5.51,8.92,8.92,0,0,1,1.46-5.28,4.19,4.19,0,0,1,2.3-1.54,6,6,0,0,1,2.73,0,16.791,16.791,0,0,1,4.87,2,44.491,44.491,0,0,1,4.28,2.89l2,1.52a3.23,3.23,0,0,0,1,.55.82.82,0,0,0,.89-.3,2,2,0,0,0,.33-1,4.4,4.4,0,0,0-.13-1.18c-.15-.81-.29-1.61-.44-2.41-.3-1.6-.59-3.19-.88-4.75-.57-3.14-1.14-6.2-1.69-9.19s-1.32-5.89-1.15-8.84a8.49,8.49,0,0,1,1.18-4.15,5.08,5.08,0,0,1,3.49-2.3,3.79,3.79,0,0,1,2.05.41A8.229,8.229,0,0,1,398.2,208a31.592,31.592,0,0,1,2.8,2.74q.64.7,1.32,1.35a3.17,3.17,0,0,0,1.5.89,2,2,0,0,0,1.57-.51,4.791,4.791,0,0,0,1.08-1.34h0a180.013,180.013,0,0,1,5.72-17.65c1.9-5.05,3.54-9.4,5.63-12.54a16.63,16.63,0,0,1,3.26-3.74,7.88,7.88,0,0,1,3.21-1.6,4.79,4.79,0,0,1,2.2,0A2.59,2.59,0,0,1,427.33,175.85Z" fill="#263238"/><path d="M422.08,189.45a1.2,1.2,0,0,1-.1.33l-.34.94c-.33.85-.79,2.06-1.37,3.59-1.22,3.15-2.95,7.66-5.09,13.21l-16.61,43.64c-6.46,17-12.38,32.47-16.76,43.59-2.18,5.56-4,10.05-5.24,13.15-.62,1.52-1.11,2.71-1.46,3.55-.17.39-.29.69-.39.93l-.15.3a1.2,1.2,0,0,1,.1-.32c.08-.24.2-.55.34-.94.33-.86.79-2.06,1.37-3.6,1.22-3.15,2.95-7.65,5.09-13.2L398.08,251c6.46-17.05,12.37-32.46,16.76-43.58,2.18-5.56,4-10.06,5.24-13.15.62-1.52,1.11-2.72,1.46-3.56.17-.38.29-.69.39-.92Z" fill="#263238"/><path d="M422.62,224a17.3,17.3,0,0,1-2.5,1.49l-6.12,3.4c-2.4,1.33-4.58,2.52-6.19,3.33a13.711,13.711,0,0,1-2.67,1.16,20.332,20.332,0,0,1,2.5-1.49l6.1-3.45c2.4-1.33,4.59-2.49,6.21-3.28a15.241,15.241,0,0,1,2.67-1.16Z" fill="#263238"/><path d="M404.33,232.74c-.13.06-2.51-4.48-5.31-10.14s-5-10.3-4.85-10.37,2.51,4.48,5.32,10.14S404.46,232.67,404.33,232.74Z" fill="#263238"/><path d="M395.59,259.37a14.7,14.7,0,0,1-2.2-2c-1.3-1.3-3-3.15-4.85-5.29s-3.35-4.16-4.41-5.66a14.109,14.109,0,0,1-1.61-2.5,20.814,20.814,0,0,1,1.9,2.28c1.14,1.44,2.71,3.41,4.52,5.54s3.49,4,4.71,5.37A19.788,19.788,0,0,1,395.59,259.37Z" fill="#263238"/><path d="M413.88,255.07a14.809,14.809,0,0,1-2.64.78c-1.64.41-3.92.94-6.44,1.5s-4.82,1-6.48,1.36a14.16,14.16,0,0,1-2.72.41,14.731,14.731,0,0,1,2.64-.77c1.64-.41,3.92-1,6.45-1.51s4.81-1,6.47-1.35a14.919,14.919,0,0,1,2.72-.42Z" fill="#263238"/><path d="M409.15,279.57a24.558,24.558,0,0,1-3.4.91c-2.12.49-5,1.14-8.28,1.82s-6.19,1.28-8.32,1.68a22.769,22.769,0,0,1-3.47.55,23.533,23.533,0,0,1,3.4-.91c2.11-.49,5-1.14,8.28-1.82s6.18-1.28,8.31-1.68A22.782,22.782,0,0,1,409.15,279.57Z" fill="#263238"/><path d="M386.2,284.25a3.891,3.891,0,0,1-.75-.68c-.46-.46-1.1-1.14-1.89-2-1.57-1.72-3.68-4.15-5.9-6.92s-4.13-5.37-5.46-7.28c-.67-.95-1.19-1.73-1.54-2.28a3.56,3.56,0,0,1-.5-.89,4.16,4.16,0,0,1,.66.77l1.68,2.19c1.4,1.85,3.35,4.4,5.57,7.16s4.27,5.23,5.77,7A28.59,28.59,0,0,1,386.2,284.25Z" fill="#263238"/><path d="M376.2,351.24c-17.36-14-19.88-37.93-17.7-59.14.37-3.54.23-7.31,2.13-10.31s6-4.85,9.07-3.14c2.55,1.42,3.48,4.57,4.78,7.2a20.84,20.84,0,0,0,7.78,8.52c2.18,1.33,4.93,2.24,7.24,1.16,3.18-1.48,3.83-5.68,4.05-9.21l1.23-19.74c.22-3.54.46-7.14,1.79-10.41s4-6.22,7.39-6.94,7.44,1.52,7.91,5a32.474,32.474,0,0,1-.2,4.4c0,1.47.57,3.14,1.93,3.64s2.86-.39,4-1.35c3.89-3.31,6.67-7.73,9.3-12.14s5.18-8.93,8.76-12.59,8.35-6.43,13.43-6.37,10.24,3.55,11.18,8.6-2.31,9.92-5.75,13.73A78.93,78.93,0,0,1,437,266.68a6.48,6.48,0,0,0-3,2.76c-.93,2.3,1.14,4.79,3.41,5.73,2.57,1.05,5.45,1,8.18,1.49s5.63,1.93,6.49,4.6c1.2,3.71-2.08,7.28-5.22,9.56A67.749,67.749,0,0,1,426.19,301c-2.67.77-5.46,1.41-7.68,3.09s-3.7,4.77-2.6,7.34,4.29,3.6,7,3.28,5.29-1.63,7.95-2.43c5-1.5,11.22-.73,14,3.67,1.85,2.9,1.77,6.75.51,10a25.88,25.88,0,0,1-5.95,8.36,68,68,0,0,1-30.38,18.38c-11.52,3.13-22,3.47-32.92-1.39" fill="#77cfd9"/><g opacity="0.1"><path d="M376.2,351.24c-17.36-14-19.88-37.93-17.7-59.14.37-3.54.23-7.31,2.13-10.31s6-4.85,9.07-3.14c2.55,1.42,3.48,4.57,4.78,7.2a20.84,20.84,0,0,0,7.78,8.52c2.18,1.33,4.93,2.24,7.24,1.16,3.18-1.48,3.83-5.68,4.05-9.21l1.23-19.74c.22-3.54.46-7.14,1.79-10.41s4-6.22,7.39-6.94,7.44,1.52,7.91,5a32.474,32.474,0,0,1-.2,4.4c0,1.47.57,3.14,1.93,3.64s2.86-.39,4-1.35c3.89-3.31,6.67-7.73,9.3-12.14s5.18-8.93,8.76-12.59,8.35-6.43,13.43-6.37,10.24,3.55,11.18,8.6-2.31,9.92-5.75,13.73A78.93,78.93,0,0,1,437,266.68a6.48,6.48,0,0,0-3,2.76c-.93,2.3,1.14,4.79,3.41,5.73,2.57,1.05,5.45,1,8.18,1.49s5.63,1.93,6.49,4.6c1.2,3.71-2.08,7.28-5.22,9.56A67.749,67.749,0,0,1,426.19,301c-2.67.77-5.46,1.41-7.68,3.09s-3.7,4.77-2.6,7.34,4.29,3.6,7,3.28,5.29-1.63,7.95-2.43c5-1.5,11.22-.73,14,3.67,1.85,2.9,1.77,6.75.51,10a25.88,25.88,0,0,1-5.95,8.36,68,68,0,0,1-30.38,18.38c-11.52,3.13-22,3.47-32.92-1.39"/></g><path d="M374.84,367a155.736,155.736,0,0,1,7.76-28.69,317.868,317.868,0,0,1,14.89-33.19l4.35-8.5c1.44-2.79,2.86-5.55,4.42-8.17a160.422,160.422,0,0,1,9.81-14.52c3.35-4.47,6.68-8.59,9.83-12.42s6.17-7.33,9.05-10.41a126.357,126.357,0,0,1,14.66-13.51c1.85-1.45,3.32-2.53,4.33-3.25l1.15-.81a3.208,3.208,0,0,1,.4-.26,1.713,1.713,0,0,1-.36.31l-1.11.87c-1,.75-2.43,1.86-4.25,3.35a132.45,132.45,0,0,0-14.48,13.62c-2.85,3.09-5.84,6.61-9,10.44s-6.45,8-9.77,12.44a156.672,156.672,0,0,0-9.74,14.48c-1.55,2.61-3,5.35-4.39,8.14l-4.35,8.5a327.464,327.464,0,0,0-14.91,33.1,159,159,0,0,0-7.87,28.56" fill="#263238"/><path d="M406.45,288.42a6.849,6.849,0,0,1-.25-1.53c-.11-1-.24-2.42-.37-4.2-.25-3.54-.44-8.46-.63-13.87s-.45-10.32-.76-13.86c-.15-1.76-.28-3.19-.39-4.18a6.711,6.711,0,0,1-.09-1.55,7.85,7.85,0,0,1,.34,1.51c.18,1,.39,2.41.6,4.18.43,3.53.76,8.44,1,13.87s.33,10.18.44,13.88c.07,1.67.12,3.07.17,4.2a8.1,8.1,0,0,1-.06,1.55Z" fill="#263238"/><path d="M452.41,283.05a9.14,9.14,0,0,1-1.83.1c-1.17,0-2.86,0-5,.14-4.18.17-10,.59-16.31,1.35s-12.07,1.69-16.19,2.49c-2.06.38-3.72.74-4.87,1a10.389,10.389,0,0,1-1.8.31,10.381,10.381,0,0,1,1.74-.56c1.13-.32,2.78-.74,4.84-1.19,4.1-.91,9.83-1.92,16.2-2.69a160,160,0,0,1,16.38-1.15c2.1,0,3.8,0,5,.06A10.408,10.408,0,0,1,452.41,283.05Z" fill="#263238"/><path d="M383.22,337.49a2.059,2.059,0,0,1-.27-.57l-.67-1.7c-.57-1.47-1.34-3.63-2.25-6.3-1.83-5.35-4.13-12.82-6.56-21.09s-4.65-15.76-6.37-21.14c-.84-2.62-1.54-4.77-2.05-6.37l-.55-1.73a2.351,2.351,0,0,1-.15-.62,2.5,2.5,0,0,1,.27.57c.18.46.4,1,.66,1.7.57,1.47,1.34,3.63,2.26,6.3,1.83,5.35,4.13,12.82,6.55,21.1s4.66,15.75,6.38,21.13c.84,2.62,1.53,4.77,2,6.37l.55,1.73a2.35,2.35,0,0,1,.2.62Z" fill="#263238"/><path d="M444.86,322.19a2,2,0,0,1-.62.21l-1.79.47-6.6,1.65c-5.58,1.39-13.25,3.4-21.73,5.64s-16.18,4.18-21.79,5.46c-2.8.64-5.07,1.14-6.65,1.45l-1.82.35a2.361,2.361,0,0,1-.64.07,2.489,2.489,0,0,1,.61-.2l1.8-.47,6.6-1.65c5.57-1.39,13.25-3.41,21.73-5.65s16.18-4.18,21.78-5.46c2.8-.64,5.08-1.13,6.65-1.44l1.82-.35A2.819,2.819,0,0,1,444.86,322.19Z" fill="#263238"/><rect width="242.51" height="332.3" transform="translate(137.73 75.19)" fill="#455a64"/><path d="M370.65,387.73H157.93V88.62H370.65V387.73Z" fill="#e0e0e0"/><path d="M367.29,382.18H156.48V84.67H367.29V382.18Z" fill="#ebebeb"/><path d="M344.64,359.03,320.36,378.8H152.55V85.42H365.27V342.3Z" fill="#fafafa"/><path d="M344.64,359s.43-.37,1.3-1.08l3.89-3.18,15.39-12.53v.06c0-42.2-.08-136-.15-256.88l.23.24H152.58l.26-.26c0,110.3,0,212.05-.06,293.38l-.2-.21,167.81.12h-.06l18.24-14.79,4.57-3.69c1-.82,1.53-1.22,1.53-1.22l-1.5,1.25L338.6,364l-18.18,14.86h0L152.55,379h-.21v-.21c0-81.33,0-183.08-.05-293.38v-.26H365.51v.23c-.07,120.92-.13,214.68-.15,256.88h0l-15.45,12.47L346,358Z" fill="#263238"/><path d="M230.21,64.92h58.15a14.15,14.15,0,0,1,14.15,14.15V94.76H215.45V79.67a14.76,14.76,0,0,1,14.76-14.75Z" fill="#f26d3d"/><path d="M236.78,64.92l-3.18-16.1h50.13l-2.79,16.1Z" fill="#f26d3d"/><path d="M210.63,168H174.8V132.16h35.83Zm-34.83-1h33.83V133.16H175.8Z" fill="#77cfd9"/><path d="M337.28,140.82c0,.14-24.95.26-55.71.26s-55.72-.12-55.72-.26,24.94-.26,55.72-.26S337.28,140.67,337.28,140.82Z" fill="#263238"/><path d="M337.28,148.26c0,.15-24.95.26-55.71.26s-55.72-.11-55.72-.26,24.94-.26,55.72-.26S337.28,148.12,337.28,148.26Z" fill="#263238"/><path d="M337.28,155.71c0,.14-24.95.26-55.71.26s-55.72-.12-55.72-.26,24.94-.26,55.72-.26S337.28,155.57,337.28,155.71Z" fill="#263238"/><path d="M337.28,163.16c0,.14-24.95.26-55.71.26s-55.72-.12-55.72-.26,24.94-.26,55.72-.26S337.28,163,337.28,163.16Z" fill="#263238"/><path d="M210.63,223.23H174.8V187.39h35.83Zm-34.83-1h33.83V188.39H175.8Z" fill="#77cfd9"/><path d="M181.92,206.05l4.76-5.11,7.93,6.34,18.15-17.62,4.35,5.13-22.85,22.54Z" fill="#f2884b"/><path d="M337.28,196.05c0,.14-24.95.26-55.71.26s-55.72-.12-55.72-.26,24.94-.26,55.72-.26S337.28,195.91,337.28,196.05Z" fill="#263238"/><path d="M337.28,203.5c0,.14-24.95.26-55.71.26s-55.72-.12-55.72-.26,24.94-.26,55.72-.26S337.28,203.35,337.28,203.5Z" fill="#263238"/><path d="M337.28,210.94c0,.15-24.95.26-55.71.26s-55.72-.11-55.72-.26,24.94-.26,55.72-.26S337.28,210.8,337.28,210.94Z" fill="#263238"/><path d="M337.28,218.39c0,.14-24.95.26-55.71.26s-55.72-.12-55.72-.26,24.94-.26,55.72-.26S337.28,218.25,337.28,218.39Z" fill="#263238"/><path d="M210.63,276.68H174.8V240.84h35.83Zm-34.83-1h33.83V241.84H175.8Z" fill="#77cfd9"/><path d="M181.92,259.5l4.76-5.11,7.93,6.34,18.15-17.62,4.35,5.13-22.85,22.54Z" fill="#f2884b"/><path d="M337.28,249.5c0,.14-24.95.26-55.71.26s-55.72-.12-55.72-.26,24.94-.26,55.72-.26S337.28,249.35,337.28,249.5Z" fill="#263238"/><path d="M337.28,256.94c0,.15-24.95.26-55.71.26s-55.72-.11-55.72-.26,24.94-.26,55.72-.26S337.28,256.8,337.28,256.94Z" fill="#263238"/><path d="M337.28,264.39c0,.15-24.95.26-55.71.26s-55.72-.11-55.72-.26,24.94-.26,55.72-.26S337.28,264.25,337.28,264.39Z" fill="#263238"/><path d="M337.28,271.84c0,.14-24.95.26-55.71.26s-55.72-.12-55.72-.26,24.94-.26,55.72-.26S337.28,271.7,337.28,271.84Z" fill="#263238"/><path d="M210.63,328.29H174.8V292.45h35.83Zm-34.83-1h33.83V293.45H175.8Z" fill="#77cfd9"/><path d="M181.92,311.11l4.76-5.11,7.93,6.34,18.15-17.62,4.35,5.12-22.85,22.54Z" fill="#f2884b"/><path d="M337.28,301.1c0,.15-24.95.26-55.71.26s-55.72-.11-55.72-.26,24.94-.26,55.72-.26S337.28,301,337.28,301.1Z" fill="#263238"/><path d="M337.28,308.55c0,.14-24.95.26-55.71.26s-55.72-.12-55.72-.26,24.94-.26,55.72-.26S337.28,308.41,337.28,308.55Z" fill="#263238"/><path d="M337.28,316c0,.14-24.95.26-55.71.26s-55.72-.12-55.72-.26,24.94-.26,55.72-.26S337.28,315.85,337.28,316Z" fill="#263238"/><path d="M337.28,323.44c0,.15-24.95.26-55.71.26s-55.72-.11-55.72-.26,24.94-.26,55.72-.26S337.28,323.3,337.28,323.44Z" fill="#263238"/><path d="M327.03,330.23l-23.32,48.3h16.65Z" fill="#e0e0e0"/><path d="M320.36,378.8l6.67-48.3,38.24,11.8Z" fill="#fafafa"/><path d="M320.36,378.8l12.86-10.59,31.89-26.11.09.44L350.43,338,327,330.73l.31-.2c-2,14-3.71,26.05-4.92,34.59-1.21,8.31-1.83,12.6-2,13.68a2.1,2.1,0,0,1,0-.22l.09-.66c.08-.63.19-1.51.34-2.63.31-2.35.75-5.72,1.31-10,1.16-8.61,2.78-20.72,4.67-34.87v-.28l.27.08,23.49,7.24,14.76,4.56.46.14-.37.3c-12.91,10.41-24.2,19.51-32.28,26l-9.43,7.57-2.52,2-.64.51Z" fill="#263238"/><g opacity="0.3"><path d="M280.26,48.82l-2.76,16.1h3.44l2.79-16.1h-4.39"/></g><path d="M133.43,218.62h0A9,9,0,0,0,143.1,210c.19-4.9.36-9.85.36-9.85s7.42-.69,8-8,.29-24.29.29-24.29h0a25.57,25.57,0,0,0-25.86,1.66l.45,25.84v13.91C126.35,213.89,128.78,218.27,133.43,218.62Z" fill="#ffbe9d"/><path d="M144.1,183.15a3.77,3.77,0,0,0-5-1.1,4.27,4.27,0,0,0-1.42,5.34,5.6,5.6,0,0,0,3.6,2.72,2.82,2.82,0,0,1,2.21,3,9.4,9.4,0,0,1-2.58,5.11,13.54,13.54,0,0,1-8.5,4c-3.13.37-6.71-.28-8.53-2.85-1.33-1.87-1.42-4.32-1.47-6.61l-.34-16.24a23.68,23.68,0,0,1,.37-5.83,7.84,7.84,0,0,1,3.08-4.82c1.79-1.18,4.05-1.28,6.08-1.93,2.55-.83,4.71-2.51,7.09-3.73s5.29-1.95,7.68-.75c1.72.86,2.87,2.57,4.53,3.52,2.38,1.35,5.61,1,6.76,4.54a5.88,5.88,0,0,1,0,3.73c-1.61,4.75-7.49,6.67-11.73,4.62-.08.8.71,2.59-.14,5.13-.27.82-.36,2.05-1.63,2.08" fill="#263238"/><path d="M123.83,168a25,25,0,0,0,2.36-7.38,8.46,8.46,0,0,0-2.31-7.13,7,7,0,0,0-4.84-1.71,8.18,8.18,0,0,0-7.38,5.85,8.8,8.8,0,0,0,3,9,9.57,9.57,0,0,0,9.52,1.24" fill="#263238"/><path d="M125.27,165.35a3.62,3.62,0,0,1-3.48,3.4,12.594,12.594,0,0,0,2-1.4C124.71,166.39,125.13,165.31,125.27,165.35Z" fill="#77cfd9"/><path d="M122.86,167.15a6.84,6.84,0,0,1-2,1.45,5.75,5.75,0,0,1-2.62.75,3.67,3.67,0,0,1-3.07-1.38,4.05,4.05,0,0,1-.54-3.32,6.44,6.44,0,0,1,1.23-2.43,7.46,7.46,0,0,1,1.74-1.75,23.733,23.733,0,0,1-1.44,2,6.55,6.55,0,0,0-1.06,2.32,3.66,3.66,0,0,0,.49,2.91,3.28,3.28,0,0,0,2.65,1.2,5.72,5.72,0,0,0,2.46-.6A21.464,21.464,0,0,1,122.86,167.15Z" fill="#263238"/><path d="M110.38,175.44a3.46,3.46,0,0,1,.35.81,8.15,8.15,0,0,0,1.09,2.1,3,3,0,0,0,2.87,1.32,4,4,0,0,0,2.77-2.79,28.062,28.062,0,0,0,.75-4.26,6.61,6.61,0,0,1,1.4-3.37,3.72,3.72,0,0,1,2.14-1.22,1.4,1.4,0,0,1,.9.08,4.317,4.317,0,0,0-.86.12,3.67,3.67,0,0,0-1.9,1.26,6.51,6.51,0,0,0-1.21,3.2,25.249,25.249,0,0,1-.73,4.36,4.38,4.38,0,0,1-3.17,3.09,3,3,0,0,1-2-.38,4.13,4.13,0,0,1-1.26-1.19,7.29,7.29,0,0,1-1-2.25,2.34,2.34,0,0,1-.14-.88Z" fill="#263238"/><path d="M106.77,237.13s-3.75,27.42,0,30.9,7.34,2.32,7.34,2.32l7.13-6,1.4-27.26Z" fill="#ffbe9d"/><path d="M184.22,160.16l4.76-5.11,7.93,6.34,18.15-17.62,4.35,5.13-22.85,22.54Z" fill="#f2884b"/><path d="M206.58,161.55l-6.9,4.43c-.31-2.73-2.39-5.43-2.29-4.06s0,8.48,0,8.48L185.1,196.29c-1.67,4.1-5.06,6.68-7.59,7.29L166,207l4.49,15.19,16-5.3a13.77,13.77,0,0,0,8.75-8.77l11-33.52A52.091,52.091,0,0,0,208,168C208.48,165.19,206.58,161.55,206.58,161.55Z" fill="#ffbe9d"/><path d="M150.05,444.72l-.18-7.67-14.38.23.13,11.23.9.05c4,.15,20.21.51,22.85-.33C162.31,447.28,150.05,444.72,150.05,444.72Z" fill="#77cfd9"/><g opacity="0.5"><path d="M140.84,448.32a5,5,0,0,0-1.89-3,4.83,4.83,0,0,0-3.38-1l.06,4Z" fill="#fff"/></g><g opacity="0.4"><path d="M156,446.19s4.3,1.16,3.78,1.88-16.94,1-24.2.44v-.32l19.16-.13S155.21,446.24,156,446.19Z" fill="#fff"/></g><path d="M135.41,448.18h.96l2.62.07c2.21.05,5.26.07,8.63,0s6.43-.16,8.63-.27l2.62-.15.71-.05h-.72l-2.61.1c-2.21.07-5.26.17-8.63.22s-6.42,0-8.63,0h-3.61Z" fill="#263238"/><path d="M154.8,448.28a5.37,5.37,0,0,1,.47-1.25,5.94,5.94,0,0,1,.87-1,2.34,2.34,0,0,0-1.34,2.27Z" fill="#263238"/><path d="M150.52,446.19a3.028,3.028,0,0,0,.45-.55c.21-.33.33-.63.29-.65s-.24.22-.44.55S150.48,446.17,150.52,446.19Z" fill="#263238"/><path d="M149.35,445.6a2.3,2.3,0,0,0,.5-.35c.25-.23.41-.44.38-.47s-.26.12-.5.34S149.31,445.56,149.35,445.6Z" fill="#263238"/><path d="M148.59,444.25a1.57,1.57,0,0,0,.75.08,1.62,1.62,0,0,0,.75-.09,1.89,1.89,0,0,0-.75-.08,1.649,1.649,0,0,0-.75.09Z" fill="#263238"/><path d="M148.32,443.3a1.56,1.56,0,0,0,.84.23,1.53,1.53,0,0,0,.87-.13,4.471,4.471,0,0,0-.86,0A4.659,4.659,0,0,0,148.32,443.3Z" fill="#263238"/><path d="M151,444.93a2.551,2.551,0,0,0,.92,0,5.45,5.45,0,0,0,1-.23,3,3,0,0,0,.56-.24.46.46,0,0,0,.23-.29.38.38,0,0,0-.15-.37,1.71,1.71,0,0,0-2.09.53,1.841,1.841,0,0,0-.29.62.6.6,0,0,0,0,.25,2.929,2.929,0,0,1,.41-.79,1.74,1.74,0,0,1,.78-.53,1.47,1.47,0,0,1,1.11.06c.14.11.09.28-.07.38a3,3,0,0,1-.52.23,6.575,6.575,0,0,1-1,.26C151.34,444.9,151,444.9,151,444.93Z" fill="#263238"/><path d="M151.23,445a.89.89,0,0,0,.1-.64,1.6,1.6,0,0,0-.27-.67.93.93,0,0,0-.77-.46.36.36,0,0,0-.28.43,1,1,0,0,0,.16.41,2.37,2.37,0,0,0,.45.55,1.3,1.3,0,0,0,.53.37,6.161,6.161,0,0,1-.44-.45,3.739,3.739,0,0,1-.4-.55c-.13-.19-.22-.54,0-.59s.47.2.61.38a1.61,1.61,0,0,1,.28.6,3.652,3.652,0,0,1,.03.62Z" fill="#263238"/><path d="M135.65,444.24h1.06a4.51,4.51,0,0,1,3.81,2.94c.23.61.26,1,.29,1a.72.72,0,0,0,0-.29,4.24,4.24,0,0,0-.17-.77,4.39,4.39,0,0,0-3.92-3,3.571,3.571,0,0,0-.79,0A.771.771,0,0,0,135.65,444.24Z" fill="#263238"/><path d="M137.05,438.24a23.127,23.127,0,0,0-.08,2.95,24.271,24.271,0,0,0,.09,3,23.35,23.35,0,0,0,.08-3A26.857,26.857,0,0,0,137.05,438.24Z" fill="#263238"/><path d="M142.62,446.89a8.66,8.66,0,0,0,2.11.17,7.7,7.7,0,0,0,2.1-.2c0-.05-1,0-2.1,0A19.28,19.28,0,0,0,142.62,446.89Z" fill="#263238"/><path d="M139.81,446.92s.08.2.17.42.16.4.21.4.07-.23-.05-.48S139.84,446.89,139.81,446.92Z" fill="#263238"/><path d="M138.72,445.62a.892.892,0,0,0,.22.33c.16.15.3.24.33.21s-.06-.19-.21-.33S138.76,445.58,138.72,445.62Z" fill="#263238"/><path d="M137.19,445a1.007,1.007,0,0,1,.42.11c.21.11.36.18.4.15s-.08-.23-.35-.31A.586.586,0,0,0,137.19,445Z" fill="#263238"/><path d="M136.11,444.77a.349.349,0,0,0,.18.16c.12.04.23.05.25,0s-.07-.12-.19-.16S136.12,444.72,136.11,444.77Z" fill="#263238"/><path d="M99.29,442.27l4.88-5.93-11.06-9.21-7.22,8.6.64.62c2.91,2.71,15,13.57,17.54,14.65C106.92,452.21,99.29,442.27,99.29,442.27Z" fill="#77cfd9"/><g opacity="0.5"><path d="M90,439a5,5,0,0,0,.55-3.53,4.82,4.82,0,0,0-1.92-2.95L86,435.59Z" fill="#fff"/></g><g opacity="0.4"><path d="M102.88,447.29s2.5,3.69,1.64,3.89S91,440.86,85.89,435.73l.22-.23,14.61,12.4S102.21,446.78,102.88,447.29Z" fill="#fff"/></g><path d="M85.94,435.35l.17.18.52.49,1.94,1.76c1.64,1.47,3.94,3.48,6.53,5.64s5,4.07,6.72,5.43l2.08,1.59.57.42.21.14-.19-.17-.55-.45-2-1.63c-1.73-1.38-4.1-3.3-6.69-5.46s-4.9-4.15-6.56-5.6l-2-1.72-.54-.47Z" fill="#263238"/><path d="M100.57,448.07a5.359,5.359,0,0,1,1.18-.65,6.816,6.816,0,0,1,1.32-.2,2.184,2.184,0,0,0-2.5.85Z" fill="#263238"/><path d="M98.69,443.69c0,.05.33,0,.7-.13s.67-.25.65-.3-.33,0-.7.13a1.679,1.679,0,0,0-.65.3Z" fill="#263238"/><path d="M98.19,442.47a2.158,2.158,0,0,0,.61.07c.34-.01.6-.06.6-.11s-.28-.08-.61-.07A1.341,1.341,0,0,0,98.19,442.47Z" fill="#263238"/><path d="M98.49,441a3.382,3.382,0,0,0,.52.55,2,2,0,0,0,.63.43,3.208,3.208,0,0,0-.52-.56C98.8,441.15,98.53,440.92,98.49,441Z" fill="#263238"/><path d="M98.91,440.06a2.08,2.08,0,0,0,1.23,1.19,6.611,6.611,0,0,0-.62-.59C99.19,440.34,99,440,98.91,440.06Z" fill="#263238"/><path d="M99.87,443a2.52,2.52,0,0,0,.71.59,5,5,0,0,0,.9.46,2.82,2.82,0,0,0,.58.19.49.49,0,0,0,.36-.08.36.36,0,0,0,.13-.37,1.7,1.7,0,0,0-1.93-1,1.55,1.55,0,0,0-.63.28.671.671,0,0,0-.18.17,2.67,2.67,0,0,1,.83-.33,1.67,1.67,0,0,1,.94.11,1.45,1.45,0,0,1,.8.76.233.233,0,0,1-.3.25,3.379,3.379,0,0,1-.54-.17,5.749,5.749,0,0,1-.89-.42A3.38,3.38,0,0,1,99.87,443Z" fill="#263238"/><path d="M100,443.23a1.085,1.085,0,0,0,.5-.42,1.66,1.66,0,0,0,.24-.68,1,1,0,0,0-.29-.86.37.37,0,0,0-.5.15,1,1,0,0,0-.14.41,2.89,2.89,0,0,0,0,.71,1.32,1.32,0,0,0,.16.63s0-.25,0-.63a3.419,3.419,0,0,1,.06-.68c0-.23.18-.55.39-.44s.22.46.22.69a1.56,1.56,0,0,1-.19.63,3,3,0,0,1-.45.49Z" fill="#263238"/><path d="M88.69,432.52a5.5,5.5,0,0,1,.79.7,4.66,4.66,0,0,1,1.17,2.22,4.61,4.61,0,0,1-.2,2.5c-.23.62-.48.95-.45,1a.94.94,0,0,0,.19-.23,3.459,3.459,0,0,0,.37-.69,4.37,4.37,0,0,0,.26-2.58,4.42,4.42,0,0,0-1.25-2.27,3.781,3.781,0,0,0-.62-.49.8.8,0,0,0-.26-.16Z" fill="#263238"/><path d="M93.67,428.87a24.454,24.454,0,0,0-2,2.19,28,28,0,0,0-1.86,2.3,22,22,0,0,0,2-2.18,29,29,0,0,0,1.86-2.31Z" fill="#263238"/><path d="M92.25,439.07a8.27,8.27,0,0,0,1.48,1.5,7.881,7.881,0,0,0,1.73,1.22s-.73-.6-1.61-1.35A15.982,15.982,0,0,0,92.25,439.07Z" fill="#263238"/><path d="M90.09,437.26s-.07.2-.13.43-.15.4-.11.43.2-.12.28-.39S90.14,437.25,90.09,437.26Z" fill="#263238"/><path d="M90.12,435.56c-.05,0-.07.18-.05.39s.07.38.12.38.07-.18,0-.39S90.17,435.56,90.12,435.56Z" fill="#263238"/><path d="M89.34,434.12c0,.05.13.17.24.36s.16.38.21.38.08-.23-.06-.47S89.36,434.08,89.34,434.12Z" fill="#263238"/><path d="M88.69,433.21v.25a.185.185,0,0,0,.19.16c.04-.02,0-.14,0-.25A.185.185,0,0,0,88.69,433.21Z" fill="#263238"/><path d="M129.22,281.59s-4.79,20.26-3.43,24.27,10.13,6.32,10.13,6.32l-.3,55.49-48.52,60L105,442.31s52.54-60.09,57.17-71-3-90.65-3-90.65Z" fill="#263238"/><path d="M154,273.33l2.37,168.52L131.7,442,119.31,304.72h0c-2.62-2.5-6.31-6.78-5.8-16.33l.6-11.09Z" fill="#263238"/><path d="M128,377.05a1.15,1.15,0,0,1,.14-.25c.13-.18.28-.41.47-.69l1.83-2.59,6.7-9.28v.13c-.54-5.85-1.19-12.94-1.89-20.59-.9-10-1.62-19.1-2.05-25.69-.22-3.29-.36-5.95-.44-7.79,0-.88-.06-1.59-.07-2.13a3,3,0,0,1,0-.74,5,5,0,0,1,.09.74c0,.53.1,1.24.17,2.12.15,1.89.35,4.53.61,7.78.52,6.57,1.3,15.64,2.2,25.66.67,7.68,1.35,14.76,1.8,20.64v.13l-6.85,9.16-1.93,2.53-.52.65C128.05,377,128,377.06,128,377.05Z" fill="#455a64"/><path d="M135.56,307.43a33.6,33.6,0,0,1-6.54-1,33.549,33.549,0,0,1-6.38-1.74,55.229,55.229,0,0,1,6.49,1.23A57.823,57.823,0,0,1,135.56,307.43Z" fill="#455a64"/><path d="M152.46,365a25.07,25.07,0,0,0-6.66-1.74,25.141,25.141,0,0,0-6.86.67,5.44,5.44,0,0,1,1.92-.75,15.108,15.108,0,0,1,9.84.77,5.75,5.75,0,0,1,1.76,1.05Z" fill="#455a64"/><path d="M161.17,372.78c.11.09-6.83,9.41-15.51,20.81s-15.81,20.59-15.92,20.51,6.83-9.41,15.51-20.82S161.06,372.69,161.17,372.78Z" fill="#455a64"/><path d="M157.83,285.84a4.24,4.24,0,0,1-1.39,1.84,6.89,6.89,0,0,1-10.06-1.06,4.06,4.06,0,0,1-1-2.09,19.866,19.866,0,0,0,1.26,1.85,6.85,6.85,0,0,0,9.55,1A21.494,21.494,0,0,0,157.83,285.84Z" fill="#455a64"/><path d="M124.1,199.13a21.52,21.52,0,0,1-1.17-30" fill="#263238"/><path d="M110.23,214.85s-5.36,6.06-6.47,29.23c0,0,15.27,2.9,15.55,2.07S110.23,214.85,110.23,214.85Z" fill="#77cfd9"/><g opacity="0.3"><path d="M110.23,214.85s-5.36,6.06-6.47,29.23c0,0,15.27,2.9,15.55,2.07S110.23,214.85,110.23,214.85Z"/></g><path d="M112.71,282.34H159.6l-.76-7.33s-5.36-27.86-5.32-28.23l.84-1.77a17.67,17.67,0,0,0,.21-14.75h0l23-7.85-5.62-18.94c-10.42,1.75-26.17,3.72-26.17,3.72l-2.34.19s-16.26.85-16.61.89c-6.8.83-14.71,1.35-17.6,8.63-1.55,3.89-.08,9.73,2.45,15.75l6,18.5c2.4,10.17-1.43,9.68-3.54,19.92C113.8,272.61,112.68,280.92,112.71,282.34Z" fill="#f2884b"/><g transform="translate(-15)" opacity="0.3"><path d="M112.71,282.34H159.6l-.76-7.33s-5.36-27.86-5.32-28.23l.84-1.77a17.67,17.67,0,0,0,.21-14.75h0l23-7.85-5.62-18.94c-10.42,1.75-26.17,3.72-26.17,3.72l-2.34.19s-16.26.85-16.61.89c-6.8.83-14.71,1.35-17.6,8.63-1.55,3.89-.08,9.73,2.45,15.75l6,18.5c2.4,10.17-1.43,9.68-3.54,19.92C113.8,272.61,112.68,280.92,112.71,282.34Z" transform="translate(15)"/></g><path d="M177.31,222.72a5.12,5.12,0,0,1-1,.43c-.66.24-1.63.57-2.83,1-2.4.81-5.74,1.88-9.42,3.06s-7,2.35-9.3,3.31c-1.18.48-2.11.9-2.76,1.18a4.31,4.31,0,0,1-1,.4,5,5,0,0,1,.94-.59c.63-.33,1.54-.81,2.7-1.33a91.069,91.069,0,0,1,9.29-3.46c3.69-1.18,7-2.2,9.47-2.92,1.21-.36,2.2-.64,2.88-.83A4.259,4.259,0,0,1,177.31,222.72Z" fill="#263238"/><path d="M174.59,212.63c0,.14-13.87.26-31,.26s-31-.12-31-.26,13.86-.26,31-.26S174.59,212.49,174.59,212.63Z" fill="#fafafa"/><path d="M176,221.84c0,.14-15.43.26-34.46.26s-34.45-.12-34.45-.26,15.42-.26,34.45-.26S176,221.7,176,221.84Z" fill="#fafafa"/><path d="M111,232.32a8.31,8.31,0,0,1-2.88.26,8.27,8.27,0,0,1-2.87-.26,8.27,8.27,0,0,1,2.87-.26A8.31,8.31,0,0,1,111,232.32Z" fill="#fafafa"/><path d="M156,232.64c0,.14-10.09.26-22.53.26s-22.53-.12-22.53-.26,10.08-.26,22.53-.26S156,232.49,156,232.64Z" fill="#fafafa"/><path d="M155,243.43c0,.15-9.06.26-20.22.26s-20.23-.11-20.23-.26,9.05-.26,20.23-.26S155,243.29,155,243.43Z" fill="#fafafa"/><path d="M154.72,253.44c0,.14-8.2.26-18.32.26s-18.34-.12-18.34-.26,8.21-.26,18.34-.26S154.72,253.29,154.72,253.44Z" fill="#fafafa"/><path d="M156.33,261.53c0,.15-8.78.26-19.61.26s-19.61-.11-19.61-.26,8.78-.26,19.61-.26S156.33,261.39,156.33,261.53Z" fill="#fafafa"/><path d="M158.87,271.85c0,.15-10,.26-22.31.26s-22.31-.11-22.31-.26,10-.26,22.31-.26S158.87,271.71,158.87,271.85Z" fill="#fafafa"/><path d="M117.37,250.28a3.14,3.14,0,0,1-.42-.92l-1-2.56c-.83-2.16-2-5.14-3.2-8.47s-2.21-6.37-2.84-8.6c-.31-1.12-.55-2-.68-2.66a4.271,4.271,0,0,1-.17-1,35.228,35.228,0,0,1,1.2,3.55c.72,2.2,1.77,5.22,3,8.54s2.31,6.32,3,8.52c.37,1.1.65,2,.83,2.62a4,4,0,0,1,.28.98Z" fill="#263238"/></g></svg>