<svg xmlns="http://www.w3.org/2000/svg" width="120" height="120" viewBox="0 0 120 120"><g transform="translate(-1011.25 -644.443)"><g transform="translate(1011.25 644.443)"><rect width="120" height="120" fill="none"/><path d="M60,10h0a50,50,0,0,1,50,50v50H60A50,50,0,0,1,10,60h0A50,50,0,0,1,60,10Z" transform="translate(120 120) rotate(180)" fill="#043f45"/></g><g transform="translate(1037.24 667.977)"><g transform="translate(0)"><path d="M64.371,6.813H41.661V4.542A4.555,4.555,0,0,0,37.119,0H5.326A4.555,4.555,0,0,0,.784,4.542V29.522c0,12.49,11.923,12.49,15.9,12.49a1.135,1.135,0,1,0,0-2.271A4.555,4.555,0,0,1,12.139,35.2v-.454a4.776,4.776,0,0,1,4.769-4.088h15.67v2.271H22.358a1.073,1.073,0,0,0-1.135,1.135,10.2,10.2,0,0,0,2.725,6.926,10.977,10.977,0,0,0-.454,3.293A11.475,11.475,0,0,0,30.306,54.73c0,.681-.341,2.044-3.406,2.044a5.622,5.622,0,0,0-5.677,5.677v5.677h2.271V62.451a3.373,3.373,0,0,1,3.179-3.406l5.564,2.725a7.884,7.884,0,0,0,1.476.568v5.791h2.271V62.338a5.621,5.621,0,0,0,1.476-.454l5.564-2.725A3.373,3.373,0,0,1,46.2,62.565v5.677h2.271V62.565A5.622,5.622,0,0,0,42.8,56.887c-3.066,0-3.406-1.363-3.406-2.044A11.3,11.3,0,0,0,46.2,44.057v-.795a9,9,0,0,0-1.135-4.542h7.608a4.776,4.776,0,0,1,4.769,4.088,4.581,4.581,0,0,1-4.088,5H52.9a1.135,1.135,0,0,0,0,2.271c3.974,0,15.9,0,15.9-12.49V11.355A4.389,4.389,0,0,0,64.371,6.813ZM16.908,28.387a7.1,7.1,0,0,0-7.04,6.132,7.14,7.14,0,0,0,1.363,4.769c-5.564-1.135-8.175-4.2-8.175-9.765V4.542A2.278,2.278,0,0,1,5.326,2.271H37.119A2.278,2.278,0,0,1,39.39,4.542V26.116a2.278,2.278,0,0,1-2.271,2.271Zm6.7,6.813H35.984a7.945,7.945,0,0,1,7.835,6.813H31.442A7.945,7.945,0,0,1,23.607,35.2ZM37.914,52.8a1.091,1.091,0,0,0-.795,1.022V54.5a4,4,0,0,0,2.271,3.861L36.438,59.84a4.149,4.149,0,0,1-3.293,0l-2.839-1.476A4,4,0,0,0,32.577,54.5v-.568a1.091,1.091,0,0,0-.795-1.022,9.194,9.194,0,0,1-6.018-8.63,6.983,6.983,0,0,1,.114-1.59,10.282,10.282,0,0,0,5.564,1.59h12.49A8.94,8.94,0,0,1,37.914,52.8ZM66.642,37.471c0,5.564-2.612,8.63-8.175,9.765a7.14,7.14,0,0,0,1.363-4.769,7.015,7.015,0,0,0-7.04-6.132h-9.2a10.151,10.151,0,0,0-7.608-3.406H34.848V30.658h2.271a4.555,4.555,0,0,0,4.542-4.542V9.084h22.71a2.278,2.278,0,0,1,2.271,2.271V37.471Z" transform="translate(-0.784)" fill="#fff"/></g><g transform="translate(9.084 4.542)"><path d="M81.816,39.948H80.681a1.073,1.073,0,0,1-1.135-1.135V35.406a3.406,3.406,0,1,0-6.813,0v3.406A1.073,1.073,0,0,1,71.6,39.948a1.073,1.073,0,0,0-1.135-1.135H65.919a1.073,1.073,0,0,0-1.135,1.135v12.49a1.073,1.073,0,0,0,1.135,1.135h4.542A1.073,1.073,0,0,0,71.6,52.439H81.816a3.346,3.346,0,0,0,3.406-3.406V43.355A3.346,3.346,0,0,0,81.816,39.948ZM69.326,51.3H67.055V41.084h2.271Zm13.626-2.271a1.073,1.073,0,0,1-1.135,1.135H71.6V42.219A3.346,3.346,0,0,0,75,38.813V35.406a1.135,1.135,0,0,1,2.271,0v3.406a3.346,3.346,0,0,0,3.406,3.406h1.135a1.073,1.073,0,0,1,1.135,1.135Z" transform="translate(-64.784 -32)" fill="#fff"/></g><g transform="translate(43.148 11.355)"><path d="M324.087,80h-4.542a1.073,1.073,0,0,0-1.135,1.135H308.19a3.346,3.346,0,0,0-3.406,3.406v5.677a3.346,3.346,0,0,0,3.406,3.406h1.135a1.073,1.073,0,0,1,1.135,1.135v3.406a3.406,3.406,0,1,0,6.813,0V94.761a1.073,1.073,0,0,1,1.135-1.135,1.073,1.073,0,0,0,1.135,1.135h4.542a1.073,1.073,0,0,0,1.135-1.135V81.135A1.073,1.073,0,0,0,324.087,80ZM318.41,91.355A3.346,3.346,0,0,0,315,94.761v3.406a1.135,1.135,0,0,1-2.271,0V94.761a3.346,3.346,0,0,0-3.406-3.406H308.19a1.073,1.073,0,0,1-1.135-1.135V84.542a1.073,1.073,0,0,1,1.135-1.135H318.41Zm4.542,1.135h-2.271V82.271h2.271Z" transform="translate(-304.784 -80)" fill="#fff"/></g><g transform="translate(41.895 29.424)"><g transform="translate(0 0)"><rect width="4.675" height="2.475" fill="#fff"/></g></g><g transform="translate(27.251 4.542)"><path d="M196.19,33.135V32h-2.271v1.135h-1.135v2.271h1.135v1.135h2.271V35.406h1.135V33.135Z" transform="translate(-192.784 -32)" fill="#fff"/></g></g></g></svg>