<svg xmlns="http://www.w3.org/2000/svg" width="99.547" height="99.444" viewBox="0 0 99.547 99.444">
  <g id="Grupo_79077" data-name="Grupo 79077" transform="translate(-406 -7192)">
    <g id="Grupo_53772" data-name="Grupo 53772" transform="translate(406.476 7192)">
      <path id="Rectángulo_5173" data-name="Rectángulo 5173" d="M47,0H99.547a0,0,0,0,1,0,0V52.444a47,47,0,0,1-47,47H47a47,47,0,0,1-47-47V47A47,47,0,0,1,47,0Z" transform="translate(-0.476)" fill="#77cfd9"/>
      <g id="Grupo_77030" data-name="Grupo 77030" transform="translate(-9.788 5.27)">
        <rect id="Rectángulo_33242" data-name="Rectángulo 33242" width="55.041" height="64.613" transform="translate(35.332 13.444)" fill="#fff"/>
        <g id="Grupo_77030-2" data-name="Grupo 77030" transform="translate(35.333 13.447)" opacity="0.25" style="isolation: isolate">
          <path id="Trazado_101270" data-name="Trazado 101270" d="M94.013,107.453V42.84h4.148c0,35.684,4.053,64.613,26.962,64.613Z" transform="translate(-94.013 -42.84)" fill="#e8e8e8"/>
        </g>
        <g id="Grupo_77031" data-name="Grupo 77031" transform="translate(45.837 19.427)">
          <rect id="Rectángulo_33243" data-name="Rectángulo 33243" width="14.358" height="7.179" transform="translate(0)" fill="#419ca6"/>
          <rect id="Rectángulo_33244" data-name="Rectángulo 33244" width="14.358" height="7.179" transform="translate(0 13.162)" fill="#419ca6"/>
        </g>
        <g id="Grupo_77032" data-name="Grupo 77032" transform="translate(45.838 32.591)" opacity="0.5" style="isolation: isolate">
          <path id="Trazado_101271" data-name="Trazado 101271" d="M168.906,186.5v-7.179h3.59a7.179,7.179,0,0,0,7.179,7.179Z" transform="translate(-168.906 -179.324)" fill="#77cfd9"/>
        </g>
        <g id="Grupo_77033" data-name="Grupo 77033" transform="translate(45.838 19.429)" opacity="0.5" style="isolation: isolate">
          <path id="Trazado_101272" data-name="Trazado 101272" d="M168.906,92.67V85.491h3.59a7.179,7.179,0,0,0,7.179,7.179Z" transform="translate(-168.906 -85.491)" fill="#77cfd9"/>
        </g>
        <path id="Trazado_101273" data-name="Trazado 101273" d="M40.12,30.2V26.514a9.572,9.572,0,1,0-9.572,0V30.2Z" transform="translate(-0.001)" fill="#fcbf29"/>
        <path id="Trazado_101276" data-name="Trazado 101276" d="M0,0H9.572V4.786H0Z" transform="translate(30.546 30.196)" fill="#f26d3d"/>
        <rect id="Rectángulo_33246" data-name="Rectángulo 33246" width="4.786" height="8.376" transform="translate(30.546 34.982)" fill="#fad9c5"/>
        <g id="Grupo_77034" data-name="Grupo 77034" transform="translate(25.759 9.916)" opacity="0.5" style="isolation: isolate">
          <path id="Trazado_101274" data-name="Trazado 101274" d="M38.922,31.968a9.564,9.564,0,0,1-8.317-14.3,9.559,9.559,0,0,0-.059,16.6v3.684h9.572V34.266a9.641,9.641,0,0,0,3.524-3.549A9.5,9.5,0,0,1,38.922,31.968Z" transform="translate(-25.759 -17.668)" fill="#f28d01"/>
        </g>
        <rect id="Rectángulo_33247" data-name="Rectángulo 33247" width="4.786" height="8.376" transform="translate(35.332 34.982)" fill="#f2884b"/>
        <path id="Trazado_101275" data-name="Trazado 101275" d="M59.892,256.1h9.572l-4.786,5.983Z" transform="translate(-29.345 -212.735)" fill="#f26d3d"/>
        <g id="Grupo_77035" data-name="Grupo 77035" transform="translate(46.1 43.36)">
          <rect id="Rectángulo_33248" data-name="Rectángulo 33248" width="2.047" height="2.393"/>
          <rect id="Rectángulo_33249" data-name="Rectángulo 33249" width="12.28" height="2.393" transform="translate(4.093)"/>
          <rect id="Rectángulo_33250" data-name="Rectángulo 33250" width="16.373" height="2.393" transform="translate(0 7.179)"/>
          <rect id="Rectángulo_33251" data-name="Rectángulo 33251" width="2.047" height="2.393" transform="translate(22.513)"/>
          <rect id="Rectángulo_33252" data-name="Rectángulo 33252" width="12.28" height="2.393" transform="translate(26.606)"/>
          <rect id="Rectángulo_33253" data-name="Rectángulo 33253" width="16.373" height="2.393" transform="translate(22.513 7.179)"/>
          <rect id="Rectángulo_33254" data-name="Rectángulo 33254" width="2.047" height="2.393" transform="translate(0 16.522)"/>
          <rect id="Rectángulo_33255" data-name="Rectángulo 33255" width="12.28" height="2.393" transform="translate(4.093 16.522)"/>
          <rect id="Rectángulo_33256" data-name="Rectángulo 33256" width="16.373" height="2.393" transform="translate(0 25.087)"/>
          <rect id="Rectángulo_33257" data-name="Rectángulo 33257" width="2.047" height="2.393" transform="translate(22.513 16.522)"/>
          <rect id="Rectángulo_33258" data-name="Rectángulo 33258" width="12.28" height="2.393" transform="translate(26.606 16.522)"/>
          <rect id="Rectángulo_33259" data-name="Rectángulo 33259" width="16.373" height="2.393" transform="translate(22.513 25.087)"/>
        </g>
        <rect id="Rectángulo_33260" data-name="Rectángulo 33260" width="3.532" height="2.393" transform="translate(60.86 19.427)"/>
        <rect id="Rectángulo_33261" data-name="Rectángulo 33261" width="17.661" height="2.393" transform="translate(67.925 19.427)"/>
        <rect id="Rectángulo_33262" data-name="Rectángulo 33262" width="24.726" height="2.393" transform="translate(60.86 24.213)"/>
        <rect id="Rectángulo_33263" data-name="Rectángulo 33263" width="3.532" height="2.393" transform="translate(60.86 32.589)"/>
        <rect id="Rectángulo_33264" data-name="Rectángulo 33264" width="17.661" height="2.393" transform="translate(67.925 32.589)"/>
        <rect id="Rectángulo_33265" data-name="Rectángulo 33265" width="24.726" height="2.393" transform="translate(60.86 37.375)"/>
      </g>
    </g>
  </g>
</svg>
