<svg xmlns="http://www.w3.org/2000/svg" width="504.345" height="415.447" viewBox="0 0 504.345 415.447"><g transform="translate(-197.655 -4787)"><g transform="translate(226.631 4786.997)"><path d="M80.77,407.28c92.82,59.56,243.31,59.56,336.13,0s92.83-156.13,0-215.69-243.31-59.57-336.13,0S-12,347.72,80.77,407.28Z" transform="translate(-11.15 -36.5)" fill="#12263f" opacity="0.05"/><path d="M118.25,166.75,96.07,179.56,358.55,343.91l44.37-25.61Z" fill="#77cfd9"/><path d="M84.98,160.34l-3.7,27.75,51.76-29.88Z" fill="#77cfd9"/><path d="M384.49,371.87l-33.27,19.21L316.1,370.81c-36-20.75-81.24-34.92-131-41a451.867,451.867,0,0,0-110.92.38l-6.1-15.1,22.7-3.52a461.208,461.208,0,0,1,124.5-1.94c50.91,6.2,97.27,20.7,134.06,41.94Z" transform="translate(-11.15 -36.5)" fill="#77cfd9"/><path d="M50.64,264.94l20.33,43.8L29.96,291.67Z" fill="#77cfd9"/><path d="M432.55,344.13l-33.27,19.21-35.12-20.28c-36.79-21.24-61.91-48-72.65-77.4-8.64-23.66-7.48-48.52,3.37-71.88l6.08-13.1L329.74,178c-10.59,22.82-11.73,47.11-3.28,70.22,10.49,28.72,35,54.87,71,75.62Z" transform="translate(-11.15 -36.5)" fill="#77cfd9"/><path d="M263.35,143.38l75.86,11.74-29.57-23.68Z" fill="#77cfd9"/><path d="M328.98,348.18l36.96,21.35,81.34-46.96-36.97-21.35Z" fill="#77cfd9"/><ellipse cx="38.97" cy="22.5" rx="38.97" ry="22.5" transform="translate(335.4 302.87)" opacity="0.1"/><path d="M212.93,256.59c4.09,2.36,4.09,6.19,0,8.55a16.35,16.35,0,0,1-14.8,0c-4.09-2.36-4.09-6.19,0-8.55a16.35,16.35,0,0,1,14.8,0Z" transform="translate(-11.15 -36.5)" opacity="0.1"/><path d="M218.9,169h0l-9.32-5.38h0c-2.22-1.28-5.39-1-9.47,1.36-8.94,5.17-13.49,14.91-13.49,24.11,0,4.88,1.28,8.48,3.82,10l9.31,5.4h0c2.24,1.35,5.46,1.08,9.63-1.33,9-5.16,13.34-15,13.34-24.22C222.72,174.05,221.43,170.48,218.9,169Z" transform="translate(-11.15 -36.5)" fill="#37474f"/><path d="M240.72,44.19l-9.48-5.45c-6.71-3.84-16.46-2.92-28.78,4.19C180.18,55.8,164.81,80.36,160.1,106.3l9.27,5.36,24.79-5.53C197,95.3,201.22,87.62,211,82a23,23,0,0,1,4-1.85,19.848,19.848,0,0,1,.27,3.35c0,8.37-5.65,17.91-28.24,40.37v35.56l9.27,5.35,26.52-15.3V129.81C235.9,115.72,251,94.68,251,68.94,251,56.84,247.4,48.12,240.72,44.19Z" transform="translate(-11.15 -36.5)" fill="#37474f"/><path d="M196.2,129.22c22.6-22.46,28.25-32,28.25-40.36,0-7.33-3.3-12.75-13.5-6.86-9.73,5.62-14,13.3-16.79,24.13l-24.79,5.53c4.71-25.94,20.09-50.51,42.37-63.37C236.53,34,251,44.68,251,68.94c0,25.74-15.06,46.78-28.24,60.87v19.67l-26.52,15.3Z" transform="translate(-11.15 -36.5)" fill="#455a64"/><path d="M195.89,194.45c0-9.21,4.55-18.95,13.49-24.11,8.79-5.07,13.34-.59,13.34,8.62s-4.39,19.06-13.34,24.22S195.89,203.65,195.89,194.45Z" transform="translate(-11.15 -36.5)" fill="#455a64"/><path d="M224.45,88.86c0,8.37-5.65,17.9-28.25,40.36l-9.27-5.35c22.6-22.47,28.24-32,28.24-40.37a18.75,18.75,0,0,0-.27-3.34C222,77.7,224.45,82.58,224.45,88.86Z" transform="translate(-11.15 -36.5)" fill="#263238"/><path d="M400.76,205.9c3.93-.93,8.25,1.86,10.78,8s7.58,21.89,8.63,26c.47,1.84-13.53,18.17-13,17.93.15-.07-4.56-8-4.56-8l6.79-10.46-4.25-11.35Z" transform="translate(-11.15 -36.5)" fill="#ffa8a7"/><path d="M409.82,352c.53.2.66,1.21.74,3.23.06,1.52.39,4.19-1.39,4.72s-4.41.26-5.55-1.18c-1.43-1.79-2.4-3.37-4.44-5.56-1.77-1.9-3.68-3.67-4.39-6.34-.65-2.4-.11-3.45,1.53-4.15,2.26-1,5.81,2.18,7.58,2.68C405.42,345.87,409.28,351.84,409.82,352Z" transform="translate(-11.15 -36.5)" fill="#263238"/><path d="M409.82,350.17v2.48a6.09,6.09,0,0,1-6.26.17c-.1-.24-.65-5-.65-5Z" transform="translate(-11.15 -36.5)" fill="#ffa8a7"/><path d="M391.4,365.19s.71,2.15,1.1,4c.3,1.5.74,4,.21,5.12s-2.57,1.85-5.73,1.83c-2.05,0-5.25,1.38-7.44,2.6a11.42,11.42,0,0,1-7.11,1c-2.82-.34-5.74-2-6.19-3.14s.13-1.73,6.77-4.56c.06,0,7-3.16,10.22-6.71Z" transform="translate(-11.15 -36.5)" fill="#263238"/><path d="M391.4,362.51v2.89c0,1.05-1.23,2.61-4.43,2.5-2.26-.08-3.83-.69-3.74-2.55v-2.67Z" transform="translate(-11.15 -36.5)" fill="#ffa8a7"/><path d="M412.25,315.87a58.382,58.382,0,0,0-3-12.73s1.4-10.94,2.21-21.46c1.45-18.85.28-25-3.42-33.47,0,0-31.63-3.2-32.6,9.94-1.2,16.37.4,48,.83,53.79s1,8.39,3,20.47c1.56,9.19,4,30.27,4,30.27a8.66,8.66,0,0,0,8.17-.17s2.59-26.32,2.32-33A56.85,56.85,0,0,0,391.19,315s2-26.68,2.53-30.93c0,0,1,8.47,1.42,14.25s2.15,11.31,3.83,22.05c1.45,9.31,4.14,30.14,4.14,30.14,4.2,2.27,6.88-.25,6.88-.25S413.39,324,412.25,315.87Z" transform="translate(-11.15 -36.5)" fill="#37474f"/><path d="M373.41,165.14l1.49,12.22,10.74-.97-1.22-13.56Z" fill="#ffa8a7"/><path d="M408.59,212c-1.18-3.21-5.2-6.79-9.33-6-1.08.2-2,.36-3,.56-.09,2.82-5.4,4.28-10.68,2.57-1.59.45-3.05.92-4.37,1.39-3.78,1.35-5.3,7.63-5.39,18.14s-1.2,36.73-1.2,36.73l4.42,1.39,2.07-7.67.83,9.18a32.84,32.84,0,0,0,15.27-.07c11.37-2.48,14.9-8.62,14.9-8.62a55.22,55.22,0,0,0-8.1-19.86C409.66,224.58,410.34,216.79,408.59,212Z" transform="translate(-11.15 -36.5)" fill="#f2884b"/><path d="M364.54,197.39l6.69-7.6-6.86,13.68Z" opacity="0.2"/><path d="M383.27,209.76s-6.57.52-9.38,4.78-13.83,20-13.83,20-17.53-8.77-18.39-9.81-.37-3.14-.14-4.3.63-3.73.89-4.45c.45-1.26-1.42-.92-2.51.26s-1.59,3.48-2.14,3.88-4.72-4.4-6.74-6.72-3-3.93-4.33-3c-1,.69-.35,2.07,1.1,4.05a24.373,24.373,0,0,1,1.87,2.63c.18.35-.36.63-.57.82-.39.36-1.09.93-1.14,1.48a5.375,5.375,0,0,1,0,.9c-.19.66-1,1-1.24,1.62a8.005,8.005,0,0,0-.08,1.47c-.06.32-.23.6-.29.92A2.2,2.2,0,0,0,327,226c1.42,1.69,3.37,2.34,5.23,3.37,1.55.86,3.15,1.23,4.93,2s22.85,16.94,26.13,15.14S383,225.62,383,225.62C388.54,216.72,383.27,209.76,383.27,209.76Z" transform="translate(-11.15 -36.5)" fill="#ffa8a7"/><path d="M378.53,186.57s-4.2-4.73-1.14-9.54c3.61-5.66,10.56-6.63,18.8-4.42a14.62,14.62,0,0,1,10.31,13.27c.39,6-16.46,10.5-16.07,14.64Z" transform="translate(-11.15 -36.5)" fill="#263238"/><path d="M376.22,188.41s-2.29,3.67-2,4a5.779,5.779,0,0,0,1.85.74Z" transform="translate(-11.15 -36.5)" fill="#f28f8f"/><path d="M383.19,176.8c-2.28,1.26-6.23,3.58-7,12.14-.82,8.79,1.22,11.78,2.44,12.9.83.75,5,.92,7.15.19,2.69-.92,8.5-4,11.13-8.58,3.1-5.41,3.58-12.52-.24-15.2C391.27,174.48,385.13,175.73,383.19,176.8Z" transform="translate(-11.15 -36.5)" fill="#ffa8a7"/><path d="M382.52,177.18s-1.8,8,.75,13c0,0,1.33-3.16,4-2.34s2.57,4.43.5,6.33a4,4,0,0,1-4.16,1,17.93,17.93,0,0,0,4,6.07s8,3.57,14.94-4.26c6.29-7.1,5.12-19.49-4.51-22.41S382.52,177.18,382.52,177.18Z" transform="translate(-11.15 -36.5)" fill="#263238"/><path d="M383.65,195.21v11l12.93-1.77a11.48,11.48,0,0,0,9.92-11.37v-7.22l-10.26,6.57-4.85,4.29-4.91-.4Z" transform="translate(-11.15 -36.5)" fill="#263238"/><path d="M376.27,173.75c-3.46,3.72-3.38,14.17,7,16.47l6.25-18.69C385.52,169.08,379.36,170.44,376.27,173.75Z" transform="translate(-11.15 -36.5)" fill="#263238"/><path d="M382.31,193.11a2.038,2.038,0,0,1,1.28-3.87Z" transform="translate(-11.15 -36.5)" fill="#263238"/><path d="M393.72,284l.6-6.39A24.2,24.2,0,0,0,404,274s-2.05,3.29-7.69,4.79l-.59,8.14-.35,13.33Z" transform="translate(-11.15 -36.5)" fill="#263238"/></g><circle cx="20" cy="20" r="20" transform="translate(524.655 4801)" fill="#f26d3d"/><circle cx="20" cy="20" r="20" transform="translate(274.655 4833)" fill="#51b51f"/><circle cx="20" cy="20" r="20" transform="translate(197.655 5022.447)" fill="#331fb5"/></g></svg>